<svg width="300" height="400" viewBox="0 0 300 400" fill="none" xmlns="http://www.w3.org/2000/svg">
<rect width="300" height="400" fill="#FF7B00" fill-opacity="0.08"/>
<mask id="mask0" mask-type="alpha" maskUnits="userSpaceOnUse" x="0" y="0" width="300" height="400">
<rect width="300" height="400" fill="#676767"/>
</mask>
<g mask="url(#mask0)">
<line y1="-1.5" x2="1663.33" y2="-1.5" transform="matrix(0.623135 -0.855187 0.857479 -0.395635 36.8612 1200.01)" stroke="#FF7B00" stroke-opacity="0.5" stroke-width="3"/>
<line y1="-1.5" x2="1663.33" y2="-1.5" transform="matrix(0.623135 -0.855187 0.857479 -0.395635 41.8647 1213.06)" stroke="#FF7B00" stroke-opacity="0.5" stroke-width="3"/>
<line y1="-1.5" x2="1663.33" y2="-1.5" transform="matrix(0.623135 -0.855187 0.857479 -0.395635 46.8679 1226.11)" stroke="#FF7B00" stroke-opacity="0.5" stroke-width="3"/>
<line y1="-1.5" x2="1663.33" y2="-1.5" transform="matrix(0.623135 -0.855187 0.857479 -0.395635 51.8713 1239.16)" stroke="#FF7B00" stroke-opacity="0.5" stroke-width="3"/>
<line y1="-1.5" x2="1663.33" y2="-1.5" transform="matrix(0.623135 -0.855187 0.857479 -0.395635 56.8746 1252.2)" stroke="#FF7B00" stroke-opacity="0.5" stroke-width="3"/>
<line y1="-1.5" x2="1663.33" y2="-1.5" transform="matrix(0.623135 -0.855187 0.857479 -0.395635 61.8778 1265.25)" stroke="#FF7B00" stroke-opacity="0.5" stroke-width="3"/>
<line y1="-1.5" x2="1663.33" y2="-1.5" transform="matrix(0.623135 -0.855187 0.857479 -0.395634 66.8816 1278.3)" stroke="#FF7B00" stroke-opacity="0.5" stroke-width="3"/>
<line y1="-1.5" x2="1663.33" y2="-1.5" transform="matrix(0.623135 -0.855187 0.857479 -0.395635 71.8848 1291.35)" stroke="#FF7B00" stroke-opacity="0.5" stroke-width="3"/>
<line y1="-1.5" x2="1663.33" y2="-1.5" transform="matrix(0.623135 -0.855187 0.857479 -0.395635 76.8883 1304.39)" stroke="#FF7B00" stroke-opacity="0.5" stroke-width="3"/>
<line y1="-1.5" x2="1663.33" y2="-1.5" transform="matrix(0.623135 -0.855187 0.857479 -0.395635 81.8916 1317.44)" stroke="#FF7B00" stroke-opacity="0.5" stroke-width="3"/>
<line y1="-1.5" x2="1663.33" y2="-1.5" transform="matrix(0.623135 -0.855187 0.857479 -0.395635 86.8948 1330.49)" stroke="#FF7B00" stroke-opacity="0.5" stroke-width="3"/>
<line y1="-1.5" x2="1663.33" y2="-1.5" transform="matrix(0.623135 -0.855187 0.857479 -0.395635 91.8983 1343.54)" stroke="#FF7B00" stroke-opacity="0.5" stroke-width="3"/>
<line y1="-1.5" x2="1663.33" y2="-1.5" transform="matrix(0.623135 -0.855187 0.857479 -0.395635 96.9015 1356.58)" stroke="#FF7B00" stroke-opacity="0.5" stroke-width="3"/>
<line y1="-1.5" x2="1663.33" y2="-1.5" transform="matrix(0.623135 -0.855187 0.857479 -0.395635 101.905 1369.63)" stroke="#FF7B00" stroke-opacity="0.5" stroke-width="3"/>
<line y1="-1.5" x2="1663.33" y2="-1.5" transform="matrix(0.623135 -0.855187 0.857479 -0.395635 106.908 1382.68)" stroke="#FF7B00" stroke-opacity="0.5" stroke-width="3"/>
<line y1="-1.5" x2="1663.33" y2="-1.5" transform="matrix(0.623135 -0.855187 0.857479 -0.395635 111.911 1395.73)" stroke="#FF7B00" stroke-opacity="0.5" stroke-width="3"/>
<line y1="-1.5" x2="1663.33" y2="-1.5" transform="matrix(0.623135 -0.855187 0.857479 -0.395635 116.915 1408.77)" stroke="#FF7B00" stroke-opacity="0.5" stroke-width="3"/>
<line y1="-1.5" x2="1663.33" y2="-1.5" transform="matrix(0.623135 -0.855187 0.857479 -0.395635 121.918 1421.82)" stroke="#FF7B00" stroke-opacity="0.5" stroke-width="3"/>
<line y1="-1.5" x2="1663.33" y2="-1.5" transform="matrix(0.623135 -0.855187 0.857479 -0.395635 126.922 1434.87)" stroke="#FF7B00" stroke-opacity="0.5" stroke-width="3"/>
<line y1="-1.5" x2="1663.33" y2="-1.5" transform="matrix(0.623135 -0.855187 0.857479 -0.395635 131.925 1447.92)" stroke="#FF7B00" stroke-opacity="0.5" stroke-width="3"/>
<line y1="-1.5" x2="1663.33" y2="-1.5" transform="matrix(0.623135 -0.855187 0.857479 -0.395635 136.928 1460.96)" stroke="#FF7B00" stroke-opacity="0.5" stroke-width="3"/>
<line y1="-1.5" x2="1663.33" y2="-1.5" transform="matrix(0.623135 -0.855187 0.857479 -0.395635 141.932 1474.01)" stroke="#FF7B00" stroke-opacity="0.5" stroke-width="3"/>
<line y1="-1.5" x2="1663.33" y2="-1.5" transform="matrix(0.623135 -0.855187 0.857479 -0.395635 146.935 1487.06)" stroke="#FF7B00" stroke-opacity="0.5" stroke-width="3"/>
<line y1="-1.5" x2="1663.33" y2="-1.5" transform="matrix(0.623135 -0.855187 0.857479 -0.395635 151.938 1500.11)" stroke="#FF7B00" stroke-opacity="0.5" stroke-width="3"/>
<line y1="-1.5" x2="1663.33" y2="-1.5" transform="matrix(0.623135 -0.855187 0.857479 -0.395635 156.942 1513.15)" stroke="#FF7B00" stroke-opacity="0.5" stroke-width="3"/>
<line y1="-1.5" x2="1663.33" y2="-1.5" transform="matrix(0.623135 -0.855186 0.857479 -0.395634 161.945 1526.2)" stroke="#FF7B00" stroke-opacity="0.5" stroke-width="3"/>
<line y1="-1.5" x2="1663.33" y2="-1.5" transform="matrix(0.623135 -0.855187 0.857479 -0.395634 166.948 1539.25)" stroke="#FF7B00" stroke-opacity="0.5" stroke-width="3"/>
<line y1="-1.5" x2="1663.33" y2="-1.5" transform="matrix(0.623135 -0.855187 0.857479 -0.395635 171.952 1552.3)" stroke="#FF7B00" stroke-opacity="0.5" stroke-width="3"/>
<line y1="-1.5" x2="1663.33" y2="-1.5" transform="matrix(0.623135 -0.855187 0.857479 -0.395635 176.955 1565.34)" stroke="#FF7B00" stroke-opacity="0.5" stroke-width="3"/>
<line y1="-1.5" x2="1663.33" y2="-1.5" transform="matrix(0.623135 -0.855187 0.857479 -0.395635 31.8578 1186.96)" stroke="#FF7B00" stroke-opacity="0.5" stroke-width="3"/>
<line y1="-1.5" x2="1663.33" y2="-1.5" transform="matrix(0.623135 -0.855187 0.857479 -0.395635 186.891 1591.25)" stroke="#FF7B00" stroke-opacity="0.5" stroke-width="3"/>
<line y1="-1.5" x2="1663.33" y2="-1.5" transform="matrix(0.623135 -0.855187 0.857479 -0.395635 191.894 1604.3)" stroke="#FF7B00" stroke-opacity="0.5" stroke-width="3"/>
<line y1="-1.5" x2="1663.33" y2="-1.5" transform="matrix(0.623135 -0.855187 0.857479 -0.395635 196.898 1617.35)" stroke="#FF7B00" stroke-opacity="0.5" stroke-width="3"/>
<line y1="-1.5" x2="1663.33" y2="-1.5" transform="matrix(0.623135 -0.855187 0.857479 -0.395635 201.901 1630.4)" stroke="#FF7B00" stroke-opacity="0.5" stroke-width="3"/>
<line y1="-1.5" x2="1663.33" y2="-1.5" transform="matrix(0.623135 -0.855187 0.857479 -0.395635 206.904 1643.44)" stroke="#FF7B00" stroke-opacity="0.5" stroke-width="3"/>
<line y1="-1.5" x2="1663.33" y2="-1.5" transform="matrix(0.623135 -0.855186 0.857479 -0.395634 211.907 1656.49)" stroke="#FF7B00" stroke-opacity="0.5" stroke-width="3"/>
<line y1="-1.5" x2="1663.33" y2="-1.5" transform="matrix(0.623135 -0.855187 0.857479 -0.395635 216.911 1669.54)" stroke="#FF7B00" stroke-opacity="0.5" stroke-width="3"/>
<line y1="-1.5" x2="1663.33" y2="-1.5" transform="matrix(0.623135 -0.855187 0.857479 -0.395635 221.914 1682.59)" stroke="#FF7B00" stroke-opacity="0.5" stroke-width="3"/>
<line y1="-1.5" x2="1663.33" y2="-1.5" transform="matrix(0.623135 -0.855187 0.857479 -0.395635 226.918 1695.63)" stroke="#FF7B00" stroke-opacity="0.5" stroke-width="3"/>
<line y1="-1.5" x2="1663.33" y2="-1.5" transform="matrix(0.623135 -0.855187 0.857479 -0.395635 231.921 1708.68)" stroke="#FF7B00" stroke-opacity="0.5" stroke-width="3"/>
<line y1="-1.5" x2="1663.33" y2="-1.5" transform="matrix(0.623135 -0.855187 0.857479 -0.395635 236.924 1721.73)" stroke="#FF7B00" stroke-opacity="0.5" stroke-width="3"/>
<line y1="-1.5" x2="1663.33" y2="-1.5" transform="matrix(0.623135 -0.855187 0.857479 -0.395635 241.928 1734.78)" stroke="#FF7B00" stroke-opacity="0.5" stroke-width="3"/>
<line y1="-1.5" x2="1663.33" y2="-1.5" transform="matrix(0.623135 -0.855187 0.857479 -0.395635 246.931 1747.82)" stroke="#FF7B00" stroke-opacity="0.5" stroke-width="3"/>
<line y1="-1.5" x2="1663.33" y2="-1.5" transform="matrix(0.623135 -0.855187 0.857479 -0.395635 251.934 1760.87)" stroke="#FF7B00" stroke-opacity="0.5" stroke-width="3"/>
<line y1="-1.5" x2="1663.33" y2="-1.5" transform="matrix(0.623135 -0.855187 0.857479 -0.395635 256.938 1773.92)" stroke="#FF7B00" stroke-opacity="0.5" stroke-width="3"/>
<line y1="-1.5" x2="1663.33" y2="-1.5" transform="matrix(0.623135 -0.855186 0.857479 -0.395634 261.941 1786.97)" stroke="#FF7B00" stroke-opacity="0.5" stroke-width="3"/>
<line y1="-1.5" x2="1663.33" y2="-1.5" transform="matrix(0.623135 -0.855186 0.857479 -0.395634 266.945 1800.01)" stroke="#FF7B00" stroke-opacity="0.5" stroke-width="3"/>
<line y1="-1.5" x2="1663.33" y2="-1.5" transform="matrix(0.623135 -0.855187 0.857479 -0.395635 271.948 1813.06)" stroke="#FF7B00" stroke-opacity="0.5" stroke-width="3"/>
<line y1="-1.5" x2="1663.33" y2="-1.5" transform="matrix(0.623135 -0.855186 0.857479 -0.395634 181.888 1578.21)" stroke="#FF7B00" stroke-opacity="0.5" stroke-width="3"/>
<line y1="-1.5" x2="1663.33" y2="-1.5" transform="matrix(0.623135 -0.855187 0.857479 -0.395635 -422.342 37.7699)" stroke="#FF7B00" stroke-opacity="0.5" stroke-width="3"/>
<line y1="-1.5" x2="1663.33" y2="-1.5" transform="matrix(0.623135 -0.855187 0.857479 -0.395635 -417.338 50.8177)" stroke="#FF7B00" stroke-opacity="0.5" stroke-width="3"/>
<line y1="-1.5" x2="1663.33" y2="-1.5" transform="matrix(0.623135 -0.855187 0.857479 -0.395635 -412.335 63.8652)" stroke="#FF7B00" stroke-opacity="0.5" stroke-width="3"/>
<line y1="-1.5" x2="1663.33" y2="-1.5" transform="matrix(0.623135 -0.855187 0.857479 -0.395635 -407.332 76.9125)" stroke="#FF7B00" stroke-opacity="0.5" stroke-width="3"/>
<line y1="-1.5" x2="1663.33" y2="-1.5" transform="matrix(0.623135 -0.855187 0.857479 -0.395635 -402.328 89.9605)" stroke="#FF7B00" stroke-opacity="0.5" stroke-width="3"/>
<line y1="-1.5" x2="1663.33" y2="-1.5" transform="matrix(0.623135 -0.855187 0.857479 -0.395635 -397.325 103.008)" stroke="#FF7B00" stroke-opacity="0.5" stroke-width="3"/>
<line y1="-1.5" x2="1663.33" y2="-1.5" transform="matrix(0.623135 -0.855187 0.857479 -0.395635 -392.321 116.056)" stroke="#FF7B00" stroke-opacity="0.5" stroke-width="3"/>
<line y1="-1.5" x2="1663.33" y2="-1.5" transform="matrix(0.623135 -0.855187 0.857479 -0.395635 -387.318 129.103)" stroke="#FF7B00" stroke-opacity="0.5" stroke-width="3"/>
<line y1="-1.5" x2="1663.33" y2="-1.5" transform="matrix(0.623135 -0.855187 0.857479 -0.395635 -382.315 142.151)" stroke="#FF7B00" stroke-opacity="0.5" stroke-width="3"/>
<line y1="-1.5" x2="1663.33" y2="-1.5" transform="matrix(0.623135 -0.855187 0.857479 -0.395635 -377.311 155.198)" stroke="#FF7B00" stroke-opacity="0.5" stroke-width="3"/>
<line y1="-1.5" x2="1663.33" y2="-1.5" transform="matrix(0.623135 -0.855187 0.857479 -0.395635 -372.308 168.246)" stroke="#FF7B00" stroke-opacity="0.5" stroke-width="3"/>
<line y1="-1.5" x2="1663.33" y2="-1.5" transform="matrix(0.623135 -0.855187 0.857479 -0.395635 -367.305 181.294)" stroke="#FF7B00" stroke-opacity="0.5" stroke-width="3"/>
<line y1="-1.5" x2="1663.33" y2="-1.5" transform="matrix(0.623135 -0.855187 0.857479 -0.395635 -362.301 194.342)" stroke="#FF7B00" stroke-opacity="0.5" stroke-width="3"/>
<line y1="-1.5" x2="1663.33" y2="-1.5" transform="matrix(0.623135 -0.855187 0.857479 -0.395635 -357.298 207.39)" stroke="#FF7B00" stroke-opacity="0.5" stroke-width="3"/>
<line y1="-1.5" x2="1663.33" y2="-1.5" transform="matrix(0.623135 -0.855187 0.857479 -0.395635 -352.293 220.439)" stroke="#FF7B00" stroke-opacity="0.5" stroke-width="3"/>
<line y1="-1.5" x2="1663.33" y2="-1.5" transform="matrix(0.623135 -0.855187 0.857479 -0.395635 -347.29 233.487)" stroke="#FF7B00" stroke-opacity="0.5" stroke-width="3"/>
<line y1="-1.5" x2="1663.33" y2="-1.5" transform="matrix(0.623135 -0.855187 0.857479 -0.395635 -342.287 246.533)" stroke="#FF7B00" stroke-opacity="0.5" stroke-width="3"/>
<line y1="-1.5" x2="1663.33" y2="-1.5" transform="matrix(0.623135 -0.855187 0.857479 -0.395635 -337.283 259.582)" stroke="#FF7B00" stroke-opacity="0.5" stroke-width="3"/>
<line y1="-1.5" x2="1663.33" y2="-1.5" transform="matrix(0.623135 -0.855187 0.857479 -0.395635 -332.28 272.63)" stroke="#FF7B00" stroke-opacity="0.5" stroke-width="3"/>
<line y1="-1.5" x2="1663.33" y2="-1.5" transform="matrix(0.623135 -0.855187 0.857479 -0.395635 -327.276 285.677)" stroke="#FF7B00" stroke-opacity="0.5" stroke-width="3"/>
<line y1="-1.5" x2="1663.33" y2="-1.5" transform="matrix(0.623135 -0.855187 0.857479 -0.395635 -322.273 298.725)" stroke="#FF7B00" stroke-opacity="0.5" stroke-width="3"/>
<line y1="-1.5" x2="1663.33" y2="-1.5" transform="matrix(0.623135 -0.855187 0.857479 -0.395635 -317.27 311.772)" stroke="#FF7B00" stroke-opacity="0.5" stroke-width="3"/>
<line y1="-1.5" x2="1663.33" y2="-1.5" transform="matrix(0.623135 -0.855187 0.857479 -0.395635 -312.266 324.821)" stroke="#FF7B00" stroke-opacity="0.5" stroke-width="3"/>
<line y1="-1.5" x2="1663.33" y2="-1.5" transform="matrix(0.623135 -0.855187 0.857479 -0.395635 -307.263 337.868)" stroke="#FF7B00" stroke-opacity="0.5" stroke-width="3"/>
<line y1="-1.5" x2="1663.33" y2="-1.5" transform="matrix(0.623135 -0.855187 0.857479 -0.395635 -302.259 350.915)" stroke="#FF7B00" stroke-opacity="0.5" stroke-width="3"/>
<line y1="-1.5" x2="1663.33" y2="-1.5" transform="matrix(0.623135 -0.855187 0.857479 -0.395635 -297.256 363.963)" stroke="#FF7B00" stroke-opacity="0.5" stroke-width="3"/>
<line y1="-1.5" x2="1663.33" y2="-1.5" transform="matrix(0.623135 -0.855187 0.857479 -0.395635 -292.253 377.01)" stroke="#FF7B00" stroke-opacity="0.5" stroke-width="3"/>
<line y1="-1.5" x2="1663.33" y2="-1.5" transform="matrix(0.623135 -0.855187 0.857479 -0.395635 -287.249 390.058)" stroke="#FF7B00" stroke-opacity="0.5" stroke-width="3"/>
<line y1="-1.5" x2="1663.33" y2="-1.5" transform="matrix(0.623135 -0.855187 0.857479 -0.395635 -282.246 403.106)" stroke="#FF7B00" stroke-opacity="0.5" stroke-width="3"/>
<line y1="-1.5" x2="1663.33" y2="-1.5" transform="matrix(0.623135 -0.855187 0.857479 -0.395635 -427.345 24.7224)" stroke="#FF7B00" stroke-opacity="0.5" stroke-width="3"/>
<line y1="-1.5" x2="1663.33" y2="-1.5" transform="matrix(0.623135 -0.855187 0.857479 -0.395635 -272.31 429.016)" stroke="#FF7B00" stroke-opacity="0.5" stroke-width="3"/>
<line y1="-1.5" x2="1663.33" y2="-1.5" transform="matrix(0.623135 -0.855187 0.857479 -0.395635 -267.307 442.064)" stroke="#FF7B00" stroke-opacity="0.5" stroke-width="3"/>
<line y1="-1.5" x2="1663.33" y2="-1.5" transform="matrix(0.623135 -0.855187 0.857479 -0.395635 -262.303 455.112)" stroke="#FF7B00" stroke-opacity="0.5" stroke-width="3"/>
<line y1="-1.5" x2="1663.33" y2="-1.5" transform="matrix(0.623135 -0.855187 0.857479 -0.395635 -257.3 468.159)" stroke="#FF7B00" stroke-opacity="0.5" stroke-width="3"/>
<line y1="-1.5" x2="1663.33" y2="-1.5" transform="matrix(0.623135 -0.855187 0.857479 -0.395635 -252.296 481.207)" stroke="#FF7B00" stroke-opacity="0.5" stroke-width="3"/>
<line y1="-1.5" x2="1663.33" y2="-1.5" transform="matrix(0.623135 -0.855187 0.857479 -0.395635 -247.293 494.254)" stroke="#FF7B00" stroke-opacity="0.5" stroke-width="3"/>
<line y1="-1.5" x2="1663.33" y2="-1.5" transform="matrix(0.623135 -0.855187 0.857479 -0.395635 -242.29 507.302)" stroke="#FF7B00" stroke-opacity="0.5" stroke-width="3"/>
<line y1="-1.5" x2="1663.33" y2="-1.5" transform="matrix(0.623135 -0.855187 0.857479 -0.395635 -237.286 520.35)" stroke="#FF7B00" stroke-opacity="0.5" stroke-width="3"/>
<line y1="-1.5" x2="1663.33" y2="-1.5" transform="matrix(0.623135 -0.855187 0.857479 -0.395634 -232.283 533.397)" stroke="#FF7B00" stroke-opacity="0.5" stroke-width="3"/>
<line y1="-1.5" x2="1663.33" y2="-1.5" transform="matrix(0.623135 -0.855187 0.857479 -0.395635 -227.28 546.445)" stroke="#FF7B00" stroke-opacity="0.5" stroke-width="3"/>
<line y1="-1.5" x2="1663.33" y2="-1.5" transform="matrix(0.623135 -0.855187 0.857479 -0.395635 -222.276 559.492)" stroke="#FF7B00" stroke-opacity="0.5" stroke-width="3"/>
<line y1="-1.5" x2="1663.33" y2="-1.5" transform="matrix(0.623135 -0.855187 0.857479 -0.395635 -217.273 572.54)" stroke="#FF7B00" stroke-opacity="0.5" stroke-width="3"/>
<line y1="-1.5" x2="1663.33" y2="-1.5" transform="matrix(0.623135 -0.855187 0.857479 -0.395635 -212.27 585.588)" stroke="#FF7B00" stroke-opacity="0.5" stroke-width="3"/>
<line y1="-1.5" x2="1663.33" y2="-1.5" transform="matrix(0.623135 -0.855187 0.857479 -0.395635 -207.267 598.632)" stroke="#FF7B00" stroke-opacity="0.5" stroke-width="3"/>
<line y1="-1.5" x2="1663.33" y2="-1.5" transform="matrix(0.623135 -0.855187 0.857479 -0.395635 -202.264 611.68)" stroke="#FF7B00" stroke-opacity="0.5" stroke-width="3"/>
<line y1="-1.5" x2="1663.33" y2="-1.5" transform="matrix(0.623135 -0.855187 0.857479 -0.395635 -197.261 624.727)" stroke="#FF7B00" stroke-opacity="0.5" stroke-width="3"/>
<line y1="-1.5" x2="1663.33" y2="-1.5" transform="matrix(0.623135 -0.855187 0.857479 -0.395635 -192.257 637.775)" stroke="#FF7B00" stroke-opacity="0.5" stroke-width="3"/>
<line y1="-1.5" x2="1663.33" y2="-1.5" transform="matrix(0.623135 -0.855187 0.857479 -0.395635 -187.254 650.822)" stroke="#FF7B00" stroke-opacity="0.5" stroke-width="3"/>
<line y1="-1.5" x2="1663.33" y2="-1.5" transform="matrix(0.623135 -0.855187 0.857479 -0.395635 -182.25 663.87)" stroke="#FF7B00" stroke-opacity="0.5" stroke-width="3"/>
<line y1="-1.5" x2="1663.33" y2="-1.5" transform="matrix(0.623135 -0.855187 0.857479 -0.395635 -177.247 676.917)" stroke="#FF7B00" stroke-opacity="0.5" stroke-width="3"/>
<line y1="-1.5" x2="1663.33" y2="-1.5" transform="matrix(0.623135 -0.855187 0.857479 -0.395635 -172.244 689.965)" stroke="#FF7B00" stroke-opacity="0.5" stroke-width="3"/>
<line y1="-1.5" x2="1663.33" y2="-1.5" transform="matrix(0.623135 -0.855187 0.857479 -0.395635 -167.24 703.013)" stroke="#FF7B00" stroke-opacity="0.5" stroke-width="3"/>
<line y1="-1.5" x2="1663.33" y2="-1.5" transform="matrix(0.623135 -0.855187 0.857479 -0.395635 -162.236 716.06)" stroke="#FF7B00" stroke-opacity="0.5" stroke-width="3"/>
<line y1="-1.5" x2="1663.33" y2="-1.5" transform="matrix(0.623135 -0.855187 0.857479 -0.395635 -157.234 729.108)" stroke="#FF7B00" stroke-opacity="0.5" stroke-width="3"/>
<line y1="-1.5" x2="1663.33" y2="-1.5" transform="matrix(0.623135 -0.855187 0.857479 -0.395634 -152.23 742.155)" stroke="#FF7B00" stroke-opacity="0.5" stroke-width="3"/>
<line y1="-1.5" x2="1663.33" y2="-1.5" transform="matrix(0.623135 -0.855187 0.857479 -0.395635 -147.226 755.203)" stroke="#FF7B00" stroke-opacity="0.5" stroke-width="3"/>
<line y1="-1.5" x2="1663.33" y2="-1.5" transform="matrix(0.623135 -0.855187 0.857479 -0.395635 -142.223 768.251)" stroke="#FF7B00" stroke-opacity="0.5" stroke-width="3"/>
<line y1="-1.5" x2="1663.33" y2="-1.5" transform="matrix(0.623135 -0.855187 0.857479 -0.395635 -137.22 781.298)" stroke="#FF7B00" stroke-opacity="0.5" stroke-width="3"/>
<line y1="-1.5" x2="1663.33" y2="-1.5" transform="matrix(0.623135 -0.855187 0.857479 -0.395635 -132.217 794.345)" stroke="#FF7B00" stroke-opacity="0.5" stroke-width="3"/>
<line y1="-1.5" x2="1663.33" y2="-1.5" transform="matrix(0.623135 -0.855187 0.857479 -0.395635 -277.313 415.969)" stroke="#FF7B00" stroke-opacity="0.5" stroke-width="3"/>
<line y1="-1.5" x2="1663.33" y2="-1.5" transform="matrix(0.623135 -0.855187 0.857479 -0.395635 -122.28 820.256)" stroke="#FF7B00" stroke-opacity="0.5" stroke-width="3"/>
<line y1="-1.5" x2="1663.33" y2="-1.5" transform="matrix(0.623135 -0.855187 0.857479 -0.395635 -117.277 833.304)" stroke="#FF7B00" stroke-opacity="0.5" stroke-width="3"/>
<line y1="-1.5" x2="1663.33" y2="-1.5" transform="matrix(0.623135 -0.855187 0.857479 -0.395635 -112.274 846.352)" stroke="#FF7B00" stroke-opacity="0.5" stroke-width="3"/>
<line y1="-1.5" x2="1663.33" y2="-1.5" transform="matrix(0.623135 -0.855187 0.857479 -0.395635 -107.27 859.399)" stroke="#FF7B00" stroke-opacity="0.5" stroke-width="3"/>
<line y1="-1.5" x2="1663.33" y2="-1.5" transform="matrix(0.623135 -0.855187 0.857479 -0.395635 -102.267 872.447)" stroke="#FF7B00" stroke-opacity="0.5" stroke-width="3"/>
<line y1="-1.5" x2="1663.33" y2="-1.5" transform="matrix(0.623135 -0.855187 0.857479 -0.395635 -97.2637 885.494)" stroke="#FF7B00" stroke-opacity="0.5" stroke-width="3"/>
<line y1="-1.5" x2="1663.33" y2="-1.5" transform="matrix(0.623135 -0.855187 0.857479 -0.395635 -92.2601 898.542)" stroke="#FF7B00" stroke-opacity="0.5" stroke-width="3"/>
<line y1="-1.5" x2="1663.33" y2="-1.5" transform="matrix(0.623135 -0.855187 0.857479 -0.395635 -87.2565 911.589)" stroke="#FF7B00" stroke-opacity="0.5" stroke-width="3"/>
<line y1="-1.5" x2="1663.33" y2="-1.5" transform="matrix(0.623135 -0.855187 0.857479 -0.395635 -82.2535 924.637)" stroke="#FF7B00" stroke-opacity="0.5" stroke-width="3"/>
<line y1="-1.5" x2="1663.33" y2="-1.5" transform="matrix(0.623135 -0.855187 0.857479 -0.395635 -77.2501 937.684)" stroke="#FF7B00" stroke-opacity="0.5" stroke-width="3"/>
<line y1="-1.5" x2="1663.33" y2="-1.5" transform="matrix(0.623135 -0.855187 0.857479 -0.395634 -72.2467 950.732)" stroke="#FF7B00" stroke-opacity="0.5" stroke-width="3"/>
<line y1="-1.5" x2="1663.33" y2="-1.5" transform="matrix(0.623135 -0.855187 0.857479 -0.395635 -67.2434 963.779)" stroke="#FF7B00" stroke-opacity="0.5" stroke-width="3"/>
<line y1="-1.5" x2="1663.33" y2="-1.5" transform="matrix(0.623135 -0.855187 0.857479 -0.395635 -62.2399 976.827)" stroke="#FF7B00" stroke-opacity="0.5" stroke-width="3"/>
<line y1="-1.5" x2="1663.33" y2="-1.5" transform="matrix(0.623135 -0.855187 0.857479 -0.395635 -57.2367 989.875)" stroke="#FF7B00" stroke-opacity="0.5" stroke-width="3"/>
<line y1="-1.5" x2="1663.33" y2="-1.5" transform="matrix(0.623135 -0.855187 0.857479 -0.395635 -52.2333 1002.92)" stroke="#FF7B00" stroke-opacity="0.5" stroke-width="3"/>
<line y1="-1.5" x2="1663.33" y2="-1.5" transform="matrix(0.623135 -0.855187 0.857479 -0.395635 -47.23 1015.97)" stroke="#FF7B00" stroke-opacity="0.5" stroke-width="3"/>
<line y1="-1.5" x2="1663.33" y2="-1.5" transform="matrix(0.623135 -0.855187 0.857479 -0.395635 -42.2264 1029.02)" stroke="#FF7B00" stroke-opacity="0.5" stroke-width="3"/>
<line y1="-1.5" x2="1663.33" y2="-1.5" transform="matrix(0.623135 -0.855187 0.857479 -0.395635 -37.2231 1042.07)" stroke="#FF7B00" stroke-opacity="0.5" stroke-width="3"/>
<line y1="-1.5" x2="1663.33" y2="-1.5" transform="matrix(0.623135 -0.855187 0.857479 -0.395635 -32.2197 1055.11)" stroke="#FF7B00" stroke-opacity="0.5" stroke-width="3"/>
<line y1="-1.5" x2="1663.33" y2="-1.5" transform="matrix(0.623135 -0.855187 0.857479 -0.395635 -27.2162 1068.16)" stroke="#FF7B00" stroke-opacity="0.5" stroke-width="3"/>
<line y1="-1.5" x2="1663.33" y2="-1.5" transform="matrix(0.623135 -0.855187 0.857479 -0.395635 -22.2126 1081.21)" stroke="#FF7B00" stroke-opacity="0.5" stroke-width="3"/>
<line y1="-1.5" x2="1663.33" y2="-1.5" transform="matrix(0.623135 -0.855187 0.857479 -0.395635 -17.2094 1094.26)" stroke="#FF7B00" stroke-opacity="0.5" stroke-width="3"/>
<line y1="-1.5" x2="1663.33" y2="-1.5" transform="matrix(0.623135 -0.855187 0.857479 -0.395635 -12.2059 1107.3)" stroke="#FF7B00" stroke-opacity="0.5" stroke-width="3"/>
<line y1="-1.5" x2="1663.33" y2="-1.5" transform="matrix(0.623135 -0.855187 0.857479 -0.395635 -7.20276 1120.35)" stroke="#FF7B00" stroke-opacity="0.5" stroke-width="3"/>
<line y1="-1.5" x2="1663.33" y2="-1.5" transform="matrix(0.623135 -0.855187 0.857479 -0.395635 -2.19897 1133.4)" stroke="#FF7B00" stroke-opacity="0.5" stroke-width="3"/>
<line y1="-1.5" x2="1663.33" y2="-1.5" transform="matrix(0.623135 -0.855187 0.857479 -0.395635 2.8042 1146.45)" stroke="#FF7B00" stroke-opacity="0.5" stroke-width="3"/>
<line y1="-1.5" x2="1663.33" y2="-1.5" transform="matrix(0.623135 -0.855187 0.857479 -0.395635 7.80725 1159.49)" stroke="#FF7B00" stroke-opacity="0.5" stroke-width="3"/>
<line y1="-1.5" x2="1663.33" y2="-1.5" transform="matrix(0.623135 -0.855187 0.857479 -0.395635 12.811 1172.54)" stroke="#FF7B00" stroke-opacity="0.5" stroke-width="3"/>
<line y1="-1.5" x2="1663.33" y2="-1.5" transform="matrix(0.623135 -0.855187 0.857479 -0.395635 17.8146 1185.59)" stroke="#FF7B00" stroke-opacity="0.5" stroke-width="3"/>
<line y1="-1.5" x2="1663.33" y2="-1.5" transform="matrix(0.623135 -0.855187 0.857479 -0.395635 -127.284 807.209)" stroke="#FF7B00" stroke-opacity="0.5" stroke-width="3"/>
</g>
</svg>
