<svg width="640" height="512" viewBox="0 0 640 512" fill="none" xmlns="http://www.w3.org/2000/svg">
<g clip-path="url(#clip0)">
<path d="M640 238.2L636.8 266.4L602.3 268.7L600.3 286.8L634.8 284.5L631.6 312.7L597.2 314.9L594.9 335L629.3 332.8L626.3 358.9L561.6 363L574.3 249.8L527 365.2L495.1 367.2L471.3 249.4L501.6 247.4L515.2 326.8L546.9 244.4L640 238.2V238.2ZM426.8 371.5L455.1 369.7L468 249.6L439.6 251.5L426.8 371.5ZM162 388.1L142.6 352.1L139.1 389.5L110.9 391.2L113.6 362.1C102.6 380.1 81.5999 396.4 56.6999 397.9C23.8999 399.9 -3.00006 377 0.299937 339.7C2.89994 310.4 26.9999 276.9 67.7999 274.3C105.5 271.9 115.4 297.5 119.1 303.1L121.9 272.3L160.8 269.8C180.9 268.5 199.5 273.5 203.3 293.5L205.9 266.9L270.7 262.7L268 290.6L231.6 293L229.9 310.9L266.3 308.6L263.6 336.5L227.2 338.8L225.3 358.7L261.6 356.4L259.5 377.2L314.5 260L338.3 258.4L370.4 369L379.3 283.4L357 284.8L359.9 256.9L434.9 252L431.9 280L407.6 281.6L397.9 373.5L339.9 377.2L335.6 361.6L296.2 364.1L288.2 380.4L162 388.1V388.1ZM117.7 317.9L91.2999 319.6C84.5999 307.2 76.8999 303 64.9999 303.8C45.9999 305 31.6999 321.3 30.3999 337.1C28.9999 353.1 37.6999 369.6 59.0999 368.3C71.8999 367.5 80.3999 359.7 87.9999 349.4L115 347.7L117.7 317.9ZM173.8 310.2C175 297.3 166.2 296.6 147.7 297.8L145 326.3C159.2 325.4 172.5 324.2 173.8 310.2V310.2ZM194.9 381L200.7 321C195.7 334.5 186 342.1 172.8 347.6L194.9 381ZM330.3 336L322.4 298.2L306.6 337.5L330.3 336ZM160.2 261.4L155.9 243.9L116.3 246.5L108.2 264.7L76.2999 266.8L133.3 144.9L157.2 143.3L187.9 245.3L197.8 140.6L224.8 138.8L262.6 202.4L269.1 135.8L297.6 133.9L293.6 175.1C301 161.6 316.5 130.4 357.2 127.6C397.7 124.8 409.6 156.9 410.6 157.9L413.9 125.9L453.2 123.2C465.9 122.3 481 123.5 489.5 132.9L485.1 121L517.3 118.8L530.2 162L553.2 116.3L584.2 114.1L540.6 192.5L535.8 236.8L507.4 238.7L512.2 194.4L496.4 151.4C497.4 173.7 487.2 191.5 464.4 201L489.6 239.8L453.2 242.2L434 205.4L430 243.7L401.6 245.6L404.9 214.1C398.2 223.4 385.2 249.5 345.3 252.1C319.1 253.8 299.7 241.8 289.9 212.9L285.9 253.2L260.9 254.8L223.3 191.5L217 257.7L160.2 261.4V261.4ZM436.8 179.3C447 178.6 454.3 177.2 458.4 175C462.9 172.6 465.4 168.6 466 162.9C466.6 157.6 465.4 154.1 462.6 152.5C459 150.4 452 149.7 439.7 150.5L436.8 179.3V179.3ZM327.7 214C333.3 219.9 340.4 222.5 349 221.9C353.7 221.6 358.1 220.1 362.3 217.8C367.8 214.8 372.9 209.8 377.4 203.5L343.2 205.8L345.6 181.9L408.7 177.6L409.9 165.6L378.7 167.7C374.6 164 370.9 161.1 367.6 159.6C363.6 157.9 359.5 156.8 355.4 157.1C347.4 157.6 340.1 160.7 333.4 166.3C325.7 172.7 321.4 180.8 320.5 190.7C319.4 200.3 321.9 208 327.7 214V214ZM126.4 222.2L150.2 220.6L141.9 183L126.4 222.2Z" fill="#616161"/>
</g>
<defs>
<clipPath id="clip0">
<rect width="640" height="512" fill="white"/>
</clipPath>
</defs>
</svg>
