<svg width="640" height="512" viewBox="0 0 640 512" fill="none" xmlns="http://www.w3.org/2000/svg">
<path d="M107.2 283.5L88.2 241.7H36.1L17.1 283.5H0L62.2 152.1L124.4 283.5H107.2ZM62.2 185.4L42.6 227.9H81.8L62.2 185.4V185.4ZM174.9 287.8L112.7 156.4H129.8L174.9 252.4L220 156.4H237L174.9 287.8ZM255.5 283.5V156.4H271V283.5H255.5ZM464.6 167.9V283.5H447.3V167.9H406.1V156.4H505.7V167.9H464.6ZM640 218.8C640 228 638.3 236.6 634.9 244.6C631.5 252.6 626.7 259.7 620.7 265.7C614.7 271.7 607.6 276.5 599.6 279.9C591.6 283.3 583 285 573.8 285C564.6 285 556 283.3 548 279.9C540 276.5 532.9 271.7 526.9 265.7C520.9 259.7 516.1 252.7 512.7 244.6C509.3 236.6 507.6 228 507.6 218.8C507.6 209.6 509.3 201 512.7 193C516.1 185 520.9 177.9 526.9 171.9C532.9 165.9 539.9 163.5 548 160C556 156.6 564.6 154.9 573.8 154.9C583 154.9 591.6 156.6 599.6 160C607.6 163.4 614.7 165.8 620.7 171.9C626.7 177.9 631.4 185 634.9 193C638.3 201 640 209.6 640 218.8V218.8ZM624.5 218.8C624.5 211.5 623.2 204.8 620.6 198.5C618 192.2 614.4 186.8 609.8 182.2C605.2 177.6 599.8 174 593.6 171.3C587.4 168.6 580.8 167.3 573.8 167.3C566.8 167.3 560.2 168.6 554 171.3C547.8 174 542.4 177.6 537.8 182.2C533.2 186.8 529.6 192.2 527 198.5C524.4 204.8 523.1 211.6 523.1 218.8C523.1 226.1 524.4 232.8 527 239.1C529.6 245.4 533.2 250.8 537.8 255.4C542.4 260 547.8 263.6 554 266.3C560.2 269 566.8 270.3 573.8 270.3C580.8 270.3 587.4 269 593.6 266.3C599.8 263.6 605.2 260 609.8 255.4C614.4 250.8 618 245.4 620.6 239.1C623.2 232.8 624.5 226 624.5 218.8V218.8ZM529.7 315.5V309.2L618.6 299.2L375.7 312.6C376.3 310.4 376.8 308 377.1 305.4C377.4 303.4 377.6 301.2 377.7 298.9L442.5 290.8L377.6 292.7C377.6 292.3 377.5 292 377.5 291.6C374.7 274.4 352 267.9 352 267.9L350.9 241.6H374.7L393.7 283.4H410.8L348.6 152L286.4 283.4H303.5L322.5 241.6H346.1L345 268C345 268 322.3 274.5 319.5 291.7C319.4 292 319.4 292.4 319.4 292.8L254.5 290.9L319.3 299C319.4 301.3 319.6 303.4 319.9 305.5C320.2 308.1 320.7 310.5 321.3 312.7L78.4 299.2L167.3 309.2V315.5C161.4 316.4 156.8 321.5 156.8 327.7C156.8 334.5 162.4 340.1 169.2 340.1C176 340.1 181.6 334.5 181.6 327.7C181.6 321.5 177 316.4 171.1 315.5V309.7L251.4 318.7V324.1C245.7 325.2 241.5 330.3 241.5 336.2C241.5 343 247.1 346.4 253.9 346.4C260.7 346.4 266.3 343 266.3 336.2C266.3 330.2 262 325.2 256.4 324.1V319.2L284.8 322.4V346.1H278.9V360H284.8V353.4H289.8V360H295.7V346.2H289.8V323L328.1 327.3C336.2 338.7 347.1 340.9 347.1 340.9L347 347.6L341.9 347.8L341.8 359.9H345.9L346 354.9H351.2L351.3 359.9H355.4L355.3 347.8L350.2 347.6L350.1 340.9C350.1 340.9 361 338.8 369.1 327.3L407.4 323V346.2H401.5V360H407.4V353.4H412.4V360H418.3V346.2H412.4V322.5L440.8 319.3V324.2C435.1 325.3 430.9 330.4 430.9 336.3C430.9 343.1 436.5 346.5 443.3 346.5C450.1 346.5 455.7 343.1 455.7 336.3C455.7 330.3 451.4 325.3 445.8 324.2V318.8L526.1 309.8V315.6C520.2 316.5 515.6 321.6 515.6 327.8C515.6 334.6 521.2 340.2 528 340.2C534.8 340.2 540.4 334.6 540.4 327.8C540.2 321.5 535.7 316.4 529.7 315.5V315.5ZM328.9 227.9L348.5 185.4L368.1 227.9H350.2L348.5 187.6L346.8 227.9H328.9V227.9Z" fill="#616161"/>
</svg>
