<svg width="1123" height="822" viewBox="0 0 1123 822" fill="none" xmlns="http://www.w3.org/2000/svg">
<mask id="mask0" mask-type="alpha" maskUnits="userSpaceOnUse" x="0" y="0" width="1123" height="822">
<path d="M279.453 173.381C191.695 188.761 236.328 449.373 126.615 388.684C104.822 374.679 62.7924 385.649 44.7155 405.563C21.0335 431.651 0.483612 469.051 0.0430142 510.955C-0.490892 561.733 3.50294 613.436 37.2701 645.985C57.8289 665.802 80.0361 660.401 103.865 659.009C133.116 657.3 167.844 641.131 194.658 626.581C255.522 593.553 310.55 607.816 366.523 648.377C426.704 691.987 474.781 759.46 537.975 797.361C569.191 816.084 604.136 818.027 637.867 821.151C680.289 825.081 725.815 814.492 767.749 807.329C832.922 796.196 897.552 747.999 927.825 671.236C934.296 654.829 940.22 639.199 942.716 620.866C944.501 607.758 943.295 594.439 944.681 581.261C947.706 552.486 945.099 522.932 947.473 493.943C954.513 407.984 1011.89 366.402 1057.71 313.461C1081.19 286.33 1110.03 251.527 1120.37 211.657C1127.25 185.125 1119.25 149.582 1112.1 124.472C1103.09 92.8239 1090.68 58.8967 1067.22 41.2749C1038.49 19.699 1009.2 9.66537 976.117 3.66324C921.932 -6.16824 862.853 5.07438 810.353 22.1368C761.416 38.0414 719.022 77.6472 677.163 112.511C633.487 148.887 586.105 195.825 532.494 200.892C493.762 204.552 455.857 193.745 418.538 181.754C372.77 167.048 326.136 165.199 279.453 173.381Z" fill="#C4C4C4"/>
</mask>
<g mask="url(#mask0)">
<line y1="-1.5" x2="1338.22" y2="-1.5" transform="matrix(0.692051 -0.712325 0.950819 -0.329026 145.972 851.434)" stroke="#FF7B00" stroke-opacity="0.5" stroke-width="3"/>
<line y1="-1.5" x2="1338.22" y2="-1.5" transform="matrix(0.692051 -0.712325 0.950819 -0.329026 150.443 860.178)" stroke="#FF7B00" stroke-opacity="0.5" stroke-width="3"/>
<line y1="-1.5" x2="1338.22" y2="-1.5" transform="matrix(0.692051 -0.712325 0.950819 -0.329026 154.914 868.921)" stroke="#FF7B00" stroke-opacity="0.5" stroke-width="3"/>
<line y1="-1.5" x2="1338.22" y2="-1.5" transform="matrix(0.692051 -0.712325 0.950819 -0.329026 159.384 877.665)" stroke="#FF7B00" stroke-opacity="0.5" stroke-width="3"/>
<line y1="-1.5" x2="1338.22" y2="-1.5" transform="matrix(0.692051 -0.712325 0.950819 -0.329026 163.855 886.409)" stroke="#FF7B00" stroke-opacity="0.5" stroke-width="3"/>
<line y1="-1.5" x2="1338.22" y2="-1.5" transform="matrix(0.692051 -0.712325 0.950819 -0.329026 168.325 895.152)" stroke="#FF7B00" stroke-opacity="0.5" stroke-width="3"/>
<line y1="-1.5" x2="1338.22" y2="-1.5" transform="matrix(0.692051 -0.712325 0.950819 -0.329026 172.796 903.896)" stroke="#FF7B00" stroke-opacity="0.5" stroke-width="3"/>
<line y1="-1.5" x2="1338.22" y2="-1.5" transform="matrix(0.692051 -0.712325 0.950819 -0.329026 177.267 912.64)" stroke="#FF7B00" stroke-opacity="0.5" stroke-width="3"/>
<line y1="-1.5" x2="1338.22" y2="-1.5" transform="matrix(0.692051 -0.712325 0.950819 -0.329026 181.737 921.384)" stroke="#FF7B00" stroke-opacity="0.5" stroke-width="3"/>
<line y1="-1.5" x2="1338.22" y2="-1.5" transform="matrix(0.69205 -0.712325 0.950819 -0.329026 186.208 930.127)" stroke="#FF7B00" stroke-opacity="0.5" stroke-width="3"/>
<line y1="-1.5" x2="1338.22" y2="-1.5" transform="matrix(0.692051 -0.712325 0.950819 -0.329026 190.678 938.871)" stroke="#FF7B00" stroke-opacity="0.5" stroke-width="3"/>
<line y1="-1.5" x2="1338.22" y2="-1.5" transform="matrix(0.692051 -0.712325 0.950819 -0.329026 195.149 947.615)" stroke="#FF7B00" stroke-opacity="0.5" stroke-width="3"/>
<line y1="-1.5" x2="1338.22" y2="-1.5" transform="matrix(0.692051 -0.712325 0.950819 -0.329026 199.62 956.358)" stroke="#FF7B00" stroke-opacity="0.5" stroke-width="3"/>
<line y1="-1.5" x2="1338.22" y2="-1.5" transform="matrix(0.692051 -0.712325 0.950819 -0.329026 204.09 965.102)" stroke="#FF7B00" stroke-opacity="0.5" stroke-width="3"/>
<line y1="-1.5" x2="1338.22" y2="-1.5" transform="matrix(0.692051 -0.712325 0.950819 -0.329026 208.561 973.845)" stroke="#FF7B00" stroke-opacity="0.5" stroke-width="3"/>
<line y1="-1.5" x2="1338.22" y2="-1.5" transform="matrix(0.692051 -0.712325 0.950819 -0.329026 213.031 982.589)" stroke="#FF7B00" stroke-opacity="0.5" stroke-width="3"/>
<line y1="-1.5" x2="1338.22" y2="-1.5" transform="matrix(0.692051 -0.712325 0.950819 -0.329026 217.502 991.333)" stroke="#FF7B00" stroke-opacity="0.5" stroke-width="3"/>
<line y1="-1.5" x2="1338.22" y2="-1.5" transform="matrix(0.692051 -0.712325 0.950819 -0.329026 221.973 1000.08)" stroke="#FF7B00" stroke-opacity="0.5" stroke-width="3"/>
<line y1="-1.5" x2="1338.22" y2="-1.5" transform="matrix(0.692051 -0.712325 0.950819 -0.329026 226.443 1008.82)" stroke="#FF7B00" stroke-opacity="0.5" stroke-width="3"/>
<line y1="-1.5" x2="1338.22" y2="-1.5" transform="matrix(0.692051 -0.712325 0.950819 -0.329026 230.914 1017.56)" stroke="#FF7B00" stroke-opacity="0.5" stroke-width="3"/>
<line y1="-1.5" x2="1338.22" y2="-1.5" transform="matrix(0.692051 -0.712325 0.950819 -0.329026 235.384 1026.31)" stroke="#FF7B00" stroke-opacity="0.5" stroke-width="3"/>
<line y1="-1.5" x2="1338.22" y2="-1.5" transform="matrix(0.69205 -0.712325 0.950819 -0.329026 239.855 1035.05)" stroke="#FF7B00" stroke-opacity="0.5" stroke-width="3"/>
<line y1="-1.5" x2="1338.22" y2="-1.5" transform="matrix(0.69205 -0.712325 0.950819 -0.329026 244.326 1043.79)" stroke="#FF7B00" stroke-opacity="0.5" stroke-width="3"/>
<line y1="-1.5" x2="1338.22" y2="-1.5" transform="matrix(0.692051 -0.712325 0.950819 -0.329026 248.796 1052.54)" stroke="#FF7B00" stroke-opacity="0.5" stroke-width="3"/>
<line y1="-1.5" x2="1338.22" y2="-1.5" transform="matrix(0.692051 -0.712325 0.950819 -0.329026 253.267 1061.28)" stroke="#FF7B00" stroke-opacity="0.5" stroke-width="3"/>
<line y1="-1.5" x2="1338.22" y2="-1.5" transform="matrix(0.692051 -0.712325 0.950819 -0.329026 257.737 1070.03)" stroke="#FF7B00" stroke-opacity="0.5" stroke-width="3"/>
<line y1="-1.5" x2="1338.22" y2="-1.5" transform="matrix(0.692051 -0.712325 0.950819 -0.329026 262.208 1078.77)" stroke="#FF7B00" stroke-opacity="0.5" stroke-width="3"/>
<line y1="-1.5" x2="1338.22" y2="-1.5" transform="matrix(0.692051 -0.712325 0.950819 -0.329026 266.679 1087.51)" stroke="#FF7B00" stroke-opacity="0.5" stroke-width="3"/>
<line y1="-1.5" x2="1338.22" y2="-1.5" transform="matrix(0.692051 -0.712325 0.950819 -0.329026 271.149 1096.26)" stroke="#FF7B00" stroke-opacity="0.5" stroke-width="3"/>
<line y1="-1.5" x2="1338.22" y2="-1.5" transform="matrix(0.692051 -0.712325 0.950819 -0.329026 141.502 842.69)" stroke="#FF7B00" stroke-opacity="0.5" stroke-width="3"/>
<line y1="-1.5" x2="1338.22" y2="-1.5" transform="matrix(0.692051 -0.712325 0.950819 -0.329026 280.027 1113.62)" stroke="#FF7B00" stroke-opacity="0.5" stroke-width="3"/>
<line y1="-1.5" x2="1338.22" y2="-1.5" transform="matrix(0.692051 -0.712325 0.950819 -0.329026 284.498 1122.36)" stroke="#FF7B00" stroke-opacity="0.5" stroke-width="3"/>
<line y1="-1.5" x2="1338.22" y2="-1.5" transform="matrix(0.69205 -0.712325 0.950819 -0.329026 288.968 1131.11)" stroke="#FF7B00" stroke-opacity="0.5" stroke-width="3"/>
<line y1="-1.5" x2="1338.22" y2="-1.5" transform="matrix(0.692051 -0.712325 0.950819 -0.329026 293.439 1139.85)" stroke="#FF7B00" stroke-opacity="0.5" stroke-width="3"/>
<line y1="-1.5" x2="1338.22" y2="-1.5" transform="matrix(0.692051 -0.712325 0.950819 -0.329026 297.91 1148.6)" stroke="#FF7B00" stroke-opacity="0.5" stroke-width="3"/>
<line y1="-1.5" x2="1338.22" y2="-1.5" transform="matrix(0.692051 -0.712325 0.950819 -0.329026 302.38 1157.34)" stroke="#FF7B00" stroke-opacity="0.5" stroke-width="3"/>
<line y1="-1.5" x2="1338.22" y2="-1.5" transform="matrix(0.692051 -0.712325 0.950819 -0.329026 306.851 1166.08)" stroke="#FF7B00" stroke-opacity="0.5" stroke-width="3"/>
<line y1="-1.5" x2="1338.22" y2="-1.5" transform="matrix(0.692051 -0.712325 0.950819 -0.329026 311.321 1174.83)" stroke="#FF7B00" stroke-opacity="0.5" stroke-width="3"/>
<line y1="-1.5" x2="1338.22" y2="-1.5" transform="matrix(0.692051 -0.712325 0.950819 -0.329026 315.792 1183.57)" stroke="#FF7B00" stroke-opacity="0.5" stroke-width="3"/>
<line y1="-1.5" x2="1338.22" y2="-1.5" transform="matrix(0.69205 -0.712325 0.950819 -0.329026 320.262 1192.31)" stroke="#FF7B00" stroke-opacity="0.5" stroke-width="3"/>
<line y1="-1.5" x2="1338.22" y2="-1.5" transform="matrix(0.69205 -0.712325 0.950819 -0.329026 324.733 1201.06)" stroke="#FF7B00" stroke-opacity="0.5" stroke-width="3"/>
<line y1="-1.5" x2="1338.22" y2="-1.5" transform="matrix(0.692051 -0.712325 0.950819 -0.329026 329.204 1209.8)" stroke="#FF7B00" stroke-opacity="0.5" stroke-width="3"/>
<line y1="-1.5" x2="1338.22" y2="-1.5" transform="matrix(0.692051 -0.712325 0.950819 -0.329026 333.675 1218.54)" stroke="#FF7B00" stroke-opacity="0.5" stroke-width="3"/>
<line y1="-1.5" x2="1338.22" y2="-1.5" transform="matrix(0.692051 -0.712325 0.950819 -0.329026 338.145 1227.29)" stroke="#FF7B00" stroke-opacity="0.5" stroke-width="3"/>
<line y1="-1.5" x2="1338.22" y2="-1.5" transform="matrix(0.69205 -0.712325 0.950819 -0.329026 342.616 1236.03)" stroke="#FF7B00" stroke-opacity="0.5" stroke-width="3"/>
<line y1="-1.5" x2="1338.22" y2="-1.5" transform="matrix(0.692051 -0.712325 0.950819 -0.329026 347.086 1244.78)" stroke="#FF7B00" stroke-opacity="0.5" stroke-width="3"/>
<line y1="-1.5" x2="1338.22" y2="-1.5" transform="matrix(0.692051 -0.712325 0.950819 -0.329026 351.557 1253.52)" stroke="#FF7B00" stroke-opacity="0.5" stroke-width="3"/>
<line y1="-1.5" x2="1338.22" y2="-1.5" transform="matrix(0.69205 -0.712325 0.950819 -0.329026 356.027 1262.26)" stroke="#FF7B00" stroke-opacity="0.5" stroke-width="3"/>
<line y1="-1.5" x2="1338.22" y2="-1.5" transform="matrix(0.692051 -0.712325 0.950819 -0.329026 360.498 1271.01)" stroke="#FF7B00" stroke-opacity="0.5" stroke-width="3"/>
<line y1="-1.5" x2="1338.22" y2="-1.5" transform="matrix(0.692051 -0.712325 0.950819 -0.329026 364.969 1279.75)" stroke="#FF7B00" stroke-opacity="0.5" stroke-width="3"/>
<line y1="-1.5" x2="1338.22" y2="-1.5" transform="matrix(0.692051 -0.712325 0.950819 -0.329026 369.439 1288.49)" stroke="#FF7B00" stroke-opacity="0.5" stroke-width="3"/>
<line y1="-1.5" x2="1338.22" y2="-1.5" transform="matrix(0.692051 -0.712325 0.950819 -0.329026 373.91 1297.24)" stroke="#FF7B00" stroke-opacity="0.5" stroke-width="3"/>
<line y1="-1.5" x2="1338.22" y2="-1.5" transform="matrix(0.692051 -0.712325 0.950819 -0.329026 378.381 1305.98)" stroke="#FF7B00" stroke-opacity="0.5" stroke-width="3"/>
<line y1="-1.5" x2="1338.22" y2="-1.5" transform="matrix(0.692051 -0.712325 0.950819 -0.329026 382.851 1314.72)" stroke="#FF7B00" stroke-opacity="0.5" stroke-width="3"/>
<line y1="-1.5" x2="1338.22" y2="-1.5" transform="matrix(0.69205 -0.712325 0.950819 -0.329026 387.322 1323.47)" stroke="#FF7B00" stroke-opacity="0.5" stroke-width="3"/>
<line y1="-1.5" x2="1338.22" y2="-1.5" transform="matrix(0.692051 -0.712325 0.950819 -0.329026 391.792 1332.21)" stroke="#FF7B00" stroke-opacity="0.5" stroke-width="3"/>
<line y1="-1.5" x2="1338.22" y2="-1.5" transform="matrix(0.692051 -0.712325 0.950819 -0.329026 396.263 1340.96)" stroke="#FF7B00" stroke-opacity="0.5" stroke-width="3"/>
<line y1="-1.5" x2="1338.22" y2="-1.5" transform="matrix(0.692051 -0.712325 0.950819 -0.329026 400.733 1349.7)" stroke="#FF7B00" stroke-opacity="0.5" stroke-width="3"/>
<line y1="-1.5" x2="1338.22" y2="-1.5" transform="matrix(0.692051 -0.712325 0.950819 -0.329026 405.204 1358.44)" stroke="#FF7B00" stroke-opacity="0.5" stroke-width="3"/>
<line y1="-1.5" x2="1338.22" y2="-1.5" transform="matrix(0.692051 -0.712325 0.950819 -0.329026 275.556 1104.88)" stroke="#FF7B00" stroke-opacity="0.5" stroke-width="3"/>
<line y1="-1.5" x2="1338.22" y2="-1.5" transform="matrix(0.692051 -0.712325 0.950819 -0.329026 414.082 1375.81)" stroke="#FF7B00" stroke-opacity="0.5" stroke-width="3"/>
<line y1="-1.5" x2="1338.22" y2="-1.5" transform="matrix(0.692051 -0.712325 0.950819 -0.329026 418.553 1384.55)" stroke="#FF7B00" stroke-opacity="0.5" stroke-width="3"/>
<line y1="-1.5" x2="1338.22" y2="-1.5" transform="matrix(0.692051 -0.712325 0.950819 -0.329026 423.023 1393.29)" stroke="#FF7B00" stroke-opacity="0.5" stroke-width="3"/>
<line y1="-1.5" x2="1338.22" y2="-1.5" transform="matrix(0.692051 -0.712325 0.950819 -0.329026 427.494 1402.04)" stroke="#FF7B00" stroke-opacity="0.5" stroke-width="3"/>
<line y1="-1.5" x2="1338.22" y2="-1.5" transform="matrix(0.692051 -0.712325 0.950819 -0.329026 431.965 1410.78)" stroke="#FF7B00" stroke-opacity="0.5" stroke-width="3"/>
<line y1="-1.5" x2="1338.22" y2="-1.5" transform="matrix(0.692051 -0.712325 0.950819 -0.329026 436.435 1419.53)" stroke="#FF7B00" stroke-opacity="0.5" stroke-width="3"/>
<line y1="-1.5" x2="1338.22" y2="-1.5" transform="matrix(0.692051 -0.712325 0.950819 -0.329026 440.906 1428.27)" stroke="#FF7B00" stroke-opacity="0.5" stroke-width="3"/>
<line y1="-1.5" x2="1338.22" y2="-1.5" transform="matrix(0.692051 -0.712325 0.950819 -0.329026 445.376 1437.01)" stroke="#FF7B00" stroke-opacity="0.5" stroke-width="3"/>
<line y1="-1.5" x2="1338.22" y2="-1.5" transform="matrix(0.692051 -0.712325 0.950819 -0.329026 449.847 1445.76)" stroke="#FF7B00" stroke-opacity="0.5" stroke-width="3"/>
<line y1="-1.5" x2="1338.22" y2="-1.5" transform="matrix(0.692051 -0.712325 0.950819 -0.329026 454.318 1454.5)" stroke="#FF7B00" stroke-opacity="0.5" stroke-width="3"/>
<line y1="-1.5" x2="1338.22" y2="-1.5" transform="matrix(0.692051 -0.712325 0.950819 -0.329026 458.788 1463.24)" stroke="#FF7B00" stroke-opacity="0.5" stroke-width="3"/>
<line y1="-1.5" x2="1338.22" y2="-1.5" transform="matrix(0.692051 -0.712325 0.950819 -0.329026 463.259 1471.99)" stroke="#FF7B00" stroke-opacity="0.5" stroke-width="3"/>
<line y1="-1.5" x2="1338.22" y2="-1.5" transform="matrix(0.692051 -0.712325 0.950819 -0.329026 467.729 1480.73)" stroke="#FF7B00" stroke-opacity="0.5" stroke-width="3"/>
<line y1="-1.5" x2="1338.22" y2="-1.5" transform="matrix(0.692051 -0.712325 0.950819 -0.329026 472.2 1489.47)" stroke="#FF7B00" stroke-opacity="0.5" stroke-width="3"/>
<line y1="-1.5" x2="1338.22" y2="-1.5" transform="matrix(0.692051 -0.712325 0.950819 -0.329026 476.67 1498.22)" stroke="#FF7B00" stroke-opacity="0.5" stroke-width="3"/>
<line y1="-1.5" x2="1338.22" y2="-1.5" transform="matrix(0.692051 -0.712325 0.950819 -0.329026 481.141 1506.96)" stroke="#FF7B00" stroke-opacity="0.5" stroke-width="3"/>
<line y1="-1.5" x2="1338.22" y2="-1.5" transform="matrix(0.692051 -0.712325 0.950819 -0.329026 485.612 1515.71)" stroke="#FF7B00" stroke-opacity="0.5" stroke-width="3"/>
<line y1="-1.5" x2="1338.22" y2="-1.5" transform="matrix(0.692051 -0.712325 0.950819 -0.329026 490.082 1524.45)" stroke="#FF7B00" stroke-opacity="0.5" stroke-width="3"/>
<line y1="-1.5" x2="1338.22" y2="-1.5" transform="matrix(0.692051 -0.712325 0.950819 -0.329026 494.553 1533.19)" stroke="#FF7B00" stroke-opacity="0.5" stroke-width="3"/>
<line y1="-1.5" x2="1338.22" y2="-1.5" transform="matrix(0.692051 -0.712325 0.950819 -0.329026 499.023 1541.94)" stroke="#FF7B00" stroke-opacity="0.5" stroke-width="3"/>
<line y1="-1.5" x2="1338.22" y2="-1.5" transform="matrix(0.692051 -0.712325 0.950819 -0.329026 503.494 1550.68)" stroke="#FF7B00" stroke-opacity="0.5" stroke-width="3"/>
<line y1="-1.5" x2="1338.22" y2="-1.5" transform="matrix(0.692051 -0.712325 0.950819 -0.329026 507.964 1559.42)" stroke="#FF7B00" stroke-opacity="0.5" stroke-width="3"/>
<line y1="-1.5" x2="1338.22" y2="-1.5" transform="matrix(0.692051 -0.712325 0.950819 -0.329026 512.435 1568.17)" stroke="#FF7B00" stroke-opacity="0.5" stroke-width="3"/>
<line y1="-1.5" x2="1338.22" y2="-1.5" transform="matrix(0.69205 -0.712325 0.950819 -0.329026 516.906 1576.91)" stroke="#FF7B00" stroke-opacity="0.5" stroke-width="3"/>
<line y1="-1.5" x2="1338.22" y2="-1.5" transform="matrix(0.692051 -0.712325 0.950819 -0.329026 521.376 1585.66)" stroke="#FF7B00" stroke-opacity="0.5" stroke-width="3"/>
<line y1="-1.5" x2="1338.22" y2="-1.5" transform="matrix(0.692051 -0.712325 0.950819 -0.329026 525.847 1594.4)" stroke="#FF7B00" stroke-opacity="0.5" stroke-width="3"/>
<line y1="-1.5" x2="1338.22" y2="-1.5" transform="matrix(0.692051 -0.712325 0.950819 -0.329026 530.317 1603.14)" stroke="#FF7B00" stroke-opacity="0.5" stroke-width="3"/>
<line y1="-1.5" x2="1338.22" y2="-1.5" transform="matrix(0.692051 -0.712325 0.950819 -0.329026 534.788 1611.89)" stroke="#FF7B00" stroke-opacity="0.5" stroke-width="3"/>
<line y1="-1.5" x2="1338.22" y2="-1.5" transform="matrix(0.692051 -0.712325 0.950819 -0.329026 539.259 1620.63)" stroke="#FF7B00" stroke-opacity="0.5" stroke-width="3"/>
<line y1="-1.5" x2="1338.22" y2="-1.5" transform="matrix(0.692051 -0.712325 0.950819 -0.329026 409.612 1367.06)" stroke="#FF7B00" stroke-opacity="0.5" stroke-width="3"/>
<line y1="-1.5" x2="1338.22" y2="-1.5" transform="matrix(0.692051 -0.712325 0.950819 -0.329026 -264.336 72.567)" stroke="#FF7B00" stroke-opacity="0.5" stroke-width="3"/>
<line y1="-1.5" x2="1338.22" y2="-1.5" transform="matrix(0.692051 -0.712325 0.950819 -0.329026 -259.865 81.3109)" stroke="#FF7B00" stroke-opacity="0.5" stroke-width="3"/>
<line y1="-1.5" x2="1338.22" y2="-1.5" transform="matrix(0.692051 -0.712325 0.950819 -0.329026 -255.394 90.0545)" stroke="#FF7B00" stroke-opacity="0.5" stroke-width="3"/>
<line y1="-1.5" x2="1338.22" y2="-1.5" transform="matrix(0.692051 -0.712325 0.950819 -0.329026 -250.924 98.7981)" stroke="#FF7B00" stroke-opacity="0.5" stroke-width="3"/>
<line y1="-1.5" x2="1338.22" y2="-1.5" transform="matrix(0.692051 -0.712325 0.950819 -0.329026 -246.453 107.542)" stroke="#FF7B00" stroke-opacity="0.5" stroke-width="3"/>
<line y1="-1.5" x2="1338.22" y2="-1.5" transform="matrix(0.692051 -0.712325 0.950819 -0.329026 -241.982 116.286)" stroke="#FF7B00" stroke-opacity="0.5" stroke-width="3"/>
<line y1="-1.5" x2="1338.22" y2="-1.5" transform="matrix(0.692051 -0.712325 0.950819 -0.329026 -237.512 125.029)" stroke="#FF7B00" stroke-opacity="0.5" stroke-width="3"/>
<line y1="-1.5" x2="1338.22" y2="-1.5" transform="matrix(0.692051 -0.712325 0.950819 -0.329026 -233.041 133.773)" stroke="#FF7B00" stroke-opacity="0.5" stroke-width="3"/>
<line y1="-1.5" x2="1338.22" y2="-1.5" transform="matrix(0.692051 -0.712325 0.950819 -0.329026 -228.571 142.517)" stroke="#FF7B00" stroke-opacity="0.5" stroke-width="3"/>
<line y1="-1.5" x2="1338.22" y2="-1.5" transform="matrix(0.692051 -0.712325 0.950819 -0.329026 -224.1 151.261)" stroke="#FF7B00" stroke-opacity="0.5" stroke-width="3"/>
<line y1="-1.5" x2="1338.22" y2="-1.5" transform="matrix(0.692051 -0.712325 0.950819 -0.329026 -219.629 160.004)" stroke="#FF7B00" stroke-opacity="0.5" stroke-width="3"/>
<line y1="-1.5" x2="1338.22" y2="-1.5" transform="matrix(0.692051 -0.712325 0.950819 -0.329026 -215.158 168.748)" stroke="#FF7B00" stroke-opacity="0.5" stroke-width="3"/>
<line y1="-1.5" x2="1338.22" y2="-1.5" transform="matrix(0.692051 -0.712325 0.950819 -0.329026 -210.688 177.492)" stroke="#FF7B00" stroke-opacity="0.5" stroke-width="3"/>
<line y1="-1.5" x2="1338.22" y2="-1.5" transform="matrix(0.692051 -0.712325 0.950819 -0.329026 -206.217 186.236)" stroke="#FF7B00" stroke-opacity="0.5" stroke-width="3"/>
<line y1="-1.5" x2="1338.22" y2="-1.5" transform="matrix(0.692051 -0.712325 0.950819 -0.329026 -201.746 194.981)" stroke="#FF7B00" stroke-opacity="0.5" stroke-width="3"/>
<line y1="-1.5" x2="1338.22" y2="-1.5" transform="matrix(0.692051 -0.712325 0.950819 -0.329026 -197.275 203.725)" stroke="#FF7B00" stroke-opacity="0.5" stroke-width="3"/>
<line y1="-1.5" x2="1338.22" y2="-1.5" transform="matrix(0.692051 -0.712325 0.950819 -0.329026 -192.805 212.468)" stroke="#FF7B00" stroke-opacity="0.5" stroke-width="3"/>
<line y1="-1.5" x2="1338.22" y2="-1.5" transform="matrix(0.692051 -0.712325 0.950819 -0.329026 -188.334 221.213)" stroke="#FF7B00" stroke-opacity="0.5" stroke-width="3"/>
<line y1="-1.5" x2="1338.22" y2="-1.5" transform="matrix(0.692051 -0.712325 0.950819 -0.329026 -183.863 229.956)" stroke="#FF7B00" stroke-opacity="0.5" stroke-width="3"/>
<line y1="-1.5" x2="1338.22" y2="-1.5" transform="matrix(0.692051 -0.712325 0.950819 -0.329026 -179.393 238.7)" stroke="#FF7B00" stroke-opacity="0.5" stroke-width="3"/>
<line y1="-1.5" x2="1338.22" y2="-1.5" transform="matrix(0.692051 -0.712325 0.950819 -0.329026 -174.922 247.444)" stroke="#FF7B00" stroke-opacity="0.5" stroke-width="3"/>
<line y1="-1.5" x2="1338.22" y2="-1.5" transform="matrix(0.692051 -0.712325 0.950819 -0.329026 -170.451 256.187)" stroke="#FF7B00" stroke-opacity="0.5" stroke-width="3"/>
<line y1="-1.5" x2="1338.22" y2="-1.5" transform="matrix(0.692051 -0.712325 0.950819 -0.329026 -165.981 264.931)" stroke="#FF7B00" stroke-opacity="0.5" stroke-width="3"/>
<line y1="-1.5" x2="1338.22" y2="-1.5" transform="matrix(0.692051 -0.712325 0.950819 -0.329026 -161.51 273.675)" stroke="#FF7B00" stroke-opacity="0.5" stroke-width="3"/>
<line y1="-1.5" x2="1338.22" y2="-1.5" transform="matrix(0.692051 -0.712325 0.950819 -0.329026 -157.039 282.419)" stroke="#FF7B00" stroke-opacity="0.5" stroke-width="3"/>
<line y1="-1.5" x2="1338.22" y2="-1.5" transform="matrix(0.692051 -0.712325 0.950819 -0.329026 -152.569 291.162)" stroke="#FF7B00" stroke-opacity="0.5" stroke-width="3"/>
<line y1="-1.5" x2="1338.22" y2="-1.5" transform="matrix(0.692051 -0.712325 0.950819 -0.329026 -148.098 299.906)" stroke="#FF7B00" stroke-opacity="0.5" stroke-width="3"/>
<line y1="-1.5" x2="1338.22" y2="-1.5" transform="matrix(0.692051 -0.712325 0.950819 -0.329026 -143.627 308.65)" stroke="#FF7B00" stroke-opacity="0.5" stroke-width="3"/>
<line y1="-1.5" x2="1338.22" y2="-1.5" transform="matrix(0.692051 -0.712325 0.950819 -0.329026 -139.157 317.394)" stroke="#FF7B00" stroke-opacity="0.5" stroke-width="3"/>
<line y1="-1.5" x2="1338.22" y2="-1.5" transform="matrix(0.692051 -0.712325 0.950819 -0.329026 -268.806 63.8232)" stroke="#FF7B00" stroke-opacity="0.5" stroke-width="3"/>
<line y1="-1.5" x2="1338.22" y2="-1.5" transform="matrix(0.692051 -0.712325 0.950819 -0.329026 -130.279 334.757)" stroke="#FF7B00" stroke-opacity="0.5" stroke-width="3"/>
<line y1="-1.5" x2="1338.22" y2="-1.5" transform="matrix(0.692051 -0.712325 0.950819 -0.329026 -125.808 343.501)" stroke="#FF7B00" stroke-opacity="0.5" stroke-width="3"/>
<line y1="-1.5" x2="1338.22" y2="-1.5" transform="matrix(0.692051 -0.712325 0.950819 -0.329026 -121.337 352.245)" stroke="#FF7B00" stroke-opacity="0.5" stroke-width="3"/>
<line y1="-1.5" x2="1338.22" y2="-1.5" transform="matrix(0.692051 -0.712325 0.950819 -0.329026 -116.867 360.989)" stroke="#FF7B00" stroke-opacity="0.5" stroke-width="3"/>
<line y1="-1.5" x2="1338.22" y2="-1.5" transform="matrix(0.692051 -0.712325 0.950819 -0.329026 -112.396 369.733)" stroke="#FF7B00" stroke-opacity="0.5" stroke-width="3"/>
<line y1="-1.5" x2="1338.22" y2="-1.5" transform="matrix(0.692051 -0.712325 0.950819 -0.329026 -107.926 378.476)" stroke="#FF7B00" stroke-opacity="0.5" stroke-width="3"/>
<line y1="-1.5" x2="1338.22" y2="-1.5" transform="matrix(0.692051 -0.712325 0.950819 -0.329026 -103.455 387.22)" stroke="#FF7B00" stroke-opacity="0.5" stroke-width="3"/>
<line y1="-1.5" x2="1338.22" y2="-1.5" transform="matrix(0.692051 -0.712325 0.950819 -0.329026 -98.9844 395.964)" stroke="#FF7B00" stroke-opacity="0.5" stroke-width="3"/>
<line y1="-1.5" x2="1338.22" y2="-1.5" transform="matrix(0.692051 -0.712325 0.950819 -0.329026 -94.5142 404.707)" stroke="#FF7B00" stroke-opacity="0.5" stroke-width="3"/>
<line y1="-1.5" x2="1338.22" y2="-1.5" transform="matrix(0.692051 -0.712325 0.950819 -0.329026 -90.0432 413.451)" stroke="#FF7B00" stroke-opacity="0.5" stroke-width="3"/>
<line y1="-1.5" x2="1338.22" y2="-1.5" transform="matrix(0.692051 -0.712325 0.950819 -0.329026 -85.5725 422.195)" stroke="#FF7B00" stroke-opacity="0.5" stroke-width="3"/>
<line y1="-1.5" x2="1338.22" y2="-1.5" transform="matrix(0.692051 -0.712325 0.950819 -0.329026 -81.1018 430.939)" stroke="#FF7B00" stroke-opacity="0.5" stroke-width="3"/>
<line y1="-1.5" x2="1338.22" y2="-1.5" transform="matrix(0.692051 -0.712325 0.950819 -0.329026 -76.6313 439.682)" stroke="#FF7B00" stroke-opacity="0.5" stroke-width="3"/>
<line y1="-1.5" x2="1338.22" y2="-1.5" transform="matrix(0.692051 -0.712325 0.950819 -0.329026 -72.1616 448.424)" stroke="#FF7B00" stroke-opacity="0.5" stroke-width="3"/>
<line y1="-1.5" x2="1338.22" y2="-1.5" transform="matrix(0.692051 -0.712325 0.950819 -0.329026 -67.6907 457.168)" stroke="#FF7B00" stroke-opacity="0.5" stroke-width="3"/>
<line y1="-1.5" x2="1338.22" y2="-1.5" transform="matrix(0.692051 -0.712325 0.950819 -0.329026 -63.2207 465.911)" stroke="#FF7B00" stroke-opacity="0.5" stroke-width="3"/>
<line y1="-1.5" x2="1338.22" y2="-1.5" transform="matrix(0.692051 -0.712325 0.950819 -0.329026 -58.7498 474.655)" stroke="#FF7B00" stroke-opacity="0.5" stroke-width="3"/>
<line y1="-1.5" x2="1338.22" y2="-1.5" transform="matrix(0.692051 -0.712325 0.950819 -0.329026 -54.2791 483.399)" stroke="#FF7B00" stroke-opacity="0.5" stroke-width="3"/>
<line y1="-1.5" x2="1338.22" y2="-1.5" transform="matrix(0.692051 -0.712325 0.950819 -0.329026 -49.8086 492.142)" stroke="#FF7B00" stroke-opacity="0.5" stroke-width="3"/>
<line y1="-1.5" x2="1338.22" y2="-1.5" transform="matrix(0.692051 -0.712325 0.950819 -0.329026 -45.3381 500.886)" stroke="#FF7B00" stroke-opacity="0.5" stroke-width="3"/>
<line y1="-1.5" x2="1338.22" y2="-1.5" transform="matrix(0.692051 -0.712325 0.950819 -0.329026 -40.8674 509.63)" stroke="#FF7B00" stroke-opacity="0.5" stroke-width="3"/>
<line y1="-1.5" x2="1338.22" y2="-1.5" transform="matrix(0.692051 -0.712325 0.950819 -0.329026 -36.3967 518.374)" stroke="#FF7B00" stroke-opacity="0.5" stroke-width="3"/>
<line y1="-1.5" x2="1338.22" y2="-1.5" transform="matrix(0.692051 -0.712325 0.950819 -0.329026 -31.9258 527.117)" stroke="#FF7B00" stroke-opacity="0.5" stroke-width="3"/>
<line y1="-1.5" x2="1338.22" y2="-1.5" transform="matrix(0.692051 -0.712325 0.950819 -0.329026 -27.4553 535.861)" stroke="#FF7B00" stroke-opacity="0.5" stroke-width="3"/>
<line y1="-1.5" x2="1338.22" y2="-1.5" transform="matrix(0.692051 -0.712325 0.950819 -0.329026 -22.9846 544.605)" stroke="#FF7B00" stroke-opacity="0.5" stroke-width="3"/>
<line y1="-1.5" x2="1338.22" y2="-1.5" transform="matrix(0.692051 -0.712325 0.950819 -0.329026 -18.5139 553.349)" stroke="#FF7B00" stroke-opacity="0.5" stroke-width="3"/>
<line y1="-1.5" x2="1338.22" y2="-1.5" transform="matrix(0.692051 -0.712325 0.950819 -0.329026 -14.0435 562.092)" stroke="#FF7B00" stroke-opacity="0.5" stroke-width="3"/>
<line y1="-1.5" x2="1338.22" y2="-1.5" transform="matrix(0.692051 -0.712325 0.950819 -0.329026 -9.573 570.836)" stroke="#FF7B00" stroke-opacity="0.5" stroke-width="3"/>
<line y1="-1.5" x2="1338.22" y2="-1.5" transform="matrix(0.692051 -0.712325 0.950819 -0.329026 -5.10254 579.579)" stroke="#FF7B00" stroke-opacity="0.5" stroke-width="3"/>
<line y1="-1.5" x2="1338.22" y2="-1.5" transform="matrix(0.692051 -0.712325 0.950819 -0.329026 -134.749 326.014)" stroke="#FF7B00" stroke-opacity="0.5" stroke-width="3"/>
<line y1="-1.5" x2="1338.22" y2="-1.5" transform="matrix(0.692051 -0.712325 0.950819 -0.329026 3.77588 596.943)" stroke="#FF7B00" stroke-opacity="0.5" stroke-width="3"/>
<line y1="-1.5" x2="1338.22" y2="-1.5" transform="matrix(0.692051 -0.712325 0.950819 -0.329026 8.24634 605.687)" stroke="#FF7B00" stroke-opacity="0.5" stroke-width="3"/>
<line y1="-1.5" x2="1338.22" y2="-1.5" transform="matrix(0.692051 -0.712325 0.950819 -0.329026 12.717 614.431)" stroke="#FF7B00" stroke-opacity="0.5" stroke-width="3"/>
<line y1="-1.5" x2="1338.22" y2="-1.5" transform="matrix(0.692051 -0.712325 0.950819 -0.329026 17.1877 623.175)" stroke="#FF7B00" stroke-opacity="0.5" stroke-width="3"/>
<line y1="-1.5" x2="1338.22" y2="-1.5" transform="matrix(0.692051 -0.712325 0.950819 -0.329026 21.6582 631.918)" stroke="#FF7B00" stroke-opacity="0.5" stroke-width="3"/>
<line y1="-1.5" x2="1338.22" y2="-1.5" transform="matrix(0.692051 -0.712325 0.950819 -0.329026 26.1287 640.662)" stroke="#FF7B00" stroke-opacity="0.5" stroke-width="3"/>
<line y1="-1.5" x2="1338.22" y2="-1.5" transform="matrix(0.692051 -0.712325 0.950819 -0.329026 30.5996 649.406)" stroke="#FF7B00" stroke-opacity="0.5" stroke-width="3"/>
<line y1="-1.5" x2="1338.22" y2="-1.5" transform="matrix(0.692051 -0.712325 0.950819 -0.329026 35.0703 658.149)" stroke="#FF7B00" stroke-opacity="0.5" stroke-width="3"/>
<line y1="-1.5" x2="1338.22" y2="-1.5" transform="matrix(0.692051 -0.712325 0.950819 -0.329026 39.5408 666.893)" stroke="#FF7B00" stroke-opacity="0.5" stroke-width="3"/>
<line y1="-1.5" x2="1338.22" y2="-1.5" transform="matrix(0.692051 -0.712325 0.950819 -0.329026 44.0115 675.637)" stroke="#FF7B00" stroke-opacity="0.5" stroke-width="3"/>
<line y1="-1.5" x2="1338.22" y2="-1.5" transform="matrix(0.692051 -0.712325 0.950819 -0.329026 48.4819 684.381)" stroke="#FF7B00" stroke-opacity="0.5" stroke-width="3"/>
<line y1="-1.5" x2="1338.22" y2="-1.5" transform="matrix(0.692051 -0.712325 0.950819 -0.329026 52.9526 693.124)" stroke="#FF7B00" stroke-opacity="0.5" stroke-width="3"/>
<line y1="-1.5" x2="1338.22" y2="-1.5" transform="matrix(0.692051 -0.712325 0.950819 -0.329026 57.4236 701.868)" stroke="#FF7B00" stroke-opacity="0.5" stroke-width="3"/>
<line y1="-1.5" x2="1338.22" y2="-1.5" transform="matrix(0.692051 -0.712325 0.950819 -0.329026 61.8938 710.612)" stroke="#FF7B00" stroke-opacity="0.5" stroke-width="3"/>
<line y1="-1.5" x2="1338.22" y2="-1.5" transform="matrix(0.692051 -0.712325 0.950819 -0.329026 66.3643 719.355)" stroke="#FF7B00" stroke-opacity="0.5" stroke-width="3"/>
<line y1="-1.5" x2="1338.22" y2="-1.5" transform="matrix(0.692051 -0.712325 0.950819 -0.329026 70.8352 728.099)" stroke="#FF7B00" stroke-opacity="0.5" stroke-width="3"/>
<line y1="-1.5" x2="1338.22" y2="-1.5" transform="matrix(0.69205 -0.712325 0.950819 -0.329026 75.3059 736.843)" stroke="#FF7B00" stroke-opacity="0.5" stroke-width="3"/>
<line y1="-1.5" x2="1338.22" y2="-1.5" transform="matrix(0.692051 -0.712325 0.950819 -0.329026 79.7764 745.587)" stroke="#FF7B00" stroke-opacity="0.5" stroke-width="3"/>
<line y1="-1.5" x2="1338.22" y2="-1.5" transform="matrix(0.692051 -0.712325 0.950819 -0.329026 84.2471 754.331)" stroke="#FF7B00" stroke-opacity="0.5" stroke-width="3"/>
<line y1="-1.5" x2="1338.22" y2="-1.5" transform="matrix(0.692051 -0.712325 0.950819 -0.329026 88.7178 763.074)" stroke="#FF7B00" stroke-opacity="0.5" stroke-width="3"/>
<line y1="-1.5" x2="1338.22" y2="-1.5" transform="matrix(0.692051 -0.712325 0.950819 -0.329026 93.1882 771.818)" stroke="#FF7B00" stroke-opacity="0.5" stroke-width="3"/>
<line y1="-1.5" x2="1338.22" y2="-1.5" transform="matrix(0.692051 -0.712325 0.950819 -0.329026 97.6592 780.562)" stroke="#FF7B00" stroke-opacity="0.5" stroke-width="3"/>
<line y1="-1.5" x2="1338.22" y2="-1.5" transform="matrix(0.692051 -0.712325 0.950819 -0.329026 102.13 789.306)" stroke="#FF7B00" stroke-opacity="0.5" stroke-width="3"/>
<line y1="-1.5" x2="1338.22" y2="-1.5" transform="matrix(0.692051 -0.712325 0.950819 -0.329026 106.6 798.049)" stroke="#FF7B00" stroke-opacity="0.5" stroke-width="3"/>
<line y1="-1.5" x2="1338.22" y2="-1.5" transform="matrix(0.692051 -0.712325 0.950819 -0.329026 111.071 806.793)" stroke="#FF7B00" stroke-opacity="0.5" stroke-width="3"/>
<line y1="-1.5" x2="1338.22" y2="-1.5" transform="matrix(0.692051 -0.712325 0.950819 -0.329026 115.542 815.537)" stroke="#FF7B00" stroke-opacity="0.5" stroke-width="3"/>
<line y1="-1.5" x2="1338.22" y2="-1.5" transform="matrix(0.692051 -0.712325 0.950819 -0.329026 120.012 824.28)" stroke="#FF7B00" stroke-opacity="0.5" stroke-width="3"/>
<line y1="-1.5" x2="1338.22" y2="-1.5" transform="matrix(0.692051 -0.712325 0.950819 -0.329026 124.483 833.024)" stroke="#FF7B00" stroke-opacity="0.5" stroke-width="3"/>
<line y1="-1.5" x2="1338.22" y2="-1.5" transform="matrix(0.692051 -0.712325 0.950819 -0.329026 128.954 841.768)" stroke="#FF7B00" stroke-opacity="0.5" stroke-width="3"/>
<line y1="-1.5" x2="1338.22" y2="-1.5" transform="matrix(0.692051 -0.712325 0.950819 -0.329026 -0.69458 588.2)" stroke="#FF7B00" stroke-opacity="0.5" stroke-width="3"/>
</g>
</svg>
