<svg width="591" height="386" viewBox="0 0 591 386" fill="none" xmlns="http://www.w3.org/2000/svg">
<path d="M1 19H590V381C590 383.209 588.209 385 586 385H4.99999C2.79086 385 1 383.209 1 381V19Z" stroke="#FF7B00" stroke-width="2"/>
<path d="M0 19H591V381C591 383.761 588.761 386 586 386H4.99999C2.23857 386 0 383.761 0 381V19Z" fill="#FF7B00" fill-opacity="0.08"/>
<mask id="mask0" mask-type="alpha" maskUnits="userSpaceOnUse" x="0" y="19" width="591" height="367">
<path d="M0 19H591V381C591 383.761 588.761 386 586 386H4.99999C2.23857 386 0 383.761 0 381V19Z" fill="#676767"/>
</mask>
<g mask="url(#mask0)">
<line y1="-1.5" x2="1193.39" y2="-1.5" transform="matrix(0.770291 -0.637693 0.950824 -0.309731 -173.941 544.357)" stroke="#FF7B00" stroke-opacity="0.6" stroke-width="3"/>
<line y1="-1.5" x2="1193.39" y2="-1.5" transform="matrix(0.770291 -0.637693 0.950824 -0.309731 -169.504 551.337)" stroke="#FF7B00" stroke-opacity="0.6" stroke-width="3"/>
<line y1="-1.5" x2="1193.39" y2="-1.5" transform="matrix(0.770291 -0.637693 0.950824 -0.309731 -165.066 558.318)" stroke="#FF7B00" stroke-opacity="0.6" stroke-width="3"/>
<line y1="-1.5" x2="1193.39" y2="-1.5" transform="matrix(0.770291 -0.637693 0.950824 -0.309731 -160.629 565.298)" stroke="#FF7B00" stroke-opacity="0.6" stroke-width="3"/>
<line y1="-1.5" x2="1193.39" y2="-1.5" transform="matrix(0.770291 -0.637693 0.950824 -0.309731 -156.191 572.279)" stroke="#FF7B00" stroke-opacity="0.6" stroke-width="3"/>
<line y1="-1.5" x2="1193.39" y2="-1.5" transform="matrix(0.770291 -0.637693 0.950824 -0.309731 -151.754 579.259)" stroke="#FF7B00" stroke-opacity="0.6" stroke-width="3"/>
<line y1="-1.5" x2="1193.39" y2="-1.5" transform="matrix(0.770291 -0.637693 0.950824 -0.309731 -147.316 586.239)" stroke="#FF7B00" stroke-opacity="0.6" stroke-width="3"/>
<line y1="-1.5" x2="1193.39" y2="-1.5" transform="matrix(0.770291 -0.637693 0.950824 -0.309731 -142.879 593.22)" stroke="#FF7B00" stroke-opacity="0.6" stroke-width="3"/>
<line y1="-1.5" x2="1193.39" y2="-1.5" transform="matrix(0.770291 -0.637693 0.950824 -0.309731 -138.441 600.2)" stroke="#FF7B00" stroke-opacity="0.6" stroke-width="3"/>
<line y1="-1.5" x2="1193.39" y2="-1.5" transform="matrix(0.770291 -0.637693 0.950824 -0.309731 -134.004 607.181)" stroke="#FF7B00" stroke-opacity="0.6" stroke-width="3"/>
<line y1="-1.5" x2="1193.39" y2="-1.5" transform="matrix(0.770291 -0.637693 0.950824 -0.309731 -129.566 614.161)" stroke="#FF7B00" stroke-opacity="0.6" stroke-width="3"/>
<line y1="-1.5" x2="1193.39" y2="-1.5" transform="matrix(0.770291 -0.637693 0.950824 -0.309731 -125.129 621.142)" stroke="#FF7B00" stroke-opacity="0.6" stroke-width="3"/>
<line y1="-1.5" x2="1193.39" y2="-1.5" transform="matrix(0.770291 -0.637693 0.950824 -0.309731 -120.691 628.122)" stroke="#FF7B00" stroke-opacity="0.6" stroke-width="3"/>
<line y1="-1.5" x2="1193.39" y2="-1.5" transform="matrix(0.770291 -0.637693 0.950824 -0.309731 -116.254 635.102)" stroke="#FF7B00" stroke-opacity="0.6" stroke-width="3"/>
<line y1="-1.5" x2="1193.39" y2="-1.5" transform="matrix(0.770291 -0.637693 0.950824 -0.309731 -111.816 642.083)" stroke="#FF7B00" stroke-opacity="0.6" stroke-width="3"/>
<line y1="-1.5" x2="1193.39" y2="-1.5" transform="matrix(0.770291 -0.637693 0.950824 -0.309731 -107.379 649.063)" stroke="#FF7B00" stroke-opacity="0.6" stroke-width="3"/>
<line y1="-1.5" x2="1193.39" y2="-1.5" transform="matrix(0.770291 -0.637693 0.950824 -0.309731 -102.942 656.043)" stroke="#FF7B00" stroke-opacity="0.6" stroke-width="3"/>
<line y1="-1.5" x2="1193.39" y2="-1.5" transform="matrix(0.770291 -0.637693 0.950824 -0.309731 -98.5041 663.024)" stroke="#FF7B00" stroke-opacity="0.6" stroke-width="3"/>
<line y1="-1.5" x2="1193.39" y2="-1.5" transform="matrix(0.770291 -0.637693 0.950824 -0.309731 -94.0666 670.004)" stroke="#FF7B00" stroke-opacity="0.6" stroke-width="3"/>
<line y1="-1.5" x2="1193.39" y2="-1.5" transform="matrix(0.770291 -0.637693 0.950824 -0.309731 -89.6291 676.985)" stroke="#FF7B00" stroke-opacity="0.6" stroke-width="3"/>
<line y1="-1.5" x2="1193.39" y2="-1.5" transform="matrix(0.770291 -0.637693 0.950824 -0.309731 -85.1917 683.965)" stroke="#FF7B00" stroke-opacity="0.6" stroke-width="3"/>
<line y1="-1.5" x2="1193.39" y2="-1.5" transform="matrix(0.770291 -0.637693 0.950824 -0.309731 -80.7542 690.946)" stroke="#FF7B00" stroke-opacity="0.6" stroke-width="3"/>
<line y1="-1.5" x2="1193.39" y2="-1.5" transform="matrix(0.770291 -0.637693 0.950824 -0.309731 -76.3166 697.926)" stroke="#FF7B00" stroke-opacity="0.6" stroke-width="3"/>
<line y1="-1.5" x2="1193.39" y2="-1.5" transform="matrix(0.770291 -0.637693 0.950824 -0.309731 -71.8792 704.906)" stroke="#FF7B00" stroke-opacity="0.6" stroke-width="3"/>
<line y1="-1.5" x2="1193.39" y2="-1.5" transform="matrix(0.770291 -0.637693 0.950824 -0.309731 -67.4417 711.887)" stroke="#FF7B00" stroke-opacity="0.6" stroke-width="3"/>
<line y1="-1.5" x2="1193.39" y2="-1.5" transform="matrix(0.770291 -0.637693 0.950824 -0.309731 -63.0042 718.867)" stroke="#FF7B00" stroke-opacity="0.6" stroke-width="3"/>
<line y1="-1.5" x2="1193.39" y2="-1.5" transform="matrix(0.770291 -0.637693 0.950824 -0.309731 -58.5667 725.848)" stroke="#FF7B00" stroke-opacity="0.6" stroke-width="3"/>
<line y1="-1.5" x2="1193.39" y2="-1.5" transform="matrix(0.770291 -0.637693 0.950824 -0.309731 -54.1292 732.828)" stroke="#FF7B00" stroke-opacity="0.6" stroke-width="3"/>
<line y1="-1.5" x2="1193.39" y2="-1.5" transform="matrix(0.770291 -0.637693 0.950824 -0.309731 -49.6917 739.808)" stroke="#FF7B00" stroke-opacity="0.6" stroke-width="3"/>
<line y1="-1.5" x2="1193.39" y2="-1.5" transform="matrix(0.770291 -0.637693 0.950824 -0.309731 -178.379 537.376)" stroke="#FF7B00" stroke-opacity="0.6" stroke-width="3"/>
<line y1="-1.5" x2="1193.39" y2="-1.5" transform="matrix(0.770291 -0.637693 0.950824 -0.309731 -40.8796 753.67)" stroke="#FF7B00" stroke-opacity="0.6" stroke-width="3"/>
<line y1="-1.5" x2="1193.39" y2="-1.5" transform="matrix(0.770291 -0.637693 0.950824 -0.309731 -36.4421 760.651)" stroke="#FF7B00" stroke-opacity="0.6" stroke-width="3"/>
<line y1="-1.5" x2="1193.39" y2="-1.5" transform="matrix(0.770291 -0.637693 0.950824 -0.309731 -32.0046 767.631)" stroke="#FF7B00" stroke-opacity="0.6" stroke-width="3"/>
<line y1="-1.5" x2="1193.39" y2="-1.5" transform="matrix(0.770291 -0.637693 0.950824 -0.309731 -27.5671 774.612)" stroke="#FF7B00" stroke-opacity="0.6" stroke-width="3"/>
<line y1="-1.5" x2="1193.39" y2="-1.5" transform="matrix(0.770291 -0.637693 0.950824 -0.309731 -23.1296 781.592)" stroke="#FF7B00" stroke-opacity="0.6" stroke-width="3"/>
<line y1="-1.5" x2="1193.39" y2="-1.5" transform="matrix(0.770291 -0.637693 0.950824 -0.309731 -18.6921 788.573)" stroke="#FF7B00" stroke-opacity="0.6" stroke-width="3"/>
<line y1="-1.5" x2="1193.39" y2="-1.5" transform="matrix(0.770291 -0.637693 0.950824 -0.309731 -14.2546 795.553)" stroke="#FF7B00" stroke-opacity="0.6" stroke-width="3"/>
<line y1="-1.5" x2="1193.39" y2="-1.5" transform="matrix(0.770291 -0.637693 0.950824 -0.309731 -9.8172 802.533)" stroke="#FF7B00" stroke-opacity="0.6" stroke-width="3"/>
<line y1="-1.5" x2="1193.39" y2="-1.5" transform="matrix(0.770291 -0.637693 0.950824 -0.309731 -5.37976 809.514)" stroke="#FF7B00" stroke-opacity="0.6" stroke-width="3"/>
<line y1="-1.5" x2="1193.39" y2="-1.5" transform="matrix(0.770291 -0.637693 0.950824 -0.309731 -0.942261 816.494)" stroke="#FF7B00" stroke-opacity="0.6" stroke-width="3"/>
<line y1="-1.5" x2="1193.39" y2="-1.5" transform="matrix(0.770291 -0.637693 0.950824 -0.309731 3.49524 823.474)" stroke="#FF7B00" stroke-opacity="0.6" stroke-width="3"/>
<line y1="-1.5" x2="1193.39" y2="-1.5" transform="matrix(0.770291 -0.637693 0.950824 -0.309731 7.93274 830.455)" stroke="#FF7B00" stroke-opacity="0.6" stroke-width="3"/>
<line y1="-1.5" x2="1193.39" y2="-1.5" transform="matrix(0.770291 -0.637693 0.950824 -0.309731 12.3702 837.435)" stroke="#FF7B00" stroke-opacity="0.6" stroke-width="3"/>
<line y1="-1.5" x2="1193.39" y2="-1.5" transform="matrix(0.770291 -0.637693 0.950824 -0.309731 16.8077 844.416)" stroke="#FF7B00" stroke-opacity="0.6" stroke-width="3"/>
<line y1="-1.5" x2="1193.39" y2="-1.5" transform="matrix(0.770291 -0.637693 0.950824 -0.309731 21.2452 851.396)" stroke="#FF7B00" stroke-opacity="0.6" stroke-width="3"/>
<line y1="-1.5" x2="1193.39" y2="-1.5" transform="matrix(0.770291 -0.637693 0.950824 -0.309731 25.6826 858.376)" stroke="#FF7B00" stroke-opacity="0.6" stroke-width="3"/>
<line y1="-1.5" x2="1193.39" y2="-1.5" transform="matrix(0.770291 -0.637693 0.950824 -0.309731 30.1201 865.357)" stroke="#FF7B00" stroke-opacity="0.6" stroke-width="3"/>
<line y1="-1.5" x2="1193.39" y2="-1.5" transform="matrix(0.770291 -0.637693 0.950824 -0.309731 34.5576 872.337)" stroke="#FF7B00" stroke-opacity="0.6" stroke-width="3"/>
<line y1="-1.5" x2="1193.39" y2="-1.5" transform="matrix(0.770291 -0.637693 0.950824 -0.309731 38.9951 879.318)" stroke="#FF7B00" stroke-opacity="0.6" stroke-width="3"/>
<line y1="-1.5" x2="1193.39" y2="-1.5" transform="matrix(0.770291 -0.637693 0.950824 -0.309731 43.4326 886.298)" stroke="#FF7B00" stroke-opacity="0.6" stroke-width="3"/>
<line y1="-1.5" x2="1193.39" y2="-1.5" transform="matrix(0.770291 -0.637693 0.950824 -0.309731 47.87 893.279)" stroke="#FF7B00" stroke-opacity="0.6" stroke-width="3"/>
<line y1="-1.5" x2="1193.39" y2="-1.5" transform="matrix(0.770291 -0.637693 0.950824 -0.309731 52.3076 900.259)" stroke="#FF7B00" stroke-opacity="0.6" stroke-width="3"/>
<line y1="-1.5" x2="1193.39" y2="-1.5" transform="matrix(0.770291 -0.637693 0.950824 -0.309731 56.7451 907.24)" stroke="#FF7B00" stroke-opacity="0.6" stroke-width="3"/>
<line y1="-1.5" x2="1193.39" y2="-1.5" transform="matrix(0.770291 -0.637693 0.950824 -0.309731 61.1826 914.22)" stroke="#FF7B00" stroke-opacity="0.6" stroke-width="3"/>
<line y1="-1.5" x2="1193.39" y2="-1.5" transform="matrix(0.770291 -0.637693 0.950824 -0.309731 65.6202 921.201)" stroke="#FF7B00" stroke-opacity="0.6" stroke-width="3"/>
<line y1="-1.5" x2="1193.39" y2="-1.5" transform="matrix(0.770291 -0.637693 0.950824 -0.309731 70.0578 928.181)" stroke="#FF7B00" stroke-opacity="0.6" stroke-width="3"/>
<line y1="-1.5" x2="1193.39" y2="-1.5" transform="matrix(0.770291 -0.637693 0.950824 -0.309731 74.4954 935.162)" stroke="#FF7B00" stroke-opacity="0.6" stroke-width="3"/>
<line y1="-1.5" x2="1193.39" y2="-1.5" transform="matrix(0.770291 -0.637693 0.950824 -0.309731 78.9327 942.142)" stroke="#FF7B00" stroke-opacity="0.6" stroke-width="3"/>
<line y1="-1.5" x2="1193.39" y2="-1.5" transform="matrix(0.770291 -0.637693 0.950824 -0.309731 83.3702 949.122)" stroke="#FF7B00" stroke-opacity="0.6" stroke-width="3"/>
<line y1="-1.5" x2="1193.39" y2="-1.5" transform="matrix(0.770291 -0.637693 0.950824 -0.309731 -45.3171 746.69)" stroke="#FF7B00" stroke-opacity="0.6" stroke-width="3"/>
<line y1="-1.5" x2="1193.39" y2="-1.5" transform="matrix(0.770291 -0.637693 0.950824 -0.309731 92.1824 962.984)" stroke="#FF7B00" stroke-opacity="0.6" stroke-width="3"/>
<line y1="-1.5" x2="1193.39" y2="-1.5" transform="matrix(0.770291 -0.637693 0.950824 -0.309731 96.6199 969.965)" stroke="#FF7B00" stroke-opacity="0.6" stroke-width="3"/>
<line y1="-1.5" x2="1193.39" y2="-1.5" transform="matrix(0.770291 -0.637693 0.950824 -0.309731 101.057 976.945)" stroke="#FF7B00" stroke-opacity="0.6" stroke-width="3"/>
<line y1="-1.5" x2="1193.39" y2="-1.5" transform="matrix(0.770291 -0.637693 0.950824 -0.309731 105.495 983.926)" stroke="#FF7B00" stroke-opacity="0.6" stroke-width="3"/>
<line y1="-1.5" x2="1193.39" y2="-1.5" transform="matrix(0.770291 -0.637693 0.950824 -0.309731 109.932 990.906)" stroke="#FF7B00" stroke-opacity="0.6" stroke-width="3"/>
<line y1="-1.5" x2="1193.39" y2="-1.5" transform="matrix(0.770291 -0.637693 0.950824 -0.309731 114.37 997.886)" stroke="#FF7B00" stroke-opacity="0.6" stroke-width="3"/>
<line y1="-1.5" x2="1193.39" y2="-1.5" transform="matrix(0.770291 -0.637693 0.950824 -0.309731 118.807 1004.87)" stroke="#FF7B00" stroke-opacity="0.6" stroke-width="3"/>
<line y1="-1.5" x2="1193.39" y2="-1.5" transform="matrix(0.770291 -0.637693 0.950824 -0.309731 123.245 1011.85)" stroke="#FF7B00" stroke-opacity="0.6" stroke-width="3"/>
<line y1="-1.5" x2="1193.39" y2="-1.5" transform="matrix(0.770291 -0.637693 0.950824 -0.309731 127.682 1018.83)" stroke="#FF7B00" stroke-opacity="0.6" stroke-width="3"/>
<line y1="-1.5" x2="1193.39" y2="-1.5" transform="matrix(0.770291 -0.637693 0.950824 -0.309731 132.12 1025.81)" stroke="#FF7B00" stroke-opacity="0.6" stroke-width="3"/>
<line y1="-1.5" x2="1193.39" y2="-1.5" transform="matrix(0.770291 -0.637693 0.950824 -0.309731 136.557 1032.79)" stroke="#FF7B00" stroke-opacity="0.6" stroke-width="3"/>
<line y1="-1.5" x2="1193.39" y2="-1.5" transform="matrix(0.770291 -0.637693 0.950824 -0.309731 140.995 1039.77)" stroke="#FF7B00" stroke-opacity="0.6" stroke-width="3"/>
<line y1="-1.5" x2="1193.39" y2="-1.5" transform="matrix(0.770291 -0.637693 0.950824 -0.309731 145.432 1046.75)" stroke="#FF7B00" stroke-opacity="0.6" stroke-width="3"/>
<line y1="-1.5" x2="1193.39" y2="-1.5" transform="matrix(0.770291 -0.637693 0.950824 -0.309731 149.87 1053.73)" stroke="#FF7B00" stroke-opacity="0.6" stroke-width="3"/>
<line y1="-1.5" x2="1193.39" y2="-1.5" transform="matrix(0.770291 -0.637693 0.950824 -0.309731 154.307 1060.71)" stroke="#FF7B00" stroke-opacity="0.6" stroke-width="3"/>
<line y1="-1.5" x2="1193.39" y2="-1.5" transform="matrix(0.770291 -0.637693 0.950824 -0.309731 158.745 1067.69)" stroke="#FF7B00" stroke-opacity="0.6" stroke-width="3"/>
<line y1="-1.5" x2="1193.39" y2="-1.5" transform="matrix(0.770291 -0.637693 0.950824 -0.309731 163.182 1074.67)" stroke="#FF7B00" stroke-opacity="0.6" stroke-width="3"/>
<line y1="-1.5" x2="1193.39" y2="-1.5" transform="matrix(0.770291 -0.637693 0.950824 -0.309731 167.62 1081.65)" stroke="#FF7B00" stroke-opacity="0.6" stroke-width="3"/>
<line y1="-1.5" x2="1193.39" y2="-1.5" transform="matrix(0.770291 -0.637693 0.950824 -0.309731 172.057 1088.63)" stroke="#FF7B00" stroke-opacity="0.6" stroke-width="3"/>
<line y1="-1.5" x2="1193.39" y2="-1.5" transform="matrix(0.770291 -0.637693 0.950824 -0.309731 176.495 1095.61)" stroke="#FF7B00" stroke-opacity="0.6" stroke-width="3"/>
<line y1="-1.5" x2="1193.39" y2="-1.5" transform="matrix(0.770291 -0.637693 0.950824 -0.309731 180.932 1102.59)" stroke="#FF7B00" stroke-opacity="0.6" stroke-width="3"/>
<line y1="-1.5" x2="1193.39" y2="-1.5" transform="matrix(0.770291 -0.637693 0.950824 -0.309731 185.37 1109.57)" stroke="#FF7B00" stroke-opacity="0.6" stroke-width="3"/>
<line y1="-1.5" x2="1193.39" y2="-1.5" transform="matrix(0.770291 -0.637693 0.950824 -0.309731 189.807 1116.55)" stroke="#FF7B00" stroke-opacity="0.6" stroke-width="3"/>
<line y1="-1.5" x2="1193.39" y2="-1.5" transform="matrix(0.770291 -0.637693 0.950824 -0.309731 194.244 1123.53)" stroke="#FF7B00" stroke-opacity="0.6" stroke-width="3"/>
<line y1="-1.5" x2="1193.39" y2="-1.5" transform="matrix(0.770291 -0.637693 0.950824 -0.309731 198.682 1130.51)" stroke="#FF7B00" stroke-opacity="0.6" stroke-width="3"/>
<line y1="-1.5" x2="1193.39" y2="-1.5" transform="matrix(0.770291 -0.637693 0.950824 -0.309731 203.119 1137.49)" stroke="#FF7B00" stroke-opacity="0.6" stroke-width="3"/>
<line y1="-1.5" x2="1193.39" y2="-1.5" transform="matrix(0.770291 -0.637693 0.950824 -0.309731 207.557 1144.47)" stroke="#FF7B00" stroke-opacity="0.6" stroke-width="3"/>
<line y1="-1.5" x2="1193.39" y2="-1.5" transform="matrix(0.770291 -0.637693 0.950824 -0.309731 87.7449 956.004)" stroke="#FF7B00" stroke-opacity="0.6" stroke-width="3"/>
<line y1="-1.5" x2="1193.39" y2="-1.5" transform="matrix(0.770291 -0.637693 0.950824 -0.309731 -519.084 20.2849)" stroke="#FF7B00" stroke-opacity="0.6" stroke-width="3"/>
<line y1="-1.5" x2="1193.39" y2="-1.5" transform="matrix(0.770291 -0.637693 0.950824 -0.309731 -514.646 27.2655)" stroke="#FF7B00" stroke-opacity="0.6" stroke-width="3"/>
<line y1="-1.5" x2="1193.39" y2="-1.5" transform="matrix(0.770291 -0.637693 0.950824 -0.309731 -510.209 34.2453)" stroke="#FF7B00" stroke-opacity="0.6" stroke-width="3"/>
<line y1="-1.5" x2="1193.39" y2="-1.5" transform="matrix(0.770291 -0.637693 0.950824 -0.309731 -505.771 41.2265)" stroke="#FF7B00" stroke-opacity="0.6" stroke-width="3"/>
<line y1="-1.5" x2="1193.39" y2="-1.5" transform="matrix(0.770291 -0.637693 0.950824 -0.309731 -501.334 48.2069)" stroke="#FF7B00" stroke-opacity="0.6" stroke-width="3"/>
<line y1="-1.5" x2="1193.39" y2="-1.5" transform="matrix(0.770291 -0.637693 0.950824 -0.309731 -496.896 55.1871)" stroke="#FF7B00" stroke-opacity="0.6" stroke-width="3"/>
<line y1="-1.5" x2="1193.39" y2="-1.5" transform="matrix(0.770291 -0.637693 0.950824 -0.309731 -492.459 62.1677)" stroke="#FF7B00" stroke-opacity="0.6" stroke-width="3"/>
<line y1="-1.5" x2="1193.39" y2="-1.5" transform="matrix(0.770291 -0.637693 0.950824 -0.309731 -488.021 69.1479)" stroke="#FF7B00" stroke-opacity="0.6" stroke-width="3"/>
<line y1="-1.5" x2="1193.39" y2="-1.5" transform="matrix(0.770291 -0.637693 0.950824 -0.309731 -483.583 76.1289)" stroke="#FF7B00" stroke-opacity="0.6" stroke-width="3"/>
<line y1="-1.5" x2="1193.39" y2="-1.5" transform="matrix(0.770291 -0.637693 0.950824 -0.309731 -479.146 83.1092)" stroke="#FF7B00" stroke-opacity="0.6" stroke-width="3"/>
<line y1="-1.5" x2="1193.39" y2="-1.5" transform="matrix(0.770291 -0.637693 0.950824 -0.309731 -474.709 90.0895)" stroke="#FF7B00" stroke-opacity="0.6" stroke-width="3"/>
<line y1="-1.5" x2="1193.39" y2="-1.5" transform="matrix(0.770291 -0.637693 0.950824 -0.309731 -470.271 97.0702)" stroke="#FF7B00" stroke-opacity="0.6" stroke-width="3"/>
<line y1="-1.5" x2="1193.39" y2="-1.5" transform="matrix(0.770291 -0.637693 0.950824 -0.309731 -465.834 104.05)" stroke="#FF7B00" stroke-opacity="0.6" stroke-width="3"/>
<line y1="-1.5" x2="1193.39" y2="-1.5" transform="matrix(0.770291 -0.637693 0.950824 -0.309731 -461.396 111.031)" stroke="#FF7B00" stroke-opacity="0.6" stroke-width="3"/>
<line y1="-1.5" x2="1193.39" y2="-1.5" transform="matrix(0.770291 -0.637693 0.950824 -0.309731 -456.958 118.012)" stroke="#FF7B00" stroke-opacity="0.6" stroke-width="3"/>
<line y1="-1.5" x2="1193.39" y2="-1.5" transform="matrix(0.770291 -0.637693 0.950824 -0.309731 -448.146 131.874)" stroke="#FF7B00" stroke-opacity="0.6" stroke-width="3"/>
<line y1="-1.5" x2="1193.39" y2="-1.5" transform="matrix(0.770291 -0.637693 0.950824 -0.309731 -443.709 138.854)" stroke="#FF7B00" stroke-opacity="0.6" stroke-width="3"/>
<line y1="-1.5" x2="1193.39" y2="-1.5" transform="matrix(0.770291 -0.637693 0.950824 -0.309731 -439.271 145.835)" stroke="#FF7B00" stroke-opacity="0.6" stroke-width="3"/>
<line y1="-1.5" x2="1193.39" y2="-1.5" transform="matrix(0.770291 -0.637693 0.950824 -0.309731 -434.834 152.815)" stroke="#FF7B00" stroke-opacity="0.6" stroke-width="3"/>
<line y1="-1.5" x2="1193.39" y2="-1.5" transform="matrix(0.770291 -0.637693 0.950824 -0.309731 -430.396 159.796)" stroke="#FF7B00" stroke-opacity="0.6" stroke-width="3"/>
<line y1="-1.5" x2="1193.39" y2="-1.5" transform="matrix(0.770291 -0.637693 0.950824 -0.309731 -425.959 166.776)" stroke="#FF7B00" stroke-opacity="0.6" stroke-width="3"/>
<line y1="-1.5" x2="1193.39" y2="-1.5" transform="matrix(0.770291 -0.637693 0.950824 -0.309731 -421.521 173.757)" stroke="#FF7B00" stroke-opacity="0.6" stroke-width="3"/>
<line y1="-1.5" x2="1193.39" y2="-1.5" transform="matrix(0.770291 -0.637693 0.950824 -0.309731 -417.084 180.737)" stroke="#FF7B00" stroke-opacity="0.6" stroke-width="3"/>
<line y1="-1.5" x2="1193.39" y2="-1.5" transform="matrix(0.770291 -0.637693 0.950824 -0.309731 -412.646 187.717)" stroke="#FF7B00" stroke-opacity="0.6" stroke-width="3"/>
<line y1="-1.5" x2="1193.39" y2="-1.5" transform="matrix(0.770291 -0.637693 0.950824 -0.309731 -408.209 194.698)" stroke="#FF7B00" stroke-opacity="0.6" stroke-width="3"/>
<line y1="-1.5" x2="1193.39" y2="-1.5" transform="matrix(0.770291 -0.637693 0.950824 -0.309731 -403.771 201.678)" stroke="#FF7B00" stroke-opacity="0.6" stroke-width="3"/>
<line y1="-1.5" x2="1193.39" y2="-1.5" transform="matrix(0.770291 -0.637693 0.950824 -0.309731 -399.334 208.659)" stroke="#FF7B00" stroke-opacity="0.6" stroke-width="3"/>
<line y1="-1.5" x2="1193.39" y2="-1.5" transform="matrix(0.770291 -0.637693 0.950824 -0.309731 -394.896 215.639)" stroke="#FF7B00" stroke-opacity="0.6" stroke-width="3"/>
<line y1="-1.5" x2="1193.39" y2="-1.5" transform="matrix(0.770291 -0.637693 0.950824 -0.309731 -390.46 222.618)" stroke="#FF7B00" stroke-opacity="0.6" stroke-width="3"/>
<line y1="-1.5" x2="1193.39" y2="-1.5" transform="matrix(0.770291 -0.637693 0.950824 -0.309731 -386.022 229.599)" stroke="#FF7B00" stroke-opacity="0.6" stroke-width="3"/>
<line y1="-1.5" x2="1193.39" y2="-1.5" transform="matrix(0.770291 -0.637693 0.950824 -0.309731 -381.585 236.579)" stroke="#FF7B00" stroke-opacity="0.6" stroke-width="3"/>
<line y1="-1.5" x2="1193.39" y2="-1.5" transform="matrix(0.770291 -0.637693 0.950824 -0.309731 -377.147 243.559)" stroke="#FF7B00" stroke-opacity="0.6" stroke-width="3"/>
<line y1="-1.5" x2="1193.39" y2="-1.5" transform="matrix(0.770291 -0.637693 0.950824 -0.309731 -372.71 250.54)" stroke="#FF7B00" stroke-opacity="0.6" stroke-width="3"/>
<line y1="-1.5" x2="1193.39" y2="-1.5" transform="matrix(0.770291 -0.637693 0.950824 -0.309731 -368.272 257.52)" stroke="#FF7B00" stroke-opacity="0.6" stroke-width="3"/>
<line y1="-1.5" x2="1193.39" y2="-1.5" transform="matrix(0.770291 -0.637693 0.950824 -0.309731 -363.835 264.501)" stroke="#FF7B00" stroke-opacity="0.6" stroke-width="3"/>
<line y1="-1.5" x2="1193.39" y2="-1.5" transform="matrix(0.770291 -0.637693 0.950824 -0.309731 -359.397 271.481)" stroke="#FF7B00" stroke-opacity="0.6" stroke-width="3"/>
<line y1="-1.5" x2="1193.39" y2="-1.5" transform="matrix(0.770291 -0.637693 0.950824 -0.309731 -354.959 278.462)" stroke="#FF7B00" stroke-opacity="0.6" stroke-width="3"/>
<line y1="-1.5" x2="1193.39" y2="-1.5" transform="matrix(0.770291 -0.637693 0.950824 -0.309731 -350.522 285.442)" stroke="#FF7B00" stroke-opacity="0.6" stroke-width="3"/>
<line y1="-1.5" x2="1193.39" y2="-1.5" transform="matrix(0.770291 -0.637693 0.950824 -0.309731 -346.084 292.423)" stroke="#FF7B00" stroke-opacity="0.6" stroke-width="3"/>
<line y1="-1.5" x2="1193.39" y2="-1.5" transform="matrix(0.770291 -0.637693 0.950824 -0.309731 -341.647 299.403)" stroke="#FF7B00" stroke-opacity="0.6" stroke-width="3"/>
<line y1="-1.5" x2="1193.39" y2="-1.5" transform="matrix(0.770291 -0.637693 0.950824 -0.309731 -337.209 306.384)" stroke="#FF7B00" stroke-opacity="0.6" stroke-width="3"/>
<line y1="-1.5" x2="1193.39" y2="-1.5" transform="matrix(0.770291 -0.637693 0.950824 -0.309731 -332.772 313.364)" stroke="#FF7B00" stroke-opacity="0.6" stroke-width="3"/>
<line y1="-1.5" x2="1193.39" y2="-1.5" transform="matrix(0.770291 -0.637693 0.950824 -0.309731 -328.334 320.344)" stroke="#FF7B00" stroke-opacity="0.6" stroke-width="3"/>
<line y1="-1.5" x2="1193.39" y2="-1.5" transform="matrix(0.770291 -0.637693 0.950824 -0.309731 -323.897 327.325)" stroke="#FF7B00" stroke-opacity="0.6" stroke-width="3"/>
<line y1="-1.5" x2="1193.39" y2="-1.5" transform="matrix(0.770291 -0.637693 0.950824 -0.309731 -452.584 124.893)" stroke="#FF7B00" stroke-opacity="0.6" stroke-width="3"/>
<line y1="-1.5" x2="1193.39" y2="-1.5" transform="matrix(0.770291 -0.637693 0.950824 -0.309731 -315.085 341.187)" stroke="#FF7B00" stroke-opacity="0.6" stroke-width="3"/>
<line y1="-1.5" x2="1193.39" y2="-1.5" transform="matrix(0.770291 -0.637693 0.950824 -0.309731 -310.647 348.167)" stroke="#FF7B00" stroke-opacity="0.6" stroke-width="3"/>
<line y1="-1.5" x2="1193.39" y2="-1.5" transform="matrix(0.770291 -0.637693 0.950824 -0.309731 -306.209 355.148)" stroke="#FF7B00" stroke-opacity="0.6" stroke-width="3"/>
<line y1="-1.5" x2="1193.39" y2="-1.5" transform="matrix(0.770291 -0.637693 0.950824 -0.309731 -301.772 362.128)" stroke="#FF7B00" stroke-opacity="0.6" stroke-width="3"/>
<line y1="-1.5" x2="1193.39" y2="-1.5" transform="matrix(0.770291 -0.637693 0.950824 -0.309731 -297.335 369.109)" stroke="#FF7B00" stroke-opacity="0.6" stroke-width="3"/>
<line y1="-1.5" x2="1193.39" y2="-1.5" transform="matrix(0.770291 -0.637693 0.950824 -0.309731 -292.897 376.089)" stroke="#FF7B00" stroke-opacity="0.6" stroke-width="3"/>
<line y1="-1.5" x2="1193.39" y2="-1.5" transform="matrix(0.770291 -0.637693 0.950824 -0.309731 -288.46 383.07)" stroke="#FF7B00" stroke-opacity="0.6" stroke-width="3"/>
<line y1="-1.5" x2="1193.39" y2="-1.5" transform="matrix(0.770291 -0.637693 0.950824 -0.309731 -284.022 390.05)" stroke="#FF7B00" stroke-opacity="0.6" stroke-width="3"/>
<line y1="-1.5" x2="1193.39" y2="-1.5" transform="matrix(0.770291 -0.637693 0.950824 -0.309731 -279.585 397.031)" stroke="#FF7B00" stroke-opacity="0.6" stroke-width="3"/>
<line y1="-1.5" x2="1193.39" y2="-1.5" transform="matrix(0.770291 -0.637693 0.950824 -0.309731 -275.147 404.011)" stroke="#FF7B00" stroke-opacity="0.6" stroke-width="3"/>
<line y1="-1.5" x2="1193.39" y2="-1.5" transform="matrix(0.770291 -0.637693 0.950824 -0.309731 -270.71 410.992)" stroke="#FF7B00" stroke-opacity="0.6" stroke-width="3"/>
<line y1="-1.5" x2="1193.39" y2="-1.5" transform="matrix(0.770291 -0.637693 0.950824 -0.309731 -266.272 417.972)" stroke="#FF7B00" stroke-opacity="0.6" stroke-width="3"/>
<line y1="-1.5" x2="1193.39" y2="-1.5" transform="matrix(0.770291 -0.637693 0.950824 -0.309731 -261.834 424.953)" stroke="#FF7B00" stroke-opacity="0.6" stroke-width="3"/>
<line y1="-1.5" x2="1193.39" y2="-1.5" transform="matrix(0.770291 -0.637693 0.950824 -0.309731 -257.397 431.933)" stroke="#FF7B00" stroke-opacity="0.6" stroke-width="3"/>
<line y1="-1.5" x2="1193.39" y2="-1.5" transform="matrix(0.770291 -0.637693 0.950824 -0.309731 -252.959 438.913)" stroke="#FF7B00" stroke-opacity="0.6" stroke-width="3"/>
<line y1="-1.5" x2="1193.39" y2="-1.5" transform="matrix(0.770291 -0.637693 0.950824 -0.309731 -248.522 445.894)" stroke="#FF7B00" stroke-opacity="0.6" stroke-width="3"/>
<line y1="-1.5" x2="1193.39" y2="-1.5" transform="matrix(0.770291 -0.637693 0.950824 -0.309731 -244.085 452.874)" stroke="#FF7B00" stroke-opacity="0.6" stroke-width="3"/>
<line y1="-1.5" x2="1193.39" y2="-1.5" transform="matrix(0.770291 -0.637693 0.950824 -0.309731 -239.647 459.855)" stroke="#FF7B00" stroke-opacity="0.6" stroke-width="3"/>
<line y1="-1.5" x2="1193.39" y2="-1.5" transform="matrix(0.770291 -0.637693 0.950824 -0.309731 -235.209 466.835)" stroke="#FF7B00" stroke-opacity="0.6" stroke-width="3"/>
<line y1="-1.5" x2="1193.39" y2="-1.5" transform="matrix(0.770291 -0.637693 0.950824 -0.309731 -230.772 473.816)" stroke="#FF7B00" stroke-opacity="0.6" stroke-width="3"/>
<line y1="-1.5" x2="1193.39" y2="-1.5" transform="matrix(0.770291 -0.637693 0.950824 -0.309731 -226.334 480.796)" stroke="#FF7B00" stroke-opacity="0.6" stroke-width="3"/>
<line y1="-1.5" x2="1193.39" y2="-1.5" transform="matrix(0.770291 -0.637693 0.950824 -0.309731 -221.897 487.777)" stroke="#FF7B00" stroke-opacity="0.6" stroke-width="3"/>
<line y1="-1.5" x2="1193.39" y2="-1.5" transform="matrix(0.770291 -0.637693 0.950824 -0.309731 -217.459 494.757)" stroke="#FF7B00" stroke-opacity="0.6" stroke-width="3"/>
<line y1="-1.5" x2="1193.39" y2="-1.5" transform="matrix(0.770291 -0.637693 0.950824 -0.309731 -213.022 501.738)" stroke="#FF7B00" stroke-opacity="0.6" stroke-width="3"/>
<line y1="-1.5" x2="1193.39" y2="-1.5" transform="matrix(0.770291 -0.637693 0.950824 -0.309731 -208.584 508.718)" stroke="#FF7B00" stroke-opacity="0.6" stroke-width="3"/>
<line y1="-1.5" x2="1193.39" y2="-1.5" transform="matrix(0.770291 -0.637693 0.950824 -0.309731 -204.147 515.699)" stroke="#FF7B00" stroke-opacity="0.6" stroke-width="3"/>
<line y1="-1.5" x2="1193.39" y2="-1.5" transform="matrix(0.770291 -0.637693 0.950824 -0.309731 -199.709 522.679)" stroke="#FF7B00" stroke-opacity="0.6" stroke-width="3"/>
<line y1="-1.5" x2="1193.39" y2="-1.5" transform="matrix(0.770291 -0.637693 0.950824 -0.309731 -195.272 529.66)" stroke="#FF7B00" stroke-opacity="0.6" stroke-width="3"/>
<line y1="-1.5" x2="1193.39" y2="-1.5" transform="matrix(0.770291 -0.637693 0.950824 -0.309731 -190.834 536.64)" stroke="#FF7B00" stroke-opacity="0.6" stroke-width="3"/>
<line y1="-1.5" x2="1193.39" y2="-1.5" transform="matrix(0.770291 -0.637693 0.950824 -0.309731 -319.522 334.207)" stroke="#FF7B00" stroke-opacity="0.6" stroke-width="3"/>
</g>
<path d="M5 1H586C588.209 1 590 2.79086 590 5V19H1V5C1 2.79086 2.79086 1 5 1Z" stroke="#FF7B00" stroke-width="2"/>
<circle cx="13" cy="10" r="3" stroke="#FF7B00" stroke-width="2"/>
<circle cx="23" cy="10" r="3" stroke="#FF7B00" stroke-width="2"/>
<circle cx="33" cy="10" r="3" stroke="#FF7B00" stroke-width="2"/>
</svg>
