<svg width="640" height="512" viewBox="0 0 640 512" fill="none" xmlns="http://www.w3.org/2000/svg">
<path d="M313.8 241.5C327.6 241.5 334.8 231.4 338.6 223.6C337.6 222.5 333.6 219.4 331.2 217C328.8 221.3 323 227.7 317.3 227.7C307.1 227.7 301.9 213 314.1 201.1C313.6 200.9 309.8 199.3 306.1 203.5C306.1 200.5 307.1 198.4 308.2 196.9C304.7 198.2 298.4 202.5 296.8 204.8C297 199 298.4 197.3 297.4 195.8L297.2 195.6C297.2 195.6 288.7 201.2 287.9 210.3C287.9 210.3 289 208.7 290 208.4C290.6 208.1 291.3 208.4 290.6 210.3C290.4 210.9 284.8 226 295.7 236.3C295.1 234.7 293.8 228.7 298.1 234.4C297.8 234.5 303.9 241.5 313.8 241.5V241.5ZM366.2 220.4C366.2 216.4 361.3 216 360.6 215.9C362.6 219.8 361.5 223.4 360.8 224.9C363.3 224.5 366.2 223.3 366.2 220.4V220.4ZM376.5 225.6C376.5 219.2 370.3 214.2 363 214.9C371 216.2 368.6 228.7 358 226.3C361.7 223.7 361.2 216.4 356.7 213.8C358.1 218 353.7 222 349.3 218.4C346.9 216.5 341.3 211.8 338.7 209.8C336.3 207.7 333.2 208.8 332.1 208C330.8 206.9 331.6 204.2 329.9 203C328.3 202.2 326.9 202.7 325.1 202C323.5 201.4 322.4 200.1 322.5 198.5C320 202.9 325.9 204.8 327 207C328 208.9 326.2 211.8 331 215.5C345.8 227.1 340.1 223.5 341.4 233.6C342 237.9 345.6 240.3 347.8 241C345.7 239.1 344.9 234.6 347.8 231.7C347.8 245.6 367 245 370.9 238.1C368.5 239.2 363.9 237.9 361.9 236.2C369.6 237.2 376.1 232.1 376.5 225.6V225.6ZM337.1 207.2C339.1 208 338.7 207.9 343.5 211.7C353.7 187.2 365.2 196 365.5 196.2C367.7 194.3 375.3 192.4 379.3 193.5C376.9 190.8 371.8 187.3 366 187.3C361.3 187.3 358.6 189.5 358 188.6C357.2 187.2 361.2 185.2 361.2 185.2C355.8 185.4 351.6 191.9 350 191.1C348.9 190.6 351.4 187.4 351.4 187.4C346.3 190.3 342.1 196.5 341.2 200.4C345.8 194.6 355 190.6 360.9 191.4C350.4 191.9 341.4 201.1 337.1 207.2V207.2ZM579.6 259.1C558.9 259.1 539.6 260.4 529.3 261.2L536.7 269.4V346.6L529.3 354.8C539.7 355.6 560.2 356.9 580.9 356.9C623 356.9 640 336.2 640 308C640 278.7 616.8 259.1 579.6 259.1V259.1ZM564.5 334.7V281.4C594.6 278.1 611.3 285.2 611.3 307.7C611.3 333.3 589.9 337.9 564.5 334.7ZM301.6 181C300.6 177.6 301.4 174.1 302.7 171.6C303.7 174.6 305.3 178 310.2 180.6C309.7 178.2 310 175 310.7 172.6C309.3 167.2 312.8 162.7 317.1 162.7C324 162.7 325.6 171.5 321.8 177.1C323.9 180.3 327.3 182.7 329.5 184.9C332.7 181.2 335 175.4 335 171.1C335 162.9 329.5 155.2 318.3 154.6C298.3 153.7 298.1 171.2 298.3 173.5C298.8 178.7 301.7 181.3 301.6 181ZM301.2 187C300.7 188.8 294.2 190.7 291 193.9C295.8 192.9 298 193.7 298.8 195.7C299.3 197.1 298.6 199.1 298.3 201.3C299.9 199.5 305.3 195.8 309.3 195.1C308.3 194.8 305.9 194.3 305 194.3C307.9 190.9 314.3 189.8 317.8 190.6C315.6 190.4 311.1 191.7 309.3 193.2C310.9 193.5 312.3 193.8 313.6 194.3C311.5 195.1 308.8 197.7 307.8 200.4C314.8 195.4 320.9 205.6 314.8 208.6C315.6 208.8 317.5 208.6 318.3 208.1C318 209.2 316.4 211.1 315.3 211.5C318.2 211.5 322.3 209.6 323.5 206.9C323.5 206.9 321.7 207.5 320.9 206.7C320.1 205.9 321.2 202.4 321.2 202.4C318.9 205.3 317.8 201.1 319.9 198.2C318.9 197.9 316.4 197.6 315.3 197.7C318.5 196.6 325.7 195.9 326.5 197.4C327.1 198.5 325.5 200.8 325.5 200.8C329.5 200.3 333.8 201.9 332.2 205.9C335.1 204.5 337.7 200 337 195.5C336.7 196.5 335.4 197.9 334.1 198.2C334.3 196.8 333.1 196 332.2 195.6C333.9 186 317.6 181.4 318.1 171.7C317.1 173 316.3 176.7 317.3 178.8C320 182 326 185.5 327.4 191C324.8 184.6 312.3 179.6 312.8 170.8C311.2 172.4 310.2 178.6 311.5 181.8C313.9 183.2 316 185.6 316.3 187.9C314.1 182.8 304.9 181.8 302.4 175.7C301.8 177.9 302.1 180.7 303.4 182.4C303.4 182.4 301.2 181.6 296.4 181.8C298.1 182.4 301.5 185.3 301.2 187V187ZM327.1 194.4C324.4 194.4 323.6 192.3 322.9 190.1C326.2 191.4 327.1 194.4 327.1 194.4ZM366 198.1L365 197.5C363.9 196.5 362.1 196.1 360.3 196.1C357.4 196.1 354.5 197.4 352.8 199.5C352 200.3 351.4 201.3 350.7 202.1V217.8C354.2 220.4 357.8 214.9 353.7 210.6C355.2 210.9 358.3 213.3 358.8 213.8C358.8 213.8 361.4 213.3 363.8 213.3C365.9 213.3 367.7 213.6 369.4 214.4V196C368.3 196.5 367.2 197 366.7 197.4L366 198.1ZM79.9 305.9C97.1 301.3 96.1 287.9 96.1 286C96.1 265.4 72 261 59.1 261H3L11.3 269.6V299.1H0L11.4 313.7V346L3 354.6C64.7 354.6 76.8 356.1 89.4 348.7C96.1 344.7 99.3 338.9 99.3 331.1C99.3 326 101.9 312.3 79.9 305.9V305.9ZM38.6 278.4C58.6 278.4 68.2 277.6 68.2 287.5V290.5C68.2 302.6 49.2 299.3 38.6 299.3V278.4ZM38.6 337.6V315C50.8 315 71.3 312.7 71.3 323.8V328.3H71.5C71.5 339.5 59 337.6 38.6 337.6V337.6ZM139.8 318.3L162.9 318.5V318.3L177 297.1H139.8V282.2H192.2L178.1 261.2V261L104.6 261.2L112 269.4V346.5L104.6 354.7H185.8L199.9 333.5L139.8 333.7V318.3ZM354.5 258.2C280.6 258.2 277 357.5 354.2 357.5C432.1 357.5 428.3 258.2 354.5 258.2ZM354.2 335.7C316.8 335.7 317.3 280.4 354.4 280.4C391.2 280.5 393.2 335.7 354.2 335.7ZM262.9 327.4L307 261.2H265.3L271.4 268.4L250.9 305.6H250.6L229.6 268.4L236 261.2H191.1L235.2 327L235.4 346.4L227.7 354.6H270.3L263.1 346.4L262.9 327.4ZM234.5 176.1C236.1 177.4 237.4 178.5 237.4 182.7V221.5C237.4 225.7 236.6 226.8 234.7 227.9C234.6 228 227.2 232.4 226.8 232.5H261.9C271.9 232.5 279.3 231 287.9 223.9C287.3 218.9 288.1 214.4 288.7 211.9C288.7 211.7 286.9 213.3 286 215.4C286 209.7 287.6 200 295.6 194.9C295.5 194.9 291.9 194.1 286.6 196C288.6 192.9 296.6 188.1 297 188.1C288.8 162.1 259 165.2 264.8 165.2C233.9 165.2 232.2 165.5 224.9 161.2C225 162 225.4 169.4 234.5 176.1V176.1ZM256 181.6C260.6 181.6 279.1 178.3 279.1 198.9C279.1 219.6 260.7 216.2 256 216.2V181.6ZM484.9 261.2L491.9 269.5V312H491.6C486.2 297.6 449.3 270.5 446.4 261.1H414.8L422.2 269.6V346.5L415 354.8H454L446.6 346.6V299.2H446.9C450.6 309.8 491.4 342.1 495.4 354.8H516.7V269.6L524.1 261.3L484.9 261.2ZM378.2 165.1C346 165.1 345.4 165.3 338.3 161.1C338.4 161.8 338.8 169.4 347.9 176C351 178 350.8 180.3 350.8 185.5C352.6 184.4 354.6 183.3 356.9 182.5C355.8 183.6 354.2 185.2 353.4 187C354.4 185.9 360.9 181.9 368 183.5C366.4 183.8 364 184.6 361.9 186.4C362 186.4 364 185.3 369.4 186.1V181.8C374.1 181.8 392.5 178.4 392.5 199.1C392.5 219.6 374 216.4 372.8 216.4C378.5 220.8 378.6 228.4 375 232.7H375.3C408.7 232.7 412 205.4 412 198.7C412 194.9 410.9 166.7 378.2 165.1V165.1Z" fill="#616161"/>
</svg>
