<svg width="68" height="32" viewBox="0 0 68 32" fill="none" xmlns="http://www.w3.org/2000/svg">
<path d="M7.78906 26.625H13.6875L13.9219 23.8125H18.2773V31H0.71875V27.6406L10.7773 14.2812H5.60156L5.38672 17.0742H1.01172V9.86719H17.9258V13.1289L7.78906 26.625ZM30.5859 31C30.4297 30.6484 30.293 30.2904 30.1758 29.9258C30.0586 29.5482 29.9674 29.1706 29.9023 28.793C29.2253 29.5742 28.3984 30.2057 27.4219 30.6875C26.4583 31.1693 25.3516 31.4102 24.1016 31.4102C22.0312 31.4102 20.3841 30.8503 19.1602 29.7305C17.9492 28.5977 17.3438 27.0612 17.3438 25.1211C17.3438 23.1419 18.138 21.612 19.7266 20.5312C21.3151 19.4505 23.6458 18.9102 26.7188 18.9102H29.6289V16.8398C29.6289 15.8242 29.3359 15.0365 28.75 14.4766C28.1641 13.9167 27.2982 13.6367 26.1523 13.6367C25.5013 13.6367 24.9219 13.7148 24.4141 13.8711C23.9062 14.0143 23.4961 14.1901 23.1836 14.3984L22.8125 16.6641H18.5156L18.5352 11.9766C19.5768 11.2734 20.7682 10.681 22.1094 10.1992C23.4635 9.71745 24.9349 9.47656 26.5234 9.47656C29.1406 9.47656 31.263 10.1211 32.8906 11.4102C34.5312 12.6862 35.3516 14.5091 35.3516 16.8789V25.6094C35.3516 25.9349 35.3516 26.2409 35.3516 26.5273C35.3646 26.8138 35.3906 27.0872 35.4297 27.3477L37.168 27.582V31H30.5859ZM25.6445 27.1914C26.5039 27.1914 27.2852 27.0091 27.9883 26.6445C28.6914 26.2669 29.2383 25.7982 29.6289 25.2383V22.0156H26.7188C25.5078 22.0156 24.5898 22.3021 23.9648 22.875C23.3398 23.4349 23.0273 24.112 23.0273 24.9062C23.0273 25.6224 23.2552 26.1823 23.7109 26.5859C24.1797 26.9896 24.8242 27.1914 25.6445 27.1914ZM34.9453 27.582L37.6992 26.9961V13.8906L34.6523 13.3047V9.86719H43.4023V26.9961L46.1367 27.582V31H34.9453V27.582ZM43.4023 4.80859H37.6992V0.53125H43.4023V4.80859ZM43.6992 27.582L46.4336 26.9961V13.8906L43.4062 13.3047V9.86719H51.7461L52 12.8945C52.7031 11.8138 53.569 10.974 54.5977 10.375C55.6263 9.77604 56.7786 9.47656 58.0547 9.47656C60.1901 9.47656 61.8568 10.1471 63.0547 11.4883C64.2526 12.8294 64.8516 14.9323 64.8516 17.7969V26.9961L67.5859 27.582V31H56.6875V27.582L59.1289 26.9961V17.8164C59.1289 16.3971 58.8424 15.3945 58.2695 14.8086C57.6966 14.2096 56.8307 13.9102 55.6719 13.9102C54.9167 13.9102 54.2396 14.0664 53.6406 14.3789C53.0417 14.6784 52.5404 15.1081 52.1367 15.668V26.9961L54.4414 27.582V31H43.6992V27.582Z" fill="#333333"/>
</svg>
