<?xml version="1.0" encoding="UTF-8" standalone="no"?>
<!DOCTYPE svg PUBLIC "-//W3C//DTD SVG 1.1//EN" "http://www.w3.org/Graphics/SVG/1.1/DTD/svg11.dtd">
<svg width="100%" height="100%" viewBox="0 0 17 17" version="1.1" xmlns="http://www.w3.org/2000/svg" xmlns:xlink="http://www.w3.org/1999/xlink" xml:space="preserve" xmlns:serif="http://www.serif.com/" style="fill-rule:evenodd;clip-rule:evenodd;stroke-linejoin:round;stroke-miterlimit:2;">
    <g transform="matrix(1,0,0,1,-26,-22)">
        <g>
            <path d="M36.785,33.359L38.801,35.971C38.892,36.088 39.061,36.109 39.178,36.019L40.059,35.339C40.176,35.248 40.197,35.08 40.107,34.962L38.091,32.351C38.047,32.294 37.984,32.258 37.913,32.249C37.901,32.248 37.89,32.247 37.878,32.247C37.819,32.247 37.762,32.266 37.714,32.303L36.834,32.983C36.716,33.073 36.695,33.242 36.785,33.359Z" style="fill:rgb(253,157,76);fill-rule:nonzero;"/>
            <path d="M34.933,29.975C34.886,30.047 34.785,30.106 34.697,30.071C34.117,29.84 33.536,29.609 32.956,29.378C32.502,29.803 32.049,30.228 31.596,30.654C31.596,30.655 31.597,30.655 31.597,30.656C32.702,32.087 34.766,32.353 36.197,31.248C36.89,30.712 37.334,29.939 37.445,29.07C37.494,28.693 37.477,28.317 37.399,27.956C37.052,27.895 36.706,27.834 36.359,27.774C35.884,28.508 35.408,29.241 34.933,29.975Z" style="fill:rgb(46,209,162);fill-rule:nonzero;"/>
            <path d="M32.761,28.988C32.812,28.941 32.896,28.907 32.964,28.935C33.533,29.161 34.102,29.387 34.67,29.614C35.14,28.889 35.609,28.165 36.079,27.44C36.133,27.356 36.218,27.327 36.314,27.344C36.632,27.4 36.95,27.456 37.268,27.511C37.154,27.205 36.994,26.915 36.788,26.648C36.253,25.955 35.48,25.512 34.611,25.4C34.469,25.382 34.327,25.373 34.186,25.373C33.465,25.373 32.769,25.609 32.189,26.057C31.496,26.592 31.052,27.365 30.94,28.234C30.847,28.96 30.996,29.681 31.36,30.303C31.827,29.865 32.294,29.427 32.761,28.988Z" style="fill:rgb(81,220,249);fill-rule:nonzero;"/>
            <path d="M30.94,28.234C31.052,27.365 31.496,26.592 32.189,26.057C32.769,25.609 33.465,25.373 34.186,25.373C34.327,25.373 34.469,25.382 34.611,25.4C35.48,25.512 36.253,25.955 36.788,26.648C36.994,26.915 37.154,27.205 37.268,27.511C36.95,27.456 36.632,27.4 36.314,27.344C36.218,27.327 36.133,27.356 36.079,27.44C35.609,28.165 35.14,28.889 34.67,29.614C34.102,29.387 33.533,29.161 32.964,28.935C32.896,28.907 32.812,28.941 32.761,28.988C32.294,29.427 31.827,29.865 31.36,30.303C30.996,29.681 30.847,28.96 30.94,28.234ZM37.445,29.07C37.334,29.939 36.89,30.712 36.197,31.248C34.766,32.353 32.702,32.087 31.597,30.656C31.597,30.655 31.596,30.655 31.596,30.654C32.049,30.228 32.502,29.803 32.956,29.378C33.536,29.609 34.117,29.84 34.697,30.071C34.785,30.106 34.886,30.047 34.933,29.975C35.408,29.241 35.884,28.508 36.359,27.774C36.706,27.834 37.052,27.895 37.399,27.956C37.477,28.317 37.494,28.693 37.445,29.07ZM37.714,32.303C37.762,32.266 37.819,32.247 37.878,32.247C37.89,32.247 37.901,32.248 37.913,32.249C37.984,32.258 38.047,32.294 38.091,32.351L40.107,34.962C40.197,35.08 40.176,35.248 40.059,35.339L39.178,36.019C39.061,36.109 38.892,36.088 38.801,35.971L36.785,33.359C36.695,33.242 36.716,33.073 36.834,32.983L37.714,32.303ZM27.815,31.972C28.502,31.639 29.19,31.305 29.877,30.972C30.098,31.128 30.318,31.285 30.538,31.441C30.614,31.496 30.728,31.468 30.791,31.409C30.958,31.252 31.124,31.096 31.291,30.94C32.018,31.863 33.102,32.347 34.197,32.347C34.92,32.347 35.649,32.135 36.283,31.7L36.854,32.44L36.579,32.653C36.279,32.884 36.224,33.315 36.455,33.614L38.471,36.226C38.606,36.4 38.809,36.492 39.015,36.492C39.161,36.492 39.308,36.446 39.433,36.35L40.314,35.669C40.613,35.438 40.668,35.007 40.438,34.707L38.421,32.096C38.19,31.797 37.759,31.742 37.46,31.973L37.184,32.185L36.613,31.446C37.302,30.85 37.742,30.034 37.859,29.123C37.906,28.756 37.899,28.389 37.839,28.034C37.881,28.041 37.924,28.048 37.966,28.056C38.06,28.072 38.151,28.044 38.202,27.96C38.673,27.179 39.145,26.399 39.616,25.618C39.755,25.388 39.395,25.178 39.256,25.408C38.81,26.147 38.363,26.886 37.917,27.625C37.856,27.615 37.796,27.604 37.735,27.593C37.607,27.165 37.4,26.758 37.119,26.393C36.515,25.612 35.644,25.112 34.665,24.986C33.685,24.86 32.715,25.123 31.934,25.727C31.152,26.33 30.652,27.202 30.526,28.181C30.417,29.032 30.602,29.876 31.048,30.595C30.907,30.728 30.766,30.86 30.625,30.993C30.417,30.846 30.21,30.698 30.002,30.551C29.939,30.506 29.856,30.52 29.792,30.551C29.063,30.904 28.334,31.258 27.605,31.611C27.363,31.728 27.575,32.088 27.815,31.972Z" style="fill:rgb(51,33,149);fill-rule:nonzero;"/>
            <path d="M55.674,26.008L51.262,26.008C50.993,26.008 50.994,25.591 51.262,25.591L55.674,25.591C55.943,25.591 55.943,26.008 55.674,26.008ZM55.674,27.206L51.262,27.206C50.993,27.206 50.994,26.789 51.262,26.789L55.674,26.789C55.943,26.789 55.943,27.206 55.674,27.206ZM55.674,28.404L51.262,28.404C50.993,28.404 50.994,27.987 51.262,27.987L55.674,27.987C55.943,27.987 55.943,28.404 55.674,28.404ZM55.674,29.602L51.262,29.602C50.993,29.602 50.994,29.185 51.262,29.185L55.674,29.185C55.943,29.185 55.943,29.602 55.674,29.602ZM49.287,26.001C49.242,26.109 49.153,26.191 49.043,26.228L47.973,26.582C47.932,26.596 47.89,26.603 47.847,26.603C47.764,26.603 47.682,26.577 47.613,26.527C47.509,26.453 47.447,26.331 47.447,26.203L47.447,25.076C47.447,24.96 47.497,24.85 47.584,24.774C47.67,24.698 47.784,24.664 47.897,24.679C48.495,24.759 49.012,25.131 49.278,25.676C49.328,25.777 49.331,25.896 49.287,26.001ZM48.506,28.915C48.101,29.294 47.582,29.498 47.031,29.498C46.981,29.498 46.93,29.496 46.878,29.493C45.809,29.42 44.946,28.559 44.87,27.49C44.788,26.32 45.633,25.306 46.795,25.181C46.908,25.169 47.021,25.206 47.105,25.281C47.189,25.357 47.238,25.466 47.238,25.58L47.238,27.044L48.627,26.582C48.735,26.546 48.854,26.559 48.953,26.615C49.051,26.671 49.122,26.768 49.146,26.879C49.177,27.028 49.193,27.181 49.193,27.333C49.193,27.931 48.943,28.507 48.506,28.915ZM56.718,25.215C56.718,24.767 56.353,24.403 55.905,24.403L44.771,24.403C44.323,24.403 43.959,24.767 43.959,25.215L43.959,30.502L56.718,30.502L56.718,25.215Z" style="fill:rgb(81,220,249);fill-rule:nonzero;"/>
            <path d="M44.771,32.228L55.905,32.228C56.353,32.228 56.718,31.864 56.718,31.416L56.718,30.92L43.959,30.92L43.959,31.416C43.959,31.864 44.323,32.228 44.771,32.228Z" style="fill:rgb(132,150,165);fill-rule:nonzero;"/>
            <path d="M43.959,30.92L56.718,30.92L56.718,31.416C56.718,31.864 56.353,32.228 55.905,32.228L52.574,32.228L48.102,32.228L44.771,32.228C44.323,32.228 43.959,31.864 43.959,31.416L43.959,30.92ZM43.959,25.215C43.959,24.767 44.323,24.403 44.771,24.403L55.905,24.403C56.353,24.403 56.718,24.767 56.718,25.215L56.718,30.502L43.959,30.502L43.959,25.215ZM52.157,34.216L48.52,34.216L48.52,32.646L52.157,32.646L52.157,34.216ZM44.771,32.646L48.102,32.646L48.102,34.216L46.741,34.216C46.472,34.216 46.472,34.633 46.741,34.633L53.936,34.633C54.204,34.633 54.204,34.216 53.936,34.216L52.574,34.216L52.574,32.646L55.905,32.646C56.584,32.646 57.135,32.094 57.135,31.416L57.135,25.215C57.135,24.537 56.584,23.985 55.905,23.985L44.771,23.985C44.093,23.985 43.541,24.537 43.541,25.215L43.541,31.416C43.541,32.094 44.093,32.646 44.771,32.646Z" style="fill:rgb(51,33,149);fill-rule:nonzero;"/>
            <path d="M27.776,41.959C27.823,41.656 28.11,41.708 28.336,41.708L38.414,41.708C39.07,41.708 39.738,41.672 40.395,41.708C40.552,41.716 40.691,41.762 40.707,41.957L40.707,42.694C40.707,42.918 40.746,43.185 40.451,43.226L28.032,43.226C27.744,43.185 27.776,42.94 27.776,42.72C27.776,42.476 27.739,42.201 27.776,41.959ZM34.252,40.238C34.509,40.589 34.766,40.939 35.022,41.29L33.557,41.29C33.789,40.939 34.021,40.589 34.252,40.238ZM40.29,52.055C40.29,52.351 40.049,52.591 39.753,52.591L28.723,52.591C28.427,52.591 28.187,52.351 28.187,52.055L28.187,43.645C28.39,43.647 28.594,43.643 28.798,43.643L39.67,43.643C39.877,43.643 40.084,43.647 40.29,43.645L40.29,52.055ZM27.621,43.503C27.668,43.54 27.718,43.567 27.769,43.587L27.769,52.055C27.769,52.581 28.197,53.009 28.723,53.009L39.753,53.009C40.279,53.009 40.707,52.581 40.707,52.055L40.707,43.592C40.744,43.578 40.781,43.561 40.816,43.539C41.107,43.355 41.125,43.052 41.125,42.746L41.125,41.957C41.125,41.938 41.122,41.921 41.118,41.905C41.01,41.103 39.98,41.29 39.388,41.29L35.562,41.29C35.558,41.257 35.545,41.221 35.519,41.186C35.16,40.695 34.801,40.205 34.442,39.715C34.338,39.572 34.143,39.56 34.041,39.715C33.717,40.205 33.394,40.695 33.07,41.186C33.046,41.221 33.036,41.257 33.033,41.29L28.557,41.29C28.382,41.29 28.204,41.282 28.029,41.29C27.251,41.329 27.359,42.143 27.359,42.694C27.359,42.999 27.353,43.296 27.621,43.503Z" style="fill:rgb(51,33,149);fill-rule:nonzero;"/>
        </g>
    </g>
</svg>
