<?xml version="1.0" encoding="UTF-8" standalone="no"?>
<!DOCTYPE svg PUBLIC "-//W3C//DTD SVG 1.1//EN" "http://www.w3.org/Graphics/SVG/1.1/DTD/svg11.dtd">
<svg width="100%" height="100%" viewBox="0 0 40 40" version="1.1" xmlns="http://www.w3.org/2000/svg" xmlns:xlink="http://www.w3.org/1999/xlink" xml:space="preserve" xmlns:serif="http://www.serif.com/" style="fill-rule:evenodd;clip-rule:evenodd;stroke-linejoin:round;stroke-miterlimit:2;">
    <g transform="matrix(1,0,0,1,-2674,-676)">
        <g id="Background" transform="matrix(4.16667,0,0,4.16667,0,0)">
            <g>
                <clipPath id="_clip1">
                    <rect x="0" y="1.434" width="748.712" height="498.566" clip-rule="nonzero"/>
                </clipPath>
                <g clip-path="url(#_clip1)">
                    <g opacity="0.2">
                        <g transform="matrix(1,0,0,1,240.891,218.811)">
                            <path d="M0,-228.599C7.285,-166.357 57.78,-115.315 116.135,-92.469C174.489,-69.624 239.473,-70.724 301.62,-78.779C334.906,-83.092 375.27,-86.587 395.452,-59.769C416.775,-31.434 399.357,10.17 410.377,43.877C419.946,73.15 451.407,92.048 482.205,91.869C513.002,91.69 542.103,74.936 562.381,51.756C582.66,28.577 595.032,-0.507 603.748,-30.046C615.627,-70.307 621.288,-112.991 614.747,-154.455C608.207,-195.919 588.699,-236.128 556.499,-263.058C518.243,-295.052 466.545,-305.551 416.828,-309.47C275.03,-320.647 129.976,-285.949 8.585,-211.815" style="fill:white;fill-rule:nonzero;"/>
                        </g>
                    </g>
                </g>
            </g>
        </g>
        <g id="Objects" transform="matrix(4.16667,0,0,4.16667,0,0)">
            <g transform="matrix(0.24,-0,-0,0.24,641.76,162.24)">
            </g>
            <g transform="matrix(0.24,-0,-0,0.24,641.76,162.24)">
            </g>
            <g transform="matrix(1,0,0,1,643.451,170.585)">
                <path d="M0,-7.636C-0.499,-5.146 -0.915,-2.653 -1.305,-0.144C-1.41,0.539 -0.937,0.994 -0.262,0.899C2.098,0.563 4.444,0.251 6.769,-0.282C7.272,-0.397 7.481,-1.011 7.239,-1.438C6.501,-2.737 5.794,-4.013 4.881,-5.202C4.032,-6.308 3.028,-7.71 1.734,-8.297C1.002,-8.63 0.05,-7.914 0.551,-7.114C1.197,-6.083 2.254,-5.329 3.081,-4.437C4.143,-3.293 5.137,-2.018 5.88,-0.643C6.106,-1.038 6.333,-1.433 6.56,-1.828C4.11,-1.605 1.708,-1.163 -0.713,-0.736C-0.355,-0.464 0.003,-0.191 0.36,0.081C0.643,-2.442 0.893,-4.958 1.063,-7.492C1.104,-8.1 0.12,-8.234 0,-7.636" style="fill:rgb(227,112,127);fill-rule:nonzero;"/>
            </g>
        </g>
        <g id="Designed-by-freepik" serif:id="Designed by freepik">
        </g>
    </g>
</svg>
