<?xml version="1.0" encoding="UTF-8" standalone="no"?>
<!DOCTYPE svg PUBLIC "-//W3C//DTD SVG 1.1//EN" "http://www.w3.org/Graphics/SVG/1.1/DTD/svg11.dtd">
<svg width="100%" height="100%" viewBox="0 0 43 44" version="1.1" xmlns="http://www.w3.org/2000/svg" xmlns:xlink="http://www.w3.org/1999/xlink" xml:space="preserve" xmlns:serif="http://www.serif.com/" style="fill-rule:evenodd;clip-rule:evenodd;stroke-linejoin:round;stroke-miterlimit:2;">
    <g transform="matrix(1,0,0,1,-2321,-676)">
        <g id="Background" transform="matrix(4.16667,0,0,4.16667,0,0)">
            <g>
                <clipPath id="_clip1">
                    <rect x="0" y="1.434" width="748.712" height="498.566" clip-rule="nonzero"/>
                </clipPath>
                <g clip-path="url(#_clip1)">
                    <g opacity="0.2">
                        <g transform="matrix(1,0,0,1,240.891,218.811)">
                            <path d="M0,-228.599C7.285,-166.357 57.78,-115.315 116.135,-92.469C174.489,-69.624 239.473,-70.724 301.62,-78.779C334.906,-83.092 375.27,-86.587 395.452,-59.769C416.775,-31.434 399.357,10.17 410.377,43.877C419.946,73.15 451.407,92.048 482.205,91.869C513.002,91.69 542.103,74.936 562.381,51.756C582.66,28.577 595.032,-0.507 603.748,-30.046C615.627,-70.307 621.288,-112.991 614.747,-154.455C608.207,-195.919 588.699,-236.128 556.499,-263.058C518.243,-295.052 466.545,-305.551 416.828,-309.47C275.03,-320.647 129.976,-285.949 8.585,-211.815" style="fill:white;fill-rule:nonzero;"/>
                        </g>
                    </g>
                </g>
            </g>
        </g>
        <g id="Objects" transform="matrix(4.16667,0,0,4.16667,0,0)">
            <g transform="matrix(0.24,-0,-0,0.24,557.04,162.24)">
            </g>
            <g transform="matrix(0.24,-0,-0,0.24,557.04,162.24)">
            </g>
            <g transform="matrix(1,0,0,1,557.164,167.391)">
                <path d="M0,0.079C0.251,1.31 0.958,2.357 1.639,3.396C2.017,3.973 2.656,5.107 3.41,5.289C4.304,5.505 4.796,5.176 5.528,4.67C6.904,3.72 8.266,2.751 9.628,1.782C10.042,1.487 10.282,0.927 9.976,0.454C8.847,-1.285 7.717,-3.024 6.587,-4.762C6.318,-5.175 5.706,-5.426 5.259,-5.11C3.857,-4.117 2.355,-3.196 1.073,-2.05C0.289,-1.349 1.291,-0.158 2.164,-0.636C3.598,-1.423 4.905,-2.49 6.239,-3.434C5.796,-3.55 5.354,-3.666 4.911,-3.782C6.041,-2.044 7.171,-0.305 8.3,1.433C8.416,0.991 8.532,0.548 8.647,0.106C7.114,1.198 5.585,2.294 4.067,3.407C3.896,3.533 1.017,0.015 0.548,-0.342C0.262,-0.559 -0.058,-0.203 0,0.079" style="fill:rgb(227,112,127);fill-rule:nonzero;"/>
            </g>
        </g>
        <g id="Designed-by-freepik" serif:id="Designed by freepik">
        </g>
    </g>
</svg>
