<svg width="136" height="135" viewBox="0 0 136 135" fill="none" xmlns="http://www.w3.org/2000/svg">
<path d="M12.9624 78.6028C6.35077 48.5214 25.5174 18.7449 55.7723 12.0952C86.0271 5.44546 114.346 16.1232 120.958 46.2046C127.569 76.286 114.665 113.348 84.4106 119.997C49.8615 135.54 14.6011 118.988 12.9624 78.6028Z" fill="#2CAC50"/>
<path fill-rule="evenodd" clip-rule="evenodd" d="M60.7718 59.2728H76.1382V47.9454H60.7718V59.2728ZM69.0304 60.8226V60.8506H76.925C77.3618 60.8506 77.7146 60.4978 77.7146 60.061V47.1557C77.7146 46.7203 77.3618 46.3676 76.925 46.3676H59.9836C59.5482 46.3676 59.194 46.7203 59.194 47.1557V60.061C59.194 60.4978 59.5482 60.8506 59.9836 60.8506H67.881V60.8226H69.0304Z" fill="white"/>
<path fill-rule="evenodd" clip-rule="evenodd" d="M39.1417 86.2171H54.5068V74.8884H39.1417V86.2171ZM56.0832 87.0054V74.1002C56.0832 73.6648 55.7303 73.312 55.2949 73.312H38.3521C37.9167 73.312 37.564 73.6648 37.564 74.1002V87.0054C37.564 87.4408 37.9167 87.7936 38.3521 87.7936H55.2949C55.7303 87.7936 56.0832 87.4408 56.0832 87.0054Z" fill="white"/>
<path fill-rule="evenodd" clip-rule="evenodd" d="M60.7731 86.2171H76.1381V74.8884H60.7731V86.2171ZM59.9835 73.312C59.5481 73.312 59.1953 73.6648 59.1953 74.1002V87.0054C59.1953 87.4408 59.5481 87.7936 59.9835 87.7936H76.9263C77.3617 87.7936 77.7145 87.4408 77.7145 87.0054V74.1002C77.7145 73.6648 77.3617 73.312 76.9263 73.312H59.9835Z" fill="white"/>
<path fill-rule="evenodd" clip-rule="evenodd" d="M82.4046 86.2171H97.7682V74.8884H82.4046V86.2171ZM81.615 73.312C81.1796 73.312 80.8268 73.6648 80.8268 74.1002V87.0054C80.8268 87.4408 81.1796 87.7936 81.615 87.7936H98.5578C98.9932 87.7936 99.346 87.4408 99.346 87.0054V74.1002C99.346 73.6648 98.9932 73.312 98.5578 73.312H81.615Z" fill="white"/>
<path fill-rule="evenodd" clip-rule="evenodd" d="M47.2855 72.2102H48.4335V67.9149H67.8809V72.2102H69.0303V67.9149H88.4749V72.2102H89.6243V66.7641H69.0303V60.8225H67.8809V66.7641H47.2855V72.2102Z" fill="white"/>
</svg>
