<svg width="159" height="159" viewBox="0 0 159 159" fill="none" xmlns="http://www.w3.org/2000/svg">
<path d="M46.0468 123.987C17.1835 103.818 11.8777 68.8497 34.0492 45.8076C51.5472 26.536 79.7288 16.5543 105.474 28.169C123.875 44.4288 141.942 81.6661 126.989 107.656C111.409 142.188 74.0308 153.151 46.0468 123.987Z" fill="#ED56CC"/>
<path fill-rule="evenodd" clip-rule="evenodd" d="M89.8513 76.9601C81.0005 76.9601 72.1469 76.9601 63.2961 76.9601C62.2335 76.9601 62.2321 78.6121 63.2961 78.6121C72.1469 78.6121 81.0005 78.6121 89.8513 78.6121C90.9139 78.6121 90.9153 76.9601 89.8513 76.9601Z" fill="white"/>
<path fill-rule="evenodd" clip-rule="evenodd" d="M89.8513 84.4921C81.0005 84.4921 72.1469 84.4921 63.2961 84.4921C62.2335 84.4921 62.2321 86.1441 63.2961 86.1441C72.1469 86.1441 81.0005 86.1441 89.8513 86.1441C90.9139 86.1441 90.9153 84.4921 89.8513 84.4921Z" fill="white"/>
<path fill-rule="evenodd" clip-rule="evenodd" d="M89.8513 92.0239C81.0005 92.0239 72.1469 92.0239 63.2961 92.0239C62.2335 92.0239 62.2321 93.6759 63.2961 93.6759C72.1469 93.6759 81.0005 93.6759 89.8513 93.6759C90.9139 93.6759 90.9153 92.0239 89.8513 92.0239Z" fill="white"/>
<path fill-rule="evenodd" clip-rule="evenodd" d="M89.8513 99.556C81.0005 99.556 72.1469 99.556 63.2961 99.556C62.2335 99.556 62.2321 101.208 63.2961 101.208C72.1469 101.208 81.0005 101.208 89.8513 101.208C90.9139 101.208 90.9153 99.556 89.8513 99.556Z" fill="white"/>
<path fill-rule="evenodd" clip-rule="evenodd" d="M62.739 70.268C62.739 69.582 63.2962 69.022 63.9794 69.022C64.6626 69.022 65.2184 69.582 65.2184 70.268C65.2184 70.94 64.6626 71.5 63.9794 71.5C63.2962 71.5 62.739 70.94 62.739 70.268ZM66.099 70.268C66.099 69.092 65.147 68.14 63.9794 68.14C62.8104 68.14 61.8584 69.092 61.8584 70.268C61.8584 71.43 62.8104 72.3821 63.9794 72.3821C65.147 72.3821 66.099 71.43 66.099 70.268Z" fill="white"/>
<path fill-rule="evenodd" clip-rule="evenodd" d="M70.2766 69.022C70.9598 69.022 71.5156 69.582 71.5156 70.268C71.5156 70.94 70.9598 71.5 70.2766 71.5C69.5934 71.5 69.0376 70.94 69.0376 70.268C69.0376 69.582 69.5934 69.022 70.2766 69.022ZM70.2766 72.3821C71.4456 72.3821 72.3962 71.43 72.3962 70.268C72.3962 69.092 71.4456 68.14 70.2766 68.14C69.1076 68.14 68.1556 69.092 68.1556 70.268C68.1556 71.43 69.1076 72.3821 70.2766 72.3821Z" fill="white"/>
<path fill-rule="evenodd" clip-rule="evenodd" d="M76.5738 69.022C77.257 69.022 77.8127 69.582 77.8127 70.268C77.8127 70.94 77.257 71.5 76.5738 71.5C75.8906 71.5 75.3347 70.94 75.3347 70.268C75.3347 69.582 75.8906 69.022 76.5738 69.022ZM76.5738 72.3821C77.7428 72.3821 78.6947 71.43 78.6947 70.268C78.6947 69.092 77.7428 68.14 76.5738 68.14C75.4048 68.14 74.4541 69.092 74.4541 70.268C74.4541 71.43 75.4048 72.3821 76.5738 72.3821Z" fill="white"/>
<path fill-rule="evenodd" clip-rule="evenodd" d="M82.8724 69.022C83.5556 69.022 84.1114 69.582 84.1114 70.268C84.1114 70.94 83.5556 71.5 82.8724 71.5C82.1878 71.5 81.632 70.94 81.632 70.268C81.632 69.582 82.1878 69.022 82.8724 69.022ZM82.8724 72.3821C84.0414 72.3821 84.992 71.43 84.992 70.268C84.992 69.092 84.0414 68.14 82.8724 68.14C81.702 68.14 80.7513 69.092 80.7513 70.268C80.7513 71.43 81.702 72.3821 82.8724 72.3821Z" fill="white"/>
<path fill-rule="evenodd" clip-rule="evenodd" d="M89.1695 69.022C89.8527 69.022 90.4085 69.582 90.4085 70.268C90.4085 70.94 89.8527 71.5 89.1695 71.5C88.4849 71.5 87.9291 70.94 87.9291 70.268C87.9291 69.582 88.4849 69.022 89.1695 69.022ZM87.0486 70.268C87.0486 71.43 87.9991 72.3821 89.1695 72.3821C90.3385 72.3821 91.2892 71.43 91.2892 70.268C91.2892 69.092 90.3385 68.14 89.1695 68.14C87.9991 68.14 87.0486 69.092 87.0486 70.268Z" fill="white"/>
<path fill-rule="evenodd" clip-rule="evenodd" d="M98.7217 69.064C93.3681 69.176 89.0828 67.02 87.2656 63.296C87.1326 63.03 87.0164 62.708 86.9212 62.358L86.8708 62.162L86.6943 62.078C86.0139 61.728 85.4022 61.252 84.9234 60.678C83.4534 58.9266 83.7208 56.849 84.1772 55.0486C84.2304 54.84 84.3732 54.791 84.4894 54.791C84.5384 54.791 84.5832 54.8008 84.6154 54.8078C84.6812 54.8246 85.0032 54.9254 84.9164 55.2712C84.5244 56.8168 84.2682 58.2112 85.1138 59.628C85.3238 59.978 85.6024 60.314 85.9412 60.622L86.6608 61.294L86.679 60.314C86.7098 58.7306 87.2068 57.4552 88.0426 56.814C88.6698 56.3324 89.4874 56.2134 90.473 56.457C92.2412 56.8952 92.4932 58.1916 92.4862 58.9266C92.4708 60.384 91.4194 62.12 89.6862 62.512C89.325 62.596 88.9372 62.624 88.5368 62.596L87.7458 62.54L88.1168 63.24C90.606 67.944 96.3726 68.336 98.7386 68.294C98.7414 68.294 98.7456 68.294 98.7484 68.294C99.0466 68.294 99.0844 68.546 99.0872 68.658C99.0886 68.728 99.0759 69.064 98.7217 69.064ZM95.9708 107.382H58.2044V63.702H86.4829C88.1265 67.048 91.5748 69.218 95.9708 69.792V107.382ZM95.9708 63.702V67.244C93.7728 66.908 91.1086 65.998 89.4482 63.702H95.9708ZM98.7217 67.412C98.3325 67.426 97.844 67.426 97.291 67.384V62.372H91.761C92.7746 61.462 93.3542 60.118 93.3668 58.9336C93.3836 57.269 92.3812 56.023 90.6858 55.603C89.444 55.295 88.345 55.4714 87.5064 56.1154C86.6692 56.7566 86.1049 57.8556 85.8921 59.2136C85.8837 59.201 85.8767 59.1898 85.8697 59.1772C85.1963 58.0488 85.4148 56.8882 85.769 55.4882C85.9706 54.6972 85.4357 54.1078 84.8309 53.9552C84.2303 53.8026 83.5206 54.0546 83.3232 54.833C82.843 56.73 82.5126 59.1744 84.25 61.252C84.607 61.672 85.0326 62.05 85.5002 62.372H56.8828V108.712H97.291V69.918C97.6424 69.946 97.998 69.96 98.3592 69.96C98.4838 69.96 98.6112 69.96 98.7386 69.946C99.552 69.932 99.979 69.26 99.9678 68.644C99.9552 68.028 99.5197 67.426 98.7217 67.412Z" fill="white"/>
<path fill-rule="evenodd" clip-rule="evenodd" d="M88.1868 60.8879C88.0776 60.2859 88.1083 59.782 88.2763 59.3186C88.5395 58.6046 89.0198 58.221 89.6358 58.2504C90.2084 58.2756 90.7613 58.6689 90.8943 59.1491C91.0301 59.6419 90.7193 60.1599 90.0193 60.6219C89.3865 61.0419 88.7076 61.0139 88.1868 60.8879ZM90.5037 61.35C91.9667 60.398 91.8576 59.3269 91.7428 58.9125C91.5076 58.0599 90.6368 57.4118 89.6722 57.3712C88.6768 57.3264 87.8452 57.9423 87.4504 59.0133C87.1998 59.6839 87.1774 60.4679 87.3804 61.3359L87.4377 61.5739L87.673 61.6579C88.065 61.7839 88.4528 61.8539 88.8294 61.8539C89.437 61.8539 90.0081 61.686 90.5037 61.35Z" fill="white"/>
</svg>
