<svg width="164" height="164" viewBox="0 0 164 164" fill="none" xmlns="http://www.w3.org/2000/svg">
<path d="M122.155 123.191C100.376 144.969 64.9644 144.867 43.0603 122.963C21.1563 101.059 17.6549 62.2481 39.4334 40.4697C61.2119 18.6912 96.6235 18.793 118.528 40.6971C150.237 61.4268 155.293 100.05 122.155 123.191Z" fill="#EE5B5B"/>
<path fill-rule="evenodd" clip-rule="evenodd" d="M80.782 81.0962C79.8048 80.3822 78.6049 79.9552 77.3043 79.9552C74.0437 79.9552 71.3921 82.6054 71.3921 85.8646C71.3921 89.1266 74.0437 91.7768 77.3043 91.7768C80.5635 91.7768 83.2166 89.1266 83.2166 85.8646C83.2166 84.5654 82.7882 83.3642 82.0728 82.387L86.4239 78.0372C88.2341 80.1428 89.3318 82.8784 89.3318 85.8646C89.3318 92.4992 83.9361 97.8934 77.3043 97.8934C70.6711 97.8934 65.2756 92.4992 65.2756 85.8646C65.2756 79.2342 70.6711 73.8386 77.3043 73.8386C80.2919 73.8386 83.0276 74.9362 85.1318 76.7464L80.782 81.0962ZM76.6589 86.51C76.8367 86.6892 77.0705 86.7788 77.3043 86.7788C77.5381 86.7788 77.7706 86.6892 77.9484 86.51L80.7609 83.7002C81.1571 84.3288 81.3896 85.0694 81.3896 85.8646C81.3896 88.1186 79.5569 89.9498 77.3043 89.9498C75.0517 89.9498 73.2192 88.1186 73.2192 85.8646C73.2192 83.6134 75.0517 81.7808 77.3043 81.7808C78.0995 81.7808 78.8415 82.0132 79.4701 82.4094L76.6589 85.2206C76.3019 85.5762 76.3019 86.1544 76.6589 86.51ZM97.2418 85.8646C97.2418 96.8588 88.2971 105.805 77.3043 105.805C66.3101 105.805 57.3655 96.8588 57.3655 85.8646C57.3655 74.8718 66.3101 65.9272 77.3043 65.9272C82.4731 65.9272 87.1884 67.9054 90.7346 71.1436L86.4267 75.4528C83.9879 73.3136 80.7959 72.0116 77.3043 72.0116C69.6645 72.0116 63.45 78.2262 63.45 85.8646C63.45 93.5044 69.6645 99.7204 77.3043 99.7204C84.9441 99.7204 91.1587 93.5044 91.1587 85.8646C91.1587 82.373 89.8567 79.1824 87.7175 76.7436L92.0267 72.4358C95.2635 75.9806 97.2418 80.6972 97.2418 85.8646ZM99.0057 54.3478C98.8251 53.8774 98.296 53.6436 97.8256 53.8256C97.3552 54.0076 97.1214 54.5368 97.3034 55.0058L99.9451 61.8266C99.9549 61.8504 99.9732 61.87 99.9844 61.8938L98.0412 63.8384L95.6541 57.4824C95.4777 57.0106 94.9528 56.7712 94.4782 56.9476C94.0064 57.1254 93.7669 57.6518 93.9447 58.1236L96.5852 65.1572C96.5978 65.1894 96.6188 65.2132 96.6342 65.244L92.0254 69.8528C88.1474 66.2842 82.9757 64.1016 77.3043 64.1016C65.3035 64.1016 55.5399 73.8638 55.5399 85.8646C55.5399 97.8668 65.3035 107.629 77.3043 107.629C89.3051 107.629 99.0673 97.8668 99.0673 85.8646C99.0673 80.1932 96.8848 75.0216 93.3162 71.145L97.4125 67.0472C97.5581 67.253 97.785 67.3986 98.0552 67.4294L106.629 68.3702C106.662 68.3744 106.696 68.3758 106.73 68.3758C107.189 68.3758 107.585 68.03 107.637 67.5624C107.691 67.0626 107.329 66.6118 106.828 66.5544L98.7888 65.6724L101.145 63.3148C101.184 63.326 101.222 63.3372 101.263 63.3414L109.836 64.2822C109.87 64.285 109.903 64.2878 109.937 64.2878C110.396 64.2878 110.791 63.942 110.843 63.4744C110.899 62.9732 110.536 62.5224 110.035 62.4678L102.79 61.6712L107.192 57.271C107.547 56.914 107.547 56.3358 107.192 55.9788C106.835 55.6232 106.256 55.6232 105.899 55.9788L101.387 60.4924L99.0057 54.3478Z" fill="white"/>
</svg>
