<svg width="159" height="159" viewBox="0 0 159 159" fill="none" xmlns="http://www.w3.org/2000/svg">
<path d="M45.6513 123.698C20.7691 105.547 15.3975 70.5448 33.6537 45.519C51.9098 20.4933 80.1961 9.72891 105.078 27.8804C129.961 46.0318 144.85 82.3416 126.594 107.367C111.013 141.899 73.6353 152.862 45.6513 123.698Z" fill="#F7BA1F"/>
<path fill-rule="evenodd" clip-rule="evenodd" d="M85.5044 80.6482L72.1932 96.4332L57.2664 70.6788L85.5044 80.6482ZM91.5048 76.108L92.2552 86.6864L87.8242 79.7368C87.8074 79.7102 87.785 79.6906 87.7668 79.6668C87.7472 79.6402 87.7276 79.6136 87.7052 79.5912C87.6856 79.5702 87.6632 79.5534 87.6436 79.5352C87.6268 79.5226 87.6114 79.5086 87.5932 79.496C87.575 79.482 87.5582 79.468 87.5386 79.4554C87.5022 79.433 87.463 79.4162 87.4252 79.3994C87.4014 79.3882 87.3832 79.3756 87.3594 79.3672C87.3594 79.3672 87.3594 79.3658 87.358 79.3658L65.6188 71.6896L91.5048 76.108ZM101.757 70.1384L92.2454 74.3804L66.3412 69.9606L101.757 70.1384ZM83.718 85.5986L84.5104 84.6606L86.9506 81.764L91.2094 88.4434L83.718 85.5986ZM55.2336 68.079C55.2294 68.079 55.2252 68.0804 55.221 68.0804C55.2014 68.0804 55.1846 68.0846 55.1678 68.0846C55.1258 68.0888 55.0852 68.0916 55.046 68.1C55.0432 68.1 55.0404 68.1014 55.0376 68.1014C55.0292 68.1042 55.0222 68.107 55.0138 68.1098C54.997 68.1126 54.9816 68.1182 54.9662 68.1238C54.8864 68.1476 54.8122 68.1784 54.7436 68.2218C54.7394 68.2246 54.7366 68.2274 54.7324 68.2302C54.6638 68.275 54.6036 68.331 54.549 68.3926C54.5434 68.3996 54.5364 68.4024 54.5308 68.4094C54.528 68.4136 54.5266 68.4178 54.5238 68.4206C54.5154 68.4318 54.5056 68.4416 54.4986 68.4528C54.4958 68.4556 54.493 68.4612 54.4902 68.464C54.4608 68.506 54.4342 68.5494 54.4118 68.597C54.409 68.6026 54.4076 68.6082 54.4048 68.6152C54.402 68.6208 54.4006 68.625 54.3978 68.632C54.3922 68.646 54.3866 68.66 54.381 68.674C54.3712 68.702 54.3586 68.73 54.3516 68.7594C54.3516 68.7608 54.3516 68.7608 54.3502 68.7636C54.3488 68.772 54.3488 68.7818 54.346 68.7916C54.3362 68.8308 54.3278 68.8714 54.3236 68.9134C54.3236 68.9176 54.325 68.9232 54.3236 68.9288C54.3222 68.9456 54.325 68.9596 54.325 68.975C54.3236 69.017 54.3236 69.0604 54.3278 69.1024C54.3278 69.1108 54.332 69.1192 54.3334 69.1276C54.3348 69.1402 54.3376 69.1514 54.3404 69.164C54.3432 69.178 54.346 69.192 54.3502 69.2074C54.3544 69.227 54.3572 69.2466 54.3628 69.2662C54.3642 69.2704 54.3656 69.2732 54.367 69.2774C54.3838 69.3264 54.4034 69.374 54.4272 69.4202C54.43 69.423 54.4328 69.4272 54.4356 69.4314C54.4356 69.4328 54.437 69.4342 54.4384 69.437C54.4412 69.4412 54.4412 69.4454 54.444 69.4496L71.265 98.473C71.4134 98.7306 71.678 98.8986 71.9734 98.9252C72 98.928 72.028 98.928 72.0546 98.928C72.322 98.928 72.5782 98.8104 72.7518 98.6032L82.4706 87.0784L93.0854 91.109C93.091 91.1118 93.1316 91.1272 93.1386 91.1286C93.2436 91.1692 93.3528 91.1874 93.4606 91.1874C93.7308 91.1874 93.994 91.067 94.1704 90.8486C94.3692 90.6036 94.4168 90.2816 94.3202 89.9918L93.3206 75.9008L106.37 70.081C106.763 69.906 106.98 69.4804 106.892 69.059C106.803 68.639 106.433 68.3366 106.003 68.3338L55.2378 68.079C55.2364 68.079 55.235 68.079 55.2336 68.079Z" fill="white"/>
</svg>
