<svg width="47" height="47" viewBox="0 0 47 47" fill="none" xmlns="http://www.w3.org/2000/svg">
<path fill-rule="evenodd" clip-rule="evenodd" d="M32.793 5.18103C32.716 5.14903 32.654 5.08799 32.622 5.01099C32.605 4.97399 32.598 4.93401 32.597 4.89301C32.598 4.93401 32.605 4.97399 32.622 5.01099C32.654 5.08799 32.716 5.14903 32.793 5.18103L36.582 6.71198C36.62 6.72798 36.66 6.73602 36.7 6.73602C36.66 6.73602 36.62 6.72798 36.582 6.71198L32.793 5.18103Z" fill="white"/>
<path fill-rule="evenodd" clip-rule="evenodd" d="M3.875 16.964H4.41101V14.038C4.41101 13.361 4.96101 12.81 5.63901 12.81H29.369L29.877 11.552H5.63901C4.26801 11.552 3.15201 12.667 3.15201 14.038V17.906C3.15201 17.908 3.15302 17.909 3.15302 17.91V17.906C3.15302 17.785 3.18899 17.673 3.24799 17.577C3.25699 17.238 3.534 16.964 3.875 16.964Z" fill="white"/>
<path fill-rule="evenodd" clip-rule="evenodd" d="M40.145 11.239H35.09L34.581 12.498H40.145C40.822 12.498 41.372 13.048 41.372 13.726V16.964H42.001C42.349 16.964 42.63 17.246 42.63 17.593V17.595V13.726C42.63 12.354 41.515 11.239 40.145 11.239Z" fill="white"/>
<path fill-rule="evenodd" clip-rule="evenodd" d="M41.372 36.781C41.372 37.458 40.822 38.009 40.145 38.009H5.73199C5.05499 38.009 4.504 37.458 4.504 36.781V18.223H27.179L24.523 24.788C24.514 24.811 24.509 24.834 24.5 24.857L25.083 25.093C25.091 25.07 25.097 25.046 25.106 25.024L33.085 5.29901L36.29 6.59497L28.311 26.32C28.302 26.343 28.286 26.362 28.275 26.384L28.861 26.621C28.871 26.599 28.885 26.579 28.894 26.556L32.265 18.223H41.372V36.781ZM42.001 16.964H32.774L36.991 6.53998C36.959 6.61698 36.899 6.67802 36.822 6.71002C36.783 6.72702 36.742 6.73602 36.7 6.73602C36.66 6.73602 36.62 6.72798 36.582 6.71198L32.793 5.18103C32.716 5.14903 32.654 5.08799 32.622 5.01099C32.605 4.97399 32.598 4.93401 32.597 4.89301C32.597 4.85301 32.604 4.81199 32.619 4.77399L30.004 11.239L29.877 11.552L29.369 12.81L27.688 16.964H3.875C3.534 16.964 3.25699 17.238 3.24799 17.577C3.24799 17.583 3.246 17.588 3.246 17.593V36.781C3.246 38.152 4.36099 39.267 5.73199 39.267H40.145C41.515 39.267 42.63 38.152 42.63 36.781V17.593C42.63 17.246 42.349 16.964 42.001 16.964Z" fill="white"/>
<path fill-rule="evenodd" clip-rule="evenodd" d="M5.483 14.383C5.483 14.575 5.639 14.731 5.832 14.731H8.539C8.731 14.731 8.888 14.575 8.888 14.383C8.888 14.19 8.731 14.035 8.539 14.035H5.832C5.639 14.035 5.483 14.19 5.483 14.383Z" fill="white"/>
<path fill-rule="evenodd" clip-rule="evenodd" d="M37.604 14.731H40.313C40.504 14.731 40.66 14.575 40.66 14.383C40.66 14.19 40.504 14.035 40.313 14.035H37.604C37.413 14.035 37.257 14.19 37.257 14.383C37.257 14.575 37.413 14.731 37.604 14.731Z" fill="white"/>
<path fill-rule="evenodd" clip-rule="evenodd" d="M33.434 4.43498C33.568 4.10298 33.855 3.85198 34.243 3.72898C34.651 3.59898 35.117 3.62498 35.555 3.80198C36.438 4.15898 36.924 5.025 36.639 5.731L36.526 6.01097L33.321 4.71501L33.434 4.43498ZM32.597 4.89299C32.598 4.93399 32.605 4.97397 32.622 5.01097C32.654 5.08797 32.716 5.14901 32.793 5.18101L36.582 6.71195C36.62 6.72795 36.66 6.736 36.7 6.736C36.742 6.736 36.783 6.727 36.822 6.71C36.899 6.678 36.959 6.61696 36.991 6.53996V6.53898L37.222 5.96696C37.637 4.93896 36.995 3.70597 35.791 3.21897C35.217 2.98697 34.6 2.95501 34.052 3.12901C33.483 3.31101 33.057 3.69095 32.851 4.19895L32.62 4.77098C32.619 4.77198 32.62 4.77299 32.62 4.77299L32.619 4.77397C32.604 4.81197 32.597 4.85299 32.597 4.89299Z" fill="white"/>
<path fill-rule="evenodd" clip-rule="evenodd" d="M25.432 29.778C25.179 29.668 24.937 29.56 24.716 29.459L24.93 25.709L27.904 26.913L25.432 29.778ZM24.063 29.851L24.257 29.94C24.3 29.96 24.345 29.981 24.39 30.001L24.196 31.639C24.184 31.739 24.314 31.789 24.373 31.706L25.29 30.403C25.324 30.417 25.358 30.433 25.393 30.448L25.605 30.54L28.954 26.659L28.861 26.621L25.083 25.093L24.5 24.857L24.352 24.797L24.063 29.851Z" fill="white"/>
</svg>
