<?xml version="1.0" encoding="UTF-8" standalone="no"?>
<!DOCTYPE svg PUBLIC "-//W3C//DTD SVG 1.1//EN" "http://www.w3.org/Graphics/SVG/1.1/DTD/svg11.dtd">
<svg width="100%" height="100%" viewBox="0 0 273 782" version="1.1" xmlns="http://www.w3.org/2000/svg" xmlns:xlink="http://www.w3.org/1999/xlink" xml:space="preserve" xmlns:serif="http://www.serif.com/" style="fill-rule:evenodd;clip-rule:evenodd;stroke-linejoin:round;stroke-miterlimit:2;">
    <g transform="matrix(1,0,0,1,-1952,-200)">
        <g transform="matrix(2,0,0,2,0,0)">
            <rect x="806.871" y="83.395" width="306.309" height="433.21" style="fill:none;"/>
            <path d="M1022.19,410.979L1021.49,410.275L1032.56,399.201L1033.26,399.905L1022.19,410.979Z" style="fill-rule:nonzero;"/>
            <path d="M1033.26,410.979L1032.56,410.275L1043.63,399.201L1044.34,399.905L1033.26,410.979Z" style="fill-rule:nonzero;"/>
            <path d="M1044.34,410.979L1043.63,410.275L1054.71,399.201L1055.41,399.905L1044.34,410.979Z" style="fill-rule:nonzero;"/>
            <path d="M1055.41,410.979L1054.71,410.275L1065.78,399.201L1066.49,399.905L1055.41,410.979Z" style="fill-rule:nonzero;"/>
            <path d="M1066.49,410.979L1065.78,410.275L1076.86,399.201L1077.56,399.905L1066.49,410.979Z" style="fill-rule:nonzero;"/>
            <path d="M1087.81,454.294C1087.81,458.9 1084.07,462.635 1079.47,462.635C1074.86,462.635 1071.13,458.9 1071.13,454.294C1071.13,449.688 1074.86,445.953 1079.47,445.953C1084.07,445.953 1087.81,449.688 1087.81,454.294Z" style="fill:rgb(236,0,136);fill-rule:nonzero;"/>
            <path d="M1079.47,439.748C1075.08,439.748 1071.5,443.319 1071.5,447.71C1071.5,452.101 1075.08,455.673 1079.47,455.673C1083.86,455.673 1087.43,452.101 1087.43,447.71C1087.43,443.319 1083.86,439.748 1079.47,439.748ZM1079.47,456.43C1074.66,456.43 1070.75,452.519 1070.75,447.71C1070.75,442.902 1074.66,438.991 1079.47,438.991C1084.27,438.991 1088.19,442.902 1088.19,447.71C1088.19,452.519 1084.27,456.43 1079.47,456.43Z" style="fill-rule:nonzero;"/>
            <path d="M1064.2,139.4L1044.05,127.771L1044.05,125.552L1044.05,124.581L1044.05,101.809L1064.2,113.438L1064.2,139.4ZM1043.63,151.757L1023.49,140.127L1043.21,128.741L1043.63,128.498L1044.05,128.741L1063.78,140.127L1043.63,151.757ZM1023.07,114.639L1023.07,113.922L1023.07,113.438L1043.21,101.809L1043.21,127.771L1023.07,139.4L1023.07,114.639ZM1064.2,112.468L1044.05,100.841L1043.94,100.773C1043.75,100.665 1043.52,100.665 1043.33,100.773L1043.21,100.841L1023.07,112.468L1022.53,112.777C1022.35,112.885 1022.23,113.085 1022.23,113.301L1022.23,140.021C1022.23,140.238 1022.35,140.438 1022.53,140.545L1023.07,140.855L1043.26,152.513C1043.49,152.644 1043.77,152.644 1044,152.513L1064.2,140.855L1064.73,140.545C1064.92,140.438 1065.04,140.238 1065.04,140.021L1065.04,139.884L1065.04,113.438L1065.04,113.301C1065.04,113.085 1064.92,112.885 1064.73,112.777L1064.2,112.468Z" style="fill:rgb(236,0,136);fill-rule:nonzero;"/>
            <path d="M1005.55,349.814L1005.75,349.73L1011.09,344.399C1011.2,344.287 1011.2,344.104 1011.09,343.992C1010.97,343.88 1010.79,343.88 1010.68,343.992L1005.35,349.323C1005.24,349.436 1005.24,349.618 1005.35,349.73L1005.55,349.814Z" style="fill:rgb(244,97,54);fill-rule:nonzero;"/>
            <path d="M1004.06,350.612L998.729,355.943C998.616,356.056 998.616,356.238 998.729,356.351L998.932,356.435L999.135,356.351L1004.47,351.019C1004.58,350.907 1004.58,350.725 1004.47,350.612C1004.35,350.5 1004.17,350.5 1004.06,350.612Z" style="fill:rgb(244,97,54);fill-rule:nonzero;"/>
            <path d="M1005.75,350.612C1005.64,350.5 1005.46,350.5 1005.35,350.612C1005.24,350.725 1005.24,350.907 1005.35,351.019L1010.68,356.351L1010.88,356.435L1011.09,356.351C1011.2,356.238 1011.2,356.056 1011.09,355.943L1005.75,350.612Z" style="fill:rgb(244,97,54);fill-rule:nonzero;"/>
            <path d="M999.135,343.992C999.023,343.88 998.841,343.88 998.729,343.992C998.616,344.104 998.616,344.287 998.729,344.399L1004.06,349.73L1004.26,349.814L1004.47,349.73C1004.58,349.618 1004.58,349.436 1004.47,349.323L999.135,343.992Z" style="fill:rgb(244,97,54);fill-rule:nonzero;"/>
            <path d="M1070.75,370.818L1113.18,370.818L1113.18,285.946C1101.47,285.946 1090.86,290.694 1083.17,298.373C1075.5,306.052 1070.75,316.66 1070.75,328.382L1070.75,370.818Z" style="fill:rgb(236,0,136);fill-rule:nonzero;"/>
            <path d="M1034.63,243.073C1034.63,242.552 1034.21,242.131 1033.68,242.131C1033.17,242.131 1032.74,242.552 1032.74,243.073C1032.74,243.593 1033.17,244.014 1033.68,244.014C1034.21,244.014 1034.63,243.593 1034.63,243.073Z" style="fill:rgb(244,97,54);fill-rule:nonzero;"/>
            <path d="M1001.22,243.073C1001.22,242.552 1000.8,242.131 1000.28,242.131C999.759,242.131 999.34,242.552 999.34,243.073C999.34,243.593 999.759,244.014 1000.28,244.014C1000.8,244.014 1001.22,243.593 1001.22,243.073Z" style="fill:rgb(244,97,54);fill-rule:nonzero;"/>
            <path d="M1006.79,240.289C1006.79,239.769 1006.37,239.347 1005.85,239.347C1005.33,239.347 1004.91,239.769 1004.91,240.289C1004.91,240.81 1005.33,241.23 1005.85,241.23C1006.37,241.23 1006.79,240.81 1006.79,240.289Z" style="fill:rgb(244,97,54);fill-rule:nonzero;"/>
            <path d="M995.652,240.289C995.652,239.769 995.233,239.347 994.713,239.347C994.192,239.347 993.77,239.769 993.77,240.289C993.77,240.81 994.192,241.23 994.713,241.23C995.233,241.23 995.652,240.81 995.652,240.289Z" style="fill:rgb(244,97,54);fill-rule:nonzero;"/>
            <path d="M1023.49,243.073C1023.49,242.552 1023.07,242.131 1022.55,242.131C1022.03,242.131 1021.61,242.552 1021.61,243.073C1021.61,243.593 1022.03,244.014 1022.55,244.014C1023.07,244.014 1023.49,243.593 1023.49,243.073Z" style="fill:rgb(244,97,54);fill-rule:nonzero;"/>
            <path d="M1017.92,245.856C1017.92,245.336 1017.5,244.915 1016.98,244.915C1016.46,244.915 1016.04,245.336 1016.04,245.856C1016.04,246.377 1016.46,246.798 1016.98,246.798C1017.5,246.798 1017.92,246.377 1017.92,245.856Z" style="fill:rgb(244,97,54);fill-rule:nonzero;"/>
            <path d="M1012.36,243.073C1012.36,242.552 1011.94,242.131 1011.42,242.131C1010.89,242.131 1010.47,242.552 1010.47,243.073C1010.47,243.593 1010.89,244.014 1011.42,244.014C1011.94,244.014 1012.36,243.593 1012.36,243.073Z" style="fill:rgb(244,97,54);fill-rule:nonzero;"/>
            <path d="M1017.92,240.289C1017.92,239.769 1017.5,239.347 1016.98,239.347C1016.46,239.347 1016.04,239.769 1016.04,240.289C1016.04,240.81 1016.46,241.23 1016.98,241.23C1017.5,241.23 1017.92,240.81 1017.92,240.289Z" style="fill:rgb(244,97,54);fill-rule:nonzero;"/>
            <path d="M1029.06,245.856C1029.06,245.336 1028.64,244.915 1028.12,244.915C1027.6,244.915 1027.18,245.336 1027.18,245.856C1027.18,246.377 1027.6,246.798 1028.12,246.798C1028.64,246.798 1029.06,246.377 1029.06,245.856Z" style="fill:rgb(244,97,54);fill-rule:nonzero;"/>
            <path d="M1029.06,240.289C1029.06,239.769 1028.64,239.347 1028.12,239.347C1027.6,239.347 1027.18,239.769 1027.18,240.289C1027.18,240.81 1027.6,241.23 1028.12,241.23C1028.64,241.23 1029.06,240.81 1029.06,240.289Z" style="fill:rgb(244,97,54);fill-rule:nonzero;"/>
            <path d="M1034.63,238.238C1034.63,237.623 1034.21,237.125 1033.68,237.125C1033.17,237.125 1032.74,237.623 1032.74,238.238C1032.74,238.854 1033.17,239.353 1033.68,239.353C1034.21,239.353 1034.63,238.854 1034.63,238.238Z" style="fill:rgb(244,97,54);fill-rule:nonzero;"/>
            <path d="M1006.79,234.722C1006.79,234.201 1006.37,233.78 1005.85,233.78C1005.33,233.78 1004.91,234.201 1004.91,234.722C1004.91,235.242 1005.33,235.663 1005.85,235.663C1006.37,235.663 1006.79,235.242 1006.79,234.722Z" style="fill:rgb(244,97,54);fill-rule:nonzero;"/>
            <path d="M995.652,234.722C995.652,234.201 995.233,233.78 994.713,233.78C994.192,233.78 993.77,234.201 993.77,234.722C993.77,235.242 994.192,235.663 994.713,235.663C995.233,235.663 995.652,235.242 995.652,234.722Z" style="fill:rgb(244,97,54);fill-rule:nonzero;"/>
            <path d="M1023.49,237.505C1023.49,236.985 1023.07,236.563 1022.55,236.563C1022.03,236.563 1021.61,236.985 1021.61,237.505C1021.61,238.026 1022.03,238.447 1022.55,238.447C1023.07,238.447 1023.49,238.026 1023.49,237.505Z" style="fill:rgb(244,97,54);fill-rule:nonzero;"/>
            <path d="M1040.19,240.289C1040.19,239.769 1039.77,239.347 1039.25,239.347C1038.73,239.347 1038.31,239.769 1038.31,240.289C1038.31,240.81 1038.73,241.23 1039.25,241.23C1039.77,241.23 1040.19,240.81 1040.19,240.289Z" style="fill:rgb(244,97,54);fill-rule:nonzero;"/>
            <path d="M1012.36,237.505C1012.36,236.985 1011.94,236.563 1011.42,236.563C1010.89,236.563 1010.47,236.985 1010.47,237.505C1010.47,238.026 1010.89,238.447 1011.42,238.447C1011.94,238.447 1012.36,238.026 1012.36,237.505Z" style="fill:rgb(244,97,54);fill-rule:nonzero;"/>
            <path d="M1001.22,237.505C1001.22,236.985 1000.8,236.563 1000.28,236.563C999.759,236.563 999.34,236.985 999.34,237.505C999.34,238.026 999.759,238.447 1000.28,238.447C1000.8,238.447 1001.22,238.026 1001.22,237.505Z" style="fill:rgb(244,97,54);fill-rule:nonzero;"/>
            <path d="M1023.49,248.64C1023.49,248.119 1023.07,247.698 1022.55,247.698C1022.03,247.698 1021.61,248.119 1021.61,248.64C1021.61,249.161 1022.03,249.582 1022.55,249.582C1023.07,249.582 1023.49,249.161 1023.49,248.64Z" style="fill:rgb(244,97,54);fill-rule:nonzero;"/>
            <path d="M995.652,245.856C995.652,245.336 995.233,244.915 994.713,244.915C994.192,244.915 993.77,245.336 993.77,245.856C993.77,246.377 994.192,246.798 994.713,246.798C995.233,246.798 995.652,246.377 995.652,245.856Z" style="fill:rgb(244,97,54);fill-rule:nonzero;"/>
            <path d="M995.652,256.991C995.652,256.472 995.233,256.051 994.713,256.051C994.192,256.051 993.77,256.472 993.77,256.991C993.77,257.512 994.192,257.934 994.713,257.934C995.233,257.934 995.652,257.512 995.652,256.991Z" style="fill:rgb(244,97,54);fill-rule:nonzero;"/>
            <path d="M1012.36,254.208C1012.36,253.688 1011.94,253.267 1011.42,253.267C1010.89,253.267 1010.47,253.688 1010.47,254.208C1010.47,254.728 1010.89,255.15 1011.42,255.15C1011.94,255.15 1012.36,254.728 1012.36,254.208Z" style="fill:rgb(244,97,54);fill-rule:nonzero;"/>
            <path d="M1006.79,251.423C1006.79,250.903 1006.37,250.483 1005.85,250.483C1005.33,250.483 1004.91,250.903 1004.91,251.423C1004.91,251.944 1005.33,252.365 1005.85,252.365C1006.37,252.365 1006.79,251.944 1006.79,251.423Z" style="fill:rgb(244,97,54);fill-rule:nonzero;"/>
            <path d="M1006.79,256.991C1006.79,256.472 1006.37,256.051 1005.85,256.051C1005.33,256.051 1004.91,256.472 1004.91,256.991C1004.91,257.512 1005.33,257.934 1005.85,257.934C1006.37,257.934 1006.79,257.512 1006.79,256.991Z" style="fill:rgb(244,97,54);fill-rule:nonzero;"/>
            <path d="M1001.22,254.208C1001.22,253.688 1000.8,253.267 1000.28,253.267C999.759,253.267 999.34,253.688 999.34,254.208C999.34,254.728 999.759,255.15 1000.28,255.15C1000.8,255.15 1001.22,254.728 1001.22,254.208Z" style="fill:rgb(244,97,54);fill-rule:nonzero;"/>
            <path d="M1001.22,248.64C1001.22,248.119 1000.8,247.698 1000.28,247.698C999.759,247.698 999.34,248.119 999.34,248.64C999.34,249.161 999.759,249.582 1000.28,249.582C1000.8,249.582 1001.22,249.161 1001.22,248.64Z" style="fill:rgb(244,97,54);fill-rule:nonzero;"/>
            <path d="M1017.92,234.722C1017.92,234.201 1017.5,233.78 1016.98,233.78C1016.46,233.78 1016.04,234.201 1016.04,234.722C1016.04,235.242 1016.46,235.663 1016.98,235.663C1017.5,235.663 1017.92,235.242 1017.92,234.722Z" style="fill:rgb(244,97,54);fill-rule:nonzero;"/>
            <path d="M995.652,251.423C995.652,250.903 995.233,250.483 994.713,250.483C994.192,250.483 993.77,250.903 993.77,251.423C993.77,251.944 994.192,252.365 994.713,252.365C995.233,252.365 995.652,251.944 995.652,251.423Z" style="fill:rgb(244,97,54);fill-rule:nonzero;"/>
            <path d="M1006.79,245.856C1006.79,245.336 1006.37,244.915 1005.85,244.915C1005.33,244.915 1004.91,245.336 1004.91,245.856C1004.91,246.377 1005.33,246.798 1005.85,246.798C1006.37,246.798 1006.79,246.377 1006.79,245.856Z" style="fill:rgb(244,97,54);fill-rule:nonzero;"/>
            <path d="M1017.92,251.423C1017.92,250.903 1017.5,250.483 1016.98,250.483C1016.46,250.483 1016.04,250.903 1016.04,251.423C1016.04,251.944 1016.46,252.365 1016.98,252.365C1017.5,252.365 1017.92,251.944 1017.92,251.423Z" style="fill:rgb(244,97,54);fill-rule:nonzero;"/>
            <path d="M1012.36,248.64C1012.36,248.119 1011.94,247.698 1011.42,247.698C1010.89,247.698 1010.47,248.119 1010.47,248.64C1010.47,249.161 1010.89,249.582 1011.42,249.582C1011.94,249.582 1012.36,249.161 1012.36,248.64Z" style="fill:rgb(244,97,54);fill-rule:nonzero;"/>
            <path d="M990.089,265.342C990.089,264.823 989.666,264.402 989.146,264.402C988.763,264.402 988.438,264.63 988.288,264.956L988.288,265.729C988.438,266.056 988.763,266.285 989.146,266.285C989.666,266.285 990.089,265.863 990.089,265.342Z" style="fill:rgb(244,97,54);fill-rule:nonzero;"/>
            <path d="M990.089,237.505C990.089,236.985 989.666,236.563 989.146,236.563C988.763,236.563 988.438,236.792 988.288,237.119L988.288,237.891C988.438,238.219 988.763,238.447 989.146,238.447C989.666,238.447 990.089,238.026 990.089,237.505Z" style="fill:rgb(244,97,54);fill-rule:nonzero;"/>
            <path d="M990.089,231.938C990.089,231.417 989.666,230.996 989.146,230.996C988.763,230.996 988.438,231.225 988.288,231.551L988.288,232.324C988.438,232.651 988.763,232.879 989.146,232.879C989.666,232.879 990.089,232.458 990.089,231.938Z" style="fill:rgb(244,97,54);fill-rule:nonzero;"/>
            <path d="M990.089,243.073C990.089,242.552 989.666,242.131 989.146,242.131C988.763,242.131 988.438,242.359 988.288,242.687L988.288,243.458C988.438,243.786 988.763,244.014 989.146,244.014C989.666,244.014 990.089,243.593 990.089,243.073Z" style="fill:rgb(244,97,54);fill-rule:nonzero;"/>
            <path d="M990.089,248.64C990.089,248.119 989.666,247.698 989.146,247.698C988.763,247.698 988.438,247.926 988.288,248.254L988.288,249.027C988.438,249.354 988.763,249.582 989.146,249.582C989.666,249.582 990.089,249.161 990.089,248.64Z" style="fill:rgb(244,97,54);fill-rule:nonzero;"/>
            <path d="M990.089,220.803C990.089,220.283 989.666,219.86 989.146,219.86C988.763,219.86 988.438,220.09 988.288,220.416L988.288,221.189C988.438,221.517 988.763,221.744 989.146,221.744C989.666,221.744 990.089,221.322 990.089,220.803Z" style="fill:rgb(244,97,54);fill-rule:nonzero;"/>
            <path d="M990.089,226.371C990.089,225.85 989.666,225.427 989.146,225.427C988.763,225.427 988.438,225.657 988.288,225.983L988.288,226.756C988.438,227.084 988.763,227.311 989.146,227.311C989.666,227.311 990.089,226.89 990.089,226.371Z" style="fill:rgb(244,97,54);fill-rule:nonzero;"/>
            <path d="M990.089,215.236C990.089,214.715 989.666,214.292 989.146,214.292C988.763,214.292 988.438,214.522 988.288,214.849L988.288,215.622C988.438,215.948 988.763,216.176 989.146,216.176C989.666,216.176 990.089,215.755 990.089,215.236Z" style="fill:rgb(244,97,54);fill-rule:nonzero;"/>
            <path d="M990.089,254.208C990.089,253.688 989.666,253.267 989.146,253.267C988.763,253.267 988.438,253.494 988.288,253.822L988.288,254.595C988.438,254.921 988.763,255.15 989.146,255.15C989.666,255.15 990.089,254.728 990.089,254.208Z" style="fill:rgb(244,97,54);fill-rule:nonzero;"/>
            <path d="M990.089,259.774C990.089,259.255 989.666,258.834 989.146,258.834C988.763,258.834 988.438,259.061 988.288,259.389L988.288,260.162C988.438,260.488 988.763,260.718 989.146,260.718C989.666,260.718 990.089,260.295 990.089,259.774Z" style="fill:rgb(244,97,54);fill-rule:nonzero;"/>
            <path d="M1001.22,259.774C1001.22,259.255 1000.8,258.834 1000.28,258.834C999.759,258.834 999.34,259.255 999.34,259.774C999.34,260.295 999.759,260.718 1000.28,260.718C1000.8,260.718 1001.22,260.295 1001.22,259.774Z" style="fill:rgb(244,97,54);fill-rule:nonzero;"/>
            <path d="M995.652,262.558C995.652,262.039 995.233,261.618 994.713,261.618C994.192,261.618 993.77,262.039 993.77,262.558C993.77,263.079 994.192,263.501 994.713,263.501C995.233,263.501 995.652,263.079 995.652,262.558Z" style="fill:rgb(244,97,54);fill-rule:nonzero;"/>
            <path d="M995.652,223.587C995.652,223.066 995.233,222.644 994.713,222.644C994.192,222.644 993.77,223.066 993.77,223.587C993.77,224.106 994.192,224.527 994.713,224.527C995.233,224.527 995.652,224.106 995.652,223.587Z" style="fill:rgb(244,97,54);fill-rule:nonzero;"/>
            <path d="M1017.92,229.154C1017.92,228.633 1017.5,228.213 1016.98,228.213C1016.46,228.213 1016.04,228.633 1016.04,229.154C1016.04,229.675 1016.46,230.094 1016.98,230.094C1017.5,230.094 1017.92,229.675 1017.92,229.154Z" style="fill:rgb(244,97,54);fill-rule:nonzero;"/>
            <path d="M1023.49,231.938C1023.49,231.417 1023.07,230.996 1022.55,230.996C1022.03,230.996 1021.61,231.417 1021.61,231.938C1021.61,232.458 1022.03,232.879 1022.55,232.879C1023.07,232.879 1023.49,232.458 1023.49,231.938Z" style="fill:rgb(244,97,54);fill-rule:nonzero;"/>
            <path d="M995.652,229.154C995.652,228.633 995.233,228.213 994.713,228.213C994.192,228.213 993.77,228.633 993.77,229.154C993.77,229.675 994.192,230.094 994.713,230.094C995.233,230.094 995.652,229.675 995.652,229.154Z" style="fill:rgb(244,97,54);fill-rule:nonzero;"/>
            <path d="M1006.79,229.154C1006.79,228.633 1006.37,228.213 1005.85,228.213C1005.33,228.213 1004.91,228.633 1004.91,229.154C1004.91,229.675 1005.33,230.094 1005.85,230.094C1006.37,230.094 1006.79,229.675 1006.79,229.154Z" style="fill:rgb(244,97,54);fill-rule:nonzero;"/>
            <path d="M995.652,218.02C995.652,217.499 995.233,217.076 994.713,217.076C994.192,217.076 993.77,217.499 993.77,218.02C993.77,218.539 994.192,218.96 994.713,218.96C995.233,218.96 995.652,218.539 995.652,218.02Z" style="fill:rgb(244,97,54);fill-rule:nonzero;"/>
            <path d="M1001.22,231.938C1001.22,231.417 1000.8,230.996 1000.28,230.996C999.759,230.996 999.34,231.417 999.34,231.938C999.34,232.458 999.759,232.879 1000.28,232.879C1000.8,232.879 1001.22,232.458 1001.22,231.938Z" style="fill:rgb(244,97,54);fill-rule:nonzero;"/>
            <path d="M1012.36,231.938C1012.36,231.417 1011.94,230.996 1011.42,230.996C1010.89,230.996 1010.47,231.417 1010.47,231.938C1010.47,232.458 1010.89,232.879 1011.42,232.879C1011.94,232.879 1012.36,232.458 1012.36,231.938Z" style="fill:rgb(244,97,54);fill-rule:nonzero;"/>
            <path d="M1006.79,223.587C1006.79,223.066 1006.37,222.644 1005.85,222.644C1005.33,222.644 1004.91,223.066 1004.91,223.587C1004.91,224.106 1005.33,224.527 1005.85,224.527C1006.37,224.527 1006.79,224.106 1006.79,223.587Z" style="fill:rgb(244,97,54);fill-rule:nonzero;"/>
            <path d="M1001.22,220.803C1001.22,220.283 1000.8,219.86 1000.28,219.86C999.759,219.86 999.34,220.283 999.34,220.803C999.34,221.322 999.759,221.744 1000.28,221.744C1000.8,221.744 1001.22,221.322 1001.22,220.803Z" style="fill:rgb(244,97,54);fill-rule:nonzero;"/>
            <path d="M1029.06,234.722C1029.06,234.201 1028.64,233.78 1028.12,233.78C1027.6,233.78 1027.18,234.201 1027.18,234.722C1027.18,235.242 1027.6,235.663 1028.12,235.663C1028.64,235.663 1029.06,235.242 1029.06,234.722Z" style="fill:rgb(244,97,54);fill-rule:nonzero;"/>
            <path d="M1001.22,226.371C1001.22,225.85 1000.8,225.427 1000.28,225.427C999.759,225.427 999.34,225.85 999.34,226.371C999.34,226.89 999.759,227.311 1000.28,227.311C1000.8,227.311 1001.22,226.89 1001.22,226.371Z" style="fill:rgb(244,97,54);fill-rule:nonzero;"/>
            <path d="M1012.36,226.371C1012.36,225.85 1011.94,225.427 1011.42,225.427C1010.89,225.427 1010.47,225.85 1010.47,226.371C1010.47,226.89 1010.89,227.311 1011.42,227.311C1011.94,227.311 1012.36,226.89 1012.36,226.371Z" style="fill:rgb(244,97,54);fill-rule:nonzero;"/>
        </g>
    </g>
</svg>
