<?xml version="1.0" encoding="UTF-8" standalone="no"?>
<!DOCTYPE svg PUBLIC "-//W3C//DTD SVG 1.1//EN" "http://www.w3.org/Graphics/SVG/1.1/DTD/svg11.dtd">
<svg width="100%" height="100%" viewBox="0 0 304 763" version="1.1" xmlns="http://www.w3.org/2000/svg" xmlns:xlink="http://www.w3.org/1999/xlink" xml:space="preserve" xmlns:serif="http://www.serif.com/" style="fill-rule:evenodd;clip-rule:evenodd;stroke-linejoin:round;stroke-miterlimit:2;">
    <g transform="matrix(1,0,0,1,-896,-219)">
        <g transform="matrix(2,0,0,2,0,0)">
            <rect x="446.816" y="83.395" width="306.313" height="433.21" style="fill:none;"/>
            <path d="M489.075,132.321L488.371,131.617L499.445,120.543L500.149,121.247L489.075,132.321Z" style="fill-rule:nonzero;"/>
            <path d="M500.149,132.321L499.445,131.617L510.52,120.543L511.224,121.247L500.149,132.321Z" style="fill-rule:nonzero;"/>
            <path d="M511.224,132.321L510.52,131.617L521.594,120.543L522.297,121.247L511.224,132.321Z" style="fill-rule:nonzero;"/>
            <path d="M522.297,132.321L521.594,131.617L532.668,120.543L533.372,121.247L522.297,132.321Z" style="fill-rule:nonzero;"/>
            <path d="M533.372,132.321L532.668,131.617L543.742,120.543L544.446,121.247L533.372,132.321Z" style="fill-rule:nonzero;"/>
            <path d="M536.971,461.141L516.828,449.511L516.828,447.292L516.828,446.321L516.828,423.549L536.971,435.179L536.971,461.141ZM516.409,473.497L496.266,461.867L515.989,450.481L516.409,450.238L516.828,450.481L536.551,461.867L516.409,473.497ZM495.846,436.379L495.846,435.662L495.846,435.179L515.989,423.549L515.989,449.511L495.846,461.141L495.846,436.379ZM536.971,434.208L516.828,422.581L516.711,422.514C516.524,422.404 516.293,422.404 516.104,422.514L515.989,422.581L495.846,434.208L495.31,434.517C495.122,434.625 495.007,434.825 495.007,435.041L495.007,461.762C495.007,461.978 495.122,462.178 495.31,462.285L495.846,462.595L516.041,474.253C516.268,474.384 516.549,474.384 516.776,474.253L536.971,462.595L537.508,462.285C537.695,462.178 537.811,461.978 537.811,461.762L537.811,461.624L537.811,435.179L537.811,435.041C537.811,434.825 537.695,434.625 537.508,434.517L536.971,434.208Z" style="fill:rgb(236,0,136);fill-rule:nonzero;"/>
            <path d="M492.744,221.348L492.64,221.39C492.511,221.441 492.383,221.492 492.252,221.54C490.867,222.042 489.349,222.273 487.86,222.209C484.942,222.083 482.111,220.793 480.094,218.671C478.063,216.536 476.919,213.621 476.955,210.674C476.991,207.734 478.201,204.853 480.273,202.769C482.34,200.69 485.203,199.465 488.128,199.407C488.881,199.392 489.633,199.45 490.364,199.58L490.463,199.602C490.605,199.637 490.782,199.68 490.938,199.595C491.109,199.502 491.191,199.292 491.128,199.107C491.049,198.874 490.823,198.834 490.672,198.809L490.625,198.8C490.446,198.767 490.266,198.737 490.085,198.711C488.572,198.497 486.989,198.572 485.507,198.926C482.65,199.61 480.132,201.309 478.415,203.711C476.67,206.15 475.873,209.268 476.227,212.264C476.573,215.202 477.982,217.915 480.193,219.902C482.44,221.921 485.341,223.034 488.362,223.034C489.11,223.034 489.86,222.965 490.591,222.831C491.324,222.696 492.05,222.491 492.75,222.222L492.802,222.203C493.001,222.129 493.301,222.018 493.366,221.787C493.388,221.709 493.391,221.588 493.279,221.447C493.156,221.29 492.976,221.257 492.744,221.348Z" style="fill:rgb(244,97,54);fill-rule:nonzero;"/>
            <path d="M495.882,219.522C495.715,219.519 495.608,219.617 495.519,219.694L495.468,219.737C495.367,219.817 495.265,219.896 495.161,219.974C494.937,220.14 494.704,220.3 494.47,220.449C494.342,220.53 494.212,220.609 494.082,220.685L493.981,220.737C493.889,220.782 493.786,220.834 493.71,220.911C493.593,221.029 493.559,221.206 493.624,221.361C493.687,221.513 493.829,221.607 493.994,221.607C494.133,221.607 494.254,221.532 494.351,221.471L494.417,221.431C494.549,221.355 494.681,221.276 494.811,221.196C495.049,221.047 495.287,220.888 495.516,220.722L495.679,220.61C495.856,220.49 496.059,220.354 496.191,220.188C496.29,220.063 496.309,219.896 496.24,219.751C496.173,219.612 496.036,219.524 495.882,219.522Z" style="fill:rgb(244,97,54);fill-rule:nonzero;"/>
            <path d="M498.159,217.012L498.15,217.012C497.928,217.017 497.817,217.188 497.736,217.313L497.694,217.375C497.582,217.534 497.466,217.689 497.347,217.842L497.283,217.917C497.188,218.023 497.07,218.155 497.072,218.331C497.074,218.553 497.256,218.734 497.479,218.734C497.701,218.734 497.833,218.553 497.929,218.421L497.977,218.358C498.091,218.212 498.203,218.064 498.311,217.913L498.363,217.843C498.461,217.718 498.583,217.562 498.563,217.375C498.542,217.17 498.365,217.012 498.159,217.012Z" style="fill:rgb(244,97,54);fill-rule:nonzero;"/>
            <path d="M499.659,213.92C499.345,213.903 499.262,214.192 499.228,214.298C499.167,214.486 499.102,214.672 499.032,214.857L498.999,214.938C498.912,215.146 498.779,215.462 498.915,215.667C498.961,215.736 499.056,215.818 499.248,215.818C499.524,215.818 499.618,215.587 499.687,215.417C499.757,215.242 499.824,215.065 499.887,214.888L499.913,214.819C499.994,214.606 500.115,214.283 499.977,214.075C499.932,214.008 499.84,213.926 499.659,213.92Z" style="fill:rgb(244,97,54);fill-rule:nonzero;"/>
            <path d="M500.467,210.526C500.395,210.447 500.294,210.405 500.177,210.405C499.962,210.405 499.795,210.566 499.771,210.797C499.757,210.924 499.757,211.052 499.757,211.176L499.753,211.432L499.737,211.578C499.706,211.808 499.664,212.123 499.821,212.303C499.87,212.36 499.961,212.427 500.116,212.427C500.331,212.427 500.486,212.276 500.523,212.034C500.549,211.86 500.557,211.682 500.564,211.509L500.569,211.403L500.58,211.284C500.603,211.042 500.635,210.711 500.467,210.526Z" style="fill:rgb(244,97,54);fill-rule:nonzero;"/>
            <path d="M499.395,207.898C499.434,208.049 499.469,208.2 499.503,208.352L499.525,208.45C499.599,208.771 499.789,208.838 499.937,208.838C500.11,208.838 500.204,208.762 500.252,208.697C500.407,208.492 500.307,208.146 500.241,207.916L500.216,207.825C500.169,207.64 500.117,207.44 500.053,207.24C499.958,206.945 499.771,206.886 499.632,206.894C499.457,206.899 499.365,206.979 499.319,207.043C499.18,207.243 499.283,207.554 499.358,207.781L499.395,207.898Z" style="fill:rgb(244,97,54);fill-rule:nonzero;"/>
            <path d="M499.156,205.158C499.147,205.002 499.055,204.861 498.974,204.737L498.916,204.645C498.816,204.475 498.712,204.307 498.605,204.142L498.579,204.102C498.5,203.977 498.392,203.805 498.167,203.801C497.939,203.799 497.759,203.974 497.753,204.198C497.749,204.366 497.86,204.517 497.95,204.638L498.017,204.732C498.115,204.888 498.209,205.045 498.299,205.206L498.328,205.258C498.398,205.389 498.504,205.588 498.751,205.588C498.861,205.588 498.968,205.541 499.044,205.46C499.122,205.379 499.162,205.269 499.156,205.158Z" style="fill:rgb(244,97,54);fill-rule:nonzero;"/>
            <path d="M496.836,202.001L496.771,201.943C496.637,201.816 496.5,201.692 496.36,201.571L496.299,201.515C496.191,201.413 496.06,201.283 495.873,201.289C495.653,201.291 495.468,201.479 495.47,201.7C495.473,201.902 495.623,202.021 495.732,202.107L495.791,202.154C495.938,202.28 496.081,202.41 496.222,202.544L496.288,202.612C496.388,202.719 496.524,202.865 496.716,202.865C496.829,202.865 496.938,202.816 497.015,202.732C497.092,202.647 497.131,202.535 497.122,202.424C497.106,202.236 496.956,202.106 496.836,202.001Z" style="fill:rgb(244,97,54);fill-rule:nonzero;"/>
            <path d="M494.295,200.694C494.373,200.606 494.41,200.491 494.397,200.376C494.371,200.153 494.189,200.062 494.057,199.995L494.014,199.973C493.838,199.881 493.66,199.794 493.48,199.711L493.383,199.662C493.251,199.593 493.107,199.514 492.944,199.521C492.721,199.53 492.547,199.719 492.555,199.942C492.565,200.199 492.775,200.29 492.915,200.349L492.952,200.365C493.12,200.439 493.288,200.518 493.453,200.601L493.566,200.666C493.695,200.743 493.841,200.831 493.994,200.831C494.108,200.831 494.218,200.781 494.295,200.694Z" style="fill:rgb(244,97,54);fill-rule:nonzero;"/>
            <path d="M576.245,404.733L576.448,404.649L581.78,399.317C581.892,399.206 581.892,399.023 581.78,398.911C581.667,398.799 581.485,398.799 581.373,398.911L576.042,404.242C575.93,404.354 575.93,404.537 576.042,404.649L576.245,404.733Z" style="fill:rgb(244,97,54);fill-rule:nonzero;"/>
            <path d="M574.753,405.53L569.422,410.862C569.31,410.975 569.31,411.156 569.422,411.269L569.625,411.354L569.829,411.269L575.16,405.938C575.272,405.825 575.272,405.643 575.16,405.53C575.048,405.419 574.865,405.419 574.753,405.53Z" style="fill:rgb(244,97,54);fill-rule:nonzero;"/>
            <path d="M576.448,405.53C576.336,405.419 576.154,405.419 576.042,405.53C575.93,405.643 575.93,405.825 576.042,405.938L581.373,411.269L581.576,411.354L581.78,411.269C581.892,411.156 581.892,410.975 581.78,410.862L576.448,405.53Z" style="fill:rgb(244,97,54);fill-rule:nonzero;"/>
            <path d="M569.829,398.911C569.717,398.799 569.534,398.799 569.422,398.911C569.31,399.023 569.31,399.206 569.422,399.317L574.753,404.649L574.957,404.733L575.16,404.649C575.272,404.537 575.272,404.354 575.16,404.242L569.829,398.911Z" style="fill:rgb(244,97,54);fill-rule:nonzero;"/>
            <path d="M552.39,253.546C552.39,254.067 552.813,254.488 553.333,254.488C553.851,254.488 554.273,254.067 554.273,253.546C554.273,253.026 553.851,252.605 553.333,252.605C552.813,252.605 552.39,253.026 552.39,253.546Z" style="fill:rgb(244,97,54);fill-rule:nonzero;"/>
            <path d="M585.797,253.546C585.797,254.067 586.216,254.488 586.737,254.488C587.258,254.488 587.677,254.067 587.677,253.546C587.677,253.026 587.258,252.605 586.737,252.605C586.216,252.605 585.797,253.026 585.797,253.546Z" style="fill:rgb(244,97,54);fill-rule:nonzero;"/>
            <path d="M580.227,256.33C580.227,256.851 580.649,257.272 581.169,257.272C581.69,257.272 582.11,256.851 582.11,256.33C582.11,255.81 581.69,255.389 581.169,255.389C580.649,255.389 580.227,255.81 580.227,256.33Z" style="fill:rgb(244,97,54);fill-rule:nonzero;"/>
            <path d="M591.364,256.33C591.364,256.851 591.784,257.272 592.304,257.272C592.825,257.272 593.248,256.851 593.248,256.33C593.248,255.81 592.825,255.389 592.304,255.389C591.784,255.389 591.364,255.81 591.364,256.33Z" style="fill:rgb(244,97,54);fill-rule:nonzero;"/>
            <path d="M563.524,253.546C563.524,254.067 563.947,254.488 564.468,254.488C564.988,254.488 565.408,254.067 565.408,253.546C565.408,253.026 564.988,252.605 564.468,252.605C563.947,252.605 563.524,253.026 563.524,253.546Z" style="fill:rgb(244,97,54);fill-rule:nonzero;"/>
            <path d="M569.092,250.763C569.092,251.283 569.514,251.705 570.035,251.705C570.556,251.705 570.975,251.283 570.975,250.763C570.975,250.242 570.556,249.821 570.035,249.821C569.514,249.821 569.092,250.242 569.092,250.763Z" style="fill:rgb(244,97,54);fill-rule:nonzero;"/>
            <path d="M574.659,253.546C574.659,254.067 575.082,254.488 575.603,254.488C576.123,254.488 576.542,254.067 576.542,253.546C576.542,253.026 576.123,252.605 575.603,252.605C575.082,252.605 574.659,253.026 574.659,253.546Z" style="fill:rgb(244,97,54);fill-rule:nonzero;"/>
            <path d="M569.092,256.33C569.092,256.851 569.514,257.272 570.035,257.272C570.556,257.272 570.975,256.851 570.975,256.33C570.975,255.81 570.556,255.389 570.035,255.389C569.514,255.389 569.092,255.81 569.092,256.33Z" style="fill:rgb(244,97,54);fill-rule:nonzero;"/>
            <path d="M557.957,250.763C557.957,251.283 558.38,251.705 558.9,251.705C559.421,251.705 559.84,251.283 559.84,250.763C559.84,250.242 559.421,249.821 558.9,249.821C558.38,249.821 557.957,250.242 557.957,250.763Z" style="fill:rgb(244,97,54);fill-rule:nonzero;"/>
            <path d="M557.957,256.33C557.957,256.851 558.38,257.272 558.9,257.272C559.421,257.272 559.84,256.851 559.84,256.33C559.84,255.81 559.421,255.389 558.9,255.389C558.38,255.389 557.957,255.81 557.957,256.33Z" style="fill:rgb(244,97,54);fill-rule:nonzero;"/>
            <path d="M552.39,258.381C552.39,258.997 552.813,259.495 553.333,259.495C553.851,259.495 554.273,258.997 554.273,258.381C554.273,257.765 553.851,257.267 553.333,257.267C552.813,257.267 552.39,257.765 552.39,258.381Z" style="fill:rgb(244,97,54);fill-rule:nonzero;"/>
            <path d="M580.227,261.897C580.227,262.418 580.649,262.839 581.169,262.839C581.69,262.839 582.11,262.418 582.11,261.897C582.11,261.377 581.69,260.956 581.169,260.956C580.649,260.956 580.227,261.377 580.227,261.897Z" style="fill:rgb(244,97,54);fill-rule:nonzero;"/>
            <path d="M591.364,261.897C591.364,262.418 591.784,262.839 592.304,262.839C592.825,262.839 593.248,262.418 593.248,261.897C593.248,261.377 592.825,260.956 592.304,260.956C591.784,260.956 591.364,261.377 591.364,261.897Z" style="fill:rgb(244,97,54);fill-rule:nonzero;"/>
            <path d="M563.524,259.114C563.524,259.634 563.947,260.056 564.468,260.056C564.988,260.056 565.408,259.634 565.408,259.114C565.408,258.593 564.988,258.172 564.468,258.172C563.947,258.172 563.524,258.593 563.524,259.114Z" style="fill:rgb(244,97,54);fill-rule:nonzero;"/>
            <path d="M546.822,256.33C546.822,256.851 547.245,257.272 547.766,257.272C548.283,257.272 548.706,256.851 548.706,256.33C548.706,255.81 548.283,255.389 547.766,255.389C547.245,255.389 546.822,255.81 546.822,256.33Z" style="fill:rgb(244,97,54);fill-rule:nonzero;"/>
            <path d="M574.659,259.114C574.659,259.634 575.082,260.056 575.603,260.056C576.123,260.056 576.542,259.634 576.542,259.114C576.542,258.593 576.123,258.172 575.603,258.172C575.082,258.172 574.659,258.593 574.659,259.114Z" style="fill:rgb(244,97,54);fill-rule:nonzero;"/>
            <path d="M585.797,259.114C585.797,259.634 586.216,260.056 586.737,260.056C587.258,260.056 587.677,259.634 587.677,259.114C587.677,258.593 587.258,258.172 586.737,258.172C586.216,258.172 585.797,258.593 585.797,259.114Z" style="fill:rgb(244,97,54);fill-rule:nonzero;"/>
            <path d="M563.524,247.979C563.524,248.5 563.947,248.921 564.468,248.921C564.988,248.921 565.408,248.5 565.408,247.979C565.408,247.458 564.988,247.038 564.468,247.038C563.947,247.038 563.524,247.458 563.524,247.979Z" style="fill:rgb(244,97,54);fill-rule:nonzero;"/>
            <path d="M591.364,250.763C591.364,251.283 591.784,251.705 592.304,251.705C592.825,251.705 593.248,251.283 593.248,250.763C593.248,250.242 592.825,249.821 592.304,249.821C591.784,249.821 591.364,250.242 591.364,250.763Z" style="fill:rgb(244,97,54);fill-rule:nonzero;"/>
            <path d="M591.364,239.628C591.364,240.147 591.784,240.568 592.304,240.568C592.825,240.568 593.248,240.147 593.248,239.628C593.248,239.107 592.825,238.685 592.304,238.685C591.784,238.685 591.364,239.107 591.364,239.628Z" style="fill:rgb(244,97,54);fill-rule:nonzero;"/>
            <path d="M574.659,242.412C574.659,242.931 575.082,243.352 575.603,243.352C576.123,243.352 576.542,242.931 576.542,242.412C576.542,241.891 576.123,241.469 575.603,241.469C575.082,241.469 574.659,241.891 574.659,242.412Z" style="fill:rgb(244,97,54);fill-rule:nonzero;"/>
            <path d="M580.227,245.195C580.227,245.716 580.649,246.136 581.169,246.136C581.69,246.136 582.11,245.716 582.11,245.195C582.11,244.675 581.69,244.254 581.169,244.254C580.649,244.254 580.227,244.675 580.227,245.195Z" style="fill:rgb(244,97,54);fill-rule:nonzero;"/>
            <path d="M580.227,239.628C580.227,240.147 580.649,240.568 581.169,240.568C581.69,240.568 582.11,240.147 582.11,239.628C582.11,239.107 581.69,238.685 581.169,238.685C580.649,238.685 580.227,239.107 580.227,239.628Z" style="fill:rgb(244,97,54);fill-rule:nonzero;"/>
            <path d="M585.797,242.412C585.797,242.931 586.216,243.352 586.737,243.352C587.258,243.352 587.677,242.931 587.677,242.412C587.677,241.891 587.258,241.469 586.737,241.469C586.216,241.469 585.797,241.891 585.797,242.412Z" style="fill:rgb(244,97,54);fill-rule:nonzero;"/>
            <path d="M585.797,247.979C585.797,248.5 586.216,248.921 586.737,248.921C587.258,248.921 587.677,248.5 587.677,247.979C587.677,247.458 587.258,247.038 586.737,247.038C586.216,247.038 585.797,247.458 585.797,247.979Z" style="fill:rgb(244,97,54);fill-rule:nonzero;"/>
            <path d="M569.092,261.897C569.092,262.418 569.514,262.839 570.035,262.839C570.556,262.839 570.975,262.418 570.975,261.897C570.975,261.377 570.556,260.956 570.035,260.956C569.514,260.956 569.092,261.377 569.092,261.897Z" style="fill:rgb(244,97,54);fill-rule:nonzero;"/>
            <path d="M591.364,245.195C591.364,245.716 591.784,246.136 592.304,246.136C592.825,246.136 593.248,245.716 593.248,245.195C593.248,244.675 592.825,244.254 592.304,244.254C591.784,244.254 591.364,244.675 591.364,245.195Z" style="fill:rgb(244,97,54);fill-rule:nonzero;"/>
            <path d="M580.227,250.763C580.227,251.283 580.649,251.705 581.169,251.705C581.69,251.705 582.11,251.283 582.11,250.763C582.11,250.242 581.69,249.821 581.169,249.821C580.649,249.821 580.227,250.242 580.227,250.763Z" style="fill:rgb(244,97,54);fill-rule:nonzero;"/>
            <path d="M569.092,245.195C569.092,245.716 569.514,246.136 570.035,246.136C570.556,246.136 570.975,245.716 570.975,245.195C570.975,244.675 570.556,244.254 570.035,244.254C569.514,244.254 569.092,244.675 569.092,245.195Z" style="fill:rgb(244,97,54);fill-rule:nonzero;"/>
            <path d="M574.659,247.979C574.659,248.5 575.082,248.921 575.603,248.921C576.123,248.921 576.542,248.5 576.542,247.979C576.542,247.458 576.123,247.038 575.603,247.038C575.082,247.038 574.659,247.458 574.659,247.979Z" style="fill:rgb(244,97,54);fill-rule:nonzero;"/>
            <path d="M596.929,231.277C596.929,231.796 597.351,232.217 597.872,232.217C598.254,232.217 598.579,231.989 598.729,231.663L598.729,230.89C598.579,230.563 598.254,230.334 597.872,230.334C597.351,230.334 596.929,230.756 596.929,231.277Z" style="fill:rgb(244,97,54);fill-rule:nonzero;"/>
            <path d="M596.929,259.114C596.929,259.634 597.351,260.056 597.872,260.056C598.254,260.056 598.579,259.827 598.729,259.5L598.729,258.728C598.579,258.4 598.254,258.172 597.872,258.172C597.351,258.172 596.929,258.593 596.929,259.114Z" style="fill:rgb(244,97,54);fill-rule:nonzero;"/>
            <path d="M596.929,264.681C596.929,265.202 597.351,265.623 597.872,265.623C598.254,265.623 598.579,265.395 598.729,265.068L598.729,264.295C598.579,263.968 598.254,263.739 597.872,263.739C597.351,263.739 596.929,264.161 596.929,264.681Z" style="fill:rgb(244,97,54);fill-rule:nonzero;"/>
            <path d="M596.929,253.546C596.929,254.067 597.351,254.488 597.872,254.488C598.254,254.488 598.579,254.26 598.729,253.932L598.729,253.161C598.579,252.833 598.254,252.605 597.872,252.605C597.351,252.605 596.929,253.026 596.929,253.546Z" style="fill:rgb(244,97,54);fill-rule:nonzero;"/>
            <path d="M596.929,247.979C596.929,248.5 597.351,248.921 597.872,248.921C598.254,248.921 598.579,248.693 598.729,248.365L598.729,247.592C598.579,247.266 598.254,247.038 597.872,247.038C597.351,247.038 596.929,247.458 596.929,247.979Z" style="fill:rgb(244,97,54);fill-rule:nonzero;"/>
            <path d="M596.929,275.816C596.929,276.336 597.351,276.759 597.872,276.759C598.254,276.759 598.579,276.529 598.729,276.203L598.729,275.43C598.579,275.103 598.254,274.875 597.872,274.875C597.351,274.875 596.929,275.297 596.929,275.816Z" style="fill:rgb(244,97,54);fill-rule:nonzero;"/>
            <path d="M596.929,270.249C596.929,270.769 597.351,271.192 597.872,271.192C598.254,271.192 598.579,270.962 598.729,270.636L598.729,269.863C598.579,269.535 598.254,269.308 597.872,269.308C597.351,269.308 596.929,269.729 596.929,270.249Z" style="fill:rgb(244,97,54);fill-rule:nonzero;"/>
            <path d="M596.929,281.383C596.929,281.904 597.351,282.326 597.872,282.326C598.254,282.326 598.579,282.097 598.729,281.771L598.729,280.998C598.579,280.671 598.254,280.443 597.872,280.443C597.351,280.443 596.929,280.864 596.929,281.383Z" style="fill:rgb(244,97,54);fill-rule:nonzero;"/>
            <path d="M596.929,242.412C596.929,242.931 597.351,243.352 597.872,243.352C598.254,243.352 598.579,243.125 598.729,242.797L598.729,242.024C598.579,241.698 598.254,241.469 597.872,241.469C597.351,241.469 596.929,241.891 596.929,242.412Z" style="fill:rgb(244,97,54);fill-rule:nonzero;"/>
            <path d="M596.929,236.844C596.929,237.363 597.351,237.785 597.872,237.785C598.254,237.785 598.579,237.558 598.729,237.23L598.729,236.457C598.579,236.131 598.254,235.901 597.872,235.901C597.351,235.901 596.929,236.324 596.929,236.844Z" style="fill:rgb(244,97,54);fill-rule:nonzero;"/>
            <path d="M585.797,236.844C585.797,237.363 586.216,237.785 586.737,237.785C587.258,237.785 587.677,237.363 587.677,236.844C587.677,236.324 587.258,235.901 586.737,235.901C586.216,235.901 585.797,236.324 585.797,236.844Z" style="fill:rgb(244,97,54);fill-rule:nonzero;"/>
            <path d="M591.364,234.061C591.364,234.58 591.784,235.001 592.304,235.001C592.825,235.001 593.248,234.58 593.248,234.061C593.248,233.54 592.825,233.118 592.304,233.118C591.784,233.118 591.364,233.54 591.364,234.061Z" style="fill:rgb(244,97,54);fill-rule:nonzero;"/>
            <path d="M591.364,273.032C591.364,273.553 591.784,273.975 592.304,273.975C592.825,273.975 593.248,273.553 593.248,273.032C593.248,272.513 592.825,272.092 592.304,272.092C591.784,272.092 591.364,272.513 591.364,273.032Z" style="fill:rgb(244,97,54);fill-rule:nonzero;"/>
            <path d="M569.092,267.465C569.092,267.985 569.514,268.406 570.035,268.406C570.556,268.406 570.975,267.985 570.975,267.465C570.975,266.944 570.556,266.524 570.035,266.524C569.514,266.524 569.092,266.944 569.092,267.465Z" style="fill:rgb(244,97,54);fill-rule:nonzero;"/>
            <path d="M563.524,264.681C563.524,265.202 563.947,265.623 564.468,265.623C564.988,265.623 565.408,265.202 565.408,264.681C565.408,264.161 564.988,263.739 564.468,263.739C563.947,263.739 563.524,264.161 563.524,264.681Z" style="fill:rgb(244,97,54);fill-rule:nonzero;"/>
            <path d="M591.364,267.465C591.364,267.985 591.784,268.406 592.304,268.406C592.825,268.406 593.248,267.985 593.248,267.465C593.248,266.944 592.825,266.524 592.304,266.524C591.784,266.524 591.364,266.944 591.364,267.465Z" style="fill:rgb(244,97,54);fill-rule:nonzero;"/>
            <path d="M580.227,267.465C580.227,267.985 580.649,268.406 581.169,268.406C581.69,268.406 582.11,267.985 582.11,267.465C582.11,266.944 581.69,266.524 581.169,266.524C580.649,266.524 580.227,266.944 580.227,267.465Z" style="fill:rgb(244,97,54);fill-rule:nonzero;"/>
            <path d="M591.364,278.6C591.364,279.12 591.784,279.542 592.304,279.542C592.825,279.542 593.248,279.12 593.248,278.6C593.248,278.081 592.825,277.659 592.304,277.659C591.784,277.659 591.364,278.081 591.364,278.6Z" style="fill:rgb(244,97,54);fill-rule:nonzero;"/>
            <path d="M585.797,264.681C585.797,265.202 586.216,265.623 586.737,265.623C587.258,265.623 587.677,265.202 587.677,264.681C587.677,264.161 587.258,263.739 586.737,263.739C586.216,263.739 585.797,264.161 585.797,264.681Z" style="fill:rgb(244,97,54);fill-rule:nonzero;"/>
            <path d="M574.659,264.681C574.659,265.202 575.082,265.623 575.603,265.623C576.123,265.623 576.542,265.202 576.542,264.681C576.542,264.161 576.123,263.739 575.603,263.739C575.082,263.739 574.659,264.161 574.659,264.681Z" style="fill:rgb(244,97,54);fill-rule:nonzero;"/>
            <path d="M580.227,273.032C580.227,273.553 580.649,273.975 581.169,273.975C581.69,273.975 582.11,273.553 582.11,273.032C582.11,272.513 581.69,272.092 581.169,272.092C580.649,272.092 580.227,272.513 580.227,273.032Z" style="fill:rgb(244,97,54);fill-rule:nonzero;"/>
            <path d="M585.797,275.816C585.797,276.336 586.216,276.759 586.737,276.759C587.258,276.759 587.677,276.336 587.677,275.816C587.677,275.297 587.258,274.875 586.737,274.875C586.216,274.875 585.797,275.297 585.797,275.816Z" style="fill:rgb(244,97,54);fill-rule:nonzero;"/>
            <path d="M557.957,261.897C557.957,262.418 558.38,262.839 558.9,262.839C559.421,262.839 559.84,262.418 559.84,261.897C559.84,261.377 559.421,260.956 558.9,260.956C558.38,260.956 557.957,261.377 557.957,261.897Z" style="fill:rgb(244,97,54);fill-rule:nonzero;"/>
            <path d="M585.797,270.249C585.797,270.769 586.216,271.192 586.737,271.192C587.258,271.192 587.677,270.769 587.677,270.249C587.677,269.729 587.258,269.308 586.737,269.308C586.216,269.308 585.797,269.729 585.797,270.249Z" style="fill:rgb(244,97,54);fill-rule:nonzero;"/>
            <path d="M574.659,270.249C574.659,270.769 575.082,271.192 575.603,271.192C576.123,271.192 576.542,270.769 576.542,270.249C576.542,269.729 576.123,269.308 575.603,269.308C575.082,269.308 574.659,269.729 574.659,270.249Z" style="fill:rgb(244,97,54);fill-rule:nonzero;"/>
            <path d="M505.209,320.932C505.209,353.179 479.066,379.322 446.816,379.322L446.816,350.126C462.941,350.126 476.013,337.057 476.013,320.932L505.209,320.932Z" style="fill:rgb(244,97,54);fill-rule:nonzero;"/>
            <path d="M446.818,256.33C479.064,256.33 505.208,282.474 505.208,314.723L476.011,314.723C476.011,298.598 462.942,285.526 446.818,285.526L446.818,256.33Z" style="fill:rgb(244,97,54);fill-rule:nonzero;"/>
        </g>
    </g>
</svg>
