<?xml version="1.0" encoding="UTF-8" standalone="no"?>
<!DOCTYPE svg PUBLIC "-//W3C//DTD SVG 1.1//EN" "http://www.w3.org/Graphics/SVG/1.1/DTD/svg11.dtd">
<svg width="100%" height="100%" viewBox="0 0 17 17" version="1.1" xmlns="http://www.w3.org/2000/svg" xmlns:xlink="http://www.w3.org/1999/xlink" xml:space="preserve" xmlns:serif="http://www.serif.com/" style="fill-rule:evenodd;clip-rule:evenodd;stroke-linejoin:round;stroke-miterlimit:2;">
    <g transform="matrix(1,0,0,1,-25,-76)">
        <g>
            <path d="M30.713,79.478C31.385,79.478 31.932,78.931 31.932,78.259C31.932,77.587 31.385,77.041 30.713,77.041C30.042,77.041 29.495,77.587 29.495,78.259C29.495,78.931 30.042,79.478 30.713,79.478Z" style="fill:rgb(253,157,76);fill-rule:nonzero;"/>
            <path d="M33.088,81.196C31.754,81.196 30.67,82.281 30.67,83.614C30.67,84.947 31.754,86.031 33.088,86.031C34.421,86.031 35.505,84.947 35.505,83.614C35.505,82.281 34.421,81.196 33.088,81.196Z" style="fill:rgb(241,103,222);fill-rule:nonzero;"/>
            <path d="M37.851,88.885C38.522,88.885 39.069,88.339 39.069,87.667C39.069,86.995 38.522,86.449 37.851,86.449C37.179,86.449 36.632,86.995 36.632,87.667C36.632,88.339 37.179,88.885 37.851,88.885Z" style="fill:rgb(34,211,210);fill-rule:nonzero;"/>
            <path d="M39.985,77.633C39.314,77.633 38.767,78.18 38.767,78.852C38.767,79.523 39.314,80.07 39.985,80.07C40.657,80.07 41.204,79.523 41.204,78.852C41.204,78.18 40.657,77.633 39.985,77.633Z" style="fill:rgb(46,209,162);fill-rule:nonzero;"/>
            <path d="M29.472,88.665C28.8,88.665 28.254,89.211 28.254,89.883C28.254,90.555 28.8,91.102 29.472,91.102C30.144,91.102 30.69,90.555 30.69,89.883C30.69,89.211 30.144,88.665 29.472,88.665Z" style="fill:rgb(46,209,162);fill-rule:nonzero;"/>
            <path d="M27.493,83.683C26.821,83.683 26.274,84.229 26.274,84.901C26.274,85.573 26.821,86.12 27.493,86.12C28.165,86.12 28.711,85.573 28.711,84.901C28.711,84.229 28.165,83.683 27.493,83.683Z" style="fill:rgb(34,211,210);fill-rule:nonzero;"/>
            <path d="M39.985,80.07C39.314,80.07 38.767,79.523 38.767,78.852C38.767,78.18 39.314,77.633 39.985,77.633C40.657,77.633 41.204,78.18 41.204,78.852C41.204,79.523 40.657,80.07 39.985,80.07ZM35.505,83.614C35.505,84.947 34.421,86.031 33.088,86.031C31.754,86.031 30.67,84.947 30.67,83.614C30.67,82.281 31.754,81.196 33.088,81.196C34.421,81.196 35.505,82.281 35.505,83.614ZM37.851,86.449C38.522,86.449 39.069,86.995 39.069,87.667C39.069,88.339 38.522,88.885 37.851,88.885C37.179,88.885 36.632,88.339 36.632,87.667C36.632,86.995 37.179,86.449 37.851,86.449ZM30.69,89.883C30.69,90.555 30.144,91.102 29.472,91.102C28.8,91.102 28.254,90.555 28.254,89.883C28.254,89.211 28.8,88.665 29.472,88.665C30.144,88.665 30.69,89.211 30.69,89.883ZM27.493,86.12C26.821,86.12 26.274,85.573 26.274,84.901C26.274,84.229 26.821,83.683 27.493,83.683C28.165,83.683 28.711,84.229 28.711,84.901C28.711,85.573 28.165,86.12 27.493,86.12ZM30.713,77.041C31.385,77.041 31.932,77.587 31.932,78.259C31.932,78.931 31.385,79.478 30.713,79.478C30.042,79.478 29.495,78.931 29.495,78.259C29.495,77.587 30.042,77.041 30.713,77.041ZM39.985,77.216C39.154,77.216 38.466,77.839 38.363,78.643L38.272,78.643C37.864,78.643 37.317,78.549 37.008,78.878C36.814,79.086 36.679,79.376 36.528,79.614C36.241,80.069 35.953,80.524 35.665,80.979C35.509,81.227 35.353,81.474 35.196,81.721C34.677,81.143 33.924,80.779 33.088,80.779C32.36,80.779 31.695,81.055 31.192,81.507L28.276,78.495C28.273,78.492 28.269,78.488 28.273,78.478C28.277,78.468 28.283,78.468 28.288,78.468L29.091,78.468C29.194,79.271 29.882,79.895 30.713,79.895C31.615,79.895 32.349,79.161 32.349,78.259C32.349,77.357 31.615,76.623 30.713,76.623C29.882,76.623 29.194,77.247 29.091,78.05L28.288,78.05C28.113,78.05 27.957,78.154 27.889,78.315C27.821,78.476 27.855,78.66 27.977,78.786L30.903,81.809C30.497,82.299 30.253,82.929 30.253,83.614C30.253,83.724 30.26,83.832 30.272,83.94L28.992,84.248C28.739,83.67 28.163,83.266 27.493,83.266C26.591,83.266 25.857,83.999 25.857,84.901C25.857,85.803 26.591,86.537 27.493,86.537C28.395,86.537 29.128,85.803 29.128,84.901C29.128,84.815 29.122,84.731 29.109,84.649L30.35,84.35C30.547,85.08 31.028,85.694 31.668,86.066L30.179,88.408C29.965,88.305 29.725,88.248 29.472,88.248C28.57,88.248 27.836,88.981 27.836,89.883C27.836,90.785 28.57,91.519 29.472,91.519C30.374,91.519 31.108,90.785 31.108,89.883C31.108,89.384 30.883,88.936 30.529,88.636L32.045,86.249C32.368,86.377 32.72,86.449 33.088,86.449C33.926,86.449 34.681,86.082 35.2,85.501L36.53,86.704C36.332,86.975 36.215,87.307 36.215,87.667C36.215,88.569 36.949,89.303 37.851,89.303C38.753,89.303 39.486,88.569 39.486,87.667C39.486,86.765 38.753,86.031 37.851,86.031C37.459,86.031 37.099,86.17 36.817,86.401L35.456,85.17C35.751,84.723 35.923,84.188 35.923,83.614C35.923,83.046 35.754,82.518 35.467,82.075C35.875,81.429 36.283,80.783 36.691,80.138C36.877,79.844 37.045,79.527 37.252,79.249C37.455,78.977 37.856,79.06 38.159,79.06L38.363,79.06C38.466,79.864 39.154,80.487 39.985,80.487C40.887,80.487 41.621,79.753 41.621,78.852C41.621,77.95 40.887,77.216 39.985,77.216Z" style="fill:rgb(51,33,149);fill-rule:nonzero;"/>
            <path d="M54.122,90.979C54.122,91.109 54.026,91.216 53.901,91.236L52.613,91.236C52.488,91.216 52.393,91.109 52.393,90.979L52.393,81.711L52.393,81.487L51.773,81.487L53.257,79.715L54.741,81.487L54.122,81.488L54.122,90.979ZM50.038,90.979C50.038,91.109 49.942,91.216 49.817,91.236L48.529,91.236C48.405,91.216 48.309,91.109 48.309,90.979L48.309,83.845C48.309,83.702 48.426,83.585 48.569,83.585L49.777,83.585C49.921,83.585 50.038,83.702 50.038,83.845L50.038,90.979ZM45.864,90.979C45.864,91.109 45.768,91.216 45.644,91.236L44.356,91.236C44.231,91.216 44.135,91.109 44.135,90.979L44.135,86.174C44.135,86.03 44.252,85.914 44.396,85.914L45.604,85.914C45.747,85.914 45.864,86.03 45.864,86.174L45.864,90.979ZM55.918,91.236L54.488,91.236C54.521,91.157 54.539,91.07 54.539,90.979L54.539,81.905L54.917,81.905C55.048,81.905 55.165,81.831 55.221,81.711C55.276,81.592 55.258,81.455 55.174,81.354L53.514,79.373C53.45,79.296 53.356,79.252 53.257,79.252C53.158,79.252 53.064,79.296 53,79.372L51.34,81.354C51.256,81.455 51.238,81.592 51.293,81.711C51.349,81.831 51.466,81.905 51.597,81.905L51.975,81.905L51.975,90.979C51.975,91.07 51.994,91.157 52.026,91.236L50.404,91.236C50.437,91.157 50.455,91.07 50.455,90.979L50.455,83.845C50.455,83.472 50.151,83.167 49.777,83.167L48.569,83.167C48.195,83.167 47.892,83.472 47.892,83.845L47.892,90.979C47.892,91.07 47.91,91.157 47.942,91.236L46.231,91.236C46.263,91.157 46.281,91.07 46.281,90.979L46.281,86.174C46.281,85.8 45.977,85.496 45.604,85.496L44.396,85.496C44.022,85.496 43.718,85.8 43.718,86.174L43.718,90.979C43.718,91.07 43.736,91.157 43.769,91.236L42.458,91.236C42.189,91.236 42.189,91.653 42.458,91.653L44.323,91.653C44.347,91.656 44.371,91.657 44.396,91.657L45.604,91.657C45.628,91.657 45.652,91.656 45.676,91.653L48.497,91.653C48.521,91.656 48.545,91.657 48.569,91.657L49.777,91.657C49.802,91.657 49.826,91.656 49.85,91.653L52.58,91.653C52.604,91.656 52.628,91.657 52.653,91.657L53.861,91.657C53.886,91.657 53.91,91.656 53.934,91.653L55.918,91.653C56.187,91.653 56.187,91.236 55.918,91.236Z" style="fill:rgb(51,33,149);fill-rule:nonzero;"/>
        </g>
    </g>
</svg>
