<svg width="500" height="184" viewBox="0 0 500 184" fill="none" xmlns="http://www.w3.org/2000/svg">
<rect width="500" height="183.824" fill="#FF7B00" fill-opacity="0.08"/>
<mask id="mask0" mask-type="alpha" maskUnits="userSpaceOnUse" x="0" y="0" width="500" height="184">
<rect width="500" height="183.824" fill="#676767"/>
</mask>
<g mask="url(#mask0)">
<line y1="-1.5" x2="917.705" y2="-1.5" transform="matrix(0.692051 -0.712325 0.950819 -0.329026 22.5865 556.072)" stroke="#FF7B00" stroke-opacity="0.5" stroke-width="3"/>
<line y1="-1.5" x2="917.705" y2="-1.5" transform="matrix(0.692051 -0.712325 0.950819 -0.329026 25.6525 562.068)" stroke="#FF7B00" stroke-opacity="0.5" stroke-width="3"/>
<line y1="-1.5" x2="917.705" y2="-1.5" transform="matrix(0.692051 -0.712325 0.950819 -0.329026 28.7181 568.064)" stroke="#FF7B00" stroke-opacity="0.5" stroke-width="3"/>
<line y1="-1.5" x2="917.705" y2="-1.5" transform="matrix(0.692051 -0.712325 0.950819 -0.329026 31.7839 574.06)" stroke="#FF7B00" stroke-opacity="0.5" stroke-width="3"/>
<line y1="-1.5" x2="917.705" y2="-1.5" transform="matrix(0.692051 -0.712325 0.950819 -0.329026 34.8497 580.057)" stroke="#FF7B00" stroke-opacity="0.5" stroke-width="3"/>
<line y1="-1.5" x2="917.705" y2="-1.5" transform="matrix(0.692051 -0.712325 0.950819 -0.329026 37.9154 586.053)" stroke="#FF7B00" stroke-opacity="0.5" stroke-width="3"/>
<line y1="-1.5" x2="917.705" y2="-1.5" transform="matrix(0.692051 -0.712325 0.950819 -0.329026 40.9814 592.049)" stroke="#FF7B00" stroke-opacity="0.5" stroke-width="3"/>
<line y1="-1.5" x2="917.705" y2="-1.5" transform="matrix(0.692051 -0.712325 0.950819 -0.329026 44.0471 598.045)" stroke="#FF7B00" stroke-opacity="0.5" stroke-width="3"/>
<line y1="-1.5" x2="917.705" y2="-1.5" transform="matrix(0.692051 -0.712325 0.950819 -0.329026 47.1129 604.041)" stroke="#FF7B00" stroke-opacity="0.5" stroke-width="3"/>
<line y1="-1.5" x2="917.705" y2="-1.5" transform="matrix(0.69205 -0.712325 0.950819 -0.329026 50.1787 610.037)" stroke="#FF7B00" stroke-opacity="0.5" stroke-width="3"/>
<line y1="-1.5" x2="917.705" y2="-1.5" transform="matrix(0.692051 -0.712325 0.950819 -0.329026 53.2444 616.033)" stroke="#FF7B00" stroke-opacity="0.5" stroke-width="3"/>
<line y1="-1.5" x2="917.705" y2="-1.5" transform="matrix(0.692051 -0.712325 0.950819 -0.329026 56.3103 622.029)" stroke="#FF7B00" stroke-opacity="0.5" stroke-width="3"/>
<line y1="-1.5" x2="917.705" y2="-1.5" transform="matrix(0.692051 -0.712325 0.950819 -0.329026 59.376 628.025)" stroke="#FF7B00" stroke-opacity="0.5" stroke-width="3"/>
<line y1="-1.5" x2="917.705" y2="-1.5" transform="matrix(0.692051 -0.712325 0.950819 -0.329026 62.4418 634.021)" stroke="#FF7B00" stroke-opacity="0.5" stroke-width="3"/>
<line y1="-1.5" x2="917.705" y2="-1.5" transform="matrix(0.692051 -0.712325 0.950819 -0.329026 65.5077 640.017)" stroke="#FF7B00" stroke-opacity="0.5" stroke-width="3"/>
<line y1="-1.5" x2="917.705" y2="-1.5" transform="matrix(0.692051 -0.712325 0.950819 -0.329026 68.5732 646.013)" stroke="#FF7B00" stroke-opacity="0.5" stroke-width="3"/>
<line y1="-1.5" x2="917.705" y2="-1.5" transform="matrix(0.692051 -0.712325 0.950819 -0.329026 71.6392 652.01)" stroke="#FF7B00" stroke-opacity="0.5" stroke-width="3"/>
<line y1="-1.5" x2="917.705" y2="-1.5" transform="matrix(0.692051 -0.712325 0.950819 -0.329026 74.705 658.006)" stroke="#FF7B00" stroke-opacity="0.5" stroke-width="3"/>
<line y1="-1.5" x2="917.705" y2="-1.5" transform="matrix(0.692051 -0.712325 0.950819 -0.329026 77.7706 664.002)" stroke="#FF7B00" stroke-opacity="0.5" stroke-width="3"/>
<line y1="-1.5" x2="917.705" y2="-1.5" transform="matrix(0.692051 -0.712325 0.950819 -0.329026 80.8364 669.998)" stroke="#FF7B00" stroke-opacity="0.5" stroke-width="3"/>
<line y1="-1.5" x2="917.705" y2="-1.5" transform="matrix(0.692051 -0.712325 0.950819 -0.329026 83.9021 675.994)" stroke="#FF7B00" stroke-opacity="0.5" stroke-width="3"/>
<line y1="-1.5" x2="917.705" y2="-1.5" transform="matrix(0.69205 -0.712325 0.950819 -0.329026 86.968 681.99)" stroke="#FF7B00" stroke-opacity="0.5" stroke-width="3"/>
<line y1="-1.5" x2="917.705" y2="-1.5" transform="matrix(0.69205 -0.712325 0.950819 -0.329026 90.0338 687.986)" stroke="#FF7B00" stroke-opacity="0.5" stroke-width="3"/>
<line y1="-1.5" x2="917.705" y2="-1.5" transform="matrix(0.692051 -0.712325 0.950819 -0.329026 93.0995 693.982)" stroke="#FF7B00" stroke-opacity="0.5" stroke-width="3"/>
<line y1="-1.5" x2="917.705" y2="-1.5" transform="matrix(0.692051 -0.712325 0.950819 -0.329026 96.1653 699.978)" stroke="#FF7B00" stroke-opacity="0.5" stroke-width="3"/>
<line y1="-1.5" x2="917.705" y2="-1.5" transform="matrix(0.692051 -0.712325 0.950819 -0.329026 99.231 705.974)" stroke="#FF7B00" stroke-opacity="0.5" stroke-width="3"/>
<line y1="-1.5" x2="917.705" y2="-1.5" transform="matrix(0.692051 -0.712325 0.950819 -0.329026 102.297 711.97)" stroke="#FF7B00" stroke-opacity="0.5" stroke-width="3"/>
<line y1="-1.5" x2="917.705" y2="-1.5" transform="matrix(0.692051 -0.712325 0.950819 -0.329026 105.363 717.967)" stroke="#FF7B00" stroke-opacity="0.5" stroke-width="3"/>
<line y1="-1.5" x2="917.705" y2="-1.5" transform="matrix(0.692051 -0.712325 0.950819 -0.329026 108.428 723.963)" stroke="#FF7B00" stroke-opacity="0.5" stroke-width="3"/>
<line y1="-1.5" x2="917.705" y2="-1.5" transform="matrix(0.692051 -0.712325 0.950819 -0.329026 19.5208 550.076)" stroke="#FF7B00" stroke-opacity="0.5" stroke-width="3"/>
<line y1="-1.5" x2="917.705" y2="-1.5" transform="matrix(0.692051 -0.712325 0.950819 -0.329026 114.516 735.87)" stroke="#FF7B00" stroke-opacity="0.5" stroke-width="3"/>
<line y1="-1.5" x2="917.705" y2="-1.5" transform="matrix(0.692051 -0.712325 0.950819 -0.329026 117.582 741.866)" stroke="#FF7B00" stroke-opacity="0.5" stroke-width="3"/>
<line y1="-1.5" x2="917.705" y2="-1.5" transform="matrix(0.69205 -0.712325 0.950819 -0.329026 120.648 747.862)" stroke="#FF7B00" stroke-opacity="0.5" stroke-width="3"/>
<line y1="-1.5" x2="917.705" y2="-1.5" transform="matrix(0.692051 -0.712325 0.950819 -0.329026 123.714 753.858)" stroke="#FF7B00" stroke-opacity="0.5" stroke-width="3"/>
<line y1="-1.5" x2="917.705" y2="-1.5" transform="matrix(0.692051 -0.712325 0.950819 -0.329026 126.78 759.854)" stroke="#FF7B00" stroke-opacity="0.5" stroke-width="3"/>
<line y1="-1.5" x2="917.705" y2="-1.5" transform="matrix(0.692051 -0.712325 0.950819 -0.329026 129.845 765.85)" stroke="#FF7B00" stroke-opacity="0.5" stroke-width="3"/>
<line y1="-1.5" x2="917.705" y2="-1.5" transform="matrix(0.692051 -0.712325 0.950819 -0.329026 132.911 771.847)" stroke="#FF7B00" stroke-opacity="0.5" stroke-width="3"/>
<line y1="-1.5" x2="917.705" y2="-1.5" transform="matrix(0.692051 -0.712325 0.950819 -0.329026 135.977 777.843)" stroke="#FF7B00" stroke-opacity="0.5" stroke-width="3"/>
<line y1="-1.5" x2="917.705" y2="-1.5" transform="matrix(0.692051 -0.712325 0.950819 -0.329026 139.043 783.839)" stroke="#FF7B00" stroke-opacity="0.5" stroke-width="3"/>
<line y1="-1.5" x2="917.705" y2="-1.5" transform="matrix(0.69205 -0.712325 0.950819 -0.329026 142.109 789.835)" stroke="#FF7B00" stroke-opacity="0.5" stroke-width="3"/>
<line y1="-1.5" x2="917.705" y2="-1.5" transform="matrix(0.69205 -0.712325 0.950819 -0.329026 145.174 795.831)" stroke="#FF7B00" stroke-opacity="0.5" stroke-width="3"/>
<line y1="-1.5" x2="917.705" y2="-1.5" transform="matrix(0.692051 -0.712325 0.950819 -0.329026 148.24 801.827)" stroke="#FF7B00" stroke-opacity="0.5" stroke-width="3"/>
<line y1="-1.5" x2="917.705" y2="-1.5" transform="matrix(0.692051 -0.712325 0.950819 -0.329026 151.306 807.823)" stroke="#FF7B00" stroke-opacity="0.5" stroke-width="3"/>
<line y1="-1.5" x2="917.705" y2="-1.5" transform="matrix(0.692051 -0.712325 0.950819 -0.329026 154.372 813.819)" stroke="#FF7B00" stroke-opacity="0.5" stroke-width="3"/>
<line y1="-1.5" x2="917.705" y2="-1.5" transform="matrix(0.69205 -0.712325 0.950819 -0.329026 157.438 819.815)" stroke="#FF7B00" stroke-opacity="0.5" stroke-width="3"/>
<line y1="-1.5" x2="917.705" y2="-1.5" transform="matrix(0.692051 -0.712325 0.950819 -0.329026 160.503 825.811)" stroke="#FF7B00" stroke-opacity="0.5" stroke-width="3"/>
<line y1="-1.5" x2="917.705" y2="-1.5" transform="matrix(0.692051 -0.712325 0.950819 -0.329026 163.569 831.807)" stroke="#FF7B00" stroke-opacity="0.5" stroke-width="3"/>
<line y1="-1.5" x2="917.705" y2="-1.5" transform="matrix(0.692051 -0.712325 0.950819 -0.329026 111.451 729.874)" stroke="#FF7B00" stroke-opacity="0.5" stroke-width="3"/>
<line y1="-1.5" x2="917.705" y2="-1.5" transform="matrix(0.692051 -0.712325 0.950819 -0.329026 -258.788 21.953)" stroke="#FF7B00" stroke-opacity="0.5" stroke-width="3"/>
<line y1="-1.5" x2="917.705" y2="-1.5" transform="matrix(0.692051 -0.712325 0.950819 -0.329026 -255.722 27.9493)" stroke="#FF7B00" stroke-opacity="0.5" stroke-width="3"/>
<line y1="-1.5" x2="917.705" y2="-1.5" transform="matrix(0.692051 -0.712325 0.950819 -0.329026 -252.656 33.9453)" stroke="#FF7B00" stroke-opacity="0.5" stroke-width="3"/>
<line y1="-1.5" x2="917.705" y2="-1.5" transform="matrix(0.692051 -0.712325 0.950819 -0.329026 -249.59 39.9414)" stroke="#FF7B00" stroke-opacity="0.5" stroke-width="3"/>
<line y1="-1.5" x2="917.705" y2="-1.5" transform="matrix(0.692051 -0.712325 0.950819 -0.329026 -246.525 45.9377)" stroke="#FF7B00" stroke-opacity="0.5" stroke-width="3"/>
<line y1="-1.5" x2="917.705" y2="-1.5" transform="matrix(0.692051 -0.712325 0.950819 -0.329026 -243.459 51.9339)" stroke="#FF7B00" stroke-opacity="0.5" stroke-width="3"/>
<line y1="-1.5" x2="917.705" y2="-1.5" transform="matrix(0.692051 -0.712325 0.950819 -0.329026 -240.393 57.9299)" stroke="#FF7B00" stroke-opacity="0.5" stroke-width="3"/>
<line y1="-1.5" x2="917.705" y2="-1.5" transform="matrix(0.692051 -0.712325 0.950819 -0.329026 -237.327 63.9261)" stroke="#FF7B00" stroke-opacity="0.5" stroke-width="3"/>
<line y1="-1.5" x2="917.705" y2="-1.5" transform="matrix(0.692051 -0.712325 0.950819 -0.329026 -234.261 69.9222)" stroke="#FF7B00" stroke-opacity="0.5" stroke-width="3"/>
<line y1="-1.5" x2="917.705" y2="-1.5" transform="matrix(0.692051 -0.712325 0.950819 -0.329026 -231.196 75.9184)" stroke="#FF7B00" stroke-opacity="0.5" stroke-width="3"/>
<line y1="-1.5" x2="917.705" y2="-1.5" transform="matrix(0.692051 -0.712325 0.950819 -0.329026 -228.13 81.9144)" stroke="#FF7B00" stroke-opacity="0.5" stroke-width="3"/>
<line y1="-1.5" x2="917.705" y2="-1.5" transform="matrix(0.692051 -0.712325 0.950819 -0.329026 -225.064 87.9107)" stroke="#FF7B00" stroke-opacity="0.5" stroke-width="3"/>
<line y1="-1.5" x2="917.705" y2="-1.5" transform="matrix(0.692051 -0.712325 0.950819 -0.329026 -221.998 93.9072)" stroke="#FF7B00" stroke-opacity="0.5" stroke-width="3"/>
<line y1="-1.5" x2="917.705" y2="-1.5" transform="matrix(0.692051 -0.712325 0.950819 -0.329026 -218.932 99.9033)" stroke="#FF7B00" stroke-opacity="0.5" stroke-width="3"/>
<line y1="-1.5" x2="917.705" y2="-1.5" transform="matrix(0.692051 -0.712325 0.950819 -0.329026 -215.866 105.9)" stroke="#FF7B00" stroke-opacity="0.5" stroke-width="3"/>
<line y1="-1.5" x2="917.705" y2="-1.5" transform="matrix(0.692051 -0.712325 0.950819 -0.329026 -212.8 111.897)" stroke="#FF7B00" stroke-opacity="0.5" stroke-width="3"/>
<line y1="-1.5" x2="917.705" y2="-1.5" transform="matrix(0.692051 -0.712325 0.950819 -0.329026 -209.734 117.892)" stroke="#FF7B00" stroke-opacity="0.5" stroke-width="3"/>
<line y1="-1.5" x2="917.705" y2="-1.5" transform="matrix(0.692051 -0.712325 0.950819 -0.329026 -206.669 123.889)" stroke="#FF7B00" stroke-opacity="0.5" stroke-width="3"/>
<line y1="-1.5" x2="917.705" y2="-1.5" transform="matrix(0.692051 -0.712325 0.950819 -0.329026 -203.603 129.885)" stroke="#FF7B00" stroke-opacity="0.5" stroke-width="3"/>
<line y1="-1.5" x2="917.705" y2="-1.5" transform="matrix(0.692051 -0.712325 0.950819 -0.329026 -200.537 135.881)" stroke="#FF7B00" stroke-opacity="0.5" stroke-width="3"/>
<line y1="-1.5" x2="917.705" y2="-1.5" transform="matrix(0.692051 -0.712325 0.950819 -0.329026 -197.471 141.877)" stroke="#FF7B00" stroke-opacity="0.5" stroke-width="3"/>
<line y1="-1.5" x2="917.705" y2="-1.5" transform="matrix(0.692051 -0.712325 0.950819 -0.329026 -194.405 147.873)" stroke="#FF7B00" stroke-opacity="0.5" stroke-width="3"/>
<line y1="-1.5" x2="917.705" y2="-1.5" transform="matrix(0.692051 -0.712325 0.950819 -0.329026 -191.339 153.87)" stroke="#FF7B00" stroke-opacity="0.5" stroke-width="3"/>
<line y1="-1.5" x2="917.705" y2="-1.5" transform="matrix(0.692051 -0.712325 0.950819 -0.329026 -188.274 159.866)" stroke="#FF7B00" stroke-opacity="0.5" stroke-width="3"/>
<line y1="-1.5" x2="917.705" y2="-1.5" transform="matrix(0.692051 -0.712325 0.950819 -0.329026 -185.208 165.862)" stroke="#FF7B00" stroke-opacity="0.5" stroke-width="3"/>
<line y1="-1.5" x2="917.705" y2="-1.5" transform="matrix(0.692051 -0.712325 0.950819 -0.329026 -182.142 171.858)" stroke="#FF7B00" stroke-opacity="0.5" stroke-width="3"/>
<line y1="-1.5" x2="917.705" y2="-1.5" transform="matrix(0.692051 -0.712325 0.950819 -0.329026 -179.076 177.854)" stroke="#FF7B00" stroke-opacity="0.5" stroke-width="3"/>
<line y1="-1.5" x2="917.705" y2="-1.5" transform="matrix(0.692051 -0.712325 0.950819 -0.329026 -176.011 183.85)" stroke="#FF7B00" stroke-opacity="0.5" stroke-width="3"/>
<line y1="-1.5" x2="917.705" y2="-1.5" transform="matrix(0.692051 -0.712325 0.950819 -0.329026 -172.945 189.846)" stroke="#FF7B00" stroke-opacity="0.5" stroke-width="3"/>
<line y1="-1.5" x2="917.705" y2="-1.5" transform="matrix(0.692051 -0.712325 0.950819 -0.329026 -261.854 15.9569)" stroke="#FF7B00" stroke-opacity="0.5" stroke-width="3"/>
<line y1="-1.5" x2="917.705" y2="-1.5" transform="matrix(0.692051 -0.712325 0.950819 -0.329026 -166.857 201.754)" stroke="#FF7B00" stroke-opacity="0.5" stroke-width="3"/>
<line y1="-1.5" x2="917.705" y2="-1.5" transform="matrix(0.692051 -0.712325 0.950819 -0.329026 -163.791 207.75)" stroke="#FF7B00" stroke-opacity="0.5" stroke-width="3"/>
<line y1="-1.5" x2="917.705" y2="-1.5" transform="matrix(0.692051 -0.712325 0.950819 -0.329026 -160.725 213.746)" stroke="#FF7B00" stroke-opacity="0.5" stroke-width="3"/>
<line y1="-1.5" x2="917.705" y2="-1.5" transform="matrix(0.692051 -0.712325 0.950819 -0.329026 -157.659 219.742)" stroke="#FF7B00" stroke-opacity="0.5" stroke-width="3"/>
<line y1="-1.5" x2="917.705" y2="-1.5" transform="matrix(0.692051 -0.712325 0.950819 -0.329026 -154.593 225.739)" stroke="#FF7B00" stroke-opacity="0.5" stroke-width="3"/>
<line y1="-1.5" x2="917.705" y2="-1.5" transform="matrix(0.692051 -0.712325 0.950819 -0.329026 -151.528 231.734)" stroke="#FF7B00" stroke-opacity="0.5" stroke-width="3"/>
<line y1="-1.5" x2="917.705" y2="-1.5" transform="matrix(0.692051 -0.712325 0.950819 -0.329026 -148.462 237.731)" stroke="#FF7B00" stroke-opacity="0.5" stroke-width="3"/>
<line y1="-1.5" x2="917.705" y2="-1.5" transform="matrix(0.692051 -0.712325 0.950819 -0.329026 -145.396 243.727)" stroke="#FF7B00" stroke-opacity="0.5" stroke-width="3"/>
<line y1="-1.5" x2="917.705" y2="-1.5" transform="matrix(0.692051 -0.712325 0.950819 -0.329026 -142.33 249.723)" stroke="#FF7B00" stroke-opacity="0.5" stroke-width="3"/>
<line y1="-1.5" x2="917.705" y2="-1.5" transform="matrix(0.692051 -0.712325 0.950819 -0.329026 -139.264 255.719)" stroke="#FF7B00" stroke-opacity="0.5" stroke-width="3"/>
<line y1="-1.5" x2="917.705" y2="-1.5" transform="matrix(0.692051 -0.712325 0.950819 -0.329026 -136.199 261.715)" stroke="#FF7B00" stroke-opacity="0.5" stroke-width="3"/>
<line y1="-1.5" x2="917.705" y2="-1.5" transform="matrix(0.692051 -0.712325 0.950819 -0.329026 -133.133 267.711)" stroke="#FF7B00" stroke-opacity="0.5" stroke-width="3"/>
<line y1="-1.5" x2="917.705" y2="-1.5" transform="matrix(0.692051 -0.712325 0.950819 -0.329026 -130.067 273.708)" stroke="#FF7B00" stroke-opacity="0.5" stroke-width="3"/>
<line y1="-1.5" x2="917.705" y2="-1.5" transform="matrix(0.692051 -0.712325 0.950819 -0.329026 -127.002 279.702)" stroke="#FF7B00" stroke-opacity="0.5" stroke-width="3"/>
<line y1="-1.5" x2="917.705" y2="-1.5" transform="matrix(0.692051 -0.712325 0.950819 -0.329026 -123.936 285.699)" stroke="#FF7B00" stroke-opacity="0.5" stroke-width="3"/>
<line y1="-1.5" x2="917.705" y2="-1.5" transform="matrix(0.692051 -0.712325 0.950819 -0.329026 -120.87 291.694)" stroke="#FF7B00" stroke-opacity="0.5" stroke-width="3"/>
<line y1="-1.5" x2="917.705" y2="-1.5" transform="matrix(0.692051 -0.712325 0.950819 -0.329026 -117.805 297.69)" stroke="#FF7B00" stroke-opacity="0.5" stroke-width="3"/>
<line y1="-1.5" x2="917.705" y2="-1.5" transform="matrix(0.692051 -0.712325 0.950819 -0.329026 -114.739 303.687)" stroke="#FF7B00" stroke-opacity="0.5" stroke-width="3"/>
<line y1="-1.5" x2="917.705" y2="-1.5" transform="matrix(0.692051 -0.712325 0.950819 -0.329026 -111.673 309.683)" stroke="#FF7B00" stroke-opacity="0.5" stroke-width="3"/>
<line y1="-1.5" x2="917.705" y2="-1.5" transform="matrix(0.692051 -0.712325 0.950819 -0.329026 -108.607 315.679)" stroke="#FF7B00" stroke-opacity="0.5" stroke-width="3"/>
<line y1="-1.5" x2="917.705" y2="-1.5" transform="matrix(0.692051 -0.712325 0.950819 -0.329026 -105.541 321.675)" stroke="#FF7B00" stroke-opacity="0.5" stroke-width="3"/>
<line y1="-1.5" x2="917.705" y2="-1.5" transform="matrix(0.692051 -0.712325 0.950819 -0.329026 -102.475 327.671)" stroke="#FF7B00" stroke-opacity="0.5" stroke-width="3"/>
<line y1="-1.5" x2="917.705" y2="-1.5" transform="matrix(0.692051 -0.712325 0.950819 -0.329026 -99.4095 333.667)" stroke="#FF7B00" stroke-opacity="0.5" stroke-width="3"/>
<line y1="-1.5" x2="917.705" y2="-1.5" transform="matrix(0.692051 -0.712325 0.950819 -0.329026 -96.3439 339.663)" stroke="#FF7B00" stroke-opacity="0.5" stroke-width="3"/>
<line y1="-1.5" x2="917.705" y2="-1.5" transform="matrix(0.692051 -0.712325 0.950819 -0.329026 -93.2782 345.659)" stroke="#FF7B00" stroke-opacity="0.5" stroke-width="3"/>
<line y1="-1.5" x2="917.705" y2="-1.5" transform="matrix(0.692051 -0.712325 0.950819 -0.329026 -90.2122 351.656)" stroke="#FF7B00" stroke-opacity="0.5" stroke-width="3"/>
<line y1="-1.5" x2="917.705" y2="-1.5" transform="matrix(0.692051 -0.712325 0.950819 -0.329026 -87.1464 357.652)" stroke="#FF7B00" stroke-opacity="0.5" stroke-width="3"/>
<line y1="-1.5" x2="917.705" y2="-1.5" transform="matrix(0.692051 -0.712325 0.950819 -0.329026 -84.0807 363.648)" stroke="#FF7B00" stroke-opacity="0.5" stroke-width="3"/>
<line y1="-1.5" x2="917.705" y2="-1.5" transform="matrix(0.692051 -0.712325 0.950819 -0.329026 -81.015 369.644)" stroke="#FF7B00" stroke-opacity="0.5" stroke-width="3"/>
<line y1="-1.5" x2="917.705" y2="-1.5" transform="matrix(0.692051 -0.712325 0.950819 -0.329026 -169.922 195.758)" stroke="#FF7B00" stroke-opacity="0.5" stroke-width="3"/>
<line y1="-1.5" x2="917.705" y2="-1.5" transform="matrix(0.692051 -0.712325 0.950819 -0.329026 -74.9266 381.552)" stroke="#FF7B00" stroke-opacity="0.5" stroke-width="3"/>
<line y1="-1.5" x2="917.705" y2="-1.5" transform="matrix(0.692051 -0.712325 0.950819 -0.329026 -71.8611 387.548)" stroke="#FF7B00" stroke-opacity="0.5" stroke-width="3"/>
<line y1="-1.5" x2="917.705" y2="-1.5" transform="matrix(0.692051 -0.712325 0.950819 -0.329026 -68.795 393.544)" stroke="#FF7B00" stroke-opacity="0.5" stroke-width="3"/>
<line y1="-1.5" x2="917.705" y2="-1.5" transform="matrix(0.692051 -0.712325 0.950819 -0.329026 -65.7291 399.54)" stroke="#FF7B00" stroke-opacity="0.5" stroke-width="3"/>
<line y1="-1.5" x2="917.705" y2="-1.5" transform="matrix(0.692051 -0.712325 0.950819 -0.329026 -62.6636 405.536)" stroke="#FF7B00" stroke-opacity="0.5" stroke-width="3"/>
<line y1="-1.5" x2="917.705" y2="-1.5" transform="matrix(0.692051 -0.712325 0.950819 -0.329026 -59.5978 411.532)" stroke="#FF7B00" stroke-opacity="0.5" stroke-width="3"/>
<line y1="-1.5" x2="917.705" y2="-1.5" transform="matrix(0.692051 -0.712325 0.950819 -0.329026 -56.5319 417.528)" stroke="#FF7B00" stroke-opacity="0.5" stroke-width="3"/>
<line y1="-1.5" x2="917.705" y2="-1.5" transform="matrix(0.692051 -0.712325 0.950819 -0.329026 -53.4661 423.524)" stroke="#FF7B00" stroke-opacity="0.5" stroke-width="3"/>
<line y1="-1.5" x2="917.705" y2="-1.5" transform="matrix(0.692051 -0.712325 0.950819 -0.329026 -50.4004 429.521)" stroke="#FF7B00" stroke-opacity="0.5" stroke-width="3"/>
<line y1="-1.5" x2="917.705" y2="-1.5" transform="matrix(0.692051 -0.712325 0.950819 -0.329026 -47.3346 435.517)" stroke="#FF7B00" stroke-opacity="0.5" stroke-width="3"/>
<line y1="-1.5" x2="917.705" y2="-1.5" transform="matrix(0.692051 -0.712325 0.950819 -0.329026 -44.2688 441.513)" stroke="#FF7B00" stroke-opacity="0.5" stroke-width="3"/>
<line y1="-1.5" x2="917.705" y2="-1.5" transform="matrix(0.692051 -0.712325 0.950819 -0.329026 -41.203 447.509)" stroke="#FF7B00" stroke-opacity="0.5" stroke-width="3"/>
<line y1="-1.5" x2="917.705" y2="-1.5" transform="matrix(0.692051 -0.712325 0.950819 -0.329026 -38.1371 453.505)" stroke="#FF7B00" stroke-opacity="0.5" stroke-width="3"/>
<line y1="-1.5" x2="917.705" y2="-1.5" transform="matrix(0.692051 -0.712325 0.950819 -0.329026 -35.0714 459.501)" stroke="#FF7B00" stroke-opacity="0.5" stroke-width="3"/>
<line y1="-1.5" x2="917.705" y2="-1.5" transform="matrix(0.692051 -0.712325 0.950819 -0.329026 -32.0056 465.497)" stroke="#FF7B00" stroke-opacity="0.5" stroke-width="3"/>
<line y1="-1.5" x2="917.705" y2="-1.5" transform="matrix(0.692051 -0.712325 0.950819 -0.329026 -28.9398 471.493)" stroke="#FF7B00" stroke-opacity="0.5" stroke-width="3"/>
<line y1="-1.5" x2="917.705" y2="-1.5" transform="matrix(0.69205 -0.712325 0.950819 -0.329026 -25.874 477.489)" stroke="#FF7B00" stroke-opacity="0.5" stroke-width="3"/>
<line y1="-1.5" x2="917.705" y2="-1.5" transform="matrix(0.692051 -0.712325 0.950819 -0.329026 -22.8082 483.486)" stroke="#FF7B00" stroke-opacity="0.5" stroke-width="3"/>
<line y1="-1.5" x2="917.705" y2="-1.5" transform="matrix(0.692051 -0.712325 0.950819 -0.329026 -19.7424 489.482)" stroke="#FF7B00" stroke-opacity="0.5" stroke-width="3"/>
<line y1="-1.5" x2="917.705" y2="-1.5" transform="matrix(0.692051 -0.712325 0.950819 -0.329026 -16.6765 495.478)" stroke="#FF7B00" stroke-opacity="0.5" stroke-width="3"/>
<line y1="-1.5" x2="917.705" y2="-1.5" transform="matrix(0.692051 -0.712325 0.950819 -0.329026 -13.6107 501.474)" stroke="#FF7B00" stroke-opacity="0.5" stroke-width="3"/>
<line y1="-1.5" x2="917.705" y2="-1.5" transform="matrix(0.692051 -0.712325 0.950819 -0.329026 -10.5448 507.47)" stroke="#FF7B00" stroke-opacity="0.5" stroke-width="3"/>
<line y1="-1.5" x2="917.705" y2="-1.5" transform="matrix(0.692051 -0.712325 0.950819 -0.329026 -7.479 513.467)" stroke="#FF7B00" stroke-opacity="0.5" stroke-width="3"/>
<line y1="-1.5" x2="917.705" y2="-1.5" transform="matrix(0.692051 -0.712325 0.950819 -0.329026 -4.41333 519.463)" stroke="#FF7B00" stroke-opacity="0.5" stroke-width="3"/>
<line y1="-1.5" x2="917.705" y2="-1.5" transform="matrix(0.692051 -0.712325 0.950819 -0.329026 -1.34741 525.459)" stroke="#FF7B00" stroke-opacity="0.5" stroke-width="3"/>
<line y1="-1.5" x2="917.705" y2="-1.5" transform="matrix(0.692051 -0.712325 0.950819 -0.329026 1.71826 531.455)" stroke="#FF7B00" stroke-opacity="0.5" stroke-width="3"/>
<line y1="-1.5" x2="917.705" y2="-1.5" transform="matrix(0.692051 -0.712325 0.950819 -0.329026 4.78394 537.451)" stroke="#FF7B00" stroke-opacity="0.5" stroke-width="3"/>
<line y1="-1.5" x2="917.705" y2="-1.5" transform="matrix(0.692051 -0.712325 0.950819 -0.329026 7.84998 543.447)" stroke="#FF7B00" stroke-opacity="0.5" stroke-width="3"/>
<line y1="-1.5" x2="917.705" y2="-1.5" transform="matrix(0.692051 -0.712325 0.950819 -0.329026 10.9159 549.444)" stroke="#FF7B00" stroke-opacity="0.5" stroke-width="3"/>
<line y1="-1.5" x2="917.705" y2="-1.5" transform="matrix(0.692051 -0.712325 0.950819 -0.329026 -77.9924 375.556)" stroke="#FF7B00" stroke-opacity="0.5" stroke-width="3"/>
</g>
</svg>
