<svg width="70" height="70" viewBox="0 0 70 70" fill="none" xmlns="http://www.w3.org/2000/svg">
<mask id="mask0" mask-type="alpha" maskUnits="userSpaceOnUse" x="0" y="0" width="70" height="70">
<circle cx="35" cy="35" r="35" fill="#FF7B00"/>
</mask>
<g mask="url(#mask0)">
<line x1="-7.28679" y1="6.71356" x2="95.7132" y2="-65.4078" stroke="#FF7B00"/>
<line x1="-7.28679" y1="10.7155" x2="95.7132" y2="-61.4059" stroke="#FF7B00"/>
<line x1="-7.28679" y1="14.7173" x2="95.7132" y2="-57.404" stroke="#FF7B00"/>
<line x1="-7.28679" y1="18.7192" x2="95.7132" y2="-53.4021" stroke="#FF7B00"/>
<line x1="-7.28679" y1="22.7211" x2="95.7132" y2="-49.4002" stroke="#FF7B00"/>
<line x1="-7.28679" y1="26.723" x2="95.7132" y2="-45.3984" stroke="#FF7B00"/>
<line x1="-7.28679" y1="30.7249" x2="95.7132" y2="-41.3965" stroke="#FF7B00"/>
<line x1="-7.28679" y1="34.7268" x2="95.7132" y2="-37.3946" stroke="#FF7B00"/>
<line x1="-7.28679" y1="38.7287" x2="95.7132" y2="-33.3927" stroke="#FF7B00"/>
<line x1="-7.28679" y1="42.7306" x2="95.7132" y2="-29.3908" stroke="#FF7B00"/>
<line x1="-7.28679" y1="46.7325" x2="95.7132" y2="-25.3889" stroke="#FF7B00"/>
<line x1="-7.28679" y1="50.7344" x2="95.7132" y2="-21.387" stroke="#FF7B00"/>
<line x1="-7.28679" y1="54.7363" x2="95.7132" y2="-17.3851" stroke="#FF7B00"/>
<line x1="-7.28679" y1="58.7381" x2="95.7132" y2="-13.3832" stroke="#FF7B00"/>
<line x1="-7.28679" y1="62.7401" x2="95.7132" y2="-9.38132" stroke="#FF7B00"/>
<line x1="-7.28679" y1="66.7419" x2="95.7132" y2="-5.37946" stroke="#FF7B00"/>
<line x1="-7.28679" y1="70.7438" x2="95.7132" y2="-1.37757" stroke="#FF7B00"/>
<line x1="-7.28679" y1="74.7457" x2="95.7132" y2="2.62432" stroke="#FF7B00"/>
<line x1="-7.28679" y1="78.7476" x2="95.7132" y2="6.62621" stroke="#FF7B00"/>
<line x1="-7.28679" y1="82.7495" x2="95.7132" y2="10.6281" stroke="#FF7B00"/>
<line x1="-7.28679" y1="86.7514" x2="95.7132" y2="14.63" stroke="#FF7B00"/>
<line x1="-7.28679" y1="90.7533" x2="95.7132" y2="18.6319" stroke="#FF7B00"/>
<line x1="-7.28679" y1="94.7552" x2="95.7132" y2="22.6338" stroke="#FF7B00"/>
<line x1="-7.28679" y1="98.7571" x2="95.7132" y2="26.6357" stroke="#FF7B00"/>
<line x1="-7.28679" y1="102.759" x2="95.7132" y2="30.6376" stroke="#FF7B00"/>
<line x1="-7.28679" y1="106.761" x2="95.7132" y2="34.6395" stroke="#FF7B00"/>
<line x1="-7.28679" y1="110.763" x2="95.7132" y2="38.6414" stroke="#FF7B00"/>
<line x1="-7.28679" y1="114.765" x2="95.7132" y2="42.6433" stroke="#FF7B00"/>
<line x1="-7.28679" y1="118.767" x2="95.7132" y2="46.6452" stroke="#FF7B00"/>
<line x1="-7.28679" y1="2.71167" x2="95.7132" y2="-69.4097" stroke="#FF7B00"/>
</g>
</svg>
