<?xml version="1.0" encoding="UTF-8" standalone="no"?>
<!DOCTYPE svg PUBLIC "-//W3C//DTD SVG 1.1//EN" "http://www.w3.org/Graphics/SVG/1.1/DTD/svg11.dtd">
<svg width="100%" height="100%" viewBox="0 0 675 850" version="1.1" xmlns="http://www.w3.org/2000/svg" xmlns:xlink="http://www.w3.org/1999/xlink" xml:space="preserve" xmlns:serif="http://www.serif.com/" style="fill-rule:evenodd;clip-rule:evenodd;stroke-linejoin:round;stroke-miterlimit:2;">
    <g transform="matrix(1,0,0,1,-386,-365)">
        <g transform="matrix(4.16667,0,0,4.16667,0,0)">
            <g>
                <clipPath id="_clip1">
                    <rect x="0" y="1.001" width="750" height="499.998"/>
                </clipPath>
                <g clip-path="url(#_clip1)">
                    <path d="M723.952,310.247C718.018,310.247 712.063,309.54 706.249,308.19L706.249,87.101L497.689,87.101L295.48,87.101C269.872,63.927 250.773,34.297 243.98,1.001L247.921,1.001L250.766,6.562C253.84,4.685 256.937,2.828 260.043,1.001L750,1.001L750,306.33C741.706,308.813 733.114,310.195 724.385,310.246C724.24,310.246 724.096,310.247 723.952,310.247Z" style="fill:url(#_Linear2);"/>
                </g>
            </g>
            <path d="M92.473,233.945L92.473,221.848C98.088,218.668 104.491,216.885 110.915,216.487C111.61,216.444 112.293,216.423 112.967,216.423C118.751,216.423 123.791,217.964 128.529,220.272L129.59,226.205C126.274,227.243 123.004,228.366 119.996,230.053C117.761,229.216 115.401,228.645 112.857,228.454C112.112,228.399 111.365,228.371 110.617,228.371C105.858,228.371 101.075,229.491 96.825,231.618C95.458,232.303 93.966,233.077 92.473,233.945ZM253.401,225.684C252.837,225.684 252.268,225.599 251.708,225.415C243.976,222.874 237.769,216.861 230.172,213.714C227.114,206.981 222.189,201.082 215.836,197.337C215.183,196.952 214.519,196.592 213.843,196.255C214.33,196.227 214.817,196.208 215.304,196.196C215.646,196.188 215.987,196.184 216.328,196.184C224.353,196.184 232.12,198.42 239.392,201.708C244.786,204.147 250.652,207.15 255.268,211.19L255.268,225.381C254.662,225.577 254.034,225.684 253.401,225.684Z" style="fill:rgb(217,229,245);fill-rule:nonzero;"/>
            <path d="M92.473,196.206L92.473,186.13C92.849,188.541 93.447,190.954 93.861,193.486C94.046,194.614 93.4,195.616 92.473,196.206ZM92.473,178.473L92.473,158.12C97.255,154.95 102.326,153.825 107.744,153.825C109.99,153.825 112.296,154.019 114.664,154.34C116.849,154.636 119.122,154.892 121.305,154.892C126.889,154.892 131.88,153.218 133.277,146.273C134.455,140.41 130.362,136.024 127.981,130.942C126.415,127.596 129.824,123.505 133.282,123.505C133.713,123.505 134.145,123.569 134.568,123.706C151.045,129.026 151.029,152.244 139.254,162.566C134.074,167.108 128.504,168.565 122.494,168.565C119.677,168.565 116.764,168.245 113.749,167.772C111.428,167.409 109.126,167.157 106.933,167.157C100.388,167.157 94.822,169.403 92.67,177.627C92.596,177.911 92.531,178.192 92.473,178.473Z" style="fill:rgb(220,201,221);fill-rule:nonzero;"/>
            <path d="M108.287,262.926C103.745,251.46 108.538,237.062 119.048,230.609C119.361,230.417 119.677,230.232 119.996,230.053C124.13,231.6 127.834,234.056 131.464,236.691L135.874,261.359C120.053,261.772 108.488,262.113 108.272,262.229C108.272,262.229 108.428,262.479 108.761,262.916L108.287,262.926ZM168.142,260.553L167.308,256.707C169.459,256.662 170.805,256.613 170.805,256.613L172.649,248.98L169.469,248.436L169.896,246.667L169.804,246.651C172.788,245.356 175.674,243.549 178.413,241.252C188.385,232.89 193.526,217.383 206.135,212.431C209.207,211.224 212.435,210.708 215.679,210.708C220.174,210.708 224.701,211.698 228.899,213.219C229.328,213.375 229.752,213.54 230.172,213.714C230.863,215.235 231.458,216.798 231.954,218.389C234.641,227.021 234.5,236.393 232.37,245.18C231.556,248.538 230.432,251.878 228.461,254.717C227.191,256.546 225.531,258.156 223.604,259.248C222.889,259.265 222.056,259.285 221.121,259.305L228.395,240.919L199.042,240.382L191.238,260.001C183.929,260.173 176.045,260.361 168.142,260.553ZM162.656,235.261L159.273,219.666L157.813,211.493C157.813,211.493 157.712,211.537 157.528,211.622L157.5,211.493L156.617,211.493C158.829,209.67 161.027,207.823 163.277,206.051C164.357,207.493 166.393,208.835 170.214,209.064C170.407,209.076 170.596,209.082 170.781,209.082C176.578,209.082 178.119,203.426 178.342,197.309C178.842,197.051 179.269,196.667 179.577,196.194C183.298,194.661 187.177,193.541 191.16,192.958C193.172,192.663 195.213,192.512 197.253,192.512C202.995,192.512 208.734,193.707 213.843,196.255C206.558,196.663 199.35,198.836 193.425,203.169C187.023,207.849 182.524,214.214 178.001,220.623C174.144,226.088 169.737,232.333 163.329,235.002C163.104,235.096 162.88,235.182 162.656,235.261Z" style="fill:rgb(244,239,247);fill-rule:nonzero;"/>
            <path d="M169.804,246.651L164.946,245.819L162.656,235.261C162.88,235.182 163.104,235.096 163.329,235.002C169.737,232.333 174.144,226.088 178.001,220.623C182.524,214.214 187.023,207.849 193.425,203.169C199.35,198.836 206.558,196.663 213.843,196.255C214.519,196.592 215.183,196.952 215.836,197.337C222.189,201.082 227.114,206.981 230.172,213.714C229.752,213.54 229.328,213.375 228.899,213.219C224.701,211.698 220.174,210.708 215.679,210.708C212.435,210.708 209.207,211.224 206.135,212.431C193.526,217.383 188.385,232.89 178.413,241.252C175.674,243.549 172.788,245.356 169.804,246.651ZM131.464,236.691C127.834,234.056 124.13,231.6 119.996,230.053C123.004,228.366 126.274,227.243 129.59,226.205L131.464,236.691Z" style="fill:rgb(223,227,242);fill-rule:nonzero;"/>
            <path d="M226.705,259.177C226.705,259.177 108.965,261.854 108.272,262.229C108.272,262.229 118.113,278.059 147.993,277.237C177.874,276.415 227.982,274.985 226.705,259.177Z" style="fill:rgb(235,224,239);fill-rule:nonzero;"/>
            <path d="M163.241,206.003C159.923,207.207 161.088,203.421 160.97,201.813C160.853,200.205 160.945,198.524 160.281,197.055C159.751,195.882 158.747,194.849 158.744,193.562C158.741,192.584 159.33,191.713 159.577,190.768C159.917,189.465 159.6,188.076 159.818,186.747C160.236,184.203 162.876,182.24 165.433,182.574C166.713,182.741 167.948,183.399 169.226,183.223C170.635,183.029 171.691,181.888 172.917,181.168C174.628,180.162 176.852,180 178.619,180.906C180.385,181.811 181.575,183.816 181.36,185.789C181.145,187.763 179.434,189.515 177.452,189.625C176.296,189.689 175.18,189.247 174.057,188.961C172.934,188.676 171.655,188.57 170.697,189.223C169.49,190.046 168.97,191.942 167.515,192.078C166.747,192.149 166.056,191.661 165.35,191.35C164.644,191.039 163.656,190.979 163.256,191.639C162.925,192.184 163.2,192.875 163.274,193.509C163.408,194.668 163.136,195.824 162.088,196.335C161.665,199.533 162.631,202.601 163.583,205.683L163.241,206.003Z" style="fill:rgb(87,37,56);fill-rule:nonzero;"/>
            <path d="M135.916,261.595L126.959,211.493L155.767,211.493L166.431,260.647L135.916,261.595Z" style="fill:rgb(178,163,207);fill-rule:nonzero;"/>
            <path d="M138.132,261.526L128.69,211.493L157.5,211.493L168.162,260.647L138.132,261.526Z" style="fill:rgb(217,201,227);fill-rule:nonzero;"/>
            <path d="M159.273,219.666L157.528,211.622C157.712,211.537 157.813,211.493 157.813,211.493L159.273,219.666Z" style="fill:rgb(213,204,229);fill-rule:nonzero;"/>
            <path d="M136.443,252.577C136.013,252.404 135.661,252.215 135.4,252.009C134.181,251.051 134.247,248.416 135.022,245.043L136.443,252.577Z" style="fill:rgb(178,163,207);fill-rule:nonzero;"/>
            <path d="M137.351,252.889C137.02,252.791 136.715,252.687 136.443,252.577L135.022,245.043C136.962,236.593 143.342,223.516 145.063,220.603C147.571,216.36 155.882,212.38 157.528,211.622L159.273,219.666L161.27,230.845L154.262,237.005L154.88,215.93C154.88,215.93 150.604,218.199 147.816,222.916C145.63,226.614 135.938,246.691 137.351,252.889Z" style="fill:rgb(199,183,218);fill-rule:nonzero;"/>
            <path d="M169.469,248.436L166.363,247.904C167.522,247.561 168.671,247.143 169.804,246.651L169.896,246.667L169.469,248.436Z" style="fill:rgb(213,204,229);fill-rule:nonzero;"/>
            <path d="M166.363,247.904L165.361,247.732L164.946,245.819L169.804,246.651C168.671,247.143 167.522,247.561 166.363,247.904Z" style="fill:rgb(203,197,226);fill-rule:nonzero;"/>
            <path d="M165.361,247.732L150.364,245.164L151.197,243.465L164.946,245.819L165.361,247.732Z" style="fill:rgb(199,183,218);fill-rule:nonzero;"/>
            <path d="M182.755,223.65C182.598,223.164 181.494,212.563 170.319,212.825C159.843,213.069 154.013,213.676 150.363,221.826L154.255,237.229L155.061,261.059L185.274,260.085L182.755,223.65Z" style="fill:rgb(99,72,157);fill-rule:nonzero;"/>
            <path d="M154.88,215.93C154.88,215.93 150.604,218.199 147.816,222.916C145.407,226.992 133.879,250.964 138.152,254.322C142.426,257.68 170.805,256.613 170.805,256.613L172.649,248.98L150.364,245.164L154.255,237.228L154.88,215.93Z" style="fill:rgb(99,72,157);fill-rule:nonzero;"/>
            <path d="M177.235,214.605C177.235,214.605 187.907,221.761 199.042,240.382L194.543,251.402L182.799,236.503L177.235,214.605Z" style="fill:rgb(99,72,157);fill-rule:nonzero;"/>
            <path d="M165.83,262.397L190.285,262.397L191.495,260.309L165.83,261.046L165.83,262.397Z" style="fill:rgb(178,163,207);fill-rule:nonzero;"/>
            <path d="M172.138,251.713L182.156,251.713C182.156,251.713 188.286,257.175 187.224,257.441C186.163,257.707 182.421,254.01 182.421,254.01L185.274,260.352C185.274,260.352 180.892,259.755 179.469,258.562C178.045,257.369 176.719,256.44 176.719,256.44L171.018,256.97L172.138,251.713Z" style="fill:rgb(249,189,191);fill-rule:nonzero;"/>
            <path d="M154.721,216.138C154.72,216.132 154.811,216.118 154.986,216.098C155.073,216.084 155.182,216.075 155.311,216.081C155.44,216.082 155.589,216.08 155.755,216.108C156.416,216.18 157.382,216.523 158.264,217.352C158.702,217.763 159.116,218.287 159.444,218.915C159.781,219.54 159.991,220.28 160.093,221.066C160.301,222.649 160.01,224.404 159.505,226.147C158.488,229.646 157.075,232.644 155.91,234.718C155.326,235.756 154.813,236.573 154.442,237.126C154.261,237.405 154.109,237.615 154.009,237.759C153.908,237.901 153.852,237.975 153.847,237.971C153.842,237.968 153.888,237.888 153.98,237.739C154.081,237.577 154.216,237.361 154.385,237.089C154.738,236.526 155.233,235.701 155.801,234.658C156.936,232.575 158.325,229.581 159.337,226.099C159.84,224.366 160.128,222.638 159.933,221.086C159.774,219.525 159.028,218.251 158.179,217.441C157.328,216.619 156.392,216.267 155.745,216.175C155.092,216.081 154.722,216.165 154.721,216.138Z" style="fill:rgb(75,45,129);fill-rule:nonzero;"/>
            <path d="M181.268,222.424C181.274,222.423 181.289,222.496 181.314,222.636C181.339,222.793 181.372,222.996 181.412,223.247C181.5,223.799 181.621,224.563 181.768,225.496C182.073,227.414 182.487,230.028 182.944,232.916C183.387,235.817 183.76,238.449 183.972,240.361C184.079,241.317 184.147,242.093 184.184,242.63C184.198,242.884 184.208,243.089 184.216,243.249C184.221,243.391 184.221,243.465 184.215,243.465C184.209,243.466 184.197,243.392 184.181,243.251C184.164,243.092 184.143,242.889 184.117,242.636C184.059,242.102 183.972,241.329 183.849,240.376C183.606,238.47 183.214,235.843 182.771,232.942C182.326,230.043 181.917,227.418 181.646,225.514C181.511,224.562 181.409,223.791 181.345,223.256C181.318,223.003 181.296,222.799 181.279,222.64C181.266,222.499 181.262,222.425 181.268,222.424Z" style="fill:rgb(75,45,129);fill-rule:nonzero;"/>
            <path d="M146.831,268.294C143.747,268.294 141.247,267.859 141.247,267.322C141.247,267.189 141.4,267.062 141.677,266.947C142.226,267.066 143.563,267.322 144.911,267.322C145.789,267.322 146.673,267.213 147.346,266.887C147.346,266.887 147.407,266.687 147.504,266.356C150.271,266.414 152.415,266.824 152.415,267.322C152.415,267.859 149.915,268.294 146.831,268.294Z" style="fill:rgb(226,214,234);fill-rule:nonzero;"/>
            <path d="M138.691,260.1C138.583,258.783 139.665,259.212 139.665,259.212L140.238,262.936C140.238,262.936 138.891,262.541 138.691,260.1ZM148.845,257.048C148.845,257.048 144.023,255.222 139.526,257.048L139.526,258.089C139.526,258.089 137.897,257.959 137.897,259.523C137.897,261.087 138.418,263.172 140.504,264.02L141.416,266.887C141.416,266.887 145.326,267.865 147.346,266.887C147.346,266.887 147.804,265.386 148.193,263.825C148.474,262.699 148.845,257.048 148.845,257.048Z" style="fill:rgb(251,185,137);fill-rule:nonzero;"/>
            <path d="M148.196,257.158C148.196,257.158 143.967,256.138 140.238,257.192C140.238,257.192 144.064,260.395 148.196,257.158Z" style="fill:rgb(241,156,106);fill-rule:nonzero;"/>
            <path d="M148.621,261.48C148.625,261.492 148.515,261.544 148.31,261.631C148.107,261.72 147.804,261.83 147.424,261.946C146.665,262.179 145.579,262.404 144.363,262.446C143.146,262.484 142.048,262.333 141.275,262.151C140.888,262.059 140.578,261.97 140.37,261.894C140.16,261.822 140.046,261.776 140.05,261.764C140.059,261.735 140.527,261.88 141.301,262.029C142.073,262.179 143.157,262.309 144.357,262.271C145.557,262.23 146.63,262.028 147.391,261.828C148.152,261.626 148.61,261.453 148.621,261.48Z" style="fill:rgb(186,130,96);fill-rule:nonzero;"/>
            <path d="M148.409,260.574C148.414,260.584 148.308,260.645 148.111,260.746C147.916,260.847 147.622,260.975 147.251,261.109C146.511,261.38 145.438,261.643 144.229,261.694C143.02,261.74 141.93,261.563 141.17,261.351C140.789,261.247 140.486,261.144 140.284,261.057C140.079,260.973 139.969,260.921 139.974,260.911C139.985,260.88 140.439,261.054 141.2,261.233C141.958,261.411 143.033,261.565 144.223,261.519C145.411,261.47 146.47,261.231 147.212,260.992C147.955,260.755 148.395,260.545 148.409,260.574Z" style="fill:rgb(186,130,96);fill-rule:nonzero;"/>
            <path d="M148.682,256.99C148.133,256.805 146.253,256.236 143.941,256.236C142.862,256.236 141.69,256.36 140.514,256.704C140.419,256.587 140.329,256.463 140.245,256.337C140.313,256.104 140.45,255.879 140.627,255.715C140.743,255.608 140.871,255.518 141.006,255.438C143.096,255.927 145.976,256.246 149.125,256.449C148.989,256.638 148.841,256.819 148.682,256.99Z" style="fill:rgb(219,205,229);fill-rule:nonzero;"/>
            <path d="M149.125,256.449C145.976,256.246 143.096,255.927 141.006,255.438C141.342,255.24 141.723,255.107 142.078,254.937C142.575,254.699 143.072,254.322 143.168,253.779C143.351,252.738 141.979,251.815 142.327,250.817C142.654,249.878 144.124,249.946 144.692,249.13C145.314,248.235 144.468,246.954 144.853,245.934C145.088,245.313 145.769,244.943 146.437,244.943C146.522,244.943 146.606,244.948 146.689,244.96C147.431,245.068 148.066,245.578 148.488,246.196C148.911,246.814 149.15,247.537 149.371,248.252C149.659,249.186 149.911,250.248 149.432,251.099C149.188,251.531 148.756,251.978 148.943,252.437C149.057,252.714 149.36,252.856 149.576,253.065C150.107,253.582 150.047,254.459 149.801,255.159C149.638,255.619 149.408,256.053 149.125,256.449Z" style="fill:rgb(108,80,161);fill-rule:nonzero;"/>
            <path d="M144.769,258.747C144.239,258.747 143.71,258.664 143.203,258.509C143.54,258.569 143.897,258.605 144.271,258.605C145.456,258.606 146.809,258.246 148.196,257.158C148.196,257.158 146.357,256.716 144.036,256.716C143.017,256.716 141.905,256.8 140.814,257.046C140.709,256.936 140.609,256.822 140.514,256.704C141.69,256.36 142.862,256.236 143.941,256.236C146.253,256.236 148.133,256.805 148.682,256.99C147.804,257.934 146.597,258.578 145.313,258.717C145.132,258.738 144.951,258.747 144.769,258.747Z" style="fill:rgb(251,189,145);fill-rule:nonzero;"/>
            <path d="M140.21,256.798C140.192,256.684 140.196,256.565 140.219,256.446L140.294,256.772C140.266,256.781 140.238,256.789 140.21,256.798Z" style="fill:rgb(219,205,229);fill-rule:nonzero;"/>
            <path d="M140.365,257.157C140.281,257.05 140.231,256.928 140.21,256.798C140.238,256.789 140.266,256.781 140.294,256.772L140.383,257.152C140.377,257.154 140.371,257.156 140.365,257.157Z" style="fill:rgb(251,189,145);fill-rule:nonzero;"/>
            <path d="M140.219,256.446L140.164,256.212C140.19,256.253 140.217,256.295 140.245,256.337C140.235,256.373 140.226,256.41 140.219,256.446Z" style="fill:rgb(219,205,229);fill-rule:nonzero;"/>
            <path d="M144.271,258.605C143.897,258.605 143.54,258.569 143.203,258.509C142.3,258.233 141.466,257.726 140.814,257.046C141.905,256.8 143.017,256.716 144.036,256.716C146.357,256.716 148.196,257.158 148.196,257.158C146.809,258.246 145.456,258.606 144.271,258.605ZM140.392,257.188C140.382,257.178 140.374,257.167 140.365,257.157C140.371,257.156 140.377,257.154 140.383,257.152L140.392,257.188Z" style="fill:rgb(240,162,114);fill-rule:nonzero;"/>
            <path d="M179.032,224.164C179.072,224.191 178.778,224.677 178.376,225.248C177.974,225.819 177.616,226.26 177.577,226.232C177.537,226.204 177.831,225.719 178.233,225.147C178.635,224.576 178.993,224.136 179.032,224.164Z" style="fill:rgb(158,109,175);fill-rule:nonzero;"/>
            <path d="M163.269,213.191C163.269,213.191 169.426,229.155 173.724,234.549C173.724,234.549 175.53,218.805 173.724,213.121C173.724,213.121 165.477,212.132 163.269,213.191Z" style="fill:rgb(246,249,253);fill-rule:nonzero;"/>
            <path d="M162.247,187.236L161.834,196.706C161.834,196.706 158.925,196.671 158.927,199.341C158.931,202.696 162.081,202.134 162.081,202.134C162.081,202.134 161.43,208.536 170.214,209.064C180.49,209.683 178.305,193.622 177.908,186.083L162.247,187.236Z" style="fill:rgb(249,189,191);fill-rule:nonzero;"/>
            <path d="M173.724,201.682L173.215,213.23C173.072,216.468 169.641,218.482 166.742,217.033L166.63,216.977C165.07,216.196 164.11,214.579 164.163,212.834C164.286,208.777 164.33,201.784 164.33,201.784L173.724,201.682Z" style="fill:rgb(249,189,191);fill-rule:nonzero;"/>
            <path d="M173.724,234.549C173.721,234.554 173.649,234.494 173.517,234.375C173.385,234.257 173.194,234.079 172.95,233.847C172.462,233.382 171.772,232.693 170.931,231.833C170.087,230.974 169.096,229.939 167.949,228.839C167.378,228.289 166.75,227.729 166.191,227.055C165.635,226.388 165.144,225.579 164.981,224.648C164.847,223.912 164.932,223.133 165.286,222.508L165.418,222.616C165.084,222.906 164.61,222.932 164.232,222.81C163.848,222.69 163.513,222.444 163.296,222.121C162.866,221.469 162.822,220.713 162.778,220.051C162.706,218.714 162.642,217.521 162.588,216.517C162.541,215.533 162.503,214.737 162.476,214.169C162.467,213.906 162.459,213.696 162.453,213.536C162.45,213.392 162.451,213.316 162.456,213.316C162.462,213.316 162.472,213.391 162.485,213.534C162.498,213.694 162.516,213.903 162.537,214.166C162.577,214.733 162.633,215.527 162.702,216.511C162.766,217.513 162.843,218.706 162.93,220.042C162.976,220.701 163.031,221.431 163.432,222.028C163.628,222.318 163.934,222.542 164.281,222.648C164.624,222.756 165.029,222.728 165.305,222.485L165.685,222.151L165.436,222.593C165.107,223.177 165.024,223.911 165.153,224.617C165.309,225.508 165.779,226.289 166.323,226.946C166.87,227.608 167.49,228.167 168.061,228.723C169.204,229.834 170.187,230.877 171.019,231.747C171.849,232.619 172.525,233.319 172.997,233.798C173.225,234.028 173.406,234.212 173.542,234.35C173.666,234.477 173.729,234.545 173.724,234.549Z" style="fill:rgb(75,45,129);fill-rule:nonzero;"/>
            <path d="M173.724,213.121L173.858,213.225C173.943,213.297 174.065,213.407 174.217,213.557C174.52,213.855 174.946,214.313 175.382,214.959C175.599,215.282 175.821,215.651 176.031,216.063C176.242,216.473 176.46,216.934 176.569,217.458C176.686,217.977 176.724,218.552 176.62,219.136C176.526,219.72 176.257,220.311 175.811,220.779L175.814,220.664C176.116,221.004 176.319,221.442 176.41,221.907C176.502,222.373 176.504,222.857 176.463,223.339C176.39,224.137 176.225,224.893 176.096,225.628C175.958,226.362 175.817,227.069 175.675,227.741C175.392,229.084 175.105,230.287 174.85,231.293C174.596,232.299 174.37,233.108 174.208,233.666C174.128,233.93 174.064,234.143 174.015,234.306C173.969,234.451 173.941,234.527 173.935,234.525C173.93,234.523 173.946,234.445 173.981,234.296C174.022,234.131 174.076,233.916 174.142,233.648C174.285,233.085 174.492,232.272 174.731,231.264C174.97,230.255 175.244,229.051 175.517,227.708C175.655,227.037 175.793,226.331 175.928,225.597C176.055,224.863 176.217,224.104 176.289,223.324C176.329,222.853 176.327,222.383 176.24,221.941C176.154,221.5 175.966,221.093 175.687,220.776L175.636,220.717L175.69,220.661C176.11,220.223 176.369,219.667 176.463,219.107C176.565,218.549 176.535,217.993 176.426,217.489C176.325,216.98 176.12,216.534 175.916,216.122C175.714,215.71 175.501,215.343 175.291,215.019C174.872,214.372 174.463,213.907 174.175,213.597C174.037,213.454 173.926,213.338 173.838,213.247L173.724,213.121Z" style="fill:rgb(75,45,129);fill-rule:nonzero;"/>
            <path d="M174.751,251.713C174.703,251.716 174.402,247.891 174.078,243.169C173.755,238.446 173.532,234.615 173.58,234.612C173.628,234.608 173.93,238.434 174.253,243.157C174.577,247.879 174.8,251.71 174.751,251.713Z" style="fill:rgb(75,45,129);fill-rule:nonzero;"/>
            <path d="M176.288,239.185C176.286,239.177 176.368,239.145 176.52,239.162C176.669,239.177 176.897,239.246 177.089,239.454C177.284,239.657 177.39,240.027 177.264,240.386C177.151,240.751 176.74,241.043 176.298,241.007C175.843,240.977 175.518,240.614 175.413,240.266C175.301,239.91 175.383,239.547 175.563,239.329C175.745,239.106 175.981,239.039 176.132,239.033C176.286,239.029 176.364,239.072 176.361,239.081C176.358,239.095 176.277,239.077 176.139,239.101C176.005,239.125 175.803,239.205 175.661,239.403C175.519,239.597 175.462,239.912 175.566,240.216C175.665,240.515 175.947,240.812 176.31,240.833C176.675,240.86 177.012,240.629 177.113,240.331C177.225,240.032 177.151,239.718 176.996,239.535C176.841,239.344 176.643,239.262 176.509,239.229C176.371,239.193 176.289,239.2 176.288,239.185Z" style="fill:rgb(75,45,129);fill-rule:nonzero;"/>
            <path d="M176.834,245.974C176.832,245.965 176.913,245.933 177.066,245.95C177.214,245.965 177.442,246.034 177.635,246.243C177.828,246.445 177.935,246.815 177.809,247.174C177.697,247.539 177.285,247.831 176.844,247.795C176.389,247.765 176.063,247.402 175.958,247.055C175.846,246.698 175.928,246.335 176.108,246.117C176.29,245.894 176.527,245.827 176.677,245.821C176.832,245.817 176.909,245.861 176.906,245.869C176.903,245.883 176.822,245.865 176.684,245.889C176.55,245.914 176.349,245.994 176.206,246.192C176.065,246.385 176.007,246.7 176.111,247.004C176.21,247.303 176.492,247.6 176.855,247.621C177.221,247.648 177.557,247.417 177.658,247.119C177.771,246.82 177.696,246.506 177.541,246.323C177.386,246.133 177.188,246.05 177.054,246.017C176.917,245.981 176.835,245.988 176.834,245.974Z" style="fill:rgb(75,45,129);fill-rule:nonzero;"/>
            <path d="M176.141,239.733L176.141,239.855L176.028,239.902L175.995,239.758L176.141,239.733Z" style="fill:rgb(75,45,129);fill-rule:nonzero;"/>
            <path d="M176.628,240.108L176.655,240.23L176.534,240.258L176.507,240.137L176.628,240.108Z" style="fill:rgb(75,45,129);fill-rule:nonzero;"/>
            <path d="M176.628,246.485L176.621,246.634L176.478,246.673L176.485,246.525L176.628,246.485Z" style="fill:rgb(75,45,129);fill-rule:nonzero;"/>
            <path d="M177.172,247.011L177.127,247.169L176.966,247.198L177.01,247.04L177.172,247.011Z" style="fill:rgb(75,45,129);fill-rule:nonzero;"/>
            <path d="M172.449,249.355C172.496,249.364 172.151,251.339 171.679,253.767C171.207,256.196 170.786,258.156 170.738,258.147C170.691,258.138 171.035,256.162 171.508,253.734C171.98,251.306 172.401,249.345 172.449,249.355Z" style="fill:rgb(75,45,129);fill-rule:nonzero;"/>
            <path d="M168.74,248.823C168.786,248.834 168.412,250.771 167.904,253.15C167.395,255.531 166.945,257.451 166.898,257.441C166.851,257.432 167.224,255.494 167.733,253.114C168.242,250.734 168.692,248.813 168.74,248.823Z" style="fill:rgb(75,45,129);fill-rule:nonzero;"/>
            <path d="M172.738,249.41C172.728,249.458 168.706,248.722 163.755,247.768C158.802,246.813 154.796,246.001 154.805,245.954C154.814,245.906 158.835,246.642 163.788,247.596C168.739,248.551 172.746,249.363 172.738,249.41Z" style="fill:rgb(75,45,129);fill-rule:nonzero;"/>
            <path d="M170.738,258C170.734,258.048 167.232,257.807 162.917,257.464C158.599,257.121 155.104,256.803 155.108,256.755C155.112,256.707 158.614,256.947 162.931,257.291C167.246,257.634 170.742,257.951 170.738,258Z" style="fill:rgb(75,45,129);fill-rule:nonzero;"/>
            <path d="M175.299,260.41C175.255,260.419 175.031,259.587 174.951,258.529C174.868,257.472 174.962,256.615 175.007,256.619C175.058,256.622 175.043,257.472 175.125,258.516C175.203,259.559 175.349,260.398 175.299,260.41Z" style="fill:rgb(75,45,129);fill-rule:nonzero;"/>
            <path d="M181.487,229.725C181.491,229.772 180.435,229.895 179.129,229.998C177.823,230.101 176.762,230.145 176.758,230.097C176.754,230.049 177.809,229.926 179.116,229.824C180.421,229.721 181.483,229.676 181.487,229.725Z" style="fill:rgb(75,45,129);fill-rule:nonzero;"/>
            <path d="M196.344,247.395C196.306,247.425 193.267,243.749 189.557,239.185C185.845,234.619 182.867,230.895 182.904,230.864C182.941,230.834 185.98,234.509 189.692,239.075C193.403,243.639 196.381,247.364 196.344,247.395Z" style="fill:rgb(75,45,129);fill-rule:nonzero;"/>
            <path d="M157.24,246.34C157.192,246.344 156.951,243.538 156.701,240.074C156.451,236.609 156.287,233.798 156.335,233.795C156.383,233.792 156.625,236.597 156.875,240.062C157.125,243.525 157.288,246.337 157.24,246.34Z" style="fill:rgb(75,45,129);fill-rule:nonzero;"/>
            <path d="M158.687,260.962C158.648,260.981 158.26,260.158 158.108,259.055C157.948,257.954 158.092,257.054 158.135,257.062C158.188,257.066 158.124,257.954 158.281,259.031C158.429,260.108 158.737,260.944 158.687,260.962Z" style="fill:rgb(75,45,129);fill-rule:nonzero;"/>
            <path d="M179.961,228.453C179.925,228.484 179.665,228.236 179.381,227.899C179.098,227.563 178.897,227.265 178.934,227.233C178.971,227.203 179.231,227.45 179.515,227.787C179.798,228.124 179.998,228.422 179.961,228.453Z" style="fill:rgb(158,109,175);fill-rule:nonzero;"/>
            <path d="M163.884,234.293C163.924,234.321 163.711,234.701 163.409,235.144C163.106,235.586 162.828,235.923 162.789,235.896C162.749,235.869 162.962,235.488 163.264,235.045C163.566,234.603 163.844,234.266 163.884,234.293Z" style="fill:rgb(158,109,175);fill-rule:nonzero;"/>
            <path d="M159.674,237.698C159.64,237.733 159.238,237.404 158.774,236.964C158.31,236.524 157.961,236.139 157.995,236.104C158.028,236.069 158.431,236.397 158.894,236.837C159.358,237.277 159.707,237.663 159.674,237.698Z" style="fill:rgb(158,109,175);fill-rule:nonzero;"/>
            <path d="M160.504,233.275C160.469,233.303 160.164,232.934 159.995,232.379C159.823,231.826 159.867,231.35 159.911,231.353C159.963,231.352 159.997,231.803 160.162,232.328C160.322,232.854 160.547,233.247 160.504,233.275Z" style="fill:rgb(158,109,175);fill-rule:nonzero;"/>
            <path d="M162.745,229.491C162.727,229.533 162.307,229.381 161.871,229.052C161.433,228.726 161.17,228.365 161.205,228.335C161.243,228.302 161.554,228.598 161.976,228.913C162.395,229.229 162.767,229.445 162.745,229.491Z" style="fill:rgb(158,109,175);fill-rule:nonzero;"/>
            <path d="M169.188,233.42C169.23,233.445 169.065,233.803 168.82,234.22C168.575,234.636 168.343,234.955 168.301,234.93C168.26,234.906 168.425,234.548 168.67,234.131C168.914,233.714 169.147,233.396 169.188,233.42Z" style="fill:rgb(158,109,175);fill-rule:nonzero;"/>
            <path d="M166.661,232.123C166.616,232.132 166.481,231.637 166.446,231.008C166.409,230.379 166.487,229.872 166.533,229.876C166.582,229.879 166.584,230.382 166.62,230.998C166.655,231.614 166.71,232.114 166.661,232.123Z" style="fill:rgb(158,109,175);fill-rule:nonzero;"/>
            <path d="M166.646,239.703C166.604,239.72 166.375,239.229 166.291,238.571C166.203,237.915 166.297,237.38 166.342,237.387C166.393,237.391 166.379,237.914 166.464,238.548C166.545,239.183 166.694,239.686 166.646,239.703Z" style="fill:rgb(158,109,175);fill-rule:nonzero;"/>
            <path d="M164.158,241.623C164.127,241.657 163.73,241.338 163.369,240.829C163.005,240.323 162.832,239.843 162.874,239.826C162.92,239.804 163.158,240.237 163.511,240.728C163.861,241.221 164.193,241.586 164.158,241.623Z" style="fill:rgb(158,109,175);fill-rule:nonzero;"/>
            <path d="M160.634,242.724C160.662,242.763 160.383,243.01 160.011,243.276C159.639,243.543 159.315,243.727 159.287,243.688C159.259,243.648 159.537,243.401 159.91,243.134C160.282,242.868 160.606,242.684 160.634,242.724Z" style="fill:rgb(158,109,175);fill-rule:nonzero;"/>
            <path d="M158.49,240.874C158.462,240.911 158.215,240.76 158.018,240.471C157.82,240.184 157.768,239.899 157.813,239.886C157.86,239.87 157.979,240.108 158.162,240.373C158.343,240.639 158.522,240.836 158.49,240.874Z" style="fill:rgb(158,109,175);fill-rule:nonzero;"/>
            <path d="M164.008,245.468C164.054,245.481 163.979,245.881 163.84,246.36C163.701,246.84 163.55,247.218 163.504,247.204C163.458,247.19 163.533,246.792 163.672,246.312C163.811,245.833 163.962,245.455 164.008,245.468Z" style="fill:rgb(158,109,175);fill-rule:nonzero;"/>
            <path d="M167.434,246.435C167.402,246.466 167.058,246.144 166.799,245.63C166.537,245.118 166.48,244.649 166.525,244.642C166.575,244.63 166.704,245.062 166.955,245.551C167.202,246.042 167.473,246.401 167.434,246.435Z" style="fill:rgb(158,109,175);fill-rule:nonzero;"/>
            <path d="M171.729,246.506C171.703,246.546 171.293,246.32 170.814,246.001C170.335,245.683 169.969,245.392 169.995,245.352C170.022,245.312 170.432,245.537 170.911,245.856C171.39,246.175 171.756,246.466 171.729,246.506Z" style="fill:rgb(158,109,175);fill-rule:nonzero;"/>
            <path d="M172.203,241.521C172.234,241.558 171.914,241.875 171.489,242.23C171.064,242.584 170.694,242.842 170.663,242.805C170.632,242.768 170.952,242.45 171.377,242.096C171.803,241.741 172.173,241.483 172.203,241.521Z" style="fill:rgb(158,109,175);fill-rule:nonzero;"/>
            <path d="M168.515,241.489C168.554,241.517 168.47,241.698 168.327,241.892C168.184,242.087 168.037,242.221 167.998,242.193C167.959,242.164 168.044,241.983 168.186,241.789C168.328,241.595 168.476,241.46 168.515,241.489Z" style="fill:rgb(158,109,175);fill-rule:nonzero;"/>
            <path d="M171.284,238.669C171.245,238.701 170.905,238.338 170.445,237.938C169.986,237.537 169.58,237.25 169.606,237.207C169.629,237.167 170.087,237.394 170.559,237.807C171.033,238.218 171.32,238.642 171.284,238.669Z" style="fill:rgb(158,109,175);fill-rule:nonzero;"/>
            <path d="M162.843,226.821C162.803,226.789 163.15,226.32 163.453,225.677C163.76,225.036 163.904,224.471 163.954,224.481C163.998,224.487 163.929,225.087 163.61,225.752C163.296,226.418 162.875,226.852 162.843,226.821Z" style="fill:rgb(158,109,175);fill-rule:nonzero;"/>
            <path d="M161.212,224.996C161.166,225.005 161.03,224.482 160.985,223.819C160.939,223.156 161.002,222.619 161.049,222.622C161.099,222.624 161.114,223.155 161.159,223.807C161.203,224.459 161.261,224.988 161.212,224.996Z" style="fill:rgb(158,109,175);fill-rule:nonzero;"/>
            <path d="M161.27,218.063C161.261,218.107 160.875,218.04 160.498,217.756C160.119,217.475 159.943,217.125 159.983,217.103C160.026,217.075 160.251,217.357 160.602,217.616C160.95,217.878 161.285,218.014 161.27,218.063Z" style="fill:rgb(158,109,175);fill-rule:nonzero;"/>
            <path d="M160.052,214.667C160.072,214.71 159.815,214.875 159.478,215.034C159.141,215.193 158.851,215.287 158.831,215.243C158.81,215.199 159.067,215.035 159.404,214.876C159.741,214.717 160.031,214.623 160.052,214.667Z" style="fill:rgb(158,109,175);fill-rule:nonzero;"/>
            <path d="M164.274,219.925C164.226,219.919 164.231,219.555 164.284,219.112C164.337,218.669 164.419,218.314 164.467,218.32C164.515,218.326 164.511,218.69 164.457,219.133C164.404,219.576 164.322,219.931 164.274,219.925Z" style="fill:rgb(158,109,175);fill-rule:nonzero;"/>
            <path d="M167.047,224.868C167.018,224.907 166.823,224.809 166.61,224.649C166.397,224.489 166.248,224.329 166.277,224.29C166.306,224.251 166.502,224.35 166.715,224.509C166.927,224.669 167.076,224.83 167.047,224.868Z" style="fill:rgb(158,109,175);fill-rule:nonzero;"/>
            <path d="M175.637,223.069C175.684,223.08 175.629,223.49 175.514,223.984C175.399,224.479 175.267,224.87 175.221,224.859C175.173,224.848 175.229,224.439 175.344,223.944C175.459,223.45 175.59,223.058 175.637,223.069Z" style="fill:rgb(158,109,175);fill-rule:nonzero;"/>
            <path d="M175.841,218.707C175.818,218.748 175.558,218.635 175.349,218.367C175.137,218.1 175.09,217.82 175.135,217.808C175.182,217.792 175.296,218.02 175.486,218.259C175.673,218.5 175.868,218.665 175.841,218.707Z" style="fill:rgb(158,109,175);fill-rule:nonzero;"/>
            <path d="M178.216,219.734C178.257,219.759 178.103,220.082 177.872,220.454C177.642,220.826 177.422,221.107 177.381,221.082C177.34,221.057 177.494,220.734 177.724,220.362C177.954,219.99 178.175,219.709 178.216,219.734Z" style="fill:rgb(158,109,175);fill-rule:nonzero;"/>
            <path d="M180.057,221.915C180.009,221.912 179.997,221.464 180.03,220.915C180.062,220.365 180.128,219.922 180.176,219.925C180.224,219.928 180.237,220.376 180.204,220.925C180.171,221.475 180.105,221.918 180.057,221.915Z" style="fill:rgb(158,109,175);fill-rule:nonzero;"/>
            <path d="M178.651,217.114C178.613,217.144 178.266,216.781 177.877,216.303C177.486,215.824 177.201,215.412 177.238,215.381C177.275,215.351 177.622,215.714 178.012,216.192C178.402,216.67 178.688,217.083 178.651,217.114Z" style="fill:rgb(158,109,175);fill-rule:nonzero;"/>
            <path d="M155.467,224.159C155.42,224.151 155.468,223.613 155.576,222.958C155.683,222.302 155.808,221.777 155.856,221.785C155.904,221.792 155.855,222.33 155.748,222.986C155.641,223.642 155.515,224.167 155.467,224.159Z" style="fill:rgb(158,109,175);fill-rule:nonzero;"/>
            <path d="M153.63,220.116C153.634,220.166 153.226,220.234 152.737,220.36C152.246,220.484 151.856,220.621 151.836,220.575C151.816,220.533 152.186,220.32 152.694,220.191C153.2,220.061 153.628,220.07 153.63,220.116Z" style="fill:rgb(158,109,175);fill-rule:nonzero;"/>
            <path d="M156.198,218.514C156.164,218.548 155.878,218.317 155.558,217.998C155.24,217.679 155.009,217.393 155.043,217.359C155.077,217.325 155.363,217.556 155.682,217.875C156.001,218.194 156.232,218.48 156.198,218.514Z" style="fill:rgb(158,109,175);fill-rule:nonzero;"/>
            <path d="M158.316,223.264C158.272,223.277 158.115,222.841 158.099,222.275C158.078,221.709 158.207,221.264 158.252,221.274C158.302,221.284 158.253,221.726 158.273,222.27C158.288,222.813 158.366,223.252 158.316,223.264Z" style="fill:rgb(158,109,175);fill-rule:nonzero;"/>
            <path d="M155.677,229.809C155.632,229.79 155.764,229.384 155.97,228.902C156.176,228.421 156.378,228.046 156.423,228.065C156.467,228.084 156.336,228.49 156.13,228.971C155.924,229.453 155.721,229.828 155.677,229.809Z" style="fill:rgb(158,109,175);fill-rule:nonzero;"/>
            <path d="M153.309,226.987C153.266,226.975 153.348,226.6 153.607,226.212C153.865,225.824 154.179,225.604 154.208,225.639C154.242,225.677 153.995,225.942 153.753,226.31C153.507,226.674 153.357,227.004 153.309,226.987Z" style="fill:rgb(158,109,175);fill-rule:nonzero;"/>
            <path d="M150.172,226.285C150.128,226.266 150.293,225.79 150.541,225.223C150.789,224.655 151.025,224.211 151.07,224.23C151.114,224.25 150.949,224.725 150.701,225.292C150.453,225.86 150.217,226.304 150.172,226.285Z" style="fill:rgb(158,109,175);fill-rule:nonzero;"/>
            <path d="M148.157,225.509C148.109,225.502 148.131,225.038 148.205,224.471C148.28,223.904 148.379,223.45 148.427,223.457C148.475,223.462 148.453,223.927 148.378,224.494C148.304,225.061 148.204,225.515 148.157,225.509Z" style="fill:rgb(158,109,175);fill-rule:nonzero;"/>
            <path d="M146.751,230.845C146.709,230.87 146.474,230.545 146.224,230.121C145.974,229.696 145.806,229.332 145.848,229.308C145.889,229.283 146.125,229.607 146.374,230.032C146.624,230.457 146.792,230.821 146.751,230.845Z" style="fill:rgb(158,109,175);fill-rule:nonzero;"/>
            <path d="M149.201,229.17C149.155,229.184 149,228.793 148.855,228.297C148.71,227.802 148.63,227.389 148.677,227.376C148.723,227.362 148.878,227.753 149.023,228.249C149.167,228.744 149.247,229.156 149.201,229.17Z" style="fill:rgb(158,109,175);fill-rule:nonzero;"/>
            <path d="M152.414,231.104C152.433,231.15 151.966,231.381 151.419,231.713C150.871,232.042 150.449,232.349 150.417,232.311C150.387,232.275 150.767,231.901 151.329,231.563C151.889,231.224 152.398,231.061 152.414,231.104Z" style="fill:rgb(158,109,175);fill-rule:nonzero;"/>
            <path d="M153.185,236.042C153.145,236.01 153.418,235.605 153.696,235.077C153.977,234.55 154.159,234.097 154.207,234.112C154.251,234.125 154.14,234.615 153.85,235.159C153.563,235.703 153.22,236.071 153.185,236.042Z" style="fill:rgb(158,109,175);fill-rule:nonzero;"/>
            <path d="M150.861,236.744C150.813,236.741 150.805,236.208 150.842,235.552C150.879,234.896 150.949,234.367 150.997,234.369C151.045,234.372 151.054,234.906 151.016,235.562C150.979,236.217 150.909,236.747 150.861,236.744Z" style="fill:rgb(158,109,175);fill-rule:nonzero;"/>
            <path d="M148.627,235.454C148.614,235.495 148.029,235.28 147.505,234.741C146.976,234.205 146.774,233.616 146.816,233.604C146.863,233.581 147.127,234.11 147.63,234.619C148.127,235.132 148.651,235.406 148.627,235.454Z" style="fill:rgb(158,109,175);fill-rule:nonzero;"/>
            <path d="M144.724,235.014C144.677,235.005 144.724,234.552 144.83,234.003C144.935,233.453 145.059,233.015 145.107,233.024C145.154,233.033 145.107,233.486 145.001,234.036C144.895,234.585 144.771,235.023 144.724,235.014Z" style="fill:rgb(158,109,175);fill-rule:nonzero;"/>
            <path d="M150.999,239.505C151.025,239.547 150.728,239.776 150.397,240.091C150.064,240.405 149.82,240.689 149.779,240.66C149.74,240.634 149.93,240.292 150.277,239.964C150.623,239.635 150.975,239.465 150.999,239.505Z" style="fill:rgb(158,109,175);fill-rule:nonzero;"/>
            <path d="M146.444,241.109C146.396,241.11 146.349,240.608 146.34,239.988C146.331,239.367 146.363,238.864 146.411,238.863C146.46,238.862 146.506,239.365 146.515,239.985C146.524,240.605 146.492,241.108 146.444,241.109Z" style="fill:rgb(158,109,175);fill-rule:nonzero;"/>
            <path d="M144.32,242.402C144.309,242.447 143.822,242.365 143.262,242.134C142.701,241.904 142.296,241.621 142.32,241.581C142.345,241.538 142.78,241.749 143.328,241.972C143.875,242.198 144.333,242.354 144.32,242.402Z" style="fill:rgb(158,109,175);fill-rule:nonzero;"/>
            <path d="M143.118,239.053C143.07,239.06 142.971,238.62 142.896,238.071C142.821,237.522 142.799,237.072 142.847,237.065C142.895,237.059 142.994,237.499 143.069,238.048C143.143,238.597 143.165,239.047 143.118,239.053Z" style="fill:rgb(158,109,175);fill-rule:nonzero;"/>
            <path d="M146.953,244.564C146.961,244.612 146.566,244.724 146.07,244.814C145.574,244.905 145.165,244.939 145.156,244.892C145.148,244.845 145.543,244.733 146.039,244.643C146.535,244.552 146.944,244.517 146.953,244.564Z" style="fill:rgb(158,109,175);fill-rule:nonzero;"/>
            <path d="M140.992,246.051C140.944,246.056 140.862,245.629 140.808,245.097C140.755,244.565 140.751,244.131 140.799,244.126C140.847,244.121 140.929,244.548 140.982,245.08C141.036,245.612 141.04,246.046 140.992,246.051Z" style="fill:rgb(158,109,175);fill-rule:nonzero;"/>
            <path d="M138.99,249.52C138.943,249.53 138.806,249.093 138.683,248.543C138.561,247.993 138.5,247.539 138.547,247.528C138.594,247.518 138.731,247.955 138.854,248.505C138.976,249.055 139.037,249.509 138.99,249.52Z" style="fill:rgb(158,109,175);fill-rule:nonzero;"/>
            <path d="M140.662,251.248C140.684,251.291 140.343,251.512 139.9,251.743C139.457,251.974 139.08,252.126 139.057,252.084C139.036,252.041 139.376,251.819 139.819,251.588C140.262,251.357 140.64,251.205 140.662,251.248Z" style="fill:rgb(158,109,175);fill-rule:nonzero;"/>
            <path d="M142.762,250.497C142.727,250.527 142.365,250.148 142.066,249.58C141.766,249.013 141.657,248.5 141.702,248.488C141.75,248.473 141.929,248.949 142.221,249.498C142.51,250.049 142.801,250.466 142.762,250.497Z" style="fill:rgb(158,109,175);fill-rule:nonzero;"/>
            <path d="M145.594,249.267C145.55,249.285 145.377,248.973 145.209,248.569C145.041,248.165 144.941,247.822 144.986,247.803C145.03,247.785 145.203,248.098 145.37,248.501C145.538,248.906 145.639,249.249 145.594,249.267Z" style="fill:rgb(158,109,175);fill-rule:nonzero;"/>
            <path d="M144.194,252.279C144.226,252.315 143.864,252.689 143.386,253.114C142.907,253.54 142.493,253.855 142.461,253.819C142.429,253.784 142.791,253.41 143.27,252.984C143.748,252.558 144.162,252.243 144.194,252.279Z" style="fill:rgb(158,109,175);fill-rule:nonzero;"/>
            <path d="M148.26,253.606C148.228,253.639 147.764,253.225 147.322,252.603C146.878,251.983 146.638,251.409 146.68,251.389C146.725,251.367 147.029,251.894 147.465,252.501C147.897,253.111 148.296,253.571 148.26,253.606Z" style="fill:rgb(158,109,175);fill-rule:nonzero;"/>
            <path d="M147.211,255.167C147.215,255.215 146.815,255.283 146.319,255.319C145.823,255.354 145.417,255.344 145.414,255.295C145.411,255.248 145.81,255.18 146.307,255.144C146.803,255.109 147.208,255.12 147.211,255.167Z" style="fill:rgb(158,109,175);fill-rule:nonzero;"/>
            <path d="M149.843,248.748C149.797,248.762 149.569,248.142 149.333,247.364C149.098,246.585 148.945,245.943 148.991,245.929C149.037,245.915 149.266,246.535 149.501,247.313C149.736,248.092 149.889,248.734 149.843,248.748Z" style="fill:rgb(158,109,175);fill-rule:nonzero;"/>
            <path d="M153.891,247.231C153.897,247.279 153.399,247.388 152.779,247.475C152.158,247.561 151.649,247.592 151.643,247.544C151.636,247.497 152.134,247.388 152.755,247.301C153.375,247.215 153.884,247.184 153.891,247.231Z" style="fill:rgb(158,109,175);fill-rule:nonzero;"/>
            <path d="M151.769,251.444C151.778,251.494 151.445,251.589 151.063,251.765C150.679,251.938 150.388,252.126 150.357,252.086C150.327,252.051 150.584,251.79 150.991,251.606C151.396,251.42 151.763,251.399 151.769,251.444Z" style="fill:rgb(158,109,175);fill-rule:nonzero;"/>
            <path d="M153.501,255.167C153.467,255.202 153.063,254.843 152.599,254.368C152.135,253.892 151.787,253.479 151.822,253.446C151.856,253.412 152.26,253.77 152.724,254.246C153.188,254.721 153.536,255.134 153.501,255.167Z" style="fill:rgb(158,109,175);fill-rule:nonzero;"/>
            <path d="M155.492,252.086C155.443,252.075 155.514,251.62 155.565,251.057C155.619,250.495 155.635,250.034 155.684,250.032C155.731,250.029 155.794,250.497 155.739,251.073C155.686,251.65 155.537,252.098 155.492,252.086Z" style="fill:rgb(158,109,175);fill-rule:nonzero;"/>
            <path d="M158.136,254.36C158.155,254.404 157.681,254.654 157.078,254.917C156.474,255.181 155.969,255.359 155.95,255.314C155.93,255.27 156.404,255.021 157.008,254.757C157.611,254.494 158.117,254.316 158.136,254.36Z" style="fill:rgb(158,109,175);fill-rule:nonzero;"/>
            <path d="M159.674,249.706C159.632,249.73 159.31,249.231 158.956,248.593C158.601,247.955 158.349,247.418 158.391,247.395C158.432,247.371 158.754,247.87 159.108,248.508C159.463,249.146 159.716,249.683 159.674,249.706Z" style="fill:rgb(158,109,175);fill-rule:nonzero;"/>
            <path d="M160.755,251.582C160.75,251.631 160.267,251.614 159.681,251.675C159.093,251.733 158.624,251.847 158.609,251.798C158.593,251.755 159.055,251.562 159.663,251.501C160.271,251.439 160.762,251.536 160.755,251.582Z" style="fill:rgb(158,109,175);fill-rule:nonzero;"/>
            <path d="M164.543,250.545C164.497,250.569 164.218,250.092 163.794,249.565C163.373,249.036 162.97,248.659 163.002,248.62C163.03,248.584 163.496,248.911 163.931,249.457C164.367,250 164.584,250.527 164.543,250.545Z" style="fill:rgb(158,109,175);fill-rule:nonzero;"/>
            <path d="M163.655,253.719C163.672,253.764 163.31,253.941 162.848,254.113C162.385,254.286 161.996,254.389 161.979,254.343C161.962,254.298 162.324,254.122 162.786,253.95C163.249,253.777 163.638,253.673 163.655,253.719Z" style="fill:rgb(158,109,175);fill-rule:nonzero;"/>
            <path d="M169.686,255.487C169.639,255.494 169.539,255.069 169.465,254.538C169.39,254.006 169.368,253.57 169.416,253.563C169.463,253.556 169.563,253.982 169.638,254.513C169.712,255.044 169.734,255.48 169.686,255.487Z" style="fill:rgb(158,109,175);fill-rule:nonzero;"/>
            <path d="M170.517,251.702C170.47,251.695 170.503,251.186 170.593,250.566C170.682,249.946 170.792,249.448 170.84,249.455C170.888,249.462 170.854,249.97 170.765,250.591C170.676,251.211 170.565,251.709 170.517,251.702Z" style="fill:rgb(158,109,175);fill-rule:nonzero;"/>
            <path d="M166.472,252.666C166.516,252.684 166.266,253.388 165.911,254.24C165.557,255.09 165.234,255.765 165.189,255.747C165.145,255.728 165.396,255.024 165.75,254.172C166.104,253.322 166.428,252.647 166.472,252.666Z" style="fill:rgb(158,109,175);fill-rule:nonzero;"/>
            <path d="M155.676,241.239C155.628,241.246 155.516,240.734 155.427,240.096C155.337,239.458 155.303,238.936 155.351,238.929C155.398,238.922 155.51,239.434 155.599,240.072C155.689,240.709 155.724,241.232 155.676,241.239Z" style="fill:rgb(158,109,175);fill-rule:nonzero;"/>
            <path d="M156.003,245.154C155.962,245.175 155.793,244.896 155.74,244.504C155.683,244.112 155.769,243.797 155.814,243.806C155.864,243.812 155.86,244.116 155.912,244.48C155.962,244.844 156.05,245.135 156.003,245.154Z" style="fill:rgb(158,109,175);fill-rule:nonzero;"/>
            <path d="M156.776,260.045C156.729,260.057 156.605,259.707 156.498,259.264C156.392,258.821 156.344,258.453 156.391,258.441C156.437,258.43 156.562,258.781 156.668,259.223C156.774,259.667 156.823,260.035 156.776,260.045Z" style="fill:rgb(158,109,175);fill-rule:nonzero;"/>
            <path d="M161.336,259.332C161.322,259.376 160.821,259.255 160.218,259.061C159.616,258.867 159.139,258.67 159.154,258.626C159.169,258.579 159.669,258.7 160.272,258.894C160.874,259.089 161.351,259.285 161.336,259.332Z" style="fill:rgb(158,109,175);fill-rule:nonzero;"/>
            <path d="M165.249,258.57C165.279,258.608 165.002,258.881 164.63,259.183C164.258,259.484 163.932,259.699 163.901,259.661C163.87,259.625 164.148,259.348 164.52,259.048C164.892,258.746 165.219,258.532 165.249,258.57Z" style="fill:rgb(158,109,175);fill-rule:nonzero;"/>
            <path d="M169.102,259.466C169.077,259.509 168.681,259.317 168.171,259.144C167.663,258.968 167.232,258.877 167.239,258.828C167.243,258.782 167.7,258.796 168.228,258.979C168.757,259.16 169.126,259.427 169.102,259.466Z" style="fill:rgb(158,109,175);fill-rule:nonzero;"/>
            <path d="M173.594,257.863C173.629,257.898 173.432,258.152 173.224,258.483C173.014,258.812 172.87,259.1 172.824,259.083C172.779,259.069 172.855,258.738 173.076,258.389C173.296,258.04 173.562,257.83 173.594,257.863Z" style="fill:rgb(158,109,175);fill-rule:nonzero;"/>
            <path d="M173.706,248.815C173.659,248.822 173.548,248.354 173.46,247.769C173.371,247.184 173.339,246.704 173.387,246.696C173.434,246.689 173.544,247.157 173.633,247.743C173.721,248.328 173.754,248.808 173.706,248.815Z" style="fill:rgb(158,109,175);fill-rule:nonzero;"/>
            <path d="M177.445,250.802C177.417,250.841 177.051,250.628 176.626,250.326C176.201,250.023 175.879,249.747 175.908,249.708C175.935,249.668 176.302,249.881 176.727,250.184C177.152,250.486 177.474,250.763 177.445,250.802Z" style="fill:rgb(158,109,175);fill-rule:nonzero;"/>
            <path d="M181.432,244.963C181.387,244.948 181.542,244.363 181.779,243.656C182.016,242.949 182.246,242.389 182.291,242.404C182.337,242.419 182.182,243.004 181.945,243.711C181.708,244.418 181.478,244.979 181.432,244.963Z" style="fill:rgb(158,109,175);fill-rule:nonzero;"/>
            <path d="M179.109,244.583C179.079,244.62 178.718,244.382 178.302,244.05C177.887,243.719 177.575,243.419 177.604,243.382C177.635,243.344 177.995,243.583 178.411,243.914C178.827,244.246 179.139,244.545 179.109,244.583Z" style="fill:rgb(158,109,175);fill-rule:nonzero;"/>
            <path d="M180.279,240.022C180.323,240.042 180.185,240.433 179.973,240.894C179.76,241.354 179.552,241.711 179.508,241.691C179.464,241.671 179.601,241.281 179.814,240.82C180.027,240.359 180.235,240.002 180.279,240.022Z" style="fill:rgb(158,109,175);fill-rule:nonzero;"/>
            <path d="M175.841,244.19C175.801,244.216 175.55,243.883 175.352,243.414C175.153,242.944 175.089,242.532 175.135,242.521C175.182,242.509 175.319,242.89 175.513,243.346C175.705,243.802 175.883,244.165 175.841,244.19Z" style="fill:rgb(158,109,175);fill-rule:nonzero;"/>
            <path d="M179.307,235.653C179.347,235.676 179.161,236.049 178.792,236.397C178.426,236.748 178.044,236.914 178.023,236.873C177.998,236.829 178.324,236.604 178.672,236.271C179.023,235.939 179.265,235.626 179.307,235.653Z" style="fill:rgb(158,109,175);fill-rule:nonzero;"/>
            <path d="M175.584,236.231C175.544,236.258 175.296,235.964 175.03,235.574C174.765,235.184 174.581,234.846 174.621,234.819C174.661,234.792 174.909,235.085 175.175,235.476C175.44,235.866 175.623,236.204 175.584,236.231Z" style="fill:rgb(158,109,175);fill-rule:nonzero;"/>
            <path d="M179.178,232.83C179.153,232.872 178.802,232.704 178.394,232.456C177.986,232.208 177.676,231.973 177.701,231.932C177.726,231.89 178.077,232.058 178.485,232.306C178.892,232.555 179.203,232.789 179.178,232.83Z" style="fill:rgb(158,109,175);fill-rule:nonzero;"/>
            <path d="M181.641,235.976C181.593,235.973 181.589,235.366 181.633,234.622C181.677,233.876 181.752,233.275 181.8,233.277C181.848,233.28 181.851,233.887 181.807,234.632C181.764,235.376 181.689,235.979 181.641,235.976Z" style="fill:rgb(158,109,175);fill-rule:nonzero;"/>
            <path d="M179.729,249.958C179.684,249.94 179.837,249.425 180.07,248.806C180.304,248.186 180.529,247.698 180.574,247.715C180.62,247.732 180.467,248.248 180.233,248.867C180,249.486 179.774,249.975 179.729,249.958Z" style="fill:rgb(158,109,175);fill-rule:nonzero;"/>
            <path d="M183.158,250.353C183.111,250.341 183.191,249.844 183.338,249.243C183.485,248.641 183.641,248.163 183.688,248.174C183.735,248.186 183.654,248.683 183.508,249.284C183.361,249.886 183.204,250.364 183.158,250.353Z" style="fill:rgb(158,109,175);fill-rule:nonzero;"/>
            <path d="M177.961,259.337C177.927,259.368 177.629,259.046 177.458,258.544C177.284,258.042 177.322,257.605 177.367,257.608C177.418,257.606 177.459,258.015 177.623,258.488C177.783,258.959 178.003,259.308 177.961,259.337Z" style="fill:rgb(158,109,175);fill-rule:nonzero;"/>
            <path d="M188.149,232.253C188.104,232.261 187.989,231.741 188.014,231.09C188.036,230.439 188.187,229.93 188.232,229.941C188.281,229.951 188.209,230.463 188.188,231.097C188.163,231.73 188.199,232.247 188.149,232.253Z" style="fill:rgb(158,109,175);fill-rule:nonzero;"/>
            <path d="M186.11,229.945C186.098,229.992 185.714,229.929 185.253,229.806C184.791,229.682 184.428,229.544 184.44,229.497C184.453,229.451 184.837,229.513 185.298,229.637C185.759,229.76 186.122,229.898 186.11,229.945Z" style="fill:rgb(158,109,175);fill-rule:nonzero;"/>
            <path d="M186.485,226.859C186.436,226.858 186.407,226.311 186.418,225.638C186.429,224.964 186.477,224.418 186.525,224.419C186.574,224.42 186.603,224.967 186.592,225.641C186.581,226.314 186.533,226.86 186.485,226.859Z" style="fill:rgb(158,109,175);fill-rule:nonzero;"/>
            <path d="M184.757,225.323C184.753,225.371 184.321,225.374 183.791,225.329C183.262,225.284 182.836,225.209 182.84,225.161C182.844,225.113 183.276,225.11 183.806,225.155C184.335,225.2 184.762,225.275 184.757,225.323Z" style="fill:rgb(158,109,175);fill-rule:nonzero;"/>
            <path d="M183.349,222.045C183.301,222.048 183.233,221.663 183.198,221.185C183.162,220.706 183.172,220.315 183.22,220.312C183.268,220.308 183.336,220.693 183.371,221.172C183.407,221.65 183.397,222.041 183.349,222.045Z" style="fill:rgb(158,109,175);fill-rule:nonzero;"/>
            <path d="M185.93,237.57C185.891,237.6 185.587,237.264 185.251,236.82C184.914,236.377 184.673,235.994 184.711,235.964C184.75,235.936 185.054,236.271 185.39,236.715C185.726,237.158 185.968,237.542 185.93,237.57Z" style="fill:rgb(158,109,175);fill-rule:nonzero;"/>
            <path d="M187.516,239.954C187.468,239.949 187.467,239.5 187.513,238.95C187.559,238.4 187.636,237.957 187.683,237.961C187.732,237.965 187.733,238.415 187.687,238.965C187.641,239.515 187.564,239.958 187.516,239.954Z" style="fill:rgb(158,109,175);fill-rule:nonzero;"/>
            <path d="M190.22,241.501C190.226,241.548 189.871,241.63 189.428,241.684C188.985,241.738 188.621,241.742 188.616,241.694C188.61,241.646 188.964,241.564 189.407,241.511C189.85,241.457 190.214,241.453 190.22,241.501Z" style="fill:rgb(158,109,175);fill-rule:nonzero;"/>
            <path d="M191.495,243.417C191.54,243.433 191.463,243.79 191.322,244.216C191.181,244.641 191.029,244.974 190.983,244.959C190.937,244.943 191.015,244.586 191.156,244.161C191.297,243.735 191.449,243.402 191.495,243.417Z" style="fill:rgb(158,109,175);fill-rule:nonzero;"/>
            <path d="M193.559,246.31C193.599,246.341 193.432,246.605 193.363,246.972C193.288,247.337 193.343,247.646 193.294,247.659C193.252,247.677 193.109,247.352 193.192,246.938C193.271,246.524 193.527,246.277 193.559,246.31Z" style="fill:rgb(158,109,175);fill-rule:nonzero;"/>
            <path d="M194.328,241.559C194.322,241.609 193.847,241.592 193.268,241.646C192.688,241.697 192.224,241.8 192.209,241.751C192.195,241.708 192.652,241.525 193.252,241.472C193.851,241.417 194.334,241.514 194.328,241.559Z" style="fill:rgb(158,109,175);fill-rule:nonzero;"/>
            <path d="M196.581,240.724C196.629,240.739 196.52,241.203 196.462,241.781C196.4,242.36 196.412,242.835 196.361,242.84C196.316,242.846 196.225,242.362 196.288,241.763C196.35,241.164 196.537,240.709 196.581,240.724Z" style="fill:rgb(158,109,175);fill-rule:nonzero;"/>
            <path d="M191.162,236.935C191.114,236.931 191.131,236.337 191.199,235.611C191.268,234.883 191.362,234.298 191.411,234.302C191.458,234.307 191.442,234.9 191.373,235.627C191.305,236.354 191.21,236.939 191.162,236.935Z" style="fill:rgb(158,109,175);fill-rule:nonzero;"/>
            <path d="M189.891,234.535C189.882,234.582 189.487,234.544 189.01,234.451C188.532,234.357 188.152,234.243 188.161,234.196C188.171,234.148 188.565,234.186 189.043,234.279C189.521,234.373 189.9,234.487 189.891,234.535Z" style="fill:rgb(158,109,175);fill-rule:nonzero;"/>
            <path d="M190.994,230.966C190.951,230.981 190.759,230.494 190.72,229.855C190.677,229.217 190.804,228.709 190.849,228.719C190.899,228.727 190.852,229.229 190.894,229.844C190.932,230.459 191.042,230.952 190.994,230.966Z" style="fill:rgb(158,109,175);fill-rule:nonzero;"/>
            <path d="M189.448,227.445C189.442,227.493 189.207,227.502 188.924,227.466C188.64,227.431 188.415,227.362 188.421,227.314C188.427,227.267 188.662,227.257 188.946,227.293C189.229,227.329 189.454,227.397 189.448,227.445Z" style="fill:rgb(158,109,175);fill-rule:nonzero;"/>
            <path d="M194.071,233.92C194.061,233.965 193.696,233.916 193.307,233.692C192.917,233.471 192.689,233.181 192.723,233.15C192.758,233.114 193.027,233.333 193.394,233.541C193.758,233.751 194.084,233.871 194.071,233.92Z" style="fill:rgb(158,109,175);fill-rule:nonzero;"/>
            <path d="M195.751,237.537C195.773,237.58 195.421,237.807 194.963,238.043C194.506,238.281 194.117,238.438 194.095,238.396C194.073,238.353 194.425,238.126 194.883,237.889C195.34,237.651 195.729,237.494 195.751,237.537Z" style="fill:rgb(158,109,175);fill-rule:nonzero;"/>
            <path d="M163.7,213.031L163.954,210.191L169.606,214.605L171.018,216.885L173.546,210.988L174.166,211.808L174.166,215.381L171.433,218.707L166.277,218.257L163.7,213.031Z" style="fill:rgb(246,249,253);fill-rule:nonzero;"/>
            <path d="M169.368,214.955C169.377,214.956 169.375,215.077 169.363,215.301C169.346,215.553 169.324,215.873 169.298,216.259C169.227,217.109 169.131,218.25 169.02,219.566L169.003,219.769L168.874,219.612C168.483,219.138 168.059,218.625 167.619,218.092C166.461,216.685 165.421,215.404 164.675,214.473C164.32,214.023 164.025,213.65 163.799,213.363C163.595,213.099 163.487,212.949 163.496,212.942C163.506,212.934 163.632,213.07 163.852,213.321C164.09,213.599 164.399,213.96 164.771,214.395C165.541,215.307 166.596,216.574 167.752,217.98C168.19,218.514 168.612,219.029 169.001,219.504L168.855,219.551C168.99,218.237 169.107,217.098 169.194,216.249C169.24,215.865 169.278,215.546 169.307,215.295C169.337,215.074 169.358,214.954 169.368,214.955Z" style="fill:rgb(186,198,215);fill-rule:nonzero;"/>
            <path d="M174.094,215.228C174.113,215.23 174.1,215.441 174.064,215.799C174.029,216.156 173.969,216.659 173.892,217.247L173.845,217.613L173.733,217.259C173.635,216.95 173.536,216.609 173.446,216.25C173.236,215.424 173.107,214.662 173.041,214.108C172.973,213.555 172.964,213.209 172.986,213.207C173.012,213.204 173.064,213.544 173.163,214.09C173.26,214.636 173.407,215.388 173.615,216.207C173.705,216.563 173.799,216.902 173.89,217.211L173.73,217.224C173.819,216.638 173.9,216.138 173.964,215.785C174.029,215.432 174.075,215.225 174.094,215.228Z" style="fill:rgb(186,198,215);fill-rule:nonzero;"/>
            <path d="M173.725,234.549C173.719,234.55 173.704,234.489 173.681,234.371C173.657,234.233 173.626,234.063 173.589,233.854C173.514,233.379 173.411,232.734 173.286,231.947C173.043,230.313 172.714,228.097 172.35,225.649C171.986,223.2 171.656,220.985 171.413,219.351C171.293,218.563 171.195,217.918 171.123,217.443C171.093,217.233 171.068,217.062 171.049,216.923C171.034,216.804 171.029,216.741 171.035,216.74C171.04,216.739 171.057,216.8 171.083,216.917C171.112,217.054 171.147,217.224 171.19,217.431C171.278,217.878 171.397,218.527 171.535,219.331C171.813,220.938 172.162,223.162 172.523,225.624C172.884,228.084 173.192,230.314 173.409,231.93C173.511,232.719 173.595,233.367 173.657,233.844C173.681,234.055 173.7,234.227 173.716,234.366C173.727,234.485 173.731,234.549 173.725,234.549Z" style="fill:rgb(186,198,215);fill-rule:nonzero;"/>
            <path d="M168.577,217.625C168.606,217.665 168.543,217.761 168.481,217.877C168.417,217.992 168.37,218.097 168.321,218.093C168.273,218.092 168.245,217.945 168.328,217.793C168.411,217.641 168.55,217.586 168.577,217.625Z" style="fill:rgb(186,198,215);fill-rule:nonzero;"/>
            <path d="M173.773,215.735C173.725,215.733 173.69,215.603 173.695,215.442C173.7,215.282 173.743,215.154 173.791,215.155C173.84,215.157 173.875,215.288 173.87,215.448C173.865,215.608 173.822,215.736 173.773,215.735Z" style="fill:rgb(186,198,215);fill-rule:nonzero;"/>
            <path d="M173.004,213.4C173.046,213.415 172.775,214.262 172.221,215.203C171.67,216.146 171.063,216.797 171.031,216.767C170.99,216.734 171.529,216.043 172.07,215.114C172.616,214.188 172.955,213.381 173.004,213.4Z" style="fill:rgb(186,198,215);fill-rule:nonzero;"/>
            <path d="M171.14,216.984C171.107,217.019 170.654,216.645 170.156,216.122C169.657,215.6 169.305,215.13 169.341,215.1C169.378,215.067 169.786,215.483 170.282,216.001C170.777,216.521 171.173,216.948 171.14,216.984Z" style="fill:rgb(186,198,215);fill-rule:nonzero;"/>
            <path d="M172.618,222.153C172.578,222.186 172.478,222.078 172.459,221.939C172.439,221.804 172.443,221.717 172.481,221.689C172.525,221.659 172.614,221.774 172.631,221.907C172.65,222.036 172.656,222.124 172.618,222.153Z" style="fill:rgb(186,198,215);fill-rule:nonzero;"/>
            <path d="M173.132,225.531C173.083,225.529 173.047,225.429 173.032,225.307C173.016,225.179 173.046,225.067 173.094,225.064C173.142,225.062 173.189,225.159 173.205,225.287C173.223,225.422 173.179,225.532 173.132,225.531Z" style="fill:rgb(186,198,215);fill-rule:nonzero;"/>
            <path d="M171.557,200.55C171.573,200.539 171.613,200.677 171.809,200.784C171.995,200.89 172.37,200.93 172.652,200.643C172.79,200.507 172.901,200.315 172.958,200.09C173.017,199.866 173.025,199.611 173.011,199.342C172.974,198.793 172.934,198.196 172.893,197.569C172.812,196.31 172.749,195.168 172.713,194.342C172.694,193.929 172.682,193.594 172.678,193.363C172.674,193.131 172.677,193.003 172.689,193.002C172.701,193.001 172.721,193.129 172.746,193.359C172.771,193.589 172.802,193.922 172.836,194.334C172.904,195.159 172.987,196.298 173.067,197.558C173.104,198.186 173.14,198.784 173.172,199.336C173.182,199.612 173.169,199.883 173.098,200.128C173.028,200.374 172.9,200.585 172.737,200.733C172.575,200.881 172.374,200.96 172.198,200.96C172.023,200.962 171.876,200.909 171.775,200.842C171.568,200.702 171.551,200.546 171.557,200.55Z" style="fill:rgb(245,142,140);fill-rule:nonzero;"/>
            <path d="M172.495,202.784C172.505,202.799 172.291,202.947 171.886,203.023C171.489,203.101 170.884,203.073 170.331,202.751C169.78,202.427 169.458,201.915 169.331,201.53C169.198,201.14 169.223,200.881 169.24,200.882C169.27,200.878 169.291,201.128 169.446,201.485C169.596,201.839 169.911,202.302 170.419,202.6C170.929,202.896 171.487,202.944 171.869,202.9C172.256,202.86 172.484,202.756 172.495,202.784Z" style="fill:rgb(245,142,140);fill-rule:nonzero;"/>
            <path d="M169.632,200.742C169.618,200.789 169.334,200.729 169.047,200.898C168.753,201.057 168.657,201.331 168.61,201.318C168.589,201.314 168.579,201.232 168.627,201.112C168.673,200.993 168.788,200.844 168.961,200.746C169.134,200.649 169.32,200.627 169.446,200.65C169.574,200.671 169.639,200.721 169.632,200.742Z" style="fill:rgb(245,142,140);fill-rule:nonzero;"/>
            <path d="M173.896,208.319C173.901,208.328 173.78,208.409 173.549,208.533C173.317,208.657 172.97,208.816 172.524,208.968C171.639,209.275 170.319,209.51 168.884,209.308C167.449,209.106 166.246,208.515 165.479,207.976C165.093,207.706 164.803,207.458 164.615,207.274C164.427,207.091 164.333,206.98 164.34,206.973C164.363,206.948 164.768,207.367 165.548,207.873C166.321,208.378 167.506,208.938 168.909,209.135C170.311,209.333 171.604,209.123 172.487,208.85C173.376,208.58 173.881,208.288 173.896,208.319Z" style="fill:rgb(245,142,140);fill-rule:nonzero;"/>
            <path d="M160.742,200.648C160.723,200.625 160.978,200.523 161.099,200.161C161.158,199.987 161.172,199.755 161.083,199.532C161.004,199.31 160.775,199.119 160.515,199.156C160.277,199.176 160.147,199.468 160.245,199.631L160.095,199.687C159.96,198.887 159.887,198.318 159.923,198.311C159.96,198.305 160.095,198.862 160.254,199.657L160.344,200.104L160.104,199.713C159.937,199.44 160.137,199.023 160.49,198.983C160.666,198.959 160.837,199.012 160.969,199.107C161.1,199.206 161.185,199.34 161.233,199.474C161.331,199.744 161.296,200.013 161.214,200.205C161.132,200.399 161.007,200.525 160.909,200.586C160.81,200.648 160.745,200.658 160.742,200.648Z" style="fill:rgb(245,142,140);fill-rule:nonzero;"/>
            <path d="M168.704,195.795C168.607,195.796 168.526,195.414 168.522,194.943C168.519,194.471 168.594,194.088 168.69,194.088C168.787,194.087 168.868,194.469 168.872,194.94C168.875,195.411 168.8,195.794 168.704,195.795Z" style="fill:rgb(75,45,129);fill-rule:nonzero;"/>
            <path d="M175.978,195.438C175.882,195.44 175.796,195.122 175.787,194.727C175.778,194.333 175.849,194.011 175.945,194.009C176.041,194.006 176.127,194.325 176.136,194.719C176.145,195.114 176.074,195.436 175.978,195.438Z" style="fill:rgb(75,45,129);fill-rule:nonzero;"/>
            <path d="M161.98,196.718C161.788,197.296 161.597,197.937 161.835,198.499C162.073,199.06 162.959,199.332 163.289,198.82C163.419,198.62 163.425,198.366 163.427,198.128C163.441,196.49 163.455,194.851 163.468,193.213C165.828,192.793 167.864,190.912 168.468,188.592C169.717,189.355 171.368,189.41 172.664,188.732C173.199,188.453 173.736,188.045 174.334,188.125C175.053,188.223 175.475,188.963 176.065,189.384C177.091,190.114 178.741,189.662 179.25,188.51C179.777,187.319 179.063,185.855 177.95,185.18C176.547,184.329 174.778,184.495 173.149,184.687C170.14,185.042 167.131,185.398 164.122,185.754C163.546,185.822 162.936,185.903 162.482,186.264C162.014,186.636 161.799,187.234 161.628,187.806C160.955,190.066 160.644,192.432 160.711,194.789C160.731,195.512 160.858,196.353 161.488,196.709L161.98,196.718Z" style="fill:rgb(87,37,56);fill-rule:nonzero;"/>
            <path d="M169.697,192.396C169.743,192.632 169.229,192.93 168.55,193.061C167.871,193.192 167.284,193.106 167.238,192.869C167.192,192.633 167.706,192.335 168.385,192.204C169.064,192.073 169.652,192.159 169.697,192.396Z" style="fill:rgb(87,37,56);fill-rule:nonzero;"/>
            <path d="M176.854,192.292C176.837,192.532 176.388,192.696 175.852,192.657C175.317,192.618 174.896,192.391 174.914,192.15C174.932,191.91 175.38,191.747 175.916,191.786C176.452,191.825 176.872,192.051 176.854,192.292Z" style="fill:rgb(87,37,56);fill-rule:nonzero;"/>
            <path d="M168.901,197.97C168.802,197.97 168.703,197.965 168.603,197.956C166.818,197.793 165.502,196.214 165.665,194.428C165.819,192.743 167.235,191.477 168.894,191.477C168.993,191.477 169.092,191.482 169.193,191.491C170.978,191.654 172.293,193.233 172.131,195.018C171.977,196.704 170.561,197.97 168.901,197.97ZM168.691,194.088L168.69,194.088C168.594,194.088 168.519,194.471 168.522,194.943C168.526,195.414 168.607,195.796 168.704,195.795C168.8,195.794 168.875,195.411 168.872,194.94C168.868,194.469 168.787,194.088 168.691,194.088ZM168.989,192.142C168.807,192.142 168.6,192.162 168.385,192.204C167.706,192.335 167.192,192.633 167.238,192.869C167.269,193.031 167.553,193.122 167.946,193.122C168.129,193.122 168.335,193.103 168.55,193.061C169.229,192.93 169.743,192.632 169.697,192.396C169.666,192.234 169.382,192.142 168.989,192.142Z" style="fill:rgb(250,202,205);fill-rule:nonzero;"/>
            <path d="M168.704,195.795C168.607,195.796 168.526,195.414 168.522,194.943C168.519,194.471 168.594,194.088 168.69,194.088L168.691,194.088C168.787,194.088 168.868,194.469 168.872,194.94C168.875,195.411 168.8,195.794 168.704,195.795Z" style="fill:rgb(113,95,162);fill-rule:nonzero;"/>
            <path d="M167.946,193.122C167.553,193.122 167.269,193.031 167.238,192.869C167.192,192.633 167.706,192.335 168.385,192.204C168.6,192.162 168.807,192.142 168.989,192.142C169.382,192.142 169.666,192.234 169.697,192.396C169.743,192.632 169.229,192.93 168.55,193.061C168.335,193.103 168.129,193.122 167.946,193.122Z" style="fill:rgb(121,92,108);fill-rule:nonzero;"/>
            <path d="M178.36,196.712C178.401,194.955 178.341,193.175 178.25,191.492C179.443,192.059 180.215,193.327 180.088,194.719C180.038,195.264 179.856,195.765 179.577,196.194C179.169,196.362 178.764,196.535 178.36,196.712Z" style="fill:rgb(240,249,254);fill-rule:nonzero;"/>
            <path d="M178.342,197.309C178.35,197.111 178.356,196.911 178.36,196.712C178.764,196.535 179.169,196.362 179.577,196.194C179.269,196.667 178.842,197.051 178.342,197.309Z" style="fill:rgb(234,237,247);fill-rule:nonzero;"/>
            <path d="M176.859,197.67C176.76,197.67 176.66,197.665 176.56,197.656C174.775,197.494 173.459,195.914 173.622,194.129C173.776,192.444 175.191,191.178 176.851,191.178C176.95,191.178 177.049,191.182 177.15,191.191C177.543,191.227 177.913,191.332 178.25,191.492C178.341,193.175 178.401,194.955 178.36,196.712C178.356,196.911 178.35,197.111 178.342,197.309C177.895,197.54 177.39,197.67 176.859,197.67ZM175.946,194.009L175.945,194.009C175.849,194.011 175.778,194.333 175.787,194.727C175.796,195.121 175.881,195.438 175.977,195.438L175.978,195.438C176.074,195.436 176.145,195.114 176.136,194.719C176.127,194.326 176.042,194.009 175.946,194.009ZM175.759,191.78C175.295,191.78 174.93,191.934 174.914,192.15C174.896,192.391 175.317,192.618 175.852,192.657C175.906,192.661 175.958,192.662 176.01,192.662C176.473,192.662 176.839,192.508 176.854,192.292C176.872,192.051 176.452,191.825 175.916,191.786C175.863,191.782 175.81,191.78 175.759,191.78Z" style="fill:rgb(250,202,205);fill-rule:nonzero;"/>
            <path d="M175.977,195.438C175.881,195.438 175.796,195.121 175.787,194.727C175.778,194.333 175.849,194.011 175.945,194.009L175.946,194.009C176.042,194.009 176.127,194.326 176.136,194.719C176.145,195.114 176.074,195.436 175.978,195.438L175.977,195.438Z" style="fill:rgb(113,95,162);fill-rule:nonzero;"/>
            <path d="M176.01,192.662C175.958,192.662 175.906,192.661 175.852,192.657C175.317,192.618 174.896,192.391 174.914,192.15C174.93,191.934 175.295,191.78 175.759,191.78C175.81,191.78 175.863,191.782 175.916,191.786C176.452,191.825 176.872,192.051 176.854,192.292C176.839,192.508 176.473,192.662 176.01,192.662Z" style="fill:rgb(121,92,108);fill-rule:nonzero;"/>
            <path d="M173.533,195.037C173.533,195.085 173.19,195.124 172.767,195.124C172.345,195.124 172.002,195.085 172.002,195.037C172.002,194.988 172.345,194.949 172.767,194.949C173.19,194.949 173.533,194.988 173.533,195.037Z" style="fill:rgb(95,76,78);fill-rule:nonzero;"/>
            <path d="M184.84,260.384C184.822,260.397 184.553,260.083 184.148,259.549C183.743,259.016 183.206,258.261 182.653,257.403C182.099,256.544 181.635,255.743 181.317,255.154C180.999,254.564 180.824,254.189 180.844,254.178C180.866,254.167 181.079,254.52 181.424,255.092C181.769,255.665 182.248,256.453 182.8,257.308C183.351,258.164 183.87,258.927 184.248,259.476C184.626,260.027 184.86,260.369 184.84,260.384Z" style="fill:rgb(245,142,140);fill-rule:nonzero;"/>
            <path d="M184.295,260.342C184.293,260.354 184.203,260.35 184.041,260.317C183.881,260.282 183.652,260.207 183.392,260.069C182.863,259.796 182.262,259.229 181.704,258.542C181.141,257.86 180.642,257.236 180.287,256.778C179.932,256.321 179.722,256.03 179.74,256.014C179.759,256 180.003,256.263 180.382,256.7C180.762,257.136 181.277,257.751 181.838,258.432C182.393,259.113 182.96,259.673 183.453,259.96C183.941,260.257 184.303,260.311 184.295,260.342Z" style="fill:rgb(245,142,140);fill-rule:nonzero;"/>
            <path d="M190.285,262.397L199.042,240.382L228.395,240.919L220.14,261.786L190.285,262.397Z" style="fill:rgb(178,163,207);fill-rule:nonzero;"/>
            <path d="M200.396,240.407L191.426,262.397L220.14,261.786L228.395,240.919L200.396,240.407Z" style="fill:rgb(145,134,188);fill-rule:nonzero;"/>
            <path d="M209.815,250.17C210.596,249.39 211.743,249.271 212.376,249.904C213.009,250.537 212.89,251.684 212.109,252.464C211.328,253.246 210.182,253.365 209.549,252.731C208.915,252.098 209.035,250.952 209.815,250.17Z" style="fill:rgb(209,201,228);fill-rule:nonzero;"/>
            <path d="M210.443,254.247C209.824,254.247 209.244,254.038 208.815,253.609C207.821,252.615 208.008,250.815 209.234,249.589C209.93,248.893 210.811,248.532 211.625,248.532C212.244,248.532 212.824,248.74 213.253,249.17C214.248,250.165 214.06,251.964 212.834,253.19C212.138,253.886 211.257,254.247 210.443,254.247ZM211.338,249.497C210.82,249.497 210.259,249.727 209.815,250.17C209.035,250.952 208.915,252.098 209.549,252.731C209.822,253.005 210.192,253.138 210.586,253.138C211.105,253.138 211.666,252.908 212.109,252.464C212.89,251.684 213.009,250.537 212.376,249.904C212.102,249.63 211.733,249.497 211.338,249.497Z" style="fill:rgb(157,146,195);fill-rule:nonzero;"/>
            <path d="M210.586,253.138C210.192,253.138 209.822,253.005 209.549,252.731C208.915,252.098 209.035,250.952 209.815,250.17C210.259,249.727 210.82,249.497 211.338,249.497C211.733,249.497 212.102,249.63 212.376,249.904C213.009,250.537 212.89,251.684 212.109,252.464C211.666,252.908 211.105,253.138 210.586,253.138Z" style="fill:rgb(209,201,228);fill-rule:nonzero;"/>
            <path d="M140.868,203.797C137.19,203.797 133.464,201.814 131.742,198.529C129.366,193.997 131.196,187.737 135.64,185.2L136.932,184.581C138.015,184.154 139.165,183.953 140.317,183.953C144.23,183.953 148.185,186.265 149.765,189.888C151.81,194.578 149.536,200.69 144.922,202.902C143.653,203.511 142.263,203.797 140.868,203.797Z" style="fill:rgb(244,239,247);fill-rule:nonzero;"/>
            <path d="M208.173,228.356C208.302,227.498 208.277,226.683 208.758,225.927C209.716,224.424 211.07,224.806 212.384,225.468C213.725,226.144 214.99,226.548 216.448,225.917C218.705,224.94 219.825,221.469 217.617,219.881C217.106,219.513 216.202,219.999 216.284,220.646C216.395,221.521 216.796,222.373 216.338,223.193C215.583,224.544 214.279,224.035 213.167,223.503C211.912,222.904 210.704,222.607 209.35,223.104C207.261,223.87 205.715,226.687 207.35,228.573C207.577,228.834 208.119,228.717 208.173,228.356Z" style="fill:rgb(124,55,144);fill-rule:nonzero;"/>
            <path d="M212.945,193.999C213,194.959 213.529,195.824 214.051,196.614C214.411,197.159 214.83,197.898 215.48,198.125C216.176,198.367 216.673,198.025 217.228,197.653C218.244,196.973 219.233,196.255 220.228,195.547C220.642,195.252 220.887,194.685 220.579,194.21C219.753,192.939 218.927,191.668 218.101,190.397C217.833,189.984 217.212,189.73 216.765,190.047C215.73,190.778 214.563,191.444 213.668,192.344C212.915,193.1 213.864,194.184 214.759,193.757C215.827,193.249 216.786,192.418 217.751,191.735C217.305,191.618 216.859,191.501 216.414,191.384C217.24,192.655 218.065,193.926 218.891,195.196C219.008,194.751 219.124,194.305 219.242,193.859C218.682,194.258 218.119,194.654 217.561,195.056C217.313,195.234 216.087,196.287 215.936,196.256C215.762,196.222 215.041,195.119 214.85,194.9C214.439,194.428 214.058,193.981 213.505,193.677C213.271,193.548 212.928,193.707 212.945,193.999Z" style="fill:rgb(252,192,126);fill-rule:nonzero;"/>
            <path d="M201.279,205.885C199.932,207.167 199.388,209.131 200.671,210.693C201.877,212.162 204.197,212.46 205.715,211.314C209.33,208.584 205.609,203.168 201.672,204.391C200.823,204.655 201.036,205.806 201.873,205.883C202.943,205.98 204.091,205.987 204.96,206.728C205.874,207.508 205.879,208.854 205.143,209.759C203.175,212.18 199.779,208.554 201.807,206.412C202.137,206.063 201.627,205.554 201.279,205.885Z" style="fill:rgb(118,159,212);fill-rule:nonzero;"/>
            <path d="M231.104,217.436C230.628,219.755 230.235,222.078 229.867,224.416C229.759,225.101 230.235,225.553 230.91,225.459C233.113,225.152 235.298,224.862 237.465,224.354C237.968,224.236 238.178,223.625 237.935,223.198C236.672,220.976 235.081,217.715 232.579,216.691C231.847,216.392 231.258,217.363 231.602,217.962C232.203,219.007 233.313,219.751 234.115,220.651C235.032,221.679 235.918,222.777 236.576,223.992C236.803,223.597 237.029,223.203 237.256,222.808C234.963,223.005 232.722,223.417 230.459,223.824C230.817,224.097 231.175,224.369 231.532,224.642C231.79,222.288 232.019,219.943 232.167,217.58C232.205,216.976 231.227,216.836 231.104,217.436Z" style="fill:rgb(242,116,131);fill-rule:nonzero;"/>
            <path d="M225.648,212.424C226.206,210.168 226.653,207.665 226.72,205.34C226.745,204.46 225.338,204.239 225.159,205.129C224.697,207.427 224.563,209.944 224.599,212.282C224.608,212.874 225.5,213.022 225.648,212.424Z" style="fill:rgb(246,145,125);fill-rule:nonzero;"/>
            <path d="M233.598,202.419L233.481,202.312C232.552,201.461 231.248,202.764 232.099,203.694L232.206,203.811C233.063,204.748 234.536,203.277 233.598,202.419Z" style="fill:rgb(246,145,125);fill-rule:nonzero;"/>
        </g>
    </g>
    <defs>
        <linearGradient id="_Linear2" x1="0" y1="0" x2="1" y2="0" gradientUnits="userSpaceOnUse" gradientTransform="matrix(-543.058,-465.803,465.803,-543.058,753.275,571.993)"><stop offset="0" style="stop-color:rgb(228,138,186);stop-opacity:1"/><stop offset="0.5" style="stop-color:rgb(245,162,196);stop-opacity:1"/><stop offset="1" style="stop-color:rgb(250,195,185);stop-opacity:1"/></linearGradient>
    </defs>
</svg>
