<?xml version="1.0" encoding="UTF-8" standalone="no"?>
<!DOCTYPE svg PUBLIC "-//W3C//DTD SVG 1.1//EN" "http://www.w3.org/Graphics/SVG/1.1/DTD/svg11.dtd">
<svg width="100%" height="100%" viewBox="0 0 675 850" version="1.1" xmlns="http://www.w3.org/2000/svg" xmlns:xlink="http://www.w3.org/1999/xlink" xml:space="preserve" xmlns:serif="http://www.serif.com/" style="fill-rule:evenodd;clip-rule:evenodd;stroke-linejoin:round;stroke-miterlimit:2;">
    <g transform="matrix(1,0,0,1,-1230,-543)">
        <g id="Background">
        </g>
        <g id="Objects" transform="matrix(4.16667,0,0,4.16667,0,0)">
            <g>
                <clipPath id="_clip1">
                    <path d="M77.563,95.633C67.064,95.633 58.553,104.144 58.553,114.643L58.553,421.357C58.553,431.856 67.064,440.367 77.563,440.367L216.822,440.367C227.32,440.367 235.831,431.856 235.831,421.357L235.831,114.643C235.831,104.144 227.32,95.633 216.822,95.633L77.563,95.633Z" clip-rule="nonzero"/>
                </clipPath>
                <g clip-path="url(#_clip1)">
                    <g transform="matrix(1,0,0,1,216.695,328.388)">
                        <path d="M0,130.185C-18.607,123.912 -34.746,108.322 -38.05,88.965C-41.355,69.61 -29.147,47.791 -9.965,43.595C-0.896,41.611 8.894,43.383 17.56,40.051C33.902,33.767 39.457,12.507 54.555,3.641C69.103,-4.902 89.047,1.259 99.884,14.189C110.722,27.118 113.883,44.957 113.219,61.815C112.243,86.581 101.72,113.289 79.256,123.762C60.326,132.586 20.302,135.087 0,130.185" style="fill:rgb(226,211,245);fill-rule:nonzero;"/>
                    </g>
                    <g transform="matrix(0.24,-0,-0,0.24,295.2,130.32)">
                    </g>
                </g>
            </g>
            <g transform="matrix(0,1,1,0,406.394,159.924)">
                <path d="M42.596,-42.596C66.121,-42.596 85.192,-23.525 85.192,0C85.192,23.526 66.121,42.596 42.596,42.596C19.071,42.596 0,23.526 0,0C0,-23.525 19.071,-42.596 42.596,-42.596" style="fill:rgb(226,211,245);fill-rule:nonzero;"/>
            </g>
            <g transform="matrix(1,0,0,1,410.48,194.29)">
                <path d="M0,-32.858C1.3,-33.245 2.691,-33.414 4.018,-33.129C5.345,-32.845 6.6,-32.066 7.271,-30.887C8.037,-29.54 7.965,-27.892 7.87,-26.344C7.634,-22.469 7.397,-18.593 7.16,-14.717C7.095,-13.642 7.036,-12.522 7.454,-11.529C7.871,-10.536 8.919,-9.718 9.975,-9.937C10.512,-10.048 10.965,-10.401 11.474,-10.607C11.983,-10.812 12.662,-10.82 12.981,-10.374C13.172,-10.108 13.179,-9.754 13.144,-9.43C12.987,-7.997 12.101,-6.663 10.84,-5.963C11.581,-6.322 12.511,-5.574 12.523,-4.751C12.536,-3.928 11.872,-3.216 11.107,-2.91C10.344,-2.603 9.494,-2.615 8.672,-2.631C9.35,-2.619 9.872,-1.895 9.806,-1.22C9.739,-0.545 9.206,0.018 8.582,0.282C7.957,0.546 7.255,0.556 6.58,0.494C5.144,0.36 3.713,-0.101 2.582,-0.995C0.606,-2.557 -0.193,-5.223 -0.221,-7.741C-0.248,-10.259 0.378,-12.732 0.729,-15.226C1.544,-21.01 0.878,-26.889 0.211,-32.693L0.697,-32.839" style="fill:rgb(255,112,129);fill-rule:nonzero;"/>
            </g>
            <g transform="matrix(1,0,0,1,418.204,252.758)">
                <path d="M0,-4.845C-1.571,-3.336 -2.169,-0.987 -0.67,0.825C0.741,2.531 3.471,2.894 5.233,1.533C9.488,-1.75 5.053,-7.809 0.462,-6.555C-0.388,-6.323 -0.176,-5.111 0.664,-5.063C2.007,-4.987 3.443,-4.936 4.516,-3.995C5.668,-2.984 5.692,-1.275 4.748,-0.113C2.245,2.964 -2.102,-1.567 0.527,-4.318C0.859,-4.665 0.347,-5.178 0,-4.845" style="fill:rgb(124,171,255);fill-rule:nonzero;"/>
            </g>
            <g transform="matrix(1,0,0,1,369.591,218.705)">
                <path d="M0,12.472C-0.595,11.841 -1.252,11.357 -1.55,10.513C-2.145,8.831 -1.009,7.996 0.325,7.37C1.683,6.732 2.779,5.989 3.182,4.454C3.812,2.056 1.771,-0.901 -0.838,-0.19C-1.684,0.041 -1.432,1.118 -0.854,1.452C-0.047,1.918 1.035,2.185 1.171,3.297C1.353,4.784 -0.114,5.209 -1.139,5.745C-2.247,6.325 -3.083,7.208 -3.436,8.426C-4.041,10.524 -2.788,13.373 -0.337,13.253C0.009,13.236 0.25,12.737 0,12.472" style="fill:rgb(126,46,132);fill-rule:nonzero;"/>
            </g>
            <g transform="matrix(1,0,0,1,361.546,256.811)">
                <path d="M0,0.061C0.214,1.451 1.658,4.392 3.178,4.798C3.987,5.015 4.588,4.482 5.217,4.049C6.36,3.262 7.488,2.457 8.618,1.653C9.029,1.36 9.272,0.796 8.966,0.325C7.966,-1.213 6.967,-2.752 5.967,-4.291C5.7,-4.701 5.084,-4.954 4.64,-4.638C3.393,-3.756 2.042,-2.944 0.918,-1.908C0.144,-1.195 1.13,-0.029 2.009,-0.494C3.284,-1.169 4.441,-2.129 5.619,-2.962C5.176,-3.079 4.734,-3.195 4.292,-3.311C5.291,-1.772 6.291,-0.234 7.29,1.304C7.406,0.862 7.522,0.419 7.638,-0.023C6.96,0.459 6.28,0.94 5.604,1.425C5.221,1.7 3.939,2.901 3.513,2.853C3.131,2.81 2.331,1.451 2.096,1.171C1.616,0.601 1.167,0.062 0.547,-0.36C0.249,-0.564 -0.044,-0.228 0,0.061" style="fill:rgb(251,197,128);fill-rule:nonzero;"/>
            </g>
            <g transform="matrix(1,0,0,1,430.551,193.633)">
                <path d="M0,0.06C0.214,1.45 1.658,4.392 3.178,4.798C3.987,5.014 4.588,4.481 5.217,4.048C6.359,3.262 7.488,2.456 8.618,1.652C9.029,1.359 9.272,0.796 8.966,0.324C7.966,-1.214 6.967,-2.753 5.967,-4.291C5.7,-4.702 5.084,-4.954 4.64,-4.639C3.394,-3.757 2.042,-2.944 0.918,-1.908C0.145,-1.195 1.13,-0.029 2.009,-0.495C3.284,-1.17 4.441,-2.13 5.619,-2.963C5.177,-3.08 4.734,-3.195 4.291,-3.312C5.291,-1.773 6.291,-0.235 7.29,1.304C7.406,0.861 7.522,0.418 7.639,-0.024C6.96,0.459 6.28,0.939 5.604,1.424C5.222,1.699 3.939,2.9 3.513,2.852C3.131,2.809 2.33,1.45 2.096,1.171C1.616,0.6 1.166,0.061 0.547,-0.36C0.248,-0.565 -0.045,-0.229 0,0.06" style="fill:rgb(251,197,128);fill-rule:nonzero;"/>
            </g>
            <g transform="matrix(1,0,0,1,436.486,229.753)">
                <path d="M0,-10.996C-2.599,-9.788 -5.155,-8.512 -7.705,-7.204C-8.318,-6.889 -8.416,-6.24 -7.94,-5.748C-6.071,-3.815 -4.228,-1.876 -2.219,-0.087C-1.832,0.258 -1.208,0.059 -1.006,-0.382C0.24,-3.103 2.134,-6.813 1.616,-9.901C1.484,-10.686 0.284,-11.043 -0.036,-10.168C-0.538,-8.798 -0.535,-7.262 -0.857,-5.836C-1.229,-4.191 -1.714,-2.542 -2.445,-1.019C-1.993,-1.066 -1.54,-1.114 -1.088,-1.161C-2.919,-3.233 -4.899,-5.141 -6.879,-7.07C-6.891,-6.621 -6.902,-6.171 -6.913,-5.722C-4.414,-7.125 -1.937,-8.55 0.506,-10.05C1.021,-10.366 0.555,-11.254 0,-10.996" style="fill:rgb(255,112,129);fill-rule:nonzero;"/>
            </g>
            <g transform="matrix(0.889362,0.457203,0.457203,-0.889362,386.764,253.103)">
                <path d="M2.085,-0.604C2.804,2.122 3.431,5.07 3.641,7.887C3.706,8.775 2.29,9.024 2.085,8.141C1.447,5.386 1.165,2.387 1.039,-0.433C1.013,-1.031 1.93,-1.195 2.085,-0.604" style="fill:rgb(255,112,129);fill-rule:nonzero;"/>
            </g>
            <g transform="matrix(1,0,0,1,451.468,182.131)">
                <path d="M0,-2.146L-0.144,-2.273C-0.777,-2.833 -1.815,-2.944 -2.431,-2.273C-3.053,-1.595 -3.03,-0.664 -2.431,0.014C-2.389,0.062 -2.346,0.11 -2.304,0.158C-1.737,0.798 -0.57,0.779 0,0.158C0.567,-0.46 0.682,-1.543 0,-2.146" style="fill:rgb(36,19,82);fill-rule:nonzero;"/>
            </g>
            <g transform="matrix(1,0,0,1,377.431,242.886)">
                <path d="M0,-2.145C-0.048,-2.187 -0.097,-2.23 -0.145,-2.272C-0.777,-2.833 -1.816,-2.943 -2.431,-2.272C-3.054,-1.594 -3.031,-0.664 -2.431,0.015C-2.389,0.063 -2.346,0.11 -2.304,0.158C-1.738,0.798 -0.57,0.78 0,0.158C0.566,-0.459 0.681,-1.542 0,-2.145" style="fill:rgb(36,19,82);fill-rule:nonzero;"/>
            </g>
            <g transform="matrix(1,0,0,1,399.006,207.828)">
                <path d="M0,-18.581L-28.259,-7.987L-25.561,-19.399L-32.91,-21.266C-32.91,-21.266 -40.815,1.043 -35.326,1.639C-25.714,2.685 -11.172,-1.121 -11.172,-1.121L0,-18.581Z" style="fill:rgb(255,175,167);fill-rule:nonzero;"/>
            </g>
            <g transform="matrix(1,0,0,1,389.194,219.486)">
                <path d="M0,-4.654L0.064,17.695C7.424,26.742 33.043,15.043 33.043,15.043L33.342,5.903L33.937,-15.869C33.347,-24.539 25.294,-28.795 25.294,-28.795C21.965,-30.453 16.888,-31.396 12.313,-31.17C7.539,-30.934 6.359,-28.647 4.392,-24.29C2.803,-20.77 0,-17.467 0,-4.654" style="fill:rgb(36,19,82);fill-rule:nonzero;"/>
            </g>
            <g transform="matrix(1,0,0,1,413.349,178.167)">
                <path d="M0,-10.905L-0.34,-6.435C-0.34,-6.435 3.461,-5.923 2.378,-2.457C1.295,1.009 -1.305,-0.508 -1.305,-0.508C-1.305,-0.508 -1.955,8.375 -11.054,5.558C-18.295,3.317 -17.852,-6.06 -16.933,-14.054C-16.576,-17.151 -13.646,-19.28 -10.587,-18.684L-5.117,-17.618C-1.955,-17.003 0.244,-14.117 0,-10.905" style="fill:rgb(255,175,167);fill-rule:nonzero;"/>
            </g>
            <g transform="matrix(1,0,0,1,413.009,193.344)">
                <path d="M0,-17.903L-2.451,-4.83C-3.003,-1.884 -5.907,0 -8.822,-0.695C-11.523,-1.34 -13.254,-3.979 -12.768,-6.713L-11.438,-14.206L0,-17.903Z" style="fill:rgb(255,175,167);fill-rule:nonzero;"/>
            </g>
            <g transform="matrix(1,0,0,1,402.946,168.084)">
                <path d="M0,7.504C0.02,7.501 0.056,7.694 -0.222,7.835C-0.512,7.969 -0.977,7.689 -1.097,7.237C-1.251,6.804 -1.231,6.282 -1.21,5.752C-1.181,5.175 -1.151,4.605 -1.121,4.007C-0.967,1.533 -0.725,-0.465 -0.581,-0.455C-0.437,-0.447 -0.446,1.566 -0.602,4.04C-0.646,4.636 -0.688,5.206 -0.731,5.782C-0.781,6.318 -0.827,6.781 -0.744,7.133C-0.684,7.488 -0.437,7.656 -0.275,7.639C-0.108,7.62 -0.035,7.479 0,7.504" style="fill:rgb(36,19,82);fill-rule:nonzero;"/>
            </g>
            <g transform="matrix(1,0,0,1,399.995,184.456)">
                <path d="M0,-1.643C0.072,-1.785 1.792,-0.452 4.307,-0.407C6.821,-0.345 8.596,-1.605 8.662,-1.46C8.7,-1.41 8.322,-1.027 7.558,-0.629C6.801,-0.231 5.627,0.142 4.296,0.113C2.965,0.086 1.809,-0.336 1.068,-0.766C0.32,-1.196 -0.041,-1.594 0,-1.643" style="fill:rgb(36,19,82);fill-rule:nonzero;"/>
            </g>
            <g transform="matrix(1,0,0,1,401.772,177.347)">
                <path d="M0,0.075C0.06,0.024 0.269,0.208 0.648,0.367C1.021,0.528 1.599,0.644 2.166,0.464C2.732,0.28 3.135,-0.152 3.344,-0.5C3.56,-0.85 3.622,-1.121 3.7,-1.114C3.764,-1.114 3.839,-0.808 3.677,-0.342C3.523,0.111 3.074,0.714 2.325,0.96C1.574,1.196 0.857,0.968 0.469,0.688C0.065,0.405 -0.052,0.112 0,0.075" style="fill:rgb(36,19,82);fill-rule:nonzero;"/>
            </g>
            <g transform="matrix(1,0,0,1,413.296,173.99)">
                <path d="M0,2.153C-0.006,2.076 0.221,2.03 0.46,1.872C0.578,1.79 0.675,1.681 0.707,1.534C0.739,1.381 0.696,1.266 0.599,1.236C0.509,1.202 0.436,1.233 0.426,1.248L-0.017,1.018C0.331,0.312 0.653,-0.168 0.762,-0.121C0.869,-0.073 0.729,0.489 0.44,1.22L-0.002,0.99C0.165,0.706 0.526,0.644 0.784,0.749C0.974,0.811 1.144,1.005 1.187,1.183C1.24,1.366 1.217,1.541 1.163,1.684C1.056,1.977 0.806,2.147 0.617,2.205C0.222,2.321 -0.001,2.214 0,2.153" style="fill:rgb(36,19,82);fill-rule:nonzero;"/>
            </g>
            <g transform="matrix(-0.253972,0.967211,0.967211,0.253972,407.557,166.536)">
                <path d="M1.095,-1.022C0.983,-1.108 0.596,-0.712 0.597,-0.078C0.596,0.557 0.982,0.952 1.095,0.868C1.219,0.79 1.111,0.393 1.118,-0.077C1.111,-0.549 1.22,-0.944 1.095,-1.022" style="fill:rgb(36,19,82);fill-rule:nonzero;"/>
            </g>
            <g transform="matrix(-0.0872086,0.99619,0.99619,0.0872086,399.49,164.96)">
                <path d="M1.217,-0.963C1.098,-1.039 0.725,-0.595 0.726,0.08C0.724,0.756 1.098,1.199 1.217,1.124C1.347,1.054 1.241,0.61 1.247,0.08C1.24,-0.45 1.347,-0.893 1.217,-0.963" style="fill:rgb(36,19,82);fill-rule:nonzero;"/>
            </g>
            <g transform="matrix(1,0,0,1,413.009,156.998)">
                <path d="M0,14.734C-2.539,12.258 -3.285,8.133 -3.975,4.654C-6.326,6.366 -9.562,6.788 -12.273,5.734C-13.125,6.734 -14.124,7.608 -15.229,8.317C-15.544,8.519 -15.917,8.714 -16.274,8.607C-16.7,8.478 -16.89,7.989 -16.991,7.556C-17.316,6.169 -17.328,4.683 -16.844,3.343C-16.359,2.003 -15.346,0.826 -14.017,0.312C-12.596,-0.239 -10.998,0.001 -9.523,0.383C-7.302,0.959 -5.161,1.843 -3.181,3.004C-1.237,4.142 0.629,5.648 1.454,7.744C2.278,9.84 2.274,13.913 0.287,14.973" style="fill:rgb(255,112,129);fill-rule:nonzero;"/>
            </g>
            <g transform="matrix(-0.793983,-0.607941,-0.607941,0.793983,379.991,201.049)">
                <path d="M-7.079,-20.405C-8.438,-22.676 2.31,-5.602 2.31,-5.602L-7.079,3.504L-11.356,-2.743L-7.079,-20.405Z" style="fill:rgb(36,19,82);fill-rule:nonzero;"/>
            </g>
            <g transform="matrix(1,0,0,1,372.915,175.35)">
                <path d="M0,13.802C0,13.802 4.936,6.902 4.056,6.906C3.176,6.909 2.717,8.208 1.008,9.097C1.008,9.097 3.735,0.469 2.892,0.65C2.047,0.831 0.034,6.369 -0.098,6.363C-0.23,6.357 1.639,0.152 0.938,0.076C0.238,0 -1.479,5.772 -1.479,5.772C-1.479,5.772 -0.303,0.285 -1.045,0.162C-1.787,0.039 -2.882,5.094 -2.882,5.094C-2.882,5.094 -2.007,0.849 -2.682,0.745C-3.093,0.683 -6.818,11.212 -6.818,11.212C-6.721,11.212 0,13.802 0,13.802" style="fill:rgb(255,175,167);fill-rule:nonzero;"/>
            </g>
            <g transform="matrix(1,0,0,1,411.087,193.396)">
                <path d="M0,20.335C-0.035,20.339 -0.109,19.98 -0.212,19.327C-0.315,18.674 -0.447,17.728 -0.599,16.557C-0.901,14.214 -1.289,10.979 -1.677,7.393C-1.766,6.491 -1.814,5.583 -1.675,4.706C-1.546,3.829 -1.18,3.004 -0.667,2.368C0.364,1.079 1.786,0.463 2.96,0.231C4.15,-0.004 5.131,0.07 5.789,0.15C6.45,0.237 6.803,0.345 6.798,0.376C6.791,0.416 6.427,0.376 5.772,0.353C5.12,0.335 4.163,0.321 3.04,0.591C1.933,0.855 0.63,1.474 -0.288,2.663C-0.743,3.252 -1.057,3.977 -1.17,4.784C-1.292,5.589 -1.246,6.454 -1.158,7.341C-0.771,10.917 -0.441,14.166 -0.232,16.517C-0.128,17.692 -0.052,18.646 -0.011,19.305C0.03,19.964 0.036,20.331 0,20.335" style="fill:rgb(36,19,82);fill-rule:nonzero;"/>
            </g>
            <g transform="matrix(-0.105279,0.994443,0.994443,0.105279,419.693,206.193)">
                <path d="M7.66,-8.514C7.516,-8.514 7.399,-5.065 7.4,-0.811C7.4,3.444 7.516,6.893 7.66,6.893C7.804,6.893 7.92,3.444 7.919,-0.811C7.92,-5.065 7.804,-8.515 7.66,-8.514" style="fill:rgb(36,19,82);fill-rule:nonzero;"/>
            </g>
            <g transform="matrix(1,0,0,1,388.049,175.436)">
                <path d="M0,-19.328L0,-4.523L-9.892,-4.523L-10.207,1.092L-16.02,-4.848L-37.799,-4.848L-35.881,-20.42L0,-19.328Z" style="fill:rgb(126,46,132);fill-rule:nonzero;"/>
            </g>
            <g transform="matrix(-0.00783096,-0.999969,-0.999969,0.00783096,369.808,145.772)">
                <path d="M-14.69,-14.745C-14.414,-5.021 -14.271,4.769 -14.401,14.496C-14.404,14.681 -14.685,14.684 -14.69,14.498C-14.972,4.774 -14.982,-5.016 -14.858,-14.743C-14.858,-14.851 -14.693,-14.853 -14.69,-14.745" style="fill:rgb(230,226,235);fill-rule:nonzero;"/>
            </g>
            <g transform="matrix(-0.00783096,-0.999969,-0.999969,0.00783096,369.808,148.614)">
                <path d="M-14.69,-14.745C-14.414,-5.021 -14.271,4.769 -14.401,14.496C-14.404,14.681 -14.685,14.684 -14.69,14.498C-14.972,4.774 -14.982,-5.016 -14.859,-14.743C-14.858,-14.851 -14.693,-14.853 -14.69,-14.745" style="fill:rgb(230,226,235);fill-rule:nonzero;"/>
            </g>
            <g transform="matrix(-0.0127417,-0.999919,-0.999919,0.0127417,375.444,157.247)">
                <path d="M-9.055,-9.109C-8.789,-3.154 -8.657,2.901 -8.767,8.86C-8.77,9.046 -9.047,9.05 -9.055,8.864C-9.315,2.909 -9.34,-3.147 -9.224,-9.107C-9.223,-9.215 -9.06,-9.217 -9.055,-9.109" style="fill:rgb(230,226,235);fill-rule:nonzero;"/>
            </g>
            <g transform="matrix(0.684705,-0.72882,-0.72882,-0.684705,399.422,169.711)">
                <path d="M-0.41,-0.134C-0.546,-0.082 -0.582,0.156 -0.585,0.411C-0.581,0.665 -0.546,0.902 -0.41,0.954C-0.278,1.007 -0.063,0.771 -0.063,0.41C-0.063,0.049 -0.278,-0.187 -0.41,-0.134" style="fill:rgb(36,19,82);fill-rule:nonzero;"/>
            </g>
            <g transform="matrix(0.800082,-0.59989,-0.59989,-0.800082,407.113,170.602)">
                <path d="M-0.449,-0.13C-0.591,-0.097 -0.636,0.226 -0.638,0.6C-0.637,0.974 -0.591,1.297 -0.449,1.329C-0.311,1.363 -0.117,1.04 -0.117,0.6C-0.116,0.159 -0.311,-0.163 -0.449,-0.13" style="fill:rgb(36,19,82);fill-rule:nonzero;"/>
            </g>
            <g opacity="0.18">
                <g transform="matrix(-0.297273,-0.954792,-0.954792,0.297273,403.754,177.016)">
                    <path d="M-0.84,-1.144C-1.56,-1.144 -2.143,-0.749 -2.142,-0.263C-2.143,0.224 -1.56,0.619 -0.84,0.619C-0.122,0.619 0.461,0.223 0.462,-0.262C0.461,-0.748 -0.122,-1.143 -0.84,-1.144" style="fill:rgb(36,19,82);fill-rule:nonzero;"/>
                </g>
            </g>
            <g opacity="0.13">
                <g transform="matrix(-0.00720962,-0.999974,-0.999974,0.00720962,407.566,170.673)">
                    <path d="M-2.08,-2.096C-2.8,-2.095 -3.383,-1.163 -3.383,-0.015C-3.382,1.135 -2.8,2.065 -2.08,2.066C-1.361,2.065 -0.778,1.134 -0.778,-0.015C-0.779,-1.164 -1.361,-2.095 -2.08,-2.096" style="fill:rgb(36,19,82);fill-rule:nonzero;"/>
                </g>
            </g>
            <g opacity="0.13">
                <g transform="matrix(-0.00721135,-0.999974,-0.999974,0.00721135,398.996,171.28)">
                    <path d="M-2.081,-2.096C-2.8,-2.095 -3.383,-1.164 -3.383,-0.015C-3.382,1.134 -2.8,2.065 -2.081,2.065C-1.361,2.065 -0.778,1.133 -0.778,-0.015C-0.779,-1.164 -1.361,-2.096 -2.081,-2.096" style="fill:rgb(36,19,82);fill-rule:nonzero;"/>
                </g>
            </g>
            <g transform="matrix(1,0,0,1,413.52,160.789)">
                <path d="M0,4.903C-0.047,4.846 0.13,4.619 -0.031,4.202C-0.166,3.799 -0.576,3.221 -0.902,2.56C-1.593,1.243 -2.051,0.119 -1.925,0.048C-1.8,-0.023 -1.135,0.995 -0.439,2.322C-0.11,2.997 0.242,3.561 0.328,4.121C0.368,4.391 0.316,4.641 0.213,4.772C0.114,4.904 0.021,4.926 0,4.903" style="fill:rgb(111,53,165);fill-rule:nonzero;"/>
            </g>
            <g transform="matrix(-0.074959,0.997187,0.997187,0.074959,414.63,212.027)">
                <path d="M-1.823,-23.396L20.536,-23.396L21.898,0.004L-3.641,-3.492L-1.823,-23.396Z" style="fill:rgb(124,171,255);fill-rule:nonzero;"/>
            </g>
            <g transform="matrix(0,1,1,0,401.739,199.089)">
                <path d="M-5.741,-8.452L11.939,-8.452L10.923,-5.741L-9.227,-5.741L-8.403,-8.452" style="fill:rgb(124,171,255);fill-rule:nonzero;"/>
            </g>
            <g transform="matrix(-0.969304,-0.245864,-0.245864,0.969304,404.281,208.334)">
                <path d="M-5.918,-19.509C-5.918,-19.509 3.917,-15.621 -3.302,0.229L-5.918,-0.144C-5.918,-0.144 0.913,-15.023 -8.362,-18.56L-5.918,-19.509Z" style="fill:rgb(124,171,255);fill-rule:nonzero;"/>
            </g>
            <g transform="matrix(1,0,0,1,411.723,245.126)">
                <path d="M0,-34.358C0,-34.358 3.58,-13.256 -1.469,-13.775C-18.08,-15.483 -27.972,-15.714 -27.972,-15.714L-30.725,-9.997C-30.788,-9.023 0.733,0 5.798,-2.983C9.373,-5.09 15.071,-10.764 12.484,-27.72L11.874,-33.403L0,-34.358Z" style="fill:rgb(255,175,167);fill-rule:nonzero;"/>
            </g>
            <g transform="matrix(1,0,0,1,420.937,206.733)">
                <path d="M0,-9.962C0,-9.962 3.874,-6.242 4.74,7.837L-10.255,6.178C-10.255,6.178 -12.754,-17.799 0,-9.962" style="fill:rgb(36,19,82);fill-rule:nonzero;"/>
            </g>
            <g transform="matrix(1,0,0,1,385.5,234.477)">
                <path d="M0,-5.063C0,-5.063 -8.129,-7.613 -7.85,-6.774C-7.571,-5.936 -6.188,-5.904 -4.805,-4.552C-4.805,-4.552 -13.892,-4.454 -13.455,-3.705C-13.018,-2.956 -7.103,-2.768 -7.067,-2.641C-7.032,-2.513 -13.537,-2.354 -13.391,-1.662C-13.244,-0.969 -7.199,-1.138 -7.199,-1.138C-7.199,-1.138 -12.803,-0.542 -12.688,0.204C-12.573,0.951 -7.407,0.413 -7.407,0.413C-7.407,0.413 -11.731,0.907 -11.618,1.583C-11.55,1.995 1.042,2.089 1.067,2.392C1.081,2.55 0,-5.063 0,-5.063" style="fill:rgb(255,175,167);fill-rule:nonzero;"/>
            </g>
            <g transform="matrix(1,0,0,1,395.866,211.613)">
                <path d="M0,-3.041C0.062,-3.047 0.216,-2.687 0.277,-2.028C0.298,-1.704 0.279,-1.274 0.058,-0.849C-0.146,-0.443 -0.599,0.006 -1.224,0.006C-1.838,-0.002 -2.29,-0.383 -2.549,-0.762C-2.816,-1.164 -2.888,-1.571 -2.92,-1.897C-2.962,-2.554 -2.873,-2.936 -2.811,-2.94C-2.73,-2.945 -2.686,-2.544 -2.556,-1.956C-2.485,-1.668 -2.378,-1.322 -2.159,-1.042C-1.943,-0.761 -1.591,-0.512 -1.226,-0.515C-0.861,-0.509 -0.544,-0.776 -0.361,-1.083C-0.174,-1.388 -0.117,-1.733 -0.091,-2.03C-0.056,-2.629 -0.081,-3.033 0,-3.041" style="fill:rgb(36,19,82);fill-rule:nonzero;"/>
            </g>
            <g transform="matrix(1,0,0,1,394.219,209.652)">
                <path d="M0,-0.727C0.041,-0.666 -0.007,-0.55 0.048,-0.415C0.121,-0.26 0.191,-0.223 0.324,-0.303C0.45,-0.395 0.442,-0.475 0.327,-0.602C0.223,-0.704 0.098,-0.704 0.057,-0.765C0.006,-0.81 0.153,-1.016 0.474,-0.939C0.618,-0.899 0.803,-0.79 0.882,-0.549C0.965,-0.3 0.828,-0.004 0.613,0.13C0.408,0.276 0.082,0.289 -0.116,0.117C-0.309,-0.048 -0.339,-0.26 -0.32,-0.409C-0.269,-0.734 -0.022,-0.791 0,-0.727" style="fill:rgb(36,19,82);fill-rule:nonzero;"/>
            </g>
            <g transform="matrix(1,0,0,1,409.793,210.011)">
                <path d="M0,-1.803C0.052,-1.834 0.255,-1.59 0.185,-1.127C0.129,-0.699 -0.281,-0.036 -1.074,0.023C-1.87,0.031 -2.335,-0.595 -2.427,-1.017C-2.535,-1.472 -2.354,-1.732 -2.299,-1.706C-2.222,-1.688 -2.242,-1.444 -2.081,-1.143C-1.937,-0.85 -1.551,-0.481 -1.097,-0.497C-0.643,-0.519 -0.289,-0.919 -0.171,-1.224C-0.035,-1.537 -0.076,-1.779 0,-1.803" style="fill:rgb(36,19,82);fill-rule:nonzero;"/>
            </g>
            <g transform="matrix(1,0,0,1,408.103,208.547)">
                <path d="M0,-0.958C-0.042,-1.007 0.087,-1.203 0.425,-1.208C0.584,-1.207 0.802,-1.153 0.969,-0.953C1.147,-0.759 1.16,-0.386 0.995,-0.159C0.857,0.083 0.506,0.25 0.216,0.108C-0.079,-0.052 -0.1,-0.325 -0.074,-0.489C-0.047,-0.666 0.071,-0.797 0.174,-0.828C0.277,-0.858 0.329,-0.819 0.334,-0.789C0.333,-0.713 0.243,-0.633 0.294,-0.475C0.365,-0.291 0.423,-0.285 0.557,-0.44C0.674,-0.611 0.562,-0.757 0.37,-0.844C0.192,-0.921 0.037,-0.894 0,-0.958" style="fill:rgb(36,19,82);fill-rule:nonzero;"/>
            </g>
            <g transform="matrix(0.999484,0.0321281,0.0321281,-0.999484,407.521,218.625)">
                <path d="M0.032,-0.003C-0.113,0.022 -0.149,0.467 -0.149,0.994C-0.147,1.52 -0.111,1.962 0.032,1.989C0.171,2.016 0.373,1.573 0.371,0.992C0.371,0.412 0.171,-0.03 0.032,-0.003" style="fill:rgb(36,19,82);fill-rule:nonzero;"/>
            </g>
            <g transform="matrix(0.810229,0.586113,0.586113,-0.810229,405.377,221.631)">
                <path d="M0.576,-0.2C0.432,-0.176 0.391,0.268 0.39,0.797C0.39,1.325 0.432,1.77 0.576,1.794C0.715,1.82 0.91,1.376 0.91,0.797C0.912,0.219 0.716,-0.226 0.576,-0.2" style="fill:rgb(36,19,82);fill-rule:nonzero;"/>
            </g>
            <g transform="matrix(0.310652,0.950524,0.950524,-0.310652,402.635,222.82)">
                <path d="M0.933,-0.731C0.789,-0.706 0.751,-0.262 0.75,0.265C0.753,0.793 0.79,1.234 0.933,1.262C1.072,1.288 1.272,0.845 1.271,0.264C1.27,-0.315 1.072,-0.756 0.933,-0.731" style="fill:rgb(36,19,82);fill-rule:nonzero;"/>
            </g>
            <g transform="matrix(-0.271806,0.962352,0.962352,0.271806,399.802,222.92)">
                <path d="M0.893,-1.295C0.75,-1.27 0.71,-0.826 0.707,-0.298C0.708,0.23 0.748,0.675 0.893,0.699C1.033,0.724 1.227,0.281 1.228,-0.297C1.23,-0.876 1.032,-1.32 0.893,-1.295" style="fill:rgb(36,19,82);fill-rule:nonzero;"/>
            </g>
            <g transform="matrix(-0.787049,0.61689,0.61689,0.787049,396.994,221.817)">
                <path d="M0.578,-1.805C0.434,-1.78 0.393,-1.336 0.392,-0.809C0.395,-0.281 0.434,0.161 0.578,0.187C0.716,0.214 0.915,-0.23 0.913,-0.809C0.914,-1.388 0.717,-1.831 0.578,-1.805" style="fill:rgb(36,19,82);fill-rule:nonzero;"/>
            </g>
            <g transform="matrix(-0.997166,0.0752388,0.0752388,0.997166,394.62,218.907)">
                <path d="M-0.083,-2.004C-0.228,-1.978 -0.266,-1.535 -0.268,-1.008C-0.267,-0.48 -0.228,-0.035 -0.083,-0.01C0.056,0.015 0.253,-0.428 0.254,-1.006C0.255,-1.586 0.056,-2.031 -0.083,-2.004" style="fill:rgb(36,19,82);fill-rule:nonzero;"/>
            </g>
            <g transform="matrix(0.0360127,-0.999351,-0.999351,-0.0360127,396.987,215.255)">
                <path d="M-0.999,-0.964C-1.143,-0.964 -1.259,-0.517 -1.259,0.037C-1.259,0.589 -1.142,1.036 -0.999,1.036C-0.855,1.036 -0.739,0.589 -0.739,0.035C-0.739,-0.517 -0.855,-0.964 -0.999,-0.964" style="fill:rgb(36,19,82);fill-rule:nonzero;"/>
            </g>
            <g transform="matrix(0.0359947,-0.999352,-0.999352,-0.0359947,400.984,215.398)">
                <path d="M-1,-0.964C-1.144,-0.963 -1.26,-0.516 -1.261,0.036C-1.261,0.588 -1.144,1.036 -1,1.036C-0.855,1.036 -0.739,0.588 -0.739,0.036C-0.739,-0.516 -0.855,-0.964 -1,-0.964" style="fill:rgb(36,19,82);fill-rule:nonzero;"/>
            </g>
            <g transform="matrix(0.0359947,-0.999352,-0.999352,-0.0359947,404.981,215.543)">
                <path d="M-1,-0.964C-1.144,-0.964 -1.26,-0.516 -1.26,0.036C-1.26,0.588 -1.143,1.036 -1,1.036C-0.855,1.035 -0.739,0.588 -0.739,0.036C-0.739,-0.516 -0.855,-0.964 -1,-0.964" style="fill:rgb(36,19,82);fill-rule:nonzero;"/>
            </g>
            <g transform="matrix(0.999321,-0.0368555,-0.0368555,-0.999321,407.74,261.319)">
                <path d="M-0.167,0.007C0.55,2.74 1.158,5.686 1.384,8.503C1.455,9.381 0.031,9.653 -0.167,8.771C-0.788,5.998 -1.086,3.022 -1.211,0.189C-1.238,-0.403 -0.323,-0.586 -0.167,0.007" style="fill:rgb(255,149,126);fill-rule:nonzero;"/>
            </g>
            <g transform="matrix(1,0,0,1,422.099,272.941)">
                <path d="M0,-2.147C-0.048,-2.189 -0.096,-2.232 -0.144,-2.274C-0.777,-2.834 -1.815,-2.944 -2.431,-2.274C-3.054,-1.596 -3.031,-0.665 -2.431,0.013C-2.389,0.061 -2.347,0.109 -2.304,0.157C-1.737,0.797 -0.57,0.778 0,0.157C0.566,-0.46 0.682,-1.543 0,-2.147" style="fill:rgb(36,19,82);fill-rule:nonzero;"/>
            </g>
            <g transform="matrix(0,-1,-1,0,346.837,239.707)">
                <path d="M-42.596,-42.596C-66.12,-42.596 -85.193,-23.525 -85.193,0C-85.193,23.525 -66.12,42.596 -42.596,42.596C-19.071,42.596 0.001,23.525 0.001,0C0.001,-23.525 -19.071,-42.596 -42.596,-42.596" style="fill:rgb(226,211,245);fill-rule:nonzero;"/>
            </g>
            <g transform="matrix(1,0,0,1,353.303,286.519)">
                <path d="M0,-18.58L28.259,-7.986L25.561,-19.398L32.91,-21.266C32.91,-21.266 40.814,1.043 35.325,1.64C25.714,2.686 11.172,-1.12 11.172,-1.12L0,-18.58Z" style="fill:rgb(255,175,167);fill-rule:nonzero;"/>
            </g>
            <g transform="matrix(1,0,0,1,363.115,298.179)">
                <path d="M0,-4.655L-0.064,17.694C-7.423,26.741 -33.042,15.042 -33.042,15.042L-33.341,5.902L-33.936,-15.87C-33.346,-24.54 -25.293,-28.796 -25.293,-28.796C-21.965,-30.454 -16.888,-31.396 -12.313,-31.171C-7.539,-30.934 -6.359,-28.648 -4.392,-24.291C-2.802,-20.77 0,-17.468 0,-4.655" style="fill:rgb(111,53,165);fill-rule:nonzero;"/>
            </g>
            <g transform="matrix(1,0,0,1,340.586,323.817)">
                <path d="M0,-34.358C0,-34.358 -3.581,-13.256 1.469,-13.775C18.08,-15.483 27.971,-15.713 27.971,-15.713L30.724,-9.997C30.788,-9.023 -0.733,0 -5.798,-2.983C-9.374,-5.09 -15.071,-10.763 -12.485,-27.719L-11.874,-33.403L0,-34.358Z" style="fill:rgb(255,175,167);fill-rule:nonzero;"/>
            </g>
            <g transform="matrix(1,0,0,1,331.45,285.424)">
                <path d="M0,-9.962C0,-9.962 -3.875,-6.241 -4.741,7.837L10.255,6.178C10.255,6.178 12.754,-17.799 0,-9.962" style="fill:rgb(111,53,165);fill-rule:nonzero;"/>
            </g>
            <g transform="matrix(1,0,0,1,338.96,256.858)">
                <path d="M0,-10.904L0.34,-6.435C0.34,-6.435 -3.461,-5.923 -2.377,-2.456C-1.294,1.01 1.305,-0.507 1.305,-0.507C1.305,-0.507 1.955,8.375 11.054,5.559C18.295,3.317 17.852,-6.059 16.933,-14.053C16.577,-17.15 13.647,-19.279 10.587,-18.683L5.117,-17.618C1.956,-17.002 -0.244,-14.116 0,-10.904" style="fill:rgb(255,175,167);fill-rule:nonzero;"/>
            </g>
            <g transform="matrix(1,0,0,1,339.3,272.035)">
                <path d="M0,-17.903L2.451,-4.83C3.003,-1.884 5.907,0 8.822,-0.695C11.523,-1.34 13.254,-3.978 12.768,-6.713L11.438,-14.206L0,-17.903Z" style="fill:rgb(255,175,167);fill-rule:nonzero;"/>
            </g>
            <g transform="matrix(1,0,0,1,349.363,246.777)">
                <path d="M0,7.503C0.035,7.479 0.109,7.619 0.275,7.639C0.437,7.655 0.684,7.487 0.744,7.132C0.827,6.78 0.781,6.317 0.731,5.781C0.688,5.205 0.646,4.636 0.602,4.039C0.447,1.565 0.437,-0.448 0.581,-0.456C0.725,-0.465 0.966,1.532 1.122,4.006C1.152,4.604 1.181,5.175 1.21,5.751C1.231,6.28 1.251,6.803 1.097,7.236C0.977,7.688 0.512,7.968 0.222,7.834C-0.056,7.693 -0.019,7.5 0,7.503" style="fill:rgb(36,19,82);fill-rule:nonzero;"/>
            </g>
            <g transform="matrix(1,0,0,1,352.315,263.147)">
                <path d="M0,-1.643C0.041,-1.594 -0.321,-1.196 -1.069,-0.766C-1.809,-0.336 -2.965,0.086 -4.296,0.114C-5.627,0.142 -6.801,-0.231 -7.558,-0.629C-8.323,-1.027 -8.701,-1.41 -8.663,-1.46C-8.596,-1.605 -6.822,-0.345 -4.307,-0.408C-1.792,-0.452 -0.072,-1.785 0,-1.643" style="fill:rgb(36,19,82);fill-rule:nonzero;"/>
            </g>
            <g transform="matrix(1,0,0,1,350.538,256.039)">
                <path d="M0,0.075C0.051,0.112 -0.066,0.405 -0.469,0.688C-0.858,0.968 -1.574,1.196 -2.326,0.96C-3.075,0.715 -3.524,0.111 -3.677,-0.343C-3.839,-0.808 -3.764,-1.114 -3.701,-1.114C-3.622,-1.121 -3.56,-0.85 -3.344,-0.499C-3.135,-0.152 -2.733,0.279 -2.167,0.464C-1.599,0.644 -1.021,0.528 -0.648,0.367C-0.269,0.208 -0.06,0.024 0,0.075" style="fill:rgb(36,19,82);fill-rule:nonzero;"/>
            </g>
            <g transform="matrix(1,0,0,1,339.013,252.681)">
                <path d="M0,2.154C0.001,2.215 -0.222,2.322 -0.617,2.206C-0.806,2.147 -1.056,1.978 -1.163,1.684C-1.217,1.542 -1.241,1.367 -1.187,1.183C-1.144,1.005 -0.974,0.811 -0.784,0.75C-0.526,0.644 -0.165,0.707 0.002,0.991L-0.44,1.22C-0.729,0.489 -0.87,-0.073 -0.762,-0.12C-0.654,-0.168 -0.332,0.313 0.016,1.018L-0.426,1.249C-0.436,1.233 -0.509,1.202 -0.599,1.236C-0.696,1.266 -0.74,1.382 -0.707,1.535C-0.675,1.681 -0.578,1.79 -0.46,1.873C-0.221,2.031 0.006,2.077 0,2.154" style="fill:rgb(36,19,82);fill-rule:nonzero;"/>
            </g>
            <g transform="matrix(-0.253972,-0.967211,-0.967211,0.253972,344.751,245.226)">
                <path d="M-1.096,-1.023C-1.221,-0.945 -1.113,-0.549 -1.12,-0.078C-1.113,0.394 -1.221,0.789 -1.096,0.867C-0.983,0.952 -0.597,0.557 -0.599,-0.079C-0.598,-0.713 -0.984,-1.108 -1.096,-1.023" style="fill:rgb(36,19,82);fill-rule:nonzero;"/>
            </g>
            <g transform="matrix(-0.0872086,-0.99619,-0.99619,0.0872086,352.82,243.651)">
                <path d="M-1.217,-0.963C-1.348,-0.894 -1.242,-0.45 -1.247,0.08C-1.241,0.611 -1.348,1.055 -1.217,1.124C-1.099,1.2 -0.725,0.755 -0.726,0.08C-0.725,-0.596 -1.098,-1.039 -1.217,-0.963" style="fill:rgb(36,19,82);fill-rule:nonzero;"/>
            </g>
            <g transform="matrix(1,0,0,1,339.3,235.69)">
                <path d="M0,14.733C2.539,12.257 3.286,8.132 3.975,4.653C6.327,6.366 9.562,6.787 12.273,5.734C13.125,6.734 14.125,7.607 15.23,8.316C15.544,8.518 15.917,8.714 16.274,8.606C16.701,8.477 16.89,7.989 16.992,7.555C17.316,6.168 17.328,4.683 16.844,3.342C16.36,2.002 15.346,0.825 14.017,0.311C12.596,-0.239 10.998,0 9.523,0.382C7.302,0.958 5.161,1.843 3.181,3.003C1.238,4.141 -0.629,5.648 -1.454,7.743C-2.278,9.839 -2.274,13.912 -0.287,14.972" style="fill:rgb(36,19,82);fill-rule:nonzero;"/>
            </g>
            <g transform="matrix(-0.793962,0.607967,0.607967,0.793962,372.32,279.74)">
                <path d="M7.081,-20.406C8.439,-22.676 -2.309,-5.602 -2.309,-5.602L7.081,3.504L11.358,-2.744L7.081,-20.406Z" style="fill:rgb(111,53,165);fill-rule:nonzero;"/>
            </g>
            <g transform="matrix(1,0,0,1,366.81,313.17)">
                <path d="M0,-5.065C0,-5.065 8.129,-7.614 7.85,-6.776C7.571,-5.937 6.187,-5.906 4.805,-4.553C4.805,-4.553 13.892,-4.455 13.454,-3.707C13.018,-2.958 7.103,-2.769 7.067,-2.642C7.032,-2.514 13.537,-2.355 13.391,-1.663C13.244,-0.971 7.199,-1.139 7.199,-1.139C7.199,-1.139 12.803,-0.544 12.688,0.203C12.572,0.95 7.407,0.412 7.407,0.412C7.407,0.412 11.73,0.906 11.618,1.581C11.55,1.994 -1.042,2.087 -1.068,2.39C-1.082,2.549 0,-5.065 0,-5.065" style="fill:rgb(255,175,167);fill-rule:nonzero;"/>
            </g>
            <g transform="matrix(1,0,0,1,379.395,254.041)">
                <path d="M0,13.802C0,13.802 -4.936,6.903 -4.056,6.906C-3.176,6.909 -2.717,8.208 -1.008,9.097C-1.008,9.097 -3.736,0.469 -2.892,0.65C-2.048,0.831 -0.034,6.369 0.098,6.364C0.229,6.357 -1.639,0.153 -0.938,0.076C-0.238,0 1.479,5.772 1.479,5.772C1.479,5.772 0.303,0.285 1.045,0.162C1.787,0.039 2.881,5.094 2.881,5.094C2.881,5.094 2.007,0.849 2.682,0.745C3.093,0.683 6.818,11.212 6.818,11.212C6.721,11.212 0,13.802 0,13.802" style="fill:rgb(255,175,167);fill-rule:nonzero;"/>
            </g>
            <g transform="matrix(1,0,0,1,333.872,289.101)">
                <path d="M0,-2.274C0.054,-2.28 0.238,-1.952 0.248,-1.3C0.246,-0.985 0.117,-0.526 -0.285,-0.239C-0.477,-0.096 -0.763,0.006 -1.059,-0.059C-1.352,-0.12 -1.573,-0.319 -1.732,-0.493C-2.054,-0.868 -2.263,-1.09 -2.593,-1.129C-2.909,-1.179 -3.194,-1.073 -3.377,-0.906C-3.761,-0.555 -3.749,-0.15 -3.827,-0.155C-3.879,-0.122 -4.078,-0.588 -3.646,-1.158C-3.435,-1.43 -3.01,-1.652 -2.539,-1.606C-2.306,-1.587 -2.057,-1.503 -1.847,-1.343C-1.642,-1.188 -1.496,-1.001 -1.352,-0.847C-0.834,-0.141 -0.156,-0.831 -0.119,-1.338C-0.037,-1.875 -0.085,-2.268 0,-2.274" style="fill:rgb(252,242,252);fill-rule:nonzero;"/>
            </g>
            <g transform="matrix(1,0,0,1,338.313,284.59)">
                <path d="M0,-1.596C-0.033,-1.639 0.151,-1.966 0.703,-2.314C0.974,-2.477 1.433,-2.605 1.886,-2.411C2.108,-2.322 2.344,-2.13 2.443,-1.844C2.543,-1.562 2.488,-1.269 2.423,-1.043C2.269,-0.574 2.189,-0.279 2.327,0.024C2.449,0.319 2.687,0.508 2.926,0.577C3.424,0.721 3.764,0.501 3.801,0.57C3.856,0.597 3.561,1.009 2.85,0.937C2.508,0.899 2.097,0.652 1.891,0.225C1.787,0.015 1.729,-0.241 1.756,-0.502C1.782,-0.759 1.865,-0.981 1.921,-1.184C2.255,-1.992 1.314,-2.214 0.86,-1.981C0.361,-1.772 0.049,-1.526 0,-1.596" style="fill:rgb(252,242,252);fill-rule:nonzero;"/>
            </g>
            <g transform="matrix(1,0,0,1,338.013,275.041)">
                <path d="M0,-1.595C-0.033,-1.639 0.151,-1.965 0.702,-2.313C0.973,-2.476 1.433,-2.605 1.886,-2.41C2.108,-2.321 2.344,-2.13 2.442,-1.843C2.543,-1.561 2.488,-1.268 2.423,-1.042C2.269,-0.573 2.188,-0.278 2.327,0.024C2.448,0.32 2.687,0.508 2.925,0.578C3.424,0.722 3.764,0.502 3.801,0.571C3.856,0.598 3.561,1.01 2.849,0.938C2.507,0.899 2.097,0.652 1.891,0.226C1.787,0.016 1.729,-0.24 1.755,-0.502C1.781,-0.758 1.865,-0.98 1.921,-1.183C2.255,-1.991 1.314,-2.213 0.86,-1.98C0.36,-1.771 0.049,-1.525 0,-1.595" style="fill:rgb(252,242,252);fill-rule:nonzero;"/>
            </g>
            <g transform="matrix(1,0,0,1,347.481,281.884)">
                <path d="M0,3.997C-0.041,4.033 -0.382,3.878 -0.776,3.359C-0.962,3.103 -1.13,2.657 -0.977,2.188C-0.907,1.96 -0.737,1.708 -0.46,1.585C-0.188,1.46 0.108,1.489 0.339,1.535C0.82,1.646 1.121,1.701 1.41,1.537C1.694,1.391 1.86,1.136 1.909,0.893C2.01,0.383 1.76,0.064 1.826,0.021C1.849,-0.036 2.285,0.222 2.274,0.936C2.266,1.281 2.056,1.711 1.649,1.954C1.449,2.076 1.2,2.156 0.936,2.152C0.678,2.148 0.45,2.085 0.243,2.047C-0.592,1.784 -0.73,2.741 -0.459,3.173C-0.207,3.652 0.065,3.941 0,3.997" style="fill:rgb(252,242,252);fill-rule:nonzero;"/>
            </g>
            <g transform="matrix(1,0,0,1,353.937,293.908)">
                <path d="M0,1.959C0.029,2.005 -0.178,2.317 -0.753,2.623C-1.036,2.766 -1.503,2.86 -1.941,2.634C-2.156,2.527 -2.377,2.32 -2.455,2.026C-2.534,1.737 -2.457,1.45 -2.375,1.23C-2.188,0.772 -2.086,0.484 -2.201,0.173C-2.301,-0.131 -2.525,-0.336 -2.758,-0.423C-3.244,-0.604 -3.599,-0.408 -3.631,-0.48C-3.684,-0.512 -3.36,-0.901 -2.655,-0.776C-2.317,-0.713 -1.926,-0.437 -1.752,0.004C-1.664,0.221 -1.624,0.48 -1.67,0.739C-1.715,0.993 -1.815,1.209 -1.886,1.406C-2.279,2.188 -1.356,2.479 -0.886,2.28C-0.373,2.108 -0.044,1.886 0,1.959" style="fill:rgb(252,242,252);fill-rule:nonzero;"/>
            </g>
            <g transform="matrix(1,0,0,1,361.538,278.158)">
                <path d="M0,1.959C0.029,2.005 -0.178,2.317 -0.753,2.623C-1.036,2.766 -1.503,2.86 -1.941,2.634C-2.156,2.527 -2.377,2.32 -2.455,2.026C-2.534,1.737 -2.457,1.45 -2.375,1.23C-2.188,0.772 -2.086,0.484 -2.201,0.173C-2.301,-0.131 -2.525,-0.336 -2.758,-0.423C-3.244,-0.604 -3.599,-0.409 -3.631,-0.48C-3.684,-0.512 -3.359,-0.901 -2.655,-0.776C-2.317,-0.713 -1.926,-0.437 -1.752,0.004C-1.663,0.221 -1.624,0.48 -1.67,0.739C-1.715,0.993 -1.815,1.209 -1.886,1.406C-2.279,2.188 -1.356,2.479 -0.886,2.28C-0.373,2.108 -0.044,1.886 0,1.959" style="fill:rgb(252,242,252);fill-rule:nonzero;"/>
            </g>
            <g transform="matrix(1,0,0,1,366.723,281.981)">
                <path d="M0,-4.26C0.033,-4.303 0.397,-4.213 0.88,-3.776C1.109,-3.558 1.356,-3.15 1.291,-2.661C1.264,-2.423 1.143,-2.145 0.893,-1.973C0.648,-1.801 0.352,-1.776 0.116,-1.778C-0.377,-1.8 -0.683,-1.798 -0.937,-1.584C-1.189,-1.388 -1.306,-1.108 -1.31,-0.859C-1.315,-0.34 -1.011,-0.072 -1.068,-0.018C-1.08,0.043 -1.556,-0.131 -1.677,-0.836C-1.731,-1.175 -1.604,-1.637 -1.248,-1.949C-1.074,-2.107 -0.843,-2.231 -0.583,-2.276C-0.329,-2.319 -0.093,-2.298 0.118,-2.298C0.986,-2.193 0.947,-3.159 0.602,-3.534C0.266,-3.959 -0.055,-4.194 0,-4.26" style="fill:rgb(252,242,252);fill-rule:nonzero;"/>
            </g>
            <g transform="matrix(1,0,0,1,345.745,302.051)">
                <path d="M0,1.959C0.029,2.005 -0.178,2.317 -0.754,2.623C-1.036,2.766 -1.503,2.86 -1.941,2.634C-2.156,2.527 -2.377,2.319 -2.455,2.026C-2.534,1.737 -2.457,1.45 -2.376,1.23C-2.188,0.772 -2.086,0.484 -2.201,0.173C-2.301,-0.131 -2.525,-0.336 -2.758,-0.423C-3.245,-0.604 -3.6,-0.409 -3.631,-0.48C-3.684,-0.513 -3.36,-0.901 -2.655,-0.776C-2.317,-0.714 -1.926,-0.437 -1.752,0.004C-1.664,0.221 -1.625,0.48 -1.67,0.739C-1.715,0.993 -1.815,1.209 -1.886,1.406C-2.279,2.188 -1.356,2.479 -0.887,2.28C-0.373,2.108 -0.044,1.886 0,1.959" style="fill:rgb(252,242,252);fill-rule:nonzero;"/>
            </g>
            <g transform="matrix(1,0,0,1,356.994,285.101)">
                <path d="M0,3.753C-0.045,3.785 -0.366,3.591 -0.696,3.029C-0.851,2.753 -0.964,2.29 -0.757,1.843C-0.66,1.624 -0.461,1.394 -0.172,1.304C0.113,1.213 0.404,1.277 0.628,1.349C1.092,1.518 1.384,1.607 1.691,1.479C1.99,1.366 2.186,1.133 2.263,0.897C2.423,0.403 2.212,0.057 2.283,0.023C2.313,-0.032 2.715,0.275 2.621,0.984C2.571,1.325 2.312,1.728 1.879,1.92C1.666,2.018 1.409,2.068 1.147,2.033C0.892,1.999 0.672,1.908 0.472,1.846C-0.326,1.486 -0.577,2.421 -0.358,2.882C-0.165,3.388 0.071,3.706 0,3.753" style="fill:rgb(252,242,252);fill-rule:nonzero;"/>
            </g>
            <g transform="matrix(1,0,0,1,359.013,293.242)">
                <path d="M0,3.755C-0.044,3.786 -0.366,3.592 -0.696,3.03C-0.85,2.754 -0.964,2.291 -0.756,1.844C-0.66,1.625 -0.461,1.395 -0.171,1.306C0.114,1.214 0.404,1.278 0.628,1.351C1.093,1.519 1.385,1.609 1.691,1.48C1.99,1.367 2.186,1.135 2.263,0.899C2.423,0.404 2.213,0.058 2.283,0.024C2.313,-0.031 2.715,0.276 2.621,0.985C2.572,1.326 2.312,1.729 1.879,1.921C1.667,2.019 1.409,2.069 1.147,2.034C0.892,2 0.673,1.909 0.472,1.847C-0.326,1.487 -0.577,2.422 -0.358,2.883C-0.165,3.389 0.072,3.708 0,3.755" style="fill:rgb(252,242,252);fill-rule:nonzero;"/>
            </g>
            <g transform="matrix(1,0,0,1,342.732,291.52)">
                <path d="M0,2.004C-0.054,1.997 -0.161,1.638 -0.028,1C0.043,0.692 0.27,0.273 0.724,0.081C0.943,-0.017 1.244,-0.054 1.519,0.075C1.792,0.199 1.963,0.442 2.081,0.646C2.312,1.082 2.468,1.345 2.781,1.456C3.079,1.573 3.379,1.532 3.595,1.409C4.046,1.151 4.123,0.754 4.199,0.775C4.256,0.755 4.348,1.253 3.802,1.715C3.537,1.934 3.074,2.058 2.624,1.909C2.4,1.839 2.176,1.702 2.006,1.501C1.84,1.305 1.738,1.09 1.631,0.908C1.282,0.107 0.469,0.629 0.321,1.117C0.124,1.622 0.084,2.018 0,2.004" style="fill:rgb(252,242,252);fill-rule:nonzero;"/>
            </g>
            <g transform="matrix(1,0,0,1,357.436,301.572)">
                <path d="M0,2.004C-0.054,1.997 -0.162,1.638 -0.028,1C0.042,0.692 0.27,0.273 0.724,0.081C0.943,-0.017 1.244,-0.054 1.519,0.075C1.792,0.199 1.963,0.442 2.081,0.646C2.312,1.082 2.468,1.345 2.781,1.456C3.078,1.573 3.379,1.532 3.595,1.409C4.046,1.151 4.123,0.754 4.198,0.775C4.256,0.755 4.348,1.253 3.801,1.715C3.536,1.934 3.074,2.058 2.624,1.909C2.4,1.839 2.176,1.702 2.006,1.501C1.84,1.305 1.738,1.09 1.631,0.908C1.282,0.107 0.468,0.629 0.321,1.117C0.124,1.622 0.084,2.018 0,2.004" style="fill:rgb(252,242,252);fill-rule:nonzero;"/>
            </g>
            <g transform="matrix(1,0,0,1,357.009,271.117)">
                <path d="M0,2.005C-0.054,1.998 -0.162,1.638 -0.028,1C0.042,0.693 0.27,0.273 0.724,0.081C0.943,-0.016 1.244,-0.053 1.519,0.075C1.792,0.199 1.963,0.443 2.081,0.647C2.312,1.083 2.468,1.346 2.781,1.456C3.078,1.574 3.379,1.533 3.595,1.41C4.046,1.152 4.123,0.754 4.198,0.776C4.256,0.755 4.348,1.254 3.801,1.715C3.536,1.935 3.073,2.058 2.624,1.909C2.4,1.839 2.176,1.703 2.006,1.501C1.84,1.305 1.738,1.09 1.631,0.909C1.282,0.107 0.468,0.63 0.321,1.118C0.124,1.623 0.084,2.018 0,2.005" style="fill:rgb(252,242,252);fill-rule:nonzero;"/>
            </g>
            <g transform="matrix(1,0,0,1,352.206,303.263)">
                <path d="M0,4.355C-0.028,4.403 -0.4,4.359 -0.934,3.985C-1.189,3.798 -1.485,3.424 -1.481,2.931C-1.484,2.691 -1.399,2.4 -1.173,2.198C-0.951,1.997 -0.66,1.934 -0.426,1.907C0.066,1.868 0.369,1.828 0.595,1.584C0.82,1.357 0.901,1.064 0.874,0.817C0.814,0.301 0.479,0.074 0.529,0.013C0.533,-0.048 1.027,0.064 1.235,0.749C1.332,1.079 1.263,1.552 0.949,1.908C0.796,2.084 0.582,2.237 0.33,2.314C0.083,2.388 -0.154,2.397 -0.362,2.424C-1.237,2.428 -1.078,3.382 -0.688,3.71C-0.302,4.09 0.045,4.283 0,4.355" style="fill:rgb(252,242,252);fill-rule:nonzero;"/>
            </g>
            <g transform="matrix(1,0,0,1,334.766,281.237)">
                <path d="M0,-3.516C0.047,-3.542 0.348,-3.318 0.622,-2.727C0.749,-2.437 0.816,-1.965 0.566,-1.54C0.449,-1.331 0.229,-1.122 -0.068,-1.061C-0.361,-0.998 -0.644,-1.09 -0.86,-1.184C-1.306,-1.397 -1.588,-1.514 -1.905,-1.416C-2.214,-1.333 -2.431,-1.121 -2.531,-0.894C-2.739,-0.418 -2.563,-0.053 -2.637,-0.025C-2.671,0.026 -3.042,-0.32 -2.878,-1.016C-2.796,-1.35 -2.499,-1.725 -2.049,-1.874C-1.828,-1.951 -1.567,-1.976 -1.31,-1.915C-1.06,-1.857 -0.85,-1.745 -0.656,-1.663C0.103,-1.228 0.444,-2.133 0.271,-2.613C0.128,-3.135 -0.076,-3.476 0,-3.516" style="fill:rgb(252,242,252);fill-rule:nonzero;"/>
            </g>
            <g transform="matrix(1,0,0,1,351.599,278.223)">
                <path d="M0,-3.515C0.048,-3.542 0.348,-3.318 0.622,-2.726C0.749,-2.436 0.817,-1.964 0.567,-1.539C0.449,-1.331 0.229,-1.121 -0.068,-1.061C-0.361,-0.997 -0.644,-1.09 -0.86,-1.183C-1.305,-1.396 -1.587,-1.514 -1.905,-1.416C-2.213,-1.333 -2.431,-1.12 -2.531,-0.893C-2.738,-0.417 -2.563,-0.052 -2.636,-0.024C-2.671,0.027 -3.042,-0.319 -2.878,-1.015C-2.796,-1.349 -2.498,-1.724 -2.049,-1.873C-1.828,-1.951 -1.566,-1.975 -1.31,-1.914C-1.059,-1.856 -0.849,-1.744 -0.656,-1.662C0.104,-1.227 0.444,-2.132 0.271,-2.613C0.128,-3.135 -0.076,-3.475 0,-3.515" style="fill:rgb(252,242,252);fill-rule:nonzero;"/>
            </g>
            <g transform="matrix(1,0,0,1,341.222,272.087)">
                <path d="M0,20.335C-0.036,20.331 -0.03,19.965 0.011,19.305C0.052,18.646 0.128,17.692 0.233,16.517C0.442,14.166 0.772,10.917 1.159,7.342C1.247,6.454 1.292,5.59 1.17,4.784C1.057,3.977 0.744,3.252 0.289,2.663C-0.629,1.474 -1.932,0.856 -3.04,0.591C-4.163,0.321 -5.12,0.334 -5.772,0.353C-6.427,0.376 -6.791,0.416 -6.797,0.376C-6.803,0.346 -6.45,0.237 -5.789,0.15C-5.13,0.07 -4.15,-0.004 -2.959,0.231C-1.786,0.464 -0.364,1.079 0.667,2.368C1.18,3.005 1.546,3.829 1.675,4.706C1.814,5.583 1.766,6.49 1.677,7.393C1.289,10.98 0.902,14.214 0.599,16.557C0.447,17.728 0.315,18.674 0.212,19.327C0.11,19.981 0.036,20.339 0,20.335" style="fill:rgb(36,19,82);fill-rule:nonzero;"/>
            </g>
            <g transform="matrix(-0.105279,-0.994443,-0.994443,0.105279,332.616,284.883)">
                <path d="M-7.661,-8.514C-7.805,-8.514 -7.921,-5.066 -7.921,-0.811C-7.922,3.444 -7.804,6.892 -7.661,6.892C-7.517,6.892 -7.4,3.444 -7.401,-0.812C-7.4,-5.065 -7.517,-8.514 -7.661,-8.514" style="fill:rgb(36,19,82);fill-rule:nonzero;"/>
            </g>
            <g transform="matrix(1,0,0,1,378.467,289.143)">
                <path d="M0,8.519C0.129,7.662 0.104,6.845 0.585,6.09C1.541,4.584 2.899,4.962 4.215,5.625C5.555,6.3 6.816,6.705 8.272,6.074C10.548,5.089 11.615,1.658 9.444,0.044C8.741,-0.479 8.049,0.384 8.144,1.044C8.274,1.968 8.732,2.984 7.942,3.777C6.885,4.837 5.645,3.947 4.59,3.471C3.45,2.957 2.238,2.843 1.063,3.319C-0.962,4.137 -2.429,6.882 -0.822,8.736C-0.596,8.998 -0.054,8.88 0,8.519" style="fill:rgb(126,46,132);fill-rule:nonzero;"/>
            </g>
            <g transform="matrix(1,0,0,1,393.945,269.946)">
                <path d="M0,-4.845C-1.571,-3.336 -2.168,-0.988 -0.67,0.825C0.741,2.532 3.472,2.894 5.233,1.534C9.488,-1.75 5.054,-7.809 0.462,-6.555C-0.388,-6.323 -0.176,-5.112 0.664,-5.064C2.007,-4.987 3.443,-4.936 4.516,-3.995C5.668,-2.985 5.693,-1.275 4.748,-0.114C2.245,2.964 -2.101,-1.567 0.527,-4.319C0.859,-4.665 0.347,-5.178 0,-4.845" style="fill:rgb(255,112,129);fill-rule:nonzero;"/>
            </g>
            <g transform="matrix(1,0,0,1,327.816,266.946)">
                <path d="M0,-4.844C-1.571,-3.335 -2.169,-0.987 -0.67,0.826C0.741,2.533 3.471,2.895 5.233,1.534C9.488,-1.749 5.053,-7.809 0.462,-6.554C-0.388,-6.322 -0.176,-5.111 0.664,-5.063C2.006,-4.986 3.443,-4.935 4.516,-3.994C5.667,-2.984 5.692,-1.275 4.748,-0.113C2.245,2.965 -2.102,-1.567 0.527,-4.318C0.858,-4.664 0.347,-5.177 0,-4.844" style="fill:rgb(124,171,255);fill-rule:nonzero;"/>
            </g>
            <g transform="matrix(1,0,0,1,305.017,311.168)">
                <path d="M0,-11.169C1.083,-7.152 2.273,-3.182 3.511,0.79C3.809,1.745 4.713,2.045 5.534,1.487C8.762,-0.705 11.991,-2.861 15.049,-5.289C15.637,-5.757 15.508,-6.698 14.927,-7.097C11.347,-9.555 6.51,-13.182 1.967,-13.208C0.812,-13.214 0.004,-11.588 1.176,-10.912C3.009,-9.855 5.207,-9.478 7.165,-8.663C9.426,-7.724 11.663,-6.621 13.659,-5.196C13.704,-5.856 13.749,-6.514 13.793,-7.173C10.376,-5.069 7.157,-2.71 3.907,-0.358L5.826,0.025C4.44,-3.898 3.017,-7.792 1.479,-11.657C1.155,-12.474 -0.23,-12.026 0,-11.169" style="fill:rgb(255,112,129);fill-rule:nonzero;"/>
            </g>
            <g transform="matrix(0.118175,0.992993,0.992993,-0.118175,402.386,278.365)">
                <path d="M4.288,-4.185C5.011,-1.446 5.632,1.459 5.865,4.284C5.95,5.322 4.509,5.454 4.288,4.472C3.674,1.761 3.391,-1.146 3.263,-3.92C3.237,-4.476 4.124,-4.806 4.288,-4.185" style="fill:rgb(251,197,128);fill-rule:nonzero;"/>
            </g>
            <g transform="matrix(0.118175,0.992993,0.992993,-0.118175,307.729,278.364)">
                <path d="M4.289,-4.186C5.012,-1.446 5.633,1.459 5.866,4.283C5.951,5.322 4.51,5.454 4.289,4.471C3.675,1.761 3.392,-1.146 3.264,-3.921C3.238,-4.477 4.125,-4.806 4.289,-4.186" style="fill:rgb(251,197,128);fill-rule:nonzero;"/>
            </g>
            <g transform="matrix(1,0,0,1,322.88,280.662)">
                <path d="M0,-2.145C-0.048,-2.187 -0.096,-2.23 -0.144,-2.272C-0.777,-2.832 -1.816,-2.943 -2.431,-2.272C-3.054,-1.594 -3.031,-0.664 -2.431,0.015L-2.304,0.159C-1.737,0.798 -0.57,0.78 0,0.159C0.567,-0.459 0.681,-1.542 0,-2.145" style="fill:rgb(36,19,82);fill-rule:nonzero;"/>
            </g>
            <g transform="matrix(0.999056,-0.043445,-0.043445,-0.999056,363.337,291.745)">
                <path d="M-0.241,-0.005C-0.37,0.007 -0.381,2.473 -0.502,5.534C-0.622,8.6 -0.4,11.104 -0.241,11.089C-0.112,11.077 -0.101,8.612 0.02,5.55C0.14,2.485 -0.082,-0.02 -0.241,-0.005" style="fill:rgb(36,19,82);fill-rule:nonzero;"/>
            </g>
            <g transform="matrix(0.962824,-0.27013,-0.27013,-0.962824,379.424,269.635)">
                <path d="M0.078,1.072L7.793,1.072L7.852,-0.343L0.011,-0.551L0.078,1.072Z" style="fill:rgb(36,19,82);fill-rule:nonzero;"/>
            </g>
            <g transform="matrix(0,-1,-1,0,383.028,267.348)">
                <path d="M-0.922,-0.921C-1.43,-0.921 -1.843,-0.509 -1.843,0C-1.843,0.509 -1.43,0.922 -0.922,0.922C-0.412,0.922 0.001,0.509 0.001,0C0.001,-0.509 -0.412,-0.921 -0.922,-0.921" style="fill:rgb(230,226,235);fill-rule:nonzero;"/>
            </g>
            <g transform="matrix(0.771771,-0.635901,-0.635901,-0.771771,354.104,247.547)">
                <path d="M-0.403,-0.145C-0.541,-0.125 -0.647,0.128 -0.663,0.479C-0.68,0.827 -0.552,1.142 -0.403,1.121C-0.265,1.102 -0.158,0.848 -0.142,0.497C-0.126,0.15 -0.254,-0.165 -0.403,-0.145" style="fill:rgb(36,19,82);fill-rule:nonzero;"/>
            </g>
            <g transform="matrix(0.771383,-0.636371,-0.636371,-0.771383,347.343,248.497)">
                <path d="M-0.403,-0.145C-0.541,-0.125 -0.647,0.128 -0.663,0.48C-0.68,0.827 -0.551,1.142 -0.403,1.122C-0.265,1.102 -0.158,0.848 -0.142,0.497C-0.126,0.15 -0.255,-0.165 -0.403,-0.145" style="fill:rgb(36,19,82);fill-rule:nonzero;"/>
            </g>
            <g transform="matrix(1,0,0,1,340.093,237.197)">
                <path d="M0,-19.328L0,-4.524L-9.892,-4.524L-10.207,1.092L-16.02,-4.848L-37.799,-4.848L-35.881,-20.42L0,-19.328Z" style="fill:rgb(251,197,128);fill-rule:nonzero;"/>
            </g>
            <g transform="matrix(-0.00783123,-0.999969,-0.999969,0.00783123,321.852,207.533)">
                <path d="M-14.689,-14.744C-14.413,-5.021 -14.27,4.77 -14.4,14.496C-14.403,14.682 -14.684,14.684 -14.689,14.498C-14.971,4.775 -14.981,-5.016 -14.858,-14.742C-14.857,-14.851 -14.692,-14.853 -14.689,-14.744" style="fill:rgb(230,226,235);fill-rule:nonzero;"/>
            </g>
            <g transform="matrix(-0.00783123,-0.999969,-0.999969,0.00783123,321.852,210.376)">
                <path d="M-14.689,-14.744C-14.414,-5.021 -14.27,4.77 -14.4,14.496C-14.403,14.682 -14.684,14.684 -14.689,14.498C-14.971,4.775 -14.982,-5.016 -14.858,-14.742C-14.857,-14.851 -14.692,-14.853 -14.689,-14.744" style="fill:rgb(230,226,235);fill-rule:nonzero;"/>
            </g>
            <g transform="matrix(-0.0127417,-0.999919,-0.999919,0.0127417,327.487,219.009)">
                <path d="M-9.054,-9.109C-8.787,-3.154 -8.657,2.9 -8.765,8.859C-8.769,9.045 -9.046,9.049 -9.054,8.863C-9.315,2.908 -9.338,-3.147 -9.223,-9.107C-9.221,-9.216 -9.058,-9.218 -9.054,-9.109" style="fill:rgb(230,226,235);fill-rule:nonzero;"/>
            </g>
        </g>
        <g id="Designed-by-freepik" serif:id="Designed by freepik">
        </g>
    </g>
</svg>
