<?xml version="1.0" encoding="UTF-8" standalone="no"?>
<!DOCTYPE svg PUBLIC "-//W3C//DTD SVG 1.1//EN" "http://www.w3.org/Graphics/SVG/1.1/DTD/svg11.dtd">
<svg width="100%" height="100%" viewBox="0 0 675 850" version="1.1" xmlns="http://www.w3.org/2000/svg" xmlns:xlink="http://www.w3.org/1999/xlink" xml:space="preserve" xmlns:serif="http://www.serif.com/" style="fill-rule:evenodd;clip-rule:evenodd;stroke-linejoin:round;stroke-miterlimit:2;">
    <g transform="matrix(1,0,0,1,-1256,-528)">
        <g transform="matrix(4.16667,0,0,4.16667,0,0)">
            <g>
                <clipPath id="_clip1">
                    <rect x="0" y="1.001" width="750" height="499.998"/>
                </clipPath>
                <g clip-path="url(#_clip1)">
                    <path d="M723.952,310.247C718.018,310.247 712.063,309.54 706.249,308.19L706.249,87.101L497.689,87.101L295.48,87.101C269.872,63.927 250.773,34.297 243.98,1.001L247.921,1.001L250.766,6.562C253.84,4.685 256.937,2.828 260.043,1.001L750,1.001L750,306.33C741.706,308.813 733.114,310.195 724.385,310.246C724.24,310.246 724.096,310.247 723.952,310.247Z" style="fill:url(#_Linear2);"/>
                </g>
            </g>
            <path d="M430.322,204.628C421.603,197.95 409.539,195.892 399.099,199.301C388.658,202.71 380.135,211.491 377.038,222.028C375.607,226.895 374.326,233.122 369.382,234.257C366.6,234.897 363.815,233.499 361.164,232.441C350.731,228.278 338.385,229.253 328.734,235.001C319.083,240.749 312.347,251.14 311.037,262.296C309.785,272.961 313.298,283.755 318.858,292.942C333.014,316.33 360.741,325.548 388.309,325.56C422.683,325.574 440.312,304.664 449.111,278.78C457.91,252.897 450.069,223.534 430.322,204.628Z" style="fill:rgb(235,224,239);fill-rule:nonzero;"/>
            <path d="M429.155,312.349C431.045,309.03 432.039,304.276 432.799,300.329C433.558,296.381 432.197,291.722 428.61,289.907C426.543,288.861 424.094,288.902 421.806,289.267C415.684,290.245 409.94,293.44 405.88,298.126C406.707,294.766 407.162,290.416 404.212,288.606C401.478,286.927 397.982,288.863 395.564,290.973C390.639,295.273 386.589,300.571 383.732,306.453C377.855,299.927 368.468,296.773 359.843,298.424C351.219,300.075 343.66,306.474 340.608,314.708C340.608,314.708 370.534,329.945 397.717,325.252C423.384,320.823 429.155,312.349 429.155,312.349Z" style="fill:rgb(208,196,221);fill-rule:nonzero;"/>
            <path d="M326.252,269.457C325.776,271.775 325.383,274.098 325.015,276.437C324.907,277.122 325.383,277.574 326.058,277.48C328.261,277.173 330.446,276.882 332.613,276.375C333.116,276.256 333.326,275.645 333.083,275.218C331.82,272.996 330.229,269.736 327.727,268.711C326.995,268.413 326.406,269.383 326.75,269.982C327.35,271.027 328.461,271.772 329.263,272.671C330.18,273.7 331.066,274.798 331.724,276.012C331.951,275.618 332.177,275.223 332.404,274.829C330.111,275.026 327.87,275.438 325.607,275.844C325.965,276.117 326.323,276.389 326.68,276.662C326.938,274.308 327.167,271.963 327.315,269.6C327.353,268.997 326.375,268.857 326.252,269.457Z" style="fill:rgb(242,116,131);fill-rule:nonzero;"/>
            <path d="M397.942,272.168C398.782,270.398 400.836,269.17 402.738,270.373C403.985,271.161 404.139,272.527 404.684,273.733C405.273,275.037 405.933,276.112 407.34,276.622C410.168,277.646 413.016,275.353 412.621,272.396C412.479,271.324 410.986,271.265 410.907,272.396C409.482,275.446 408.041,275.806 406.584,273.475C406.331,272.855 406.087,272.231 405.853,271.603C405.609,271.073 405.411,270.55 405.054,270.075C404.344,269.126 403.279,268.412 402.104,268.192C399.531,267.712 397.546,269.328 396.901,271.73C396.739,272.333 397.658,272.768 397.942,272.168Z" style="fill:rgb(252,192,126);fill-rule:nonzero;"/>
            <path d="M410.811,206.396C410.036,204.722 410.544,202.616 412.299,201.848C413.592,201.282 414.764,201.814 415.996,202.244C417.473,202.759 418.993,203.079 420.423,202.245C423.043,200.718 423.026,196.922 420.453,195.405C419.618,194.912 418.713,196.064 419.413,196.752C419.843,197.174 420.653,198.214 420.567,198.816C420.37,200.209 419.032,201.003 417.732,200.843C416.879,200.738 416.068,200.243 415.247,200.008C413.867,199.612 412.48,199.61 411.198,200.33C408.703,201.73 408.235,204.71 409.828,206.971C410.252,207.574 411.12,207.063 410.811,206.396Z" style="fill:rgb(124,55,144);fill-rule:nonzero;"/>
            <path d="M362.908,240.906C363.21,242.39 364.808,245.758 366.483,246.163C367.372,246.377 368.003,245.805 368.698,245.325C369.988,244.434 371.263,243.523 372.539,242.614C372.953,242.319 373.199,241.752 372.89,241.277C371.761,239.539 370.631,237.8 369.501,236.062C369.233,235.648 368.612,235.394 368.164,235.711C366.764,236.702 365.249,237.617 363.982,238.777C363.206,239.487 364.194,240.659 365.073,240.19C366.512,239.422 367.819,238.341 369.151,237.399C368.705,237.282 368.26,237.165 367.814,237.048C368.943,238.787 370.073,240.525 371.203,242.264C371.319,241.818 371.436,241.372 371.553,240.926C370.787,241.472 370.018,242.015 369.254,242.563C368.809,242.882 367.323,244.269 366.82,244.163C366.259,244.045 365.5,242.665 365.157,242.247C364.625,241.602 364.122,240.992 363.455,240.485C363.172,240.27 362.85,240.624 362.908,240.906Z" style="fill:rgb(252,192,126);fill-rule:nonzero;"/>
            <path d="M407.054,179.081C407.356,180.565 408.954,183.933 410.628,184.338C411.518,184.553 412.149,183.98 412.844,183.5C414.133,182.609 415.409,181.698 416.685,180.79C417.1,180.495 417.345,179.927 417.036,179.452C415.907,177.714 414.777,175.976 413.647,174.237C413.378,173.823 412.758,173.569 412.31,173.886C410.91,174.877 409.395,175.792 408.127,176.952C407.352,177.662 408.34,178.834 409.218,178.366C410.658,177.597 411.965,176.517 413.296,175.574C412.851,175.457 412.406,175.34 411.959,175.224C413.089,176.962 414.218,178.7 415.348,180.439C415.465,179.993 415.582,179.547 415.699,179.102C414.933,179.647 414.164,180.19 413.4,180.738C412.954,181.058 411.469,182.444 410.966,182.338C410.405,182.22 409.646,180.84 409.302,180.422C408.771,179.777 408.268,179.167 407.601,178.66C407.319,178.445 406.996,178.799 407.054,179.081Z" style="fill:rgb(242,116,131);fill-rule:nonzero;"/>
            <path d="M385.466,234.974C385.466,234.974 383.447,232.943 383.173,232.64C381.586,230.877 383.166,231.876 383.88,232.071C384.515,232.245 382.708,227.863 383.29,228.022C383.872,228.182 384.529,230.312 384.529,230.312C384.529,230.312 383.759,227.347 384.4,227.955C385.039,228.564 385.642,230.251 385.642,230.251C385.642,230.251 384.963,227.164 385.508,227.804C386.053,228.445 386.434,229.587 386.434,229.587C386.434,229.587 386.096,226.914 386.582,227.651C387.069,228.389 390.266,234.422 390.266,234.422L385.466,234.974Z" style="fill:rgb(248,172,171);fill-rule:nonzero;"/>
            <path d="M382.427,236.33C382.427,236.33 384.448,234.298 384.72,233.996C386.307,232.233 384.727,233.231 384.013,233.427C383.378,233.6 385.185,229.218 384.603,229.378C384.021,229.537 383.365,231.667 383.365,231.667C383.365,231.667 384.134,228.702 383.494,229.311C382.854,229.919 382.251,231.606 382.251,231.606C382.251,231.606 382.93,228.519 382.385,229.16C381.84,229.8 381.459,230.942 381.459,230.942C381.459,230.942 381.797,228.269 381.311,229.007C380.825,229.745 377.628,235.778 377.628,235.778L382.427,236.33Z" style="fill:rgb(249,189,191);fill-rule:nonzero;"/>
            <path d="M421.871,246.096C422.637,245.78 423.551,245.851 424.259,246.28C424.967,246.71 425.452,247.489 425.525,248.313C425.579,248.934 425.416,249.549 425.297,250.16C425.179,250.771 425.109,251.421 425.338,252.001C425.567,252.579 426.185,253.045 426.791,252.908C427.038,252.851 427.272,252.703 427.523,252.731C427.86,252.769 428.09,253.144 428.046,253.481C428.003,253.818 427.746,254.096 427.447,254.255C427.147,254.416 426.806,254.475 426.471,254.534C426.837,254.911 427.137,255.351 427.354,255.83C427.435,256.008 427.505,256.21 427.441,256.397C427.353,256.645 427.043,256.757 426.783,256.709C426.523,256.662 426.301,256.497 426.091,256.335C426.455,256.544 426.357,257.148 426.014,257.39C425.671,257.632 425.216,257.621 424.797,257.597C423.896,257.548 422.938,257.48 422.208,256.949C421.515,256.441 421.155,255.601 420.897,254.782C420.352,253.055 420.121,251.229 420.219,249.421" style="fill:rgb(34,30,83);fill-rule:nonzero;"/>
            <path d="M410.41,287.661C410.41,287.661 411.545,272.635 411.054,271.49C410.563,270.344 408.396,262.87 408.396,262.87L413.072,255.36L414.286,255.163L414.381,257.311C414.452,258.914 415.783,260.048 417.241,260.048C417.666,260.048 418.102,259.953 418.52,259.743L418.591,259.707C419.588,259.208 420.201,258.174 420.168,257.059C420.152,256.516 420.137,255.891 420.125,255.243L423.648,258.29C426.19,260.492 427.693,263.655 427.791,267.015L428.382,287.062L426.508,287.124C426.612,286.733 426.715,286.347 426.818,285.963L419.062,286.382C419.126,286.113 419.065,285.869 418.925,285.836C418.915,285.833 418.904,285.832 418.893,285.832C418.761,285.832 418.615,286.013 418.556,286.261C418.544,286.312 418.536,286.362 418.533,286.41L411.972,286.764C411.938,286.996 411.896,287.281 411.846,287.613L410.41,287.661Z" style="fill:url(#_Linear3);"/>
            <path d="M391.237,214.539L392.14,230.608L401.33,230.608L402.722,236.095L404.29,230.608L417.709,230.608C418.4,230.608 417.709,209.651 417.709,209.651L391.237,214.539Z" style="fill:white;fill-rule:nonzero;"/>
            <path d="M358.139,263.664C358.03,263.326 358.683,256.582 350.937,256.763C343.675,256.932 338.867,259.115 335.777,262.538L338.384,273.076L339.313,290.809L359.885,288.918L358.139,263.664Z" style="fill:url(#_Linear4);"/>
            <path d="M336.244,261.817C336.244,261.817 325.994,276.982 326.959,288.951C327.923,300.92 342.153,289.555 343.72,288.226C345.288,286.896 346.862,284.599 346.862,284.599L345.914,279.038L336.244,283.51L339.79,276.555L336.244,261.817Z" style="fill:url(#_Linear5);"/>
            <path d="M352.523,256.72C352.523,256.72 361.689,252.056 366.271,247.715C370.853,243.374 379.031,233.515 379.031,233.515L382.79,236.612C382.79,236.612 374.446,250.306 369.307,255.96C365.948,259.66 357.557,267.625 357.557,267.625L352.523,256.72Z" style="fill:url(#_Linear6);"/>
            <path d="M414.407,254.805C414.407,254.805 405.576,250.311 401.161,246.128C396.745,241.946 388.149,231.248 388.149,231.248L385.245,235.431C385.245,235.431 393.285,248.625 398.236,254.074C401.473,257.636 409.557,265.312 409.557,265.312L414.407,254.805Z" style="fill:url(#_Linear7);"/>
            <path d="M342.665,253.664C340.544,254.433 341.288,252.013 341.213,250.985C341.138,249.957 341.197,248.882 340.772,247.943C340.433,247.193 339.792,246.532 339.79,245.71C339.788,245.085 340.164,244.528 340.323,243.923C340.54,243.091 340.337,242.203 340.477,241.354C340.744,239.727 342.432,238.472 344.067,238.686C344.885,238.792 345.674,239.213 346.492,239.101C347.391,238.977 348.067,238.247 348.85,237.787C349.945,237.144 351.366,237.041 352.495,237.619C353.625,238.198 354.386,239.48 354.248,240.741C354.111,242.002 353.017,243.123 351.75,243.193C351.011,243.234 350.297,242.952 349.579,242.769C348.862,242.586 348.043,242.519 347.432,242.936C346.66,243.462 346.328,244.675 345.397,244.761C344.906,244.807 344.465,244.495 344.014,244.296C343.562,244.097 342.931,244.059 342.675,244.48C342.463,244.829 342.639,245.271 342.686,245.676C342.772,246.417 342.598,247.156 341.928,247.483C341.658,249.527 342.275,251.488 342.884,253.459" style="fill:rgb(87,37,56);fill-rule:nonzero;"/>
            <path d="M342.03,241.666L341.766,247.72C341.766,247.72 339.906,247.697 339.907,249.404C339.91,251.549 341.923,251.19 341.923,251.19C341.923,251.19 341.507,255.283 347.123,255.621C353.692,256.015 352.295,245.748 352.041,240.929L342.03,241.666Z" style="fill:rgb(249,189,191);fill-rule:nonzero;"/>
            <path d="M421.382,241.96L421.581,246.506C421.581,246.506 423.421,246.483 423.419,248.172C423.417,250.295 421.425,249.939 421.425,249.939C421.425,249.939 421.837,253.989 416.281,254.323C410.637,254.663 410.935,247.049 411.277,241.915C411.354,240.741 412.371,239.857 413.545,239.943L419.878,240.41C420.699,240.47 421.347,241.136 421.382,241.96Z" style="fill:rgb(249,189,191);fill-rule:nonzero;"/>
            <path d="M349.367,250.901L349.041,258.283C348.95,260.354 346.756,261.641 344.903,260.714L344.831,260.678C343.834,260.179 343.221,259.145 343.254,258.031C343.333,255.437 343.361,250.966 343.361,250.966L349.367,250.901Z" style="fill:rgb(249,189,191);fill-rule:nonzero;"/>
            <path d="M347.981,250.177C347.991,250.17 348.017,250.258 348.142,250.327C348.261,250.395 348.501,250.42 348.682,250.237C348.77,250.15 348.841,250.026 348.877,249.883C348.914,249.74 348.919,249.577 348.911,249.405C348.887,249.054 348.862,248.672 348.835,248.271C348.784,247.466 348.744,246.737 348.72,246.209C348.708,245.945 348.701,245.731 348.698,245.583C348.695,245.435 348.697,245.353 348.705,245.352C348.712,245.352 348.725,245.433 348.741,245.58C348.757,245.727 348.777,245.94 348.799,246.204C348.843,246.73 348.895,247.459 348.947,248.265C348.97,248.666 348.993,249.048 349.014,249.401C349.019,249.578 349.012,249.751 348.967,249.908C348.922,250.065 348.84,250.2 348.735,250.294C348.632,250.389 348.503,250.439 348.391,250.439C348.279,250.44 348.185,250.407 348.12,250.364C347.988,250.274 347.977,250.175 347.981,250.177Z" style="fill:rgb(245,142,140);fill-rule:nonzero;"/>
            <path d="M348.581,251.605C348.587,251.615 348.451,251.709 348.191,251.758C347.937,251.808 347.551,251.79 347.198,251.584C346.845,251.377 346.64,251.049 346.558,250.804C346.474,250.555 346.489,250.389 346.5,250.39C346.519,250.387 346.533,250.546 346.632,250.775C346.727,251.001 346.929,251.297 347.254,251.488C347.579,251.677 347.936,251.708 348.181,251.68C348.428,251.654 348.574,251.587 348.581,251.605Z" style="fill:rgb(245,142,140);fill-rule:nonzero;"/>
            <path d="M346.75,250.3C346.741,250.33 346.56,250.292 346.376,250.4C346.189,250.501 346.127,250.676 346.098,250.668L346.108,250.537C346.138,250.46 346.211,250.365 346.322,250.303C346.432,250.241 346.551,250.227 346.632,250.241L346.75,250.3Z" style="fill:rgb(245,142,140);fill-rule:nonzero;"/>
            <path d="M349.476,255.143C349.48,255.15 349.403,255.201 349.254,255.281C349.106,255.36 348.885,255.461 348.599,255.558C348.033,255.754 347.19,255.905 346.273,255.776C345.355,255.647 344.586,255.269 344.096,254.924C343.849,254.752 343.663,254.593 343.543,254.476C343.423,254.359 343.363,254.288 343.368,254.283C343.382,254.267 343.641,254.536 344.14,254.859C344.634,255.182 345.391,255.54 346.288,255.666C347.184,255.792 348.011,255.658 348.576,255.483C349.144,255.31 349.467,255.125 349.476,255.143Z" style="fill:rgb(245,142,140);fill-rule:nonzero;"/>
            <path d="M341.067,250.24C341.055,250.225 341.218,250.16 341.295,249.929C341.333,249.817 341.343,249.669 341.286,249.526C341.235,249.384 341.088,249.262 340.922,249.286C340.77,249.299 340.687,249.486 340.749,249.59L340.654,249.626C340.567,249.114 340.521,248.751 340.544,248.746C340.567,248.742 340.654,249.098 340.756,249.606L340.813,249.892L340.66,249.642C340.553,249.468 340.68,249.201 340.906,249.176C341.019,249.16 341.128,249.194 341.212,249.255L341.382,249.49C341.444,249.662 341.422,249.834 341.37,249.957C341.317,250.081 341.237,250.162 341.174,250.2L341.067,250.24Z" style="fill:rgb(245,142,140);fill-rule:nonzero;"/>
            <path d="M346.157,247.137C346.096,247.138 346.043,246.894 346.041,246.593C346.039,246.291 346.087,246.046 346.148,246.046C346.21,246.046 346.262,246.29 346.265,246.591C346.267,246.892 346.219,247.137 346.157,247.137Z" style="fill:rgb(75,45,129);fill-rule:nonzero;"/>
            <path d="M350.807,246.909C350.746,246.911 350.691,246.707 350.685,246.455C350.68,246.203 350.724,245.997 350.786,245.996C350.848,245.994 350.903,246.197 350.909,246.45C350.914,246.702 350.869,246.908 350.807,246.909Z" style="fill:rgb(75,45,129);fill-rule:nonzero;"/>
            <path d="M341.859,247.728C341.736,248.097 341.614,248.507 341.766,248.866C341.918,249.225 342.485,249.398 342.696,249.071C342.779,248.943 342.783,248.781 342.784,248.629C342.793,247.582 342.801,246.534 342.81,245.487C344.319,245.218 345.62,244.016 346.007,242.533C346.805,243.021 347.86,243.056 348.689,242.623C349.031,242.444 349.374,242.183 349.757,242.235C350.216,242.296 350.486,242.77 350.863,243.039C351.519,243.506 352.574,243.217 352.899,242.48C353.236,241.719 352.78,240.783 352.068,240.352C351.171,239.808 350.04,239.913 348.999,240.037C347.075,240.264 345.152,240.491 343.228,240.718C342.86,240.762 342.471,240.814 342.18,241.045C341.881,241.282 341.743,241.665 341.634,242.03C341.203,243.475 341.005,244.988 341.047,246.494C341.06,246.957 341.141,247.494 341.544,247.721" style="fill:rgb(87,37,56);fill-rule:nonzero;"/>
            <path d="M346.792,244.964C346.822,245.116 346.493,245.306 346.059,245.39C345.625,245.474 345.249,245.418 345.22,245.267C345.191,245.116 345.519,244.925 345.953,244.842C346.388,244.758 346.763,244.813 346.792,244.964Z" style="fill:rgb(87,37,56);fill-rule:nonzero;"/>
            <path d="M351.368,244.898C351.356,245.052 351.07,245.156 350.727,245.131C350.385,245.106 350.116,244.961 350.127,244.808C350.139,244.654 350.425,244.549 350.768,244.575C351.11,244.6 351.379,244.744 351.368,244.898Z" style="fill:rgb(87,37,56);fill-rule:nonzero;"/>
            <path d="M337.056,214.125L335.777,230.322L358.794,230.405L358.794,235.224L362.203,230.322L370.538,230.268L371.794,212.433L337.056,214.125Z" style="fill:rgb(252,192,126);fill-rule:nonzero;"/>
            <path d="M344.498,268.433C344.498,268.433 346.652,275.907 346.893,276.206C347.134,276.503 349.348,276.79 349.348,276.79L349.508,277.48L349.009,277.595C348.781,277.647 348.628,277.862 348.653,278.094C348.679,278.34 348.894,278.523 349.141,278.507L349.736,278.471L350.58,282.284L347.813,283.24L347.943,283.994L356.39,282.946L356.1,282.051L352.934,281.902L352.331,278.004L352.704,277.918C353.013,277.848 353.205,277.54 353.134,277.232C353.063,276.923 352.755,276.731 352.447,276.801L352.154,276.869L352.05,276.047L354.08,274.303L352.801,266.728L349.185,265.846L347.322,266.277L344.498,268.433Z" style="fill:rgb(251,185,137);fill-rule:nonzero;"/>
            <path d="M347.255,261.621C347.255,261.621 348.796,262.503 348.81,262.865C348.822,263.227 348.393,263.8 348.393,263.8L348.52,264.354L350.064,264.472L350.24,265.234L349.065,265.505L349.213,266.456L347.331,266.889L347.148,266.093L345.909,266.087L345.764,265.464L347.028,264.808L346.954,264.333C346.954,264.333 346.138,263.555 346.124,263.339C346.109,263.124 346.238,262.147 347.255,261.621Z" style="fill:rgb(251,185,137);fill-rule:nonzero;"/>
            <path d="M345.616,269.798C345.616,269.798 344.115,268.219 342.432,269.075C340.75,269.929 341.278,272.6 342.621,273.687C343.965,274.774 347.007,276.141 347.007,276.141L346.693,274.776C346.693,274.776 343.527,273.639 342.674,271.829C342.391,271.228 342.275,269.532 343.969,269.863C345.662,270.192 345.812,271.599 345.812,271.599L345.616,269.798Z" style="fill:rgb(251,185,137);fill-rule:nonzero;"/>
            <path d="M352.06,268.041C352.06,268.041 352.594,265.928 354.48,265.848C356.365,265.769 357.214,268.356 356.576,269.962C355.937,271.568 353.956,274.251 353.956,274.251L353.56,272.907C353.56,272.907 355.763,270.364 355.618,268.368C355.571,267.706 354.84,266.17 353.526,267.29C352.212,268.407 352.771,269.708 352.771,269.708L352.06,268.041Z" style="fill:rgb(251,185,137);fill-rule:nonzero;"/>
            <path d="M348.275,268.451L347.105,269.258L347.636,270.153L348.448,269.682L349.438,273.431L350.568,273.133L349.263,268.19L348.275,268.451Z" style="fill:rgb(226,165,39);fill-rule:nonzero;"/>
            <path d="M345.594,279.085C345.594,279.085 347.867,276.627 348.314,276.691C348.824,276.763 348.707,276.609 348.901,277.507C349.054,278.219 353.626,276.464 353.415,277.099C353.203,277.733 350.807,278.331 350.807,278.331C350.807,278.331 354.134,277.659 353.422,278.331C352.71,279.001 350.807,279.565 350.807,279.565C350.807,279.565 354.263,279.001 353.522,279.565C352.781,280.129 351.494,280.481 351.494,280.481C351.494,280.481 354.472,280.27 353.626,280.763C352.781,281.256 345.914,284.427 345.914,284.427L345.594,279.085Z" style="fill:rgb(249,189,191);fill-rule:nonzero;"/>
            <path d="M414.055,249.929L414.381,257.311C414.473,259.381 416.666,260.67 418.52,259.743L418.591,259.707C419.588,259.208 420.201,258.174 420.168,257.059C420.089,254.465 420.061,249.995 420.061,249.995L414.055,249.929Z" style="fill:rgb(249,189,191);fill-rule:nonzero;"/>
            <path d="M415.586,249.515C415.577,249.508 415.552,249.593 415.431,249.659C415.317,249.724 415.086,249.749 414.912,249.572C414.827,249.488 414.759,249.369 414.723,249.231C414.688,249.093 414.683,248.937 414.691,248.771C414.713,248.432 414.739,248.065 414.764,247.679C414.813,246.903 414.852,246.201 414.875,245.692C414.886,245.438 414.894,245.231 414.896,245.089C414.899,244.946 414.897,244.867 414.889,244.867C414.882,244.866 414.87,244.944 414.855,245.086C414.839,245.228 414.82,245.433 414.799,245.687C414.757,246.195 414.706,246.896 414.657,247.672C414.634,248.059 414.612,248.427 414.592,248.767C414.586,248.937 414.594,249.104 414.637,249.255C414.68,249.406 414.76,249.536 414.86,249.627C414.959,249.718 415.083,249.767 415.192,249.767C415.3,249.768 415.39,249.735 415.453,249.694C415.579,249.608 415.59,249.512 415.586,249.515Z" style="fill:rgb(245,142,140);fill-rule:nonzero;"/>
            <path d="M415.009,250.89C415.003,250.899 415.134,250.991 415.384,251.038C415.628,251.085 416,251.068 416.341,250.87C416.681,250.67 416.878,250.355 416.957,250.118C417.039,249.878 417.024,249.719 417.013,249.719C416.994,249.717 416.982,249.87 416.886,250.09C416.794,250.309 416.6,250.594 416.287,250.777C415.974,250.959 415.63,250.989 415.395,250.962C415.156,250.937 415.016,250.872 415.009,250.89Z" style="fill:rgb(245,142,140);fill-rule:nonzero;"/>
            <path d="M416.772,249.633C416.781,249.661 416.955,249.625 417.132,249.729C417.313,249.827 417.372,249.995 417.401,249.988L417.391,249.861C417.362,249.787 417.291,249.696 417.185,249.635C417.079,249.576 416.964,249.563 416.886,249.576L416.772,249.633Z" style="fill:rgb(245,142,140);fill-rule:nonzero;"/>
            <path d="M414.18,254.152C414.177,254.158 414.25,254.208 414.392,254.283C414.533,254.358 414.745,254.456 415.016,254.547C415.555,254.735 416.36,254.878 417.234,254.754C418.108,254.632 418.841,254.272 419.308,253.943C419.543,253.779 419.72,253.627 419.834,253.516C419.95,253.405 420.007,253.336 420.002,253.333C419.989,253.317 419.742,253.573 419.266,253.88C418.795,254.189 418.074,254.53 417.219,254.65C416.365,254.77 415.577,254.642 415.038,254.476C414.496,254.311 414.189,254.133 414.18,254.152Z" style="fill:rgb(245,142,140);fill-rule:nonzero;"/>
            <path d="M422.246,249.575C422.258,249.561 422.101,249.498 422.027,249.275C421.991,249.167 421.981,249.025 422.036,248.888C422.084,248.751 422.226,248.633 422.386,248.656C422.533,248.668 422.613,248.849 422.552,248.949L422.645,248.983C422.728,248.49 422.773,248.14 422.75,248.136C422.728,248.132 422.645,248.475 422.546,248.965L422.492,249.24L422.639,248.999C422.742,248.831 422.62,248.574 422.402,248.55C422.292,248.534 422.188,248.567 422.107,248.626L421.944,248.852C421.883,249.019 421.905,249.184 421.955,249.302C422.006,249.422 422.083,249.499 422.144,249.537L422.246,249.575Z" style="fill:rgb(245,142,140);fill-rule:nonzero;"/>
            <path d="M417.343,246.586C417.403,246.587 417.453,246.352 417.455,246.062C417.457,245.771 417.411,245.536 417.352,245.535C417.292,245.535 417.243,245.77 417.241,246.06C417.238,246.35 417.285,246.586 417.343,246.586Z" style="fill:rgb(75,45,129);fill-rule:nonzero;"/>
            <path d="M412.865,246.367C412.923,246.368 412.976,246.172 412.982,245.929C412.988,245.686 412.944,245.488 412.884,245.486C412.826,245.485 412.773,245.681 412.767,245.924C412.761,246.167 412.805,246.365 412.865,246.367Z" style="fill:rgb(75,45,129);fill-rule:nonzero;"/>
            <path d="M421.484,247.155C421.602,247.511 421.72,247.906 421.574,248.251C421.426,248.597 420.881,248.765 420.677,248.449C420.598,248.326 420.594,248.17 420.593,248.023C420.584,247.014 420.576,246.005 420.568,244.997C419.115,244.738 417.861,243.58 417.489,242.151C416.72,242.621 415.703,242.655 414.905,242.237C414.576,242.065 414.245,241.814 413.876,241.864C413.434,241.923 413.174,242.38 412.81,242.639C412.179,243.088 411.162,242.81 410.849,242.101C410.525,241.367 410.964,240.465 411.65,240.05C412.514,239.526 413.603,239.628 414.606,239.747C416.459,239.965 418.312,240.185 420.164,240.403C420.52,240.445 420.895,240.495 421.174,240.718C421.462,240.946 421.595,241.314 421.701,241.667C422.115,243.058 422.307,244.516 422.265,245.967C422.252,246.412 422.175,246.93 421.787,247.149" style="fill:rgb(34,30,83);fill-rule:nonzero;"/>
            <path d="M418.015,244.152C417.992,244.204 417.867,244.197 417.725,244.199C417.583,244.198 417.458,244.207 417.435,244.156C417.41,244.107 417.534,244 417.724,243.999C417.913,243.997 418.039,244.104 418.015,244.152Z" style="fill:rgb(34,30,83);fill-rule:nonzero;"/>
            <path d="M412.902,244.068L412.743,244.173L412.551,244.18C412.505,244.149 412.546,244.025 412.681,243.981C412.817,243.939 412.921,244.017 412.902,244.068Z" style="fill:rgb(34,30,83);fill-rule:nonzero;"/>
            <path d="M416.342,251.39C416.064,251.39 415.853,251.231 415.848,251.043C416.008,251.018 416.178,250.965 416.341,250.87C416.605,250.715 416.783,250.49 416.886,250.286C416.928,250.299 416.97,250.316 417.01,250.337C417.266,250.466 417.242,250.985 416.775,251.265C416.625,251.353 416.476,251.39 416.342,251.39ZM415.854,250.94C415.888,250.689 416.061,250.485 416.244,250.369C416.365,250.301 416.517,250.255 416.674,250.255C416.715,250.255 416.756,250.259 416.797,250.265C416.689,250.446 416.521,250.64 416.287,250.777C416.144,250.86 415.996,250.911 415.854,250.94Z" style="fill:rgb(247,169,180);fill-rule:nonzero;"/>
            <path d="M415.848,251.043L415.848,251.027C415.848,250.997 415.85,250.968 415.854,250.94C415.996,250.911 416.144,250.86 416.287,250.777C416.521,250.64 416.689,250.446 416.797,250.265C416.827,250.27 416.857,250.277 416.886,250.286C416.783,250.49 416.605,250.715 416.341,250.87C416.178,250.965 416.008,251.018 415.848,251.043Z" style="fill:rgb(244,133,140);fill-rule:nonzero;"/>
            <path d="M411.272,273.042C411.216,273.056 410.505,270.456 409.684,267.234C408.862,264.01 408.241,261.386 408.296,261.373C408.353,261.358 409.064,263.959 409.885,267.182C410.706,270.404 411.328,273.028 411.272,273.042Z" style="fill:rgb(71,59,101);fill-rule:nonzero;"/>
            <path d="M420.362,255.416C420.37,255.411 420.457,255.543 420.55,255.814C420.644,256.083 420.73,256.497 420.702,257.011C420.668,257.522 420.512,258.139 420.12,258.707C419.736,259.277 419.093,259.75 418.333,259.973C417.573,260.194 416.777,260.143 416.145,259.869C415.509,259.602 415.044,259.166 414.742,258.753C414.441,258.334 414.29,257.94 414.224,257.664C414.157,257.386 414.16,257.227 414.168,257.226C414.214,257.208 414.247,257.876 414.859,258.665C415.163,259.048 415.617,259.45 416.217,259.692C416.813,259.938 417.558,259.98 418.275,259.773C418.99,259.561 419.595,259.126 419.963,258.596C420.34,258.069 420.504,257.488 420.555,257.001C420.644,256.004 420.313,255.424 420.362,255.416Z" style="fill:rgb(71,59,101);fill-rule:nonzero;"/>
            <path d="M318.182,244.103C315.464,243.089 314.542,239.263 317.805,238.107C318.629,237.815 319.597,237.993 320.427,237.657C321.687,237.148 322.557,236.204 323.008,234.929C323.996,232.136 322.207,229.115 319.46,228.296C318.562,228.028 317.8,229.258 318.523,229.906C319.655,230.919 321.44,232.051 320.905,233.945C320.306,236.069 317.945,235.56 316.501,236.235C315.238,236.826 314.245,237.94 313.812,239.276C312.821,242.337 315.057,244.925 318.028,245.235C318.718,245.307 318.746,244.313 318.182,244.103Z" style="fill:rgb(124,55,144);fill-rule:nonzero;"/>
            <path d="M354.741,202.204L354.604,202.157C354.004,201.949 353.384,202.491 353.384,203.085C353.384,203.681 354.005,204.221 354.604,204.014L354.741,203.967C355.607,203.667 355.608,202.504 354.741,202.204Z" style="fill:rgb(118,159,212);fill-rule:nonzero;"/>
            <path d="M329.2,202.987C327.852,204.269 327.308,206.233 328.591,207.795C329.797,209.264 332.117,209.562 333.635,208.416C337.25,205.686 333.529,200.27 329.592,201.493C328.743,201.756 328.956,202.908 329.794,202.984C330.864,203.082 332.011,203.089 332.88,203.83C333.795,204.61 333.799,205.956 333.063,206.861C331.095,209.282 327.699,205.655 329.726,203.514C330.057,203.165 329.548,202.655 329.2,202.987Z" style="fill:rgb(118,159,212);fill-rule:nonzero;"/>
            <path d="M427.114,216.145C426.638,218.463 426.245,220.786 425.876,223.125C425.769,223.81 426.245,224.261 426.919,224.167C429.122,223.861 431.308,223.57 433.475,223.063C433.977,222.944 434.188,222.333 433.945,221.906C432.682,219.684 431.091,216.424 428.588,215.4C427.857,215.1 427.268,216.071 427.612,216.67C428.212,217.715 429.323,218.46 430.124,219.359C431.041,220.388 431.928,221.486 432.586,222.701C432.812,222.306 433.038,221.911 433.265,221.516C430.973,221.713 428.732,222.126 426.469,222.532C426.827,222.805 427.184,223.078 427.542,223.35C427.8,220.996 428.029,218.651 428.177,216.288C428.215,215.684 427.237,215.545 427.114,216.145Z" style="fill:rgb(242,116,131);fill-rule:nonzero;"/>
            <path d="M442.224,204.656C444.245,204.656 444.248,201.515 442.224,201.515C440.203,201.515 440.2,204.656 442.224,204.656Z" style="fill:rgb(242,116,131);fill-rule:nonzero;"/>
            <path d="M440.27,241.653C438.945,241.672 437.906,241.842 437.045,242.948C436.281,243.931 436.061,245.226 436.444,246.412C437.254,248.93 440.326,250.159 442.621,248.811C444.879,247.485 445.484,244.585 444.298,242.325C442.907,239.675 439.551,238.993 437.078,240.498C436.008,241.148 436.942,242.658 438.043,242.149C439.433,241.507 441.218,241.502 442.363,242.623C443.523,243.758 443.649,245.552 442.437,246.699C441.35,247.728 439.688,247.797 438.667,246.636C437.518,245.326 438.358,242.647 440.27,242.511C440.814,242.472 440.828,241.645 440.27,241.653Z" style="fill:rgb(118,159,212);fill-rule:nonzero;"/>
            <path d="M381.406,219.847C381.964,217.591 382.411,215.087 382.477,212.763C382.502,211.883 381.095,211.661 380.916,212.551C380.454,214.849 380.321,217.367 380.356,219.705C380.366,220.296 381.258,220.445 381.406,219.847Z" style="fill:rgb(246,145,125);fill-rule:nonzero;"/>
            <path d="M378.307,276.63C378.866,274.374 379.312,271.871 379.378,269.545C379.404,268.666 377.996,268.445 377.818,269.334C377.356,271.632 377.222,274.15 377.258,276.488C377.267,277.08 378.16,277.228 378.307,276.63Z" style="fill:rgb(246,145,125);fill-rule:nonzero;"/>
            <path d="M357.819,186.188C358.377,183.932 358.823,181.429 358.89,179.104C358.915,178.224 357.508,178.002 357.329,178.893C356.867,181.19 356.733,183.708 356.769,186.046C356.778,186.637 357.671,186.786 357.819,186.188Z" style="fill:rgb(242,116,131);fill-rule:nonzero;"/>
            <path d="M400.732,198.18L400.615,198.073C399.685,197.222 398.382,198.525 399.233,199.455L399.34,199.572C400.197,200.509 401.669,199.037 400.732,198.18Z" style="fill:rgb(246,145,125);fill-rule:nonzero;"/>
            <path d="M310.223,216.677C310.793,216.677 310.794,215.791 310.223,215.791C309.653,215.791 309.652,216.677 310.223,216.677Z" style="fill:rgb(242,116,131);fill-rule:nonzero;"/>
            <path d="M329.073,247.366L328.992,247.417C328.361,247.815 328.361,248.708 328.992,249.105L329.073,249.157C329.746,249.581 330.634,249.028 330.634,248.262C330.634,247.495 329.746,246.942 329.073,247.366Z" style="fill:rgb(246,145,125);fill-rule:nonzero;"/>
            <path d="M382.79,252.534L382.678,252.533C381.716,252.529 381.224,253.744 381.898,254.417C382.57,255.09 383.786,254.597 383.782,253.637L383.782,253.525C383.779,252.987 383.329,252.536 382.79,252.534Z" style="fill:rgb(124,55,144);fill-rule:nonzero;"/>
            <path d="M423.105,234.976C424.743,234.976 424.745,232.431 423.105,232.431C421.467,232.431 421.464,234.976 423.105,234.976Z" style="fill:rgb(246,145,125);fill-rule:nonzero;"/>
            <path d="M443.71,218.001C444.542,218.001 444.544,216.707 443.71,216.707C442.878,216.707 442.876,218.001 443.71,218.001Z" style="fill:rgb(246,145,125);fill-rule:nonzero;"/>
            <path d="M373.848,199.965C375.575,200.042 377.22,199.361 378.846,198.852C380.512,198.331 382.258,197.92 383.828,197.152C384.905,196.627 384.117,195.09 383.052,195.311C381.209,195.691 379.413,196.544 377.65,197.199C376.196,197.738 374.731,198.191 373.533,199.205C373.219,199.47 373.492,199.949 373.848,199.965Z" style="fill:rgb(252,192,126);fill-rule:nonzero;"/>
            <path d="M339.964,220.145C349.171,220.396 358.397,220.243 367.606,220.297C368.032,220.3 368.033,219.634 367.606,219.637C358.397,219.691 349.171,219.538 339.964,219.789C339.735,219.795 339.735,220.139 339.964,220.145Z" style="fill:rgb(237,237,236);fill-rule:nonzero;"/>
            <path d="M339.846,222.571C349.053,222.822 358.279,222.669 367.489,222.724C367.914,222.726 367.914,222.06 367.489,222.063C358.279,222.117 349.053,221.964 339.846,222.215C339.617,222.221 339.617,222.565 339.846,222.571Z" style="fill:rgb(237,237,236);fill-rule:nonzero;"/>
            <path d="M339.326,224.728C344.75,224.964 350.2,224.825 355.628,224.88C356.053,224.884 356.054,224.215 355.628,224.219C350.2,224.273 344.75,224.135 339.326,224.371C339.097,224.381 339.097,224.718 339.326,224.728Z" style="fill:rgb(237,237,236);fill-rule:nonzero;"/>
            <path d="M403.814,215.275L405.597,218.889L409.295,218.029L406.322,221.12L407.73,224.659L404.424,222.499L401.974,224.338L402.526,221.12L399.957,219.367L403.25,218.889L403.814,215.275Z" style="fill:rgb(252,192,126);fill-rule:nonzero;"/>
            <g>
                <clipPath id="_clip8">
                    <path d="M434.118,193.819C424.671,186.584 411.602,184.354 400.29,188.048C388.979,191.742 379.744,201.255 376.387,212.671C374.838,217.944 373.449,224.691 368.093,225.921C365.079,226.613 362.061,225.099 359.189,223.953C347.885,219.443 334.509,220.5 324.053,226.727C313.597,232.955 306.298,244.213 304.879,256.299C303.523,267.855 307.328,279.549 313.353,289.503C328.69,314.842 358.243,324.858 390.266,324.858C425.423,324.858 444.942,302.203 454.475,274.16C464.007,246.116 455.512,214.303 434.118,193.819Z"/>
                </clipPath>
                <g clip-path="url(#_clip8)">
                    <path d="M428.994,357.551L437.947,356.988L422.117,300.986L417.633,318.617L428.382,357.551L428.994,357.551Z" style="fill:rgb(120,12,75);fill-rule:nonzero;"/>
                    <path d="M426.818,285.963C419.732,312.382 409.736,358.382 409.736,358.382L399.898,357.69C403.09,344.77 410.971,293.583 411.972,286.764L426.818,285.963Z" style="fill:rgb(153,26,91);fill-rule:nonzero;"/>
                    <path d="M410.841,321.709C410.836,321.709 410.831,321.709 410.827,321.708C410.686,321.677 410.664,321.218 410.779,320.681C410.889,320.162 411.085,319.762 411.225,319.762C411.23,319.762 411.235,319.762 411.24,319.763C411.38,319.793 411.402,320.252 411.287,320.79C411.177,321.308 410.981,321.709 410.841,321.709Z" style="fill:rgb(122,45,112);fill-rule:nonzero;"/>
                    <path d="M411.67,317.821C411.665,317.821 411.66,317.821 411.656,317.82C411.516,317.79 411.495,317.33 411.611,316.794C411.723,316.276 411.92,315.876 412.061,315.876C412.066,315.876 412.071,315.876 412.076,315.877C412.216,315.908 412.236,316.367 412.121,316.904C412.008,317.421 411.811,317.821 411.67,317.821Z" style="fill:rgb(122,45,112);fill-rule:nonzero;"/>
                    <path d="M412.511,313.937C412.506,313.937 412.501,313.936 412.496,313.935C412.357,313.904 412.337,313.445 412.454,312.909C412.568,312.392 412.767,311.992 412.906,311.992C412.911,311.992 412.916,311.993 412.921,311.994C413.062,312.024 413.08,312.484 412.963,313.02C412.85,313.537 412.652,313.937 412.511,313.937Z" style="fill:rgb(122,45,112);fill-rule:nonzero;"/>
                    <path d="M413.364,310.054C413.359,310.054 413.354,310.053 413.349,310.052C413.208,310.021 413.191,309.561 413.31,309.026C413.424,308.509 413.624,308.11 413.763,308.11C413.769,308.11 413.774,308.111 413.779,308.112C413.919,308.143 413.937,308.602 413.819,309.138C413.704,309.655 413.505,310.054 413.364,310.054Z" style="fill:rgb(122,45,112);fill-rule:nonzero;"/>
                    <path d="M414.228,306.174C414.222,306.174 414.217,306.173 414.212,306.172C414.072,306.14 414.055,305.681 414.176,305.145C414.292,304.629 414.492,304.231 414.632,304.231C414.638,304.231 414.643,304.232 414.648,304.233C414.787,304.264 414.804,304.724 414.684,305.259C414.568,305.775 414.367,306.174 414.228,306.174Z" style="fill:rgb(122,45,112);fill-rule:nonzero;"/>
                    <path d="M415.102,302.296C415.096,302.296 415.091,302.296 415.086,302.294C414.946,302.262 414.931,301.802 415.053,301.267C415.17,300.751 415.372,300.354 415.511,300.354C415.517,300.354 415.522,300.355 415.527,300.356C415.667,300.388 415.682,300.848 415.561,301.383C415.443,301.899 415.241,302.296 415.102,302.296Z" style="fill:rgb(122,45,112);fill-rule:nonzero;"/>
                    <path d="M415.987,298.42C415.982,298.42 415.976,298.42 415.971,298.418C415.83,298.386 415.818,297.927 415.941,297.392C416.059,296.877 416.262,296.48 416.401,296.48C416.407,296.48 416.412,296.481 416.417,296.482C416.558,296.514 416.572,296.974 416.448,297.509C416.329,298.024 416.127,298.42 415.987,298.42Z" style="fill:rgb(122,45,112);fill-rule:nonzero;"/>
                    <path d="M416.883,294.548C416.878,294.548 416.873,294.548 416.868,294.546C416.727,294.513 416.715,294.054 416.839,293.519C416.959,293.005 417.163,292.609 417.303,292.609C417.309,292.609 417.314,292.61 417.32,292.611C417.459,292.644 417.472,293.103 417.347,293.638C417.227,294.153 417.023,294.548 416.883,294.548Z" style="fill:rgb(122,45,112);fill-rule:nonzero;"/>
                    <path d="M417.79,290.678C417.785,290.678 417.779,290.678 417.774,290.676C417.634,290.643 417.623,290.183 417.749,289.649C417.872,289.135 418.076,288.74 418.215,288.74C418.221,288.74 418.226,288.741 418.232,288.742C418.371,288.775 418.383,289.235 418.256,289.769C418.135,290.283 417.931,290.678 417.79,290.678Z" style="fill:rgb(122,45,112);fill-rule:nonzero;"/>
                    <path d="M418.533,286.41C418.536,286.362 418.544,286.312 418.556,286.261C418.615,286.013 418.761,285.832 418.893,285.832C418.904,285.832 418.915,285.833 418.925,285.836C419.065,285.869 419.126,286.113 419.062,286.382L418.533,286.41Z" style="fill:url(#_Linear9);"/>
                    <path d="M418.725,286.812C418.714,286.812 418.703,286.811 418.693,286.808C418.579,286.78 418.518,286.615 418.533,286.41L419.062,286.382C419.002,286.63 418.857,286.812 418.725,286.812Z" style="fill:rgb(122,45,112);fill-rule:nonzero;"/>
                    <path d="M423.384,302.917C423.456,302.939 423.195,303.985 422.755,305.668C422.276,307.517 421.694,309.761 421.05,312.243C420.39,314.813 419.784,317.14 419.308,318.816C418.834,320.492 418.497,321.516 418.429,321.498C418.359,321.479 418.569,320.422 418.952,318.725C419.335,317.028 419.885,314.687 420.545,312.113C421.206,309.54 421.871,307.225 422.402,305.565C422.933,303.905 423.318,302.897 423.384,302.917Z" style="fill:rgb(74,73,142);fill-rule:nonzero;"/>
                    <path d="M421.771,314.18C421.63,314.18 421.394,313.807 421.228,313.312C421.051,312.789 421.018,312.328 421.155,312.282C421.162,312.279 421.17,312.278 421.178,312.278C421.318,312.278 421.554,312.651 421.721,313.146C421.898,313.669 421.93,314.13 421.794,314.176C421.787,314.179 421.779,314.18 421.771,314.18Z" style="fill:rgb(105,41,103);fill-rule:nonzero;"/>
                    <path d="M422.431,316.849C422.324,316.437 422.32,316.11 422.434,316.071C422.441,316.068 422.449,316.067 422.457,316.067C422.562,316.067 422.723,316.28 422.867,316.597C422.722,316.681 422.576,316.765 422.431,316.849Z" style="fill:rgb(105,41,103);fill-rule:nonzero;"/>
                    <path d="M340.659,290.019C340.857,291.255 343.033,332.358 345.589,359.066L355.745,359.066C355.745,359.066 350.724,297.433 351.912,297.331C353.284,297.212 364.86,359.066 364.86,359.066L374.552,359.066L359.802,288.229L340.659,290.019Z" style="fill:rgb(34,30,83);fill-rule:nonzero;"/>
                    <path d="M350.343,356.49C350.325,356.492 350.284,356.263 350.222,355.827C350.159,355.336 350.078,354.703 349.976,353.915C349.772,352.253 349.508,349.846 349.206,346.869C348.6,340.915 347.879,332.676 347.272,323.564C346.668,314.448 346.293,306.186 346.105,300.204C346.011,297.212 345.954,294.792 345.937,293.118C345.933,292.324 345.93,291.685 345.927,291.19C345.931,290.75 345.941,290.518 345.959,290.517C345.977,290.517 346.002,290.748 346.032,291.187C346.06,291.681 346.095,292.319 346.14,293.112C346.221,294.845 346.335,297.248 346.474,300.189C346.755,306.165 347.188,314.418 347.792,323.529C348.398,332.636 349.061,340.874 349.573,346.834C349.824,349.769 350.03,352.165 350.178,353.894C350.239,354.686 350.288,355.324 350.326,355.816C350.354,356.256 350.361,356.488 350.343,356.49Z" style="fill:rgb(74,73,142);fill-rule:nonzero;"/>
                    <path d="M368.717,356.861C368.699,356.865 368.637,356.635 368.535,356.195C368.426,355.703 368.286,355.062 368.111,354.266C367.755,352.588 367.267,350.156 366.692,347.144C365.534,341.124 364.053,332.784 362.382,323.583C360.713,314.378 359.099,306.067 357.842,300.069C357.212,297.117 356.698,294.708 356.327,292.971C356.16,292.174 356.025,291.533 355.921,291.04C355.834,290.596 355.796,290.362 355.814,290.357C355.831,290.353 355.903,290.58 356.023,291.015C356.151,291.502 356.317,292.136 356.524,292.925C356.955,294.584 357.527,297 358.202,299.991C359.552,305.973 361.225,314.282 362.894,323.49C364.514,332.674 365.98,340.988 367.055,347.078C367.577,350.051 368.003,352.479 368.31,354.228C368.445,355.032 368.554,355.677 368.638,356.175C368.706,356.622 368.734,356.857 368.717,356.861Z" style="fill:rgb(74,73,142);fill-rule:nonzero;"/>
                    <path d="M343.888,290.71C343.949,290.69 344.141,291.006 344.219,291.59C344.299,292.167 344.22,293.023 343.763,293.82C343.305,294.618 342.606,295.119 342.069,295.34C341.526,295.57 341.155,295.563 341.143,295.501C341.083,295.364 342.5,294.979 343.311,293.561C344.125,292.145 343.74,290.728 343.888,290.71Z" style="fill:rgb(74,73,142);fill-rule:nonzero;"/>
                    <path d="M353.094,296.476C353.121,296.484 353.126,296.623 352.973,296.8C352.822,296.966 352.493,297.158 352.056,297.068C351.844,297.032 351.597,296.869 351.467,296.642C351.331,296.417 351.279,296.163 351.236,295.927C351.151,295.414 351.069,294.918 350.984,294.401C350.654,292.23 350.502,290.454 350.645,290.432C350.787,290.411 351.169,292.152 351.498,294.323C351.571,294.842 351.64,295.339 351.71,295.854C351.755,296.328 351.876,296.626 352.154,296.712C352.425,296.812 352.695,296.731 352.842,296.645C352.994,296.555 353.057,296.459 353.094,296.476Z" style="fill:rgb(74,73,142);fill-rule:nonzero;"/>
                    <path d="M361.162,294.505C361.161,294.568 360.824,294.636 360.286,294.528C359.751,294.423 359.035,294.095 358.435,293.501C357.837,292.906 357.503,292.192 357.395,291.658C357.283,291.121 357.349,290.783 357.411,290.781C357.56,290.759 357.702,292.071 358.802,293.132C359.87,294.223 361.183,294.356 361.162,294.505Z" style="fill:rgb(74,73,142);fill-rule:nonzero;"/>
                </g>
            </g>
            <path d="M422.518,300.446C422.518,300.446 420.77,302.314 420.535,302.591C419.165,304.209 420.549,303.274 421.181,303.081C421.743,302.909 420.248,306.87 420.764,306.711C421.28,306.554 421.807,304.634 421.807,304.634C421.807,304.634 421.202,307.302 421.756,306.742C422.312,306.181 422.803,304.658 422.803,304.658C422.803,304.658 422.282,307.433 422.75,306.846C423.219,306.259 423.529,305.229 423.529,305.229C423.529,305.229 423.3,307.626 423.714,306.954C424.128,306.282 426.818,300.808 426.818,300.808L422.518,300.446Z" style="fill:rgb(249,189,191);fill-rule:nonzero;"/>
            <path d="M419.732,264.073C419.732,264.073 426.554,275.309 425.689,281.803C425.029,286.756 421.345,300.704 421.345,300.704L426.956,302.75C426.956,302.75 431.675,288.063 431.946,279.643C432.215,271.223 424.932,259.472 424.932,259.472L419.732,264.073Z" style="fill:url(#_Linear10);"/>
            <path d="M425.423,260.074C425.421,260.113 424.987,259.919 424.208,260.065C423.448,260.195 422.351,260.772 421.626,261.984C420.89,263.188 420.806,264.975 421.273,266.768C421.726,268.58 422.589,270.462 423.438,272.454C424.291,274.443 425.034,276.399 425.313,278.275C425.6,280.147 425.501,281.86 425.329,283.27C424.95,286.094 424.416,287.777 424.416,287.777C424.41,287.775 424.427,287.667 424.468,287.461C424.522,287.196 424.581,286.902 424.65,286.566C424.801,285.788 425.028,284.661 425.184,283.253C425.335,281.849 425.417,280.15 425.123,278.305C424.838,276.457 424.099,274.521 423.246,272.535C422.399,270.546 421.536,268.656 421.086,266.814C420.622,264.991 420.718,263.15 421.5,261.908C422.266,260.665 423.408,260.095 424.195,259.985C424.592,259.915 424.908,259.958 425.115,259.988C425.32,260.039 425.425,260.067 425.423,260.074Z" style="fill:rgb(71,59,101);fill-rule:nonzero;"/>
            <path d="M406.434,255.873C406.377,255.86 406.408,255.504 406.5,255.078C406.593,254.65 406.713,254.314 406.77,254.327C406.827,254.338 406.796,254.695 406.703,255.122C406.611,255.548 406.49,255.884 406.434,255.873Z" style="fill:rgb(71,59,101);fill-rule:nonzero;"/>
            <path d="M409.728,256.544C409.67,256.548 409.609,256.326 409.59,256.047C409.572,255.769 409.603,255.541 409.661,255.537C409.718,255.533 409.78,255.755 409.798,256.034C409.817,256.312 409.786,256.541 409.728,256.544Z" style="fill:rgb(71,59,101);fill-rule:nonzero;"/>
            <path d="M410.87,260.712C410.828,260.751 410.581,260.541 410.322,260.243C410.062,259.946 409.886,259.674 409.929,259.636C409.973,259.6 410.218,259.809 410.478,260.106C410.738,260.403 410.913,260.674 410.87,260.712Z" style="fill:rgb(71,59,101);fill-rule:nonzero;"/>
            <path d="M412.679,259.971C412.623,259.959 412.637,259.678 412.71,259.345C412.785,259.009 412.889,258.75 412.946,258.761C413.001,258.773 412.988,259.054 412.914,259.388C412.84,259.723 412.736,259.984 412.679,259.971Z" style="fill:rgb(71,59,101);fill-rule:nonzero;"/>
            <path d="M413.221,265.553C413.171,265.582 412.919,265.228 412.66,264.764C412.4,264.3 412.23,263.901 412.28,263.873C412.33,263.845 412.581,264.198 412.841,264.663C413.102,265.126 413.272,265.525 413.221,265.553Z" style="fill:rgb(71,59,101);fill-rule:nonzero;"/>
            <path d="M416.509,264.945C416.453,264.93 416.484,264.646 416.576,264.312C416.667,263.978 416.787,263.719 416.843,263.734C416.898,263.75 416.869,264.033 416.777,264.368C416.684,264.702 416.565,264.96 416.509,264.945Z" style="fill:rgb(71,59,101);fill-rule:nonzero;"/>
            <path d="M412.954,270.728C412.911,270.766 412.636,270.527 412.338,270.193C412.041,269.858 411.835,269.556 411.878,269.518C411.922,269.48 412.198,269.72 412.495,270.054C412.791,270.388 412.997,270.69 412.954,270.728Z" style="fill:rgb(71,59,101);fill-rule:nonzero;"/>
            <path d="M414.836,262.527C414.783,262.508 414.828,262.238 414.94,261.921C415.051,261.606 415.186,261.367 415.24,261.384C415.294,261.404 415.247,261.675 415.136,261.992C415.025,262.306 414.891,262.546 414.836,262.527Z" style="fill:rgb(71,59,101);fill-rule:nonzero;"/>
            <path d="M415.307,269.182C415.261,269.216 415.012,268.958 414.752,268.605C414.493,268.252 414.32,267.939 414.366,267.905C414.412,267.871 414.661,268.129 414.92,268.482C415.18,268.834 415.353,269.148 415.307,269.182Z" style="fill:rgb(71,59,101);fill-rule:nonzero;"/>
            <path d="M419.559,267.041C419.609,267.07 419.495,267.361 419.304,267.693C419.114,268.024 418.919,268.269 418.87,268.241C418.82,268.212 418.933,267.92 419.123,267.588C419.314,267.257 419.509,267.012 419.559,267.041Z" style="fill:rgb(71,59,101);fill-rule:nonzero;"/>
            <path d="M420.076,261.246C420.113,261.289 419.948,261.492 419.707,261.695C419.466,261.901 419.241,262.031 419.203,261.988C419.166,261.944 419.331,261.742 419.572,261.537C419.813,261.332 420.038,261.203 420.076,261.246Z" style="fill:rgb(71,59,101);fill-rule:nonzero;"/>
            <path d="M422.972,258.894C422.941,258.942 422.689,258.832 422.411,258.644C422.132,258.459 421.932,258.269 421.964,258.221C421.996,258.173 422.247,258.286 422.526,258.471C422.804,258.657 423.004,258.846 422.972,258.894Z" style="fill:rgb(71,59,101);fill-rule:nonzero;"/>
            <path d="M421.078,272.875C421.026,272.85 421.074,272.635 421.186,272.394C421.297,272.153 421.43,271.977 421.482,272.001C421.535,272.025 421.487,272.241 421.374,272.482C421.263,272.723 421.13,272.899 421.078,272.875Z" style="fill:rgb(71,59,101);fill-rule:nonzero;"/>
            <path d="M418.601,273.551C418.552,273.582 418.317,273.291 418.076,272.901C417.834,272.51 417.678,272.17 417.727,272.14C417.776,272.11 418.011,272.401 418.252,272.791C418.494,273.18 418.65,273.521 418.601,273.551Z" style="fill:rgb(71,59,101);fill-rule:nonzero;"/>
            <path d="M413.895,276.106C413.844,276.132 413.653,275.869 413.467,275.516C413.282,275.163 413.172,274.855 413.223,274.829C413.274,274.802 413.466,275.066 413.652,275.418C413.837,275.771 413.947,276.079 413.895,276.106Z" style="fill:rgb(71,59,101);fill-rule:nonzero;"/>
            <path d="M415.502,272.674C415.554,272.699 415.469,273.001 415.312,273.349C415.154,273.698 414.984,273.96 414.931,273.937C414.879,273.914 414.964,273.612 415.121,273.263C415.28,272.915 415.45,272.651 415.502,272.674Z" style="fill:rgb(71,59,101);fill-rule:nonzero;"/>
            <path d="M412.992,280.636C412.949,280.674 412.737,280.507 412.518,280.262C412.299,280.017 412.157,279.788 412.2,279.75C412.243,279.711 412.454,279.878 412.673,280.124C412.892,280.369 413.035,280.598 412.992,280.636Z" style="fill:rgb(71,59,101);fill-rule:nonzero;"/>
            <path d="M416.652,278.727C416.695,278.765 416.504,279.052 416.225,279.368C415.947,279.683 415.686,279.909 415.643,279.871C415.6,279.833 415.79,279.545 416.069,279.23C416.348,278.915 416.609,278.689 416.652,278.727Z" style="fill:rgb(71,59,101);fill-rule:nonzero;"/>
            <path d="M414.222,278.534C414.178,278.57 413.958,278.376 413.732,278.101C413.505,277.826 413.358,277.573 413.403,277.536C413.447,277.5 413.666,277.693 413.893,277.968C414.12,278.244 414.267,278.497 414.222,278.534Z" style="fill:rgb(71,59,101);fill-rule:nonzero;"/>
            <path d="M415.111,283.498C415.059,283.522 414.929,283.351 414.821,283.117C414.713,282.882 414.668,282.672 414.72,282.649C414.773,282.625 414.903,282.795 415.01,283.03C415.119,283.264 415.163,283.473 415.111,283.498Z" style="fill:rgb(71,59,101);fill-rule:nonzero;"/>
            <path d="M413.022,284.847C413.032,284.907 412.745,284.996 412.421,285.158C412.096,285.316 411.851,285.491 411.81,285.448C411.77,285.41 411.97,285.147 412.328,284.971C412.685,284.792 413.016,284.792 413.022,284.847Z" style="fill:rgb(71,59,101);fill-rule:nonzero;"/>
            <path d="M421.558,281.685C421.529,281.731 421.076,281.456 420.706,280.928C420.334,280.403 420.229,279.882 420.282,279.871C420.339,279.851 420.527,280.314 420.877,280.808C421.223,281.305 421.596,281.637 421.558,281.685Z" style="fill:rgb(71,59,101);fill-rule:nonzero;"/>
            <path d="M423.907,283.294C423.861,283.259 424.095,282.884 424.429,282.458C424.763,282.031 425.071,281.713 425.117,281.749C425.161,281.784 424.927,282.159 424.593,282.585C424.259,283.013 423.952,283.331 423.907,283.294Z" style="fill:rgb(71,59,101);fill-rule:nonzero;"/>
            <path d="M419.273,283.231C419.228,283.27 418.948,283.008 418.581,282.717C418.217,282.424 417.901,282.209 417.929,282.156C417.953,282.106 418.329,282.248 418.711,282.555C419.095,282.86 419.317,283.196 419.273,283.231Z" style="fill:rgb(71,59,101);fill-rule:nonzero;"/>
            <path d="M419.81,284.82C419.812,284.877 419.166,284.951 418.369,284.983C417.57,285.015 416.921,284.995 416.918,284.937C416.916,284.879 417.562,284.807 418.36,284.775C419.159,284.743 419.807,284.762 419.81,284.82Z" style="fill:rgb(71,59,101);fill-rule:nonzero;"/>
            <path d="M423.14,278.948C423.089,278.921 423.24,278.522 423.478,278.056C423.715,277.59 423.95,277.234 424,277.259C424.051,277.286 423.901,277.685 423.663,278.151C423.425,278.617 423.192,278.973 423.14,278.948Z" style="fill:rgb(71,59,101);fill-rule:nonzero;"/>
            <path d="M420.079,276.173C420.061,276.227 419.519,276.091 418.87,275.869C418.22,275.645 417.708,275.42 417.727,275.367C417.745,275.312 418.287,275.449 418.937,275.671C419.587,275.894 420.098,276.119 420.079,276.173Z" style="fill:rgb(71,59,101);fill-rule:nonzero;"/>
            <path d="M422.813,266.351C422.759,266.331 422.863,265.908 423.045,265.406C423.227,264.903 423.418,264.511 423.472,264.531C423.527,264.55 423.423,264.974 423.241,265.476C423.059,265.979 422.868,266.371 422.813,266.351Z" style="fill:rgb(71,59,101);fill-rule:nonzero;"/>
            <path d="M426.6,265.149C426.557,265.187 426.311,264.977 426.051,264.679C425.791,264.382 425.616,264.111 425.66,264.074C425.703,264.036 425.948,264.246 426.208,264.542C426.468,264.839 426.643,265.111 426.6,265.149Z" style="fill:rgb(71,59,101);fill-rule:nonzero;"/>
            <path d="M425.692,268.077C425.65,268.116 425.356,267.865 425.036,267.516C424.715,267.167 424.49,266.854 424.532,266.815C424.575,266.776 424.869,267.027 425.189,267.376C425.509,267.723 425.734,268.038 425.692,268.077Z" style="fill:rgb(71,59,101);fill-rule:nonzero;"/>
            <path d="M427.877,270.19C427.822,270.177 427.851,269.85 427.944,269.46C428.036,269.071 428.158,268.765 428.213,268.779C428.27,268.792 428.24,269.119 428.147,269.508C428.054,269.899 427.933,270.204 427.877,270.19Z" style="fill:rgb(71,59,101);fill-rule:nonzero;"/>
            <path d="M425.323,272.341C425.286,272.386 425.016,272.227 424.719,271.986C424.422,271.744 424.211,271.512 424.247,271.467C424.284,271.423 424.554,271.583 424.851,271.824C425.148,272.065 425.359,272.296 425.323,272.341Z" style="fill:rgb(71,59,101);fill-rule:nonzero;"/>
            <path d="M429.155,274.963C429.102,274.986 428.909,274.659 428.723,274.232C428.537,273.804 428.43,273.44 428.483,273.417C428.536,273.394 428.728,273.721 428.914,274.149C429.1,274.576 429.207,274.94 429.155,274.963Z" style="fill:rgb(71,59,101);fill-rule:nonzero;"/>
            <path d="M427.877,276.845C427.836,276.886 427.563,276.678 427.266,276.381C426.968,276.084 426.76,275.811 426.801,275.77C426.842,275.73 427.116,275.937 427.412,276.234C427.709,276.531 427.917,276.805 427.877,276.845Z" style="fill:rgb(71,59,101);fill-rule:nonzero;"/>
            <path d="M430.365,278.862C430.398,278.909 430.214,279.097 429.954,279.283C429.695,279.468 429.456,279.581 429.423,279.534C429.39,279.488 429.574,279.299 429.833,279.113C430.093,278.927 430.331,278.815 430.365,278.862Z" style="fill:rgb(71,59,101);fill-rule:nonzero;"/>
            <path d="M427.35,281.612C427.299,281.64 427.064,281.317 426.824,280.889C426.583,280.461 426.43,280.092 426.48,280.064C426.53,280.036 426.765,280.36 427.005,280.788C427.245,281.214 427.4,281.584 427.35,281.612Z" style="fill:rgb(71,59,101);fill-rule:nonzero;"/>
            <path d="M430.372,284.101C430.325,284.127 430.053,283.689 429.893,283.081C429.731,282.472 429.749,281.958 429.805,281.956C429.865,281.952 429.938,282.442 430.094,283.027C430.247,283.613 430.427,284.075 430.372,284.101Z" style="fill:rgb(71,59,101);fill-rule:nonzero;"/>
            <path d="M428.757,285.59C428.799,285.626 428.579,285.933 428.185,286.165C427.791,286.397 427.416,286.44 427.406,286.385C427.39,286.328 427.716,286.201 428.079,285.985C428.445,285.772 428.714,285.549 428.757,285.59Z" style="fill:rgb(71,59,101);fill-rule:nonzero;"/>
            <path d="M426.399,285.046C426.342,285.058 426.251,284.857 426.196,284.597C426.14,284.337 426.141,284.118 426.197,284.105C426.253,284.093 426.344,284.294 426.4,284.554C426.455,284.814 426.454,285.035 426.399,285.046Z" style="fill:rgb(71,59,101);fill-rule:nonzero;"/>
            <path d="M426.197,291.164C426.141,291.176 426.035,290.916 425.96,290.581C425.886,290.247 425.871,289.966 425.928,289.954C425.984,289.941 426.09,290.202 426.164,290.536C426.239,290.87 426.253,291.151 426.197,291.164Z" style="fill:rgb(71,59,101);fill-rule:nonzero;"/>
            <path d="M428.825,290.758C428.77,290.776 428.605,290.43 428.455,289.985C428.307,289.54 428.23,289.164 428.285,289.145C428.339,289.127 428.504,289.473 428.654,289.918C428.802,290.364 428.879,290.74 428.825,290.758Z" style="fill:rgb(71,59,101);fill-rule:nonzero;"/>
            <path d="M426.466,294.39C426.452,294.448 426.005,294.381 425.455,294.346C424.907,294.308 424.455,294.315 424.449,294.255C424.442,294.201 424.899,294.099 425.47,294.138C426.04,294.175 426.481,294.336 426.466,294.39Z" style="fill:rgb(71,59,101);fill-rule:nonzero;"/>
            <path d="M427.866,294.86C427.809,294.857 427.777,294.569 427.794,294.216C427.812,293.863 427.872,293.58 427.93,293.583C427.988,293.585 428.02,293.874 428.002,294.226C427.985,294.58 427.923,294.863 427.866,294.86Z" style="fill:rgb(71,59,101);fill-rule:nonzero;"/>
            <path d="M425.054,297.281C425.043,297.337 424.704,297.323 424.296,297.249C423.887,297.174 423.565,297.068 423.576,297.011C423.585,296.955 423.925,296.969 424.333,297.043C424.742,297.118 425.065,297.224 425.054,297.281Z" style="fill:rgb(71,59,101);fill-rule:nonzero;"/>
            <path d="M427.192,298.544C427.233,298.584 426.948,298.946 426.555,299.351C426.161,299.756 425.81,300.052 425.768,300.012C425.727,299.972 426.012,299.611 426.406,299.206C426.798,298.8 427.15,298.504 427.192,298.544Z" style="fill:rgb(71,59,101);fill-rule:nonzero;"/>
            <path d="M423.777,299.162C423.787,299.218 423.421,299.339 422.956,299.432C422.493,299.525 422.108,299.554 422.096,299.498C422.084,299.441 422.452,299.32 422.916,299.228C423.38,299.135 423.765,299.105 423.777,299.162Z" style="fill:rgb(71,59,101);fill-rule:nonzero;"/>
            <path d="M406.635,259.772C406.578,259.764 406.578,259.397 406.633,258.953C406.689,258.506 406.78,258.151 406.837,258.158C406.894,258.165 406.895,258.532 406.839,258.977C406.784,259.423 406.693,259.778 406.635,259.772Z" style="fill:rgb(71,59,101);fill-rule:nonzero;"/>
            <path d="M404.888,257.621C404.859,257.667 404.472,257.483 404.074,257.141C403.675,256.8 403.433,256.446 403.476,256.41C403.521,256.372 403.825,256.654 404.209,256.983C404.593,257.313 404.919,257.57 404.888,257.621Z" style="fill:rgb(71,59,101);fill-rule:nonzero;"/>
            <path d="M404.417,253.721C404.36,253.714 404.359,253.333 404.414,252.869C404.47,252.405 404.562,252.034 404.619,252.041C404.676,252.047 404.677,252.429 404.621,252.893C404.566,253.358 404.474,253.728 404.417,253.721Z" style="fill:rgb(71,59,101);fill-rule:nonzero;"/>
            <path d="M401.795,253.453C401.761,253.501 401.471,253.348 401.107,253.186C400.745,253.021 400.438,252.905 400.452,252.847C400.462,252.792 400.808,252.822 401.193,252.996C401.578,253.168 401.829,253.408 401.795,253.453Z" style="fill:rgb(71,59,101);fill-rule:nonzero;"/>
            <path d="M407.969,252.445C407.912,252.449 407.85,252.21 407.832,251.914C407.813,251.617 407.845,251.373 407.903,251.37C407.959,251.366 408.021,251.603 408.039,251.901C408.058,252.198 408.027,252.441 407.969,252.445Z" style="fill:rgb(71,59,101);fill-rule:nonzero;"/>
            <path d="M410.467,253.654C410.426,253.697 410.169,253.514 409.842,253.316C409.517,253.116 409.238,252.97 409.257,252.915C409.275,252.862 409.604,252.925 409.952,253.138C410.299,253.35 410.506,253.615 410.467,253.654Z" style="fill:rgb(71,59,101);fill-rule:nonzero;"/>
            <path d="M402.336,249.957C402.281,249.959 402.229,249.526 402.342,249.007C402.454,248.487 402.681,248.115 402.731,248.139C402.786,248.164 402.652,248.557 402.546,249.051C402.438,249.544 402.396,249.957 402.336,249.957Z" style="fill:rgb(71,59,101);fill-rule:nonzero;"/>
            <path d="M400.973,250.463C400.951,250.516 400.573,250.402 400.131,250.209C399.689,250.016 399.349,249.817 399.371,249.765C399.395,249.712 399.772,249.825 400.214,250.019C400.657,250.211 400.996,250.411 400.973,250.463Z" style="fill:rgb(71,59,101);fill-rule:nonzero;"/>
            <path d="M396.535,248.878C396.478,248.868 396.489,248.543 396.559,248.152C396.628,247.762 396.731,247.454 396.787,247.464C396.844,247.474 396.833,247.799 396.764,248.189C396.694,248.58 396.591,248.888 396.535,248.878Z" style="fill:rgb(71,59,101);fill-rule:nonzero;"/>
            <path d="M398.636,245.453C398.62,245.508 398.351,245.478 398.036,245.385C397.72,245.292 397.477,245.172 397.494,245.117C397.51,245.062 397.779,245.092 398.094,245.185C398.41,245.278 398.653,245.398 398.636,245.453Z" style="fill:rgb(71,59,101);fill-rule:nonzero;"/>
            <path d="M394.328,245.25C394.273,245.233 394.378,244.709 394.564,244.078C394.748,243.446 394.944,242.948 394.998,242.964C395.054,242.98 394.949,243.505 394.764,244.136C394.578,244.767 394.383,245.266 394.328,245.25Z" style="fill:rgb(71,59,101);fill-rule:nonzero;"/>
            <path d="M393.788,243.313C393.757,243.361 393.46,243.219 393.126,242.997C392.791,242.774 392.546,242.555 392.578,242.507C392.611,242.459 392.908,242.601 393.242,242.824C393.576,243.046 393.821,243.266 393.788,243.313Z" style="fill:rgb(71,59,101);fill-rule:nonzero;"/>
            <path d="M394.478,240.204C394.43,240.236 394.172,239.936 393.903,239.534C393.633,239.132 393.453,238.781 393.501,238.749C393.549,238.717 393.806,239.016 394.076,239.418C394.345,239.82 394.526,240.171 394.478,240.204Z" style="fill:rgb(71,59,101);fill-rule:nonzero;"/>
            <path d="M391.242,240.613C391.221,240.664 390.79,240.517 390.382,240.145C389.971,239.775 389.782,239.362 389.83,239.336C389.881,239.304 390.137,239.646 390.522,239.99C390.904,240.339 391.268,240.559 391.242,240.613Z" style="fill:rgb(71,59,101);fill-rule:nonzero;"/>
            <path d="M392.855,240.075C392.816,240.118 392.558,239.941 392.28,239.681C392.001,239.421 391.808,239.176 391.847,239.134C391.886,239.092 392.144,239.269 392.422,239.529C392.701,239.789 392.895,240.033 392.855,240.075Z" style="fill:rgb(71,59,101);fill-rule:nonzero;"/>
            <path d="M390.774,237.387C390.719,237.382 390.72,237.015 390.917,236.619C391.112,236.222 391.404,235.999 391.441,236.039C391.484,236.081 391.281,236.348 391.104,236.711C390.923,237.073 390.833,237.396 390.774,237.387Z" style="fill:rgb(71,59,101);fill-rule:nonzero;"/>
            <path d="M388.135,236.839C388.087,236.808 388.245,236.482 388.487,236.111C388.73,235.741 388.965,235.466 389.013,235.498C389.061,235.529 388.904,235.855 388.661,236.226C388.419,236.596 388.184,236.871 388.135,236.839Z" style="fill:rgb(71,59,101);fill-rule:nonzero;"/>
            <path d="M388.082,236.042C388.074,236.097 387.736,236.081 387.366,235.904C386.995,235.73 386.769,235.479 386.805,235.437C386.843,235.391 387.111,235.555 387.455,235.716C387.798,235.88 388.094,235.984 388.082,236.042Z" style="fill:rgb(71,59,101);fill-rule:nonzero;"/>
            <path d="M388.217,234.093C388.161,234.087 388.144,233.752 388.181,233.344C388.218,232.936 388.294,232.609 388.352,232.614C388.41,232.619 388.425,232.955 388.388,233.363C388.351,233.771 388.275,234.098 388.217,234.093Z" style="fill:rgb(71,59,101);fill-rule:nonzero;"/>
            <path d="M348.691,256.701C348.691,256.701 348.909,256.734 349.237,256.945C349.558,257.153 350.001,257.554 350.253,258.217C350.516,258.868 350.477,259.805 349.941,260.584C349.436,261.38 348.336,261.88 347.264,261.658C346.954,261.596 346.661,261.481 346.409,261.328L346.539,261.309C345.828,262.059 344.686,262.031 343.995,261.58C343.28,261.131 342.92,260.419 342.789,259.832C342.656,259.231 342.706,258.735 342.759,258.407C342.815,258.078 342.88,257.906 342.891,257.908C342.948,257.907 342.661,258.641 342.924,259.798C343.066,260.358 343.425,261.018 344.091,261.421C344.727,261.828 345.768,261.832 346.386,261.169L346.444,261.108L346.517,261.151C346.748,261.291 347.018,261.397 347.304,261.454C348.299,261.656 349.304,261.209 349.783,260.475C350.29,259.755 350.345,258.885 350.115,258.268C349.894,257.634 349.488,257.233 349.19,257.013C348.888,256.787 348.682,256.72 348.691,256.701Z" style="fill:rgb(71,59,101);fill-rule:nonzero;"/>
            <path d="M381.739,238.474C381.706,238.518 380.72,237.816 379.664,236.767C378.605,235.721 377.894,234.742 377.937,234.71C377.985,234.671 378.762,235.583 379.811,236.619C380.857,237.658 381.776,238.426 381.739,238.474Z" style="fill:rgb(71,59,101);fill-rule:nonzero;"/>
            <path d="M381.532,236.229C381.576,236.266 381.532,236.392 381.432,236.511C381.332,236.631 381.216,236.698 381.171,236.661C381.127,236.624 381.172,236.498 381.272,236.378C381.371,236.259 381.488,236.192 381.532,236.229Z" style="fill:rgb(71,59,101);fill-rule:nonzero;"/>
            <path d="M345.551,279.395C345.557,279.408 345.401,279.501 345.113,279.656C344.714,279.862 344.307,280.072 343.881,280.292C342.834,280.815 341.373,281.509 339.738,282.228C338.102,282.947 336.602,283.553 335.509,283.97C335.059,284.135 334.629,284.293 334.208,284.449C333.898,284.555 333.725,284.608 333.72,284.594C333.714,284.582 333.878,284.502 334.179,284.373C334.591,284.199 335.013,284.02 335.454,283.834C336.739,283.284 338.127,282.691 339.654,282.038C341.168,281.354 342.543,280.733 343.817,280.159C344.252,279.959 344.669,279.769 345.077,279.584C345.376,279.45 345.544,279.382 345.551,279.395Z" style="fill:rgb(71,59,101);fill-rule:nonzero;"/>
            <path d="M346.049,285.872C345.992,285.877 345.791,284.331 345.601,282.418C345.412,280.505 345.305,278.951 345.362,278.945C345.419,278.939 345.619,280.485 345.809,282.398C345.998,284.31 346.106,285.866 346.049,285.872Z" style="fill:rgb(71,59,101);fill-rule:nonzero;"/>
            <path d="M346.049,285.872C346.059,285.881 345.96,285.999 345.77,286.202C345.578,286.402 345.289,286.682 344.916,287.008C344.174,287.667 343.1,288.516 341.883,289.411C340.666,290.307 339.539,291.082 338.717,291.631L337.735,292.271C337.5,292.417 337.366,292.493 337.358,292.481C337.349,292.469 337.468,292.371 337.689,292.204L338.633,291.51C339.637,290.783 340.65,290.047 341.76,289.243C342.974,288.35 344.059,287.522 344.821,286.896C345.588,286.276 346.025,285.849 346.049,285.872Z" style="fill:rgb(71,59,101);fill-rule:nonzero;"/>
            <path d="M338.501,271.386C338.515,271.386 338.523,271.542 338.526,271.821C338.527,272.214 338.527,272.606 338.528,273.002C338.526,274 338.529,275.377 338.564,276.898C338.599,278.419 338.661,279.795 338.709,280.792C338.727,281.188 338.745,281.579 338.763,281.972C338.773,282.251 338.772,282.407 338.758,282.408C338.744,282.409 338.718,282.256 338.682,281.979C338.647,281.702 338.606,281.299 338.563,280.802C338.476,279.806 338.391,278.428 338.355,276.903C338.32,275.378 338.341,273.998 338.38,273C338.4,272.501 338.423,272.096 338.445,271.818C338.467,271.539 338.486,271.385 338.501,271.386Z" style="fill:rgb(71,59,101);fill-rule:nonzero;"/>
            <g>
                <clipPath id="_clip11">
                    <path d="M440.556,423.228L323.863,423.228C311.132,423.228 300.812,412.908 300.812,400.177L300.812,136.268C300.812,123.537 311.132,113.217 323.863,113.217L440.556,113.217C453.286,113.217 463.607,123.537 463.607,136.268L463.607,400.177C463.607,412.908 453.286,423.228 440.556,423.228Z"/>
                </clipPath>
                <g clip-path="url(#_clip11)">
                    <path d="M451.913,175.936C449.625,175.936 447.266,175.54 444.909,174.686C437.813,172.115 434.489,166.696 431.518,160.123C428.773,154.047 427.992,147.158 421.706,143.184C419.05,141.505 416.335,140.767 413.706,140.767C408.625,140.767 403.869,143.528 400.503,147.584L393.053,147.584C396.437,138.219 404.096,131.77 414.015,131.77C415.467,131.77 416.97,131.908 418.513,132.196C424.437,133.302 429.806,136.906 433.385,141.688C434.72,143.471 435.616,145.385 436.494,147.349L435.986,147.349C435.85,147.349 435.74,147.459 435.74,147.595C435.74,147.731 435.85,147.841 435.986,147.841L436.714,147.841C436.942,148.355 437.173,148.872 437.411,149.391C437.43,149.439 437.448,149.488 437.466,149.537L435.986,149.537C435.85,149.537 435.74,149.647 435.74,149.782C435.74,149.918 435.85,150.028 435.986,150.028L437.65,150.028C437.863,150.594 438.077,151.159 438.292,151.724L435.986,151.724C435.85,151.724 435.74,151.835 435.74,151.97C435.74,152.106 435.85,152.216 435.986,152.216L438.481,152.216C439.33,154.428 440.203,156.631 441.099,158.825C444.28,163.914 447.444,166.458 450.594,166.458C454.716,166.458 458.813,162.1 462.882,153.385C462.948,152.438 463.211,151.657 463.607,151.037L463.607,172.1C460.298,174.522 456.233,175.936 451.913,175.936Z" style="fill:rgb(255,227,194);fill-rule:nonzero;"/>
                    <path d="M436.714,147.841L435.986,147.841C435.85,147.841 435.74,147.731 435.74,147.595C435.74,147.459 435.85,147.349 435.986,147.349L436.494,147.349C436.567,147.513 436.64,147.677 436.714,147.841Z" style="fill:rgb(208,167,168);fill-rule:nonzero;"/>
                    <path d="M437.65,150.028L435.986,150.028C435.85,150.028 435.74,149.918 435.74,149.782C435.74,149.647 435.85,149.537 435.986,149.537L437.466,149.537C437.527,149.7 437.589,149.865 437.65,150.028Z" style="fill:rgb(208,167,168);fill-rule:nonzero;"/>
                    <path d="M438.481,152.216L435.986,152.216C435.85,152.216 435.74,152.106 435.74,151.97C435.74,151.835 435.85,151.724 435.986,151.724L438.292,151.724C438.355,151.888 438.418,152.052 438.481,152.216Z" style="fill:rgb(208,167,168);fill-rule:nonzero;"/>
                    <path d="M395.323,153.684C394.879,153.684 394.426,153.575 394.009,153.38L396.515,153.38C396.148,153.588 395.739,153.684 395.323,153.684Z" style="fill:rgb(255,227,194);fill-rule:nonzero;"/>
                </g>
            </g>
        </g>
    </g>
    <defs>
        <linearGradient id="_Linear2" x1="0" y1="0" x2="1" y2="0" gradientUnits="userSpaceOnUse" gradientTransform="matrix(-543.058,-465.803,465.803,-543.058,753.275,571.993)"><stop offset="0" style="stop-color:rgb(228,138,186);stop-opacity:1"/><stop offset="0.5" style="stop-color:rgb(245,162,196);stop-opacity:1"/><stop offset="1" style="stop-color:rgb(250,195,185);stop-opacity:1"/></linearGradient>
        <linearGradient id="_Linear3" x1="0" y1="0" x2="1" y2="0" gradientUnits="userSpaceOnUse" gradientTransform="matrix(5.18583,60.0691,-60.0691,5.18583,415.738,238.274)"><stop offset="0" style="stop-color:rgb(245,141,126);stop-opacity:1"/><stop offset="1" style="stop-color:rgb(240,94,134);stop-opacity:1"/></linearGradient>
        <linearGradient id="_Linear4" x1="0" y1="0" x2="1" y2="0" gradientUnits="userSpaceOnUse" gradientTransform="matrix(2.65121,78.2108,-78.2108,2.65121,346.783,244.82)"><stop offset="0" style="stop-color:rgb(32,190,200);stop-opacity:1"/><stop offset="1" style="stop-color:rgb(134,203,155);stop-opacity:1"/></linearGradient>
        <linearGradient id="_Linear5" x1="0" y1="0" x2="1" y2="0" gradientUnits="userSpaceOnUse" gradientTransform="matrix(2.55722,75.4379,-75.4379,2.55722,335.505,245.63)"><stop offset="0" style="stop-color:rgb(32,190,200);stop-opacity:1"/><stop offset="1" style="stop-color:rgb(134,203,155);stop-opacity:1"/></linearGradient>
        <linearGradient id="_Linear6" x1="0" y1="0" x2="1" y2="0" gradientUnits="userSpaceOnUse" gradientTransform="matrix(2.55722,75.4379,-75.4379,2.55722,367.585,244.543)"><stop offset="0" style="stop-color:rgb(32,190,200);stop-opacity:1"/><stop offset="1" style="stop-color:rgb(134,203,155);stop-opacity:1"/></linearGradient>
        <linearGradient id="_Linear7" x1="0" y1="0" x2="1" y2="0" gradientUnits="userSpaceOnUse" gradientTransform="matrix(5.18583,60.0691,-60.0691,5.18583,399.357,239.688)"><stop offset="0" style="stop-color:rgb(245,141,126);stop-opacity:1"/><stop offset="1" style="stop-color:rgb(240,94,134);stop-opacity:1"/></linearGradient>
        <linearGradient id="_Linear9" x1="0" y1="0" x2="1" y2="0" gradientUnits="userSpaceOnUse" gradientTransform="matrix(5.18583,60.0691,-60.0691,5.18583,415.738,238.274)"><stop offset="0" style="stop-color:rgb(174,109,128);stop-opacity:1"/><stop offset="1" style="stop-color:rgb(179,82,136);stop-opacity:1"/></linearGradient>
        <linearGradient id="_Linear10" x1="0" y1="0" x2="1" y2="0" gradientUnits="userSpaceOnUse" gradientTransform="matrix(5.18583,60.0691,-60.0691,5.18583,422.171,237.719)"><stop offset="0" style="stop-color:rgb(245,141,126);stop-opacity:1"/><stop offset="1" style="stop-color:rgb(240,94,134);stop-opacity:1"/></linearGradient>
    </defs>
</svg>
