<?xml version="1.0" encoding="UTF-8" standalone="no"?>
<!DOCTYPE svg PUBLIC "-//W3C//DTD SVG 1.1//EN" "http://www.w3.org/Graphics/SVG/1.1/DTD/svg11.dtd">
<svg width="100%" height="100%" viewBox="0 0 581 811" version="1.1" xmlns="http://www.w3.org/2000/svg" xmlns:xlink="http://www.w3.org/1999/xlink" xml:space="preserve" xmlns:serif="http://www.serif.com/" style="fill-rule:evenodd;clip-rule:evenodd;stroke-linejoin:round;stroke-miterlimit:2;">
    <g transform="matrix(1,0,0,1,-2235,-466)">
        <g id="Background">
        </g>
        <g id="Objects" transform="matrix(4.16667,0,0,4.16667,0,0)">
            <g>
                <clipPath id="_clip1">
                    <path d="M77.563,95.633C67.064,95.633 58.553,104.144 58.553,114.643L58.553,421.357C58.553,431.856 67.064,440.367 77.563,440.367L216.822,440.367C227.32,440.367 235.831,431.856 235.831,421.357L235.831,114.643C235.831,104.144 227.32,95.633 216.822,95.633L77.563,95.633Z" clip-rule="nonzero"/>
                </clipPath>
                <g clip-path="url(#_clip1)">
                    <g transform="matrix(0.24,-0,-0,0.24,536.4,111.84)">
                    </g>
                </g>
            </g>
            <g transform="matrix(1,0,0,1,589.667,219.856)">
                <path d="M0,-4.845C-1.571,-3.336 -2.169,-0.987 -0.67,0.825C0.74,2.532 3.471,2.894 5.233,1.533C9.487,-1.75 5.053,-7.809 0.462,-6.555C-0.388,-6.323 -0.176,-5.111 0.664,-5.063C2.006,-4.987 3.443,-4.935 4.516,-3.995C5.667,-2.984 5.692,-1.275 4.747,-0.113C2.245,2.964 -2.102,-1.567 0.527,-4.318C0.858,-4.665 0.347,-5.178 0,-4.845" style="fill:rgb(124,171,255);fill-rule:nonzero;"/>
            </g>
            <g transform="matrix(1,0,0,1,633.486,226.157)">
                <path d="M0,-5.949C0.576,-3.81 1.211,-1.694 1.87,0.421C2.028,0.93 2.51,1.089 2.947,0.792C4.667,-0.376 6.387,-1.524 8.016,-2.817C8.329,-3.066 8.26,-3.567 7.95,-3.78C6.043,-5.089 3.468,-7.021 1.048,-7.034C0.432,-7.038 0.002,-6.172 0.626,-5.812C1.603,-5.249 2.772,-5.048 3.816,-4.614C5.021,-4.114 6.212,-3.526 7.275,-2.767C7.299,-3.118 7.322,-3.47 7.347,-3.821C5.526,-2.699 3.812,-1.443 2.081,-0.191C2.422,-0.123 2.762,-0.054 3.103,0.014C2.364,-2.075 1.606,-4.15 0.787,-6.209C0.614,-6.643 -0.123,-6.405 0,-5.949" style="fill:rgb(255,112,129);fill-rule:nonzero;"/>
            </g>
            <g transform="matrix(0.647732,0.761868,0.761868,-0.647732,644.655,227.693)">
                <path d="M3.515,-1.804C4.237,0.935 4.86,3.839 5.093,6.664C5.178,7.702 3.737,7.834 3.515,6.852C2.902,4.141 2.617,1.235 2.489,-1.539C2.463,-2.096 3.351,-2.425 3.515,-1.804" style="fill:rgb(251,197,128);fill-rule:nonzero;"/>
            </g>
            <g transform="matrix(0.901474,-0.432832,-0.432832,-0.901474,553.071,238.094)">
                <path d="M-2.045,-0.411C-1.322,2.328 -0.699,5.233 -0.467,8.057C-0.381,9.095 -1.823,9.228 -2.045,8.246C-2.658,5.535 -2.942,2.628 -3.07,-0.146C-3.096,-0.703 -2.208,-1.031 -2.045,-0.411" style="fill:rgb(255,149,126);fill-rule:nonzero;"/>
            </g>
            <g transform="matrix(1,0,0,1,559.451,216.864)">
                <path d="M0,-2.146C-0.048,-2.188 -0.097,-2.231 -0.145,-2.273C-0.777,-2.834 -1.815,-2.944 -2.432,-2.273C-3.054,-1.595 -3.031,-0.664 -2.432,0.014C-2.389,0.062 -2.347,0.109 -2.304,0.158C-1.737,0.798 -0.57,0.779 0,0.158C0.566,-0.46 0.681,-1.543 0,-2.146" style="fill:rgb(36,19,82);fill-rule:nonzero;"/>
            </g>
            <g transform="matrix(1,0,0,1,627.575,231.164)">
                <path d="M0,55.271C0,55.271 -26.863,61.52 -37.654,50.729L-33.793,24.955C-32.619,17.546 -33.319,3.292 -27.646,-1.765C-26.547,-2.744 -25.491,-3.231 -25.491,-3.231C-21.511,-5.153 -14.43,-6.19 -7.632,-6.217C0.627,-6.249 9.127,-0.004 11.296,7.965L2.357,28.874L0,55.271Z" style="fill:rgb(255,112,129);fill-rule:nonzero;"/>
            </g>
            <g transform="matrix(1,0,0,1,624.919,279.721)">
                <path d="M0,-37.381C0,-37.381 12.034,-14.201 6.059,-12.967C-13.598,-8.906 -25.008,-5.576 -25.008,-5.576L-26.01,2.057C-25.716,3.211 13.76,2.213 18.435,-3.09C21.736,-6.835 26.125,-15.489 16.788,-34.22L13.952,-40.592L0,-37.381Z" style="fill:rgb(255,175,167);fill-rule:nonzero;"/>
            </g>
            <g transform="matrix(1,0,0,1,602.32,251.834)">
                <path d="M0,-21.434L-29.973,-9.83L-30.911,-25.554L-37.328,-28.036C-37.328,-28.036 -46.633,-2.797 -34.996,1.902C-23.359,6.602 -10.247,-2.082 -10.247,-2.082L0,-21.434Z" style="fill:rgb(255,175,167);fill-rule:nonzero;"/>
            </g>
            <g transform="matrix(-0.785049,-0.619433,-0.619433,0.785049,568.609,243.809)">
                <path d="M-18.683,-36.73C-12.535,-27.633 -10.056,-20.702 -2.299,-6.757L-18.683,1.799L-26.325,-9.562L-18.683,-36.73Z" style="fill:rgb(255,112,129);fill-rule:nonzero;"/>
            </g>
            <g transform="matrix(0.395337,0.918536,0.918536,-0.395337,636.105,231.702)">
                <path d="M1.686,-14.867L20.918,-14.867L24.82,2.12L1.98,-0.626L1.497,-15.307" style="fill:rgb(255,112,129);fill-rule:nonzero;"/>
            </g>
            <g transform="matrix(0.0438745,0.999037,0.999037,-0.0438745,618.933,245.276)">
                <path d="M5.68,-5.042C5.637,-1.384 5.953,2.211 6.162,5.855C6.18,6.173 5.729,6.174 5.68,5.876C5.093,2.303 5.102,-1.414 5.252,-5.023C5.264,-5.295 5.684,-5.32 5.68,-5.042" style="fill:rgb(0,44,104);fill-rule:nonzero;"/>
            </g>
            <g transform="matrix(-0.999943,-0.0107188,-0.0107188,0.999943,618.239,255.721)">
                <path d="M-11.993,-25.167C0.332,-23.921 -8.301,-5.822 -11.522,-0.349C-11.7,-0.044 -12.171,-0.324 -11.993,-0.631C-8.792,-6.161 -0.201,-22.998 -12.037,-24.867C-12.206,-24.894 -12.165,-25.185 -11.993,-25.167" style="fill:rgb(0,44,104);fill-rule:nonzero;"/>
            </g>
            <g transform="matrix(-0.991441,-0.130559,-0.130559,0.991441,592.506,259.55)">
                <path d="M-1.358,-18.804C-0.643,-12.6 -0.455,-6.22 -0.896,0.013C-0.914,0.271 -1.356,0.279 -1.358,0.015C-1.424,-6.249 -1.496,-12.497 -1.675,-18.761C-1.681,-18.96 -1.383,-19.013 -1.358,-18.804" style="fill:rgb(0,44,104);fill-rule:nonzero;"/>
            </g>
            <g transform="matrix(1,0,0,1,625.185,184.805)">
                <path d="M0,22.676C0.188,20.071 0.377,17.466 0.566,14.861C2.613,14.285 3.678,11.665 2.86,9.701C2.044,7.737 -0.277,6.634 -2.383,6.935C-1.054,6.03 -1.156,3.869 -2.247,2.688C-3.337,1.507 -5.047,1.124 -6.653,1.062C-8.26,1 -9.887,1.195 -11.467,0.902C-12.867,0.641 -14.239,0 -15.652,0.178C-17.065,0.357 -18.417,1.947 -17.655,3.15C-19.693,2.851 -21.898,2.579 -23.709,3.562C-25.52,4.545 -26.429,7.342 -24.872,8.692C-25.9,9.216 -26.158,10.704 -25.58,11.703C-25.002,12.701 -23.818,13.226 -22.667,13.309C-21.517,13.391 -20.375,13.1 -19.258,12.811" style="fill:rgb(36,19,82);fill-rule:nonzero;"/>
            </g>
            <g transform="matrix(1,0,0,1,624.852,215.626)">
                <path d="M0,-13.211L-0.411,-7.796C-0.411,-7.796 4.193,-7.175 2.881,-2.976C1.568,1.223 -1.581,-0.614 -1.581,-0.614C-1.581,-0.614 -2.368,10.147 -13.392,6.735C-22.165,4.019 -21.628,-7.341 -20.515,-17.026C-20.083,-20.778 -16.534,-23.358 -12.827,-22.636L-6.2,-21.345C-2.369,-20.599 0.296,-17.102 0,-13.211" style="fill:rgb(255,175,167);fill-rule:nonzero;"/>
            </g>
            <g transform="matrix(1,0,0,1,624.441,234.014)">
                <path d="M0,-21.69L-2.97,-5.851C-3.639,-2.283 -7.157,0 -10.688,-0.842C-13.962,-1.624 -16.058,-4.82 -15.47,-8.133L-13.857,-17.211L0,-21.69Z" style="fill:rgb(255,175,167);fill-rule:nonzero;"/>
            </g>
            <g transform="matrix(1,0,0,1,612.249,203.381)">
                <path d="M0,9.122C0.017,9.116 0.05,9.344 -0.274,9.502C-0.612,9.652 -1.152,9.325 -1.292,8.788C-1.472,8.271 -1.444,7.645 -1.416,7.002C-1.38,6.318 -1.343,5.621 -1.304,4.889C-1.116,1.892 -0.848,-0.53 -0.704,-0.522C-0.561,-0.512 -0.597,1.924 -0.784,4.922C-0.837,5.652 -0.888,6.35 -0.937,7.033C-0.994,7.682 -1.047,8.248 -0.939,8.684C-0.859,9.124 -0.538,9.34 -0.328,9.307C-0.115,9.271 -0.037,9.094 0,9.122" style="fill:rgb(36,19,82);fill-rule:nonzero;"/>
            </g>
            <g transform="matrix(1,0,0,1,608.673,223.297)">
                <path d="M0,-2.041C0.049,-2.107 0.566,-1.748 1.477,-1.343C2.381,-0.936 3.71,-0.52 5.217,-0.489C6.724,-0.457 8.069,-0.816 8.99,-1.185C9.916,-1.551 10.449,-1.888 10.495,-1.82C10.532,-1.771 10.067,-1.319 9.141,-0.848C8.223,-0.377 6.809,0.066 5.205,0.032C3.604,-0.001 2.209,-0.504 1.312,-1.013C0.405,-1.523 -0.04,-1.994 0,-2.041" style="fill:rgb(36,19,82);fill-rule:nonzero;"/>
            </g>
            <g transform="matrix(1,0,0,1,610.826,214.576)">
                <path d="M0,0.149C0.061,0.096 0.304,0.331 0.767,0.536C1.219,0.744 1.935,0.897 2.642,0.672C3.347,0.442 3.84,-0.099 4.086,-0.531C4.343,-0.968 4.403,-1.3 4.483,-1.292C4.545,-1.293 4.622,-0.926 4.419,-0.374C4.228,0.164 3.688,0.877 2.801,1.168C1.91,1.449 1.057,1.184 0.587,0.858C0.102,0.527 -0.051,0.184 0,0.149" style="fill:rgb(36,19,82);fill-rule:nonzero;"/>
            </g>
            <g transform="matrix(1,0,0,1,624.788,210.546)">
                <path d="M0,2.63C-0.007,2.551 0.268,2.512 0.574,2.324C0.725,2.227 0.858,2.089 0.905,1.896C0.954,1.699 0.898,1.516 0.745,1.467C0.619,1.418 0.499,1.459 0.471,1.506L0.029,1.276C0.444,0.419 0.815,-0.173 0.923,-0.125C1.03,-0.077 0.842,0.595 0.485,1.478L0.043,1.248C0.229,0.932 0.637,0.86 0.931,0.98C1.146,1.051 1.336,1.267 1.387,1.47C1.449,1.679 1.422,1.88 1.361,2.046C1.239,2.385 0.952,2.584 0.731,2.657C0.269,2.803 -0.001,2.689 0,2.63" style="fill:rgb(36,19,82);fill-rule:nonzero;"/>
            </g>
            <g transform="matrix(-0.254235,0.967142,0.967142,0.254235,617.846,201.564)">
                <path d="M1.302,-1.256C1.191,-1.343 0.752,-0.863 0.754,-0.111C0.751,0.641 1.19,1.12 1.302,1.033C1.428,0.956 1.267,0.477 1.275,-0.111C1.267,-0.699 1.428,-1.178 1.302,-1.256" style="fill:rgb(36,19,82);fill-rule:nonzero;"/>
            </g>
            <g transform="matrix(-0.0870051,0.996208,0.996208,0.0870051,608.072,199.645)">
                <path d="M1.457,-1.18C1.34,-1.256 0.914,-0.719 0.918,0.084C0.915,0.887 1.34,1.424 1.457,1.349C1.588,1.279 1.431,0.742 1.439,0.084C1.431,-0.575 1.588,-1.111 1.457,-1.18" style="fill:rgb(36,19,82);fill-rule:nonzero;"/>
            </g>
            <g transform="matrix(1,0,0,1,624.441,189.979)">
                <path d="M0,17.851C-3.077,14.851 -3.98,9.853 -4.816,5.639C-7.665,7.714 -11.585,8.224 -14.87,6.948C-15.901,8.16 -17.113,9.218 -18.452,10.077C-18.833,10.321 -19.284,10.559 -19.718,10.428C-20.233,10.272 -20.464,9.68 -20.587,9.155C-20.979,7.474 -20.994,5.674 -20.407,4.051C-19.821,2.427 -18.592,1.001 -16.982,0.378C-15.261,-0.289 -13.325,0.001 -11.538,0.464C-8.847,1.162 -6.253,2.234 -3.854,3.639C-1.5,5.018 0.762,6.843 1.761,9.383C2.76,11.922 2.755,16.856 0.347,18.14" style="fill:rgb(36,19,82);fill-rule:nonzero;"/>
            </g>
            <g transform="matrix(0.997446,0.0714176,0.0714176,-0.997446,617.072,206.906)">
                <path d="M0.059,-0.002C-0.085,-0.002 -0.201,0.371 -0.201,0.831C-0.202,1.292 -0.084,1.664 0.06,1.664C0.203,1.664 0.32,1.291 0.32,0.831C0.319,0.371 0.204,-0.002 0.059,-0.002" style="fill:rgb(36,19,82);fill-rule:nonzero;"/>
            </g>
            <g transform="matrix(0.997446,0.0714176,0.0714176,-0.997446,608.221,205.776)">
                <path d="M0.059,-0.002C-0.085,-0.002 -0.201,0.371 -0.201,0.831C-0.202,1.292 -0.084,1.664 0.06,1.664C0.203,1.664 0.32,1.291 0.32,0.831C0.319,0.371 0.204,-0.002 0.059,-0.002" style="fill:rgb(36,19,82);fill-rule:nonzero;"/>
            </g>
            <g transform="matrix(1,0,0,1,564.667,210.552)">
                <path d="M0,13.771C0,13.771 1.331,5.596 2.922,5.684C4.513,5.772 7.694,5.684 7.694,5.684C7.694,5.684 7.959,-2.092 8.843,-0.855C9.727,0.382 10.005,10.844 6.596,15.863L0,13.771Z" style="fill:rgb(255,175,167);fill-rule:nonzero;"/>
            </g>
            <g transform="matrix(-0.535925,-0.844266,-0.844266,0.535925,585.554,274.316)">
                <path d="M-7.549,-12.213C-7.549,-12.213 -2.013,1.166 -3.725,1.922C-5.436,2.679 -7.549,2.832 -7.549,2.832L-14.104,-8.052L-7.549,-12.213Z" style="fill:rgb(255,175,167);fill-rule:nonzero;"/>
            </g>
            <g transform="matrix(1,0,0,1,615.391,252.68)">
                <path d="M0,29.977L-0.109,28.002L-29.484,26.206L-39.336,-0.146L-71.578,1.626L-60.578,30.123L0,29.977Z" style="fill:rgb(111,53,165);fill-rule:nonzero;"/>
            </g>
            <g opacity="0.41">
                <g transform="matrix(0.0550182,0.998485,0.998485,-0.0550182,563.715,264.346)">
                    <path d="M2.387,-2.259C3.707,-2.26 4.777,-1.19 4.778,0.131C4.778,1.451 3.708,2.521 2.387,2.521C1.067,2.521 -0.004,1.451 -0.003,0.131C-0.003,-1.189 1.067,-2.258 2.387,-2.259" style="fill:white;fill-rule:nonzero;"/>
                </g>
            </g>
            <g opacity="0.41">
                <g transform="matrix(0.0549736,0.998488,0.998488,-0.0549736,563.609,263.396)">
                    <path d="M3.342,-3.163C5.19,-3.163 6.689,-1.664 6.689,0.184C6.689,2.032 5.19,3.531 3.342,3.532C1.493,3.531 -0.006,2.033 -0.006,0.184C-0.006,-1.664 1.493,-3.163 3.342,-3.163" style="fill:white;fill-rule:nonzero;"/>
                </g>
            </g>
            <g transform="matrix(1,0,0,1,539.028,310.538)">
                <path d="M0,-27.298L126.094,-28.872L133.479,-24.994C133.479,-24.994 36.68,1.574 0,-27.298" style="fill:rgb(226,211,245);fill-rule:nonzero;"/>
            </g>
            <g transform="matrix(1,0,0,1,637.661,213.459)">
                <path d="M0,-23.494C-0.381,-22.753 0.867,-3.61 0.867,-3.61L10.294,-4.393L9.194,0.661L13.8,-4.534L23.023,-5.599L22.463,-24.155L0,-23.494Z" style="fill:rgb(226,211,245);fill-rule:nonzero;"/>
            </g>
            <g transform="matrix(1,0,0,1,613.716,175.19)">
                <path d="M0,-15.049C0,-15.049 -6.496,-14.724 -6.712,-7.795C-6.712,-7.795 -6.604,-4.006 -4.547,-2.599C-2.49,-1.192 -2.599,0.325 -2.599,0.325L2.814,0.325C2.814,0.325 2.599,-1.624 3.465,-2.707C4.331,-3.79 6.496,-6.063 6.171,-9.419C5.847,-12.776 3.356,-15.374 0,-15.049" style="fill:rgb(255,188,122);fill-rule:nonzero;"/>
            </g>
            <g transform="matrix(0.0846502,0.996411,0.996411,-0.0846502,613.336,173.919)">
                <path d="M3.087,-2.593C3.161,-0.649 3.54,1.292 3.592,3.225C3.598,3.504 3.175,3.635 3.087,3.337C2.541,1.501 2.574,-0.654 2.625,-2.554C2.633,-2.844 3.075,-2.897 3.087,-2.593" style="fill:rgb(111,53,165);fill-rule:nonzero;"/>
            </g>
            <g transform="matrix(1,0,0,1,611.769,178.089)">
                <path d="M0,0.823C0.775,0.778 1.553,0.746 2.329,0.754C3.102,0.762 3.893,0.89 4.659,0.834C4.941,0.813 5.028,0.399 4.729,0.321C3.245,-0.067 1.438,0.157 -0.062,0.368C-0.319,0.405 -0.259,0.838 0,0.823" style="fill:rgb(111,53,165);fill-rule:nonzero;"/>
            </g>
            <g transform="matrix(0.164099,0.986444,0.986444,-0.164099,613.147,178.973)">
                <path d="M1.059,-0.927C1.217,-0.265 1.521,0.395 1.618,1.064C1.666,1.397 1.21,1.535 1.059,1.236C0.747,0.622 0.688,-0.175 0.602,-0.851C0.565,-1.149 0.99,-1.215 1.059,-0.927" style="fill:rgb(111,53,165);fill-rule:nonzero;"/>
            </g>
            <g transform="matrix(1,0,0,1,612.715,169.388)">
                <path d="M0,6.051C0.15,4.125 -0.499,1.994 -0.827,0.104C-1.016,0.184 -1.204,0.263 -1.393,0.343C-1.12,0.79 -0.669,2.08 0.026,2.034C0.744,1.986 1.011,0.705 1.112,0.183L0.492,0.183C0.631,0.778 0.649,2.213 1.583,2.077C2.373,1.962 2.907,0.788 3.149,0.144C2.935,0.085 2.72,0.026 2.505,-0.033C2.027,1.851 1.798,4.236 2.276,6.134C2.362,6.476 2.904,6.408 2.894,6.051C2.836,4.055 2.556,2.101 3.149,0.144C3.276,-0.276 2.658,-0.425 2.505,-0.033C2.418,0.189 1.906,1.453 1.423,1.29C1.301,1.249 1.139,0.122 1.112,0.013C1.04,-0.282 0.55,-0.305 0.492,0.013C0.422,0.4 0.262,1.454 -0.195,1.139C-0.459,0.957 -0.692,0.308 -0.858,0.03C-1.05,-0.289 -1.477,-0.063 -1.424,0.269C-1.125,2.159 -1.044,4.361 -0.284,6.129C-0.219,6.281 -0.01,6.185 0,6.051" style="fill:rgb(111,53,165);fill-rule:nonzero;"/>
            </g>
            <g transform="matrix(0.348633,0.937259,0.937259,-0.348633,594.879,168.017)">
                <path d="M4.252,-2.956C4.398,0.072 4.694,3.14 4.635,6.171C4.63,6.412 4.281,6.455 4.252,6.203C3.912,3.194 3.926,0.111 3.79,-2.915C3.777,-3.212 4.238,-3.255 4.252,-2.956" style="fill:rgb(255,188,122);fill-rule:nonzero;"/>
            </g>
            <g transform="matrix(0.11636,0.993207,0.993207,-0.11636,599.213,161.395)">
                <path d="M2.783,-2.412C2.958,-0.603 3.281,1.264 3.262,3.084C3.258,3.388 2.843,3.451 2.783,3.14C2.436,1.354 2.419,-0.54 2.265,-2.351C2.238,-2.684 2.751,-2.747 2.783,-2.412" style="fill:rgb(255,188,122);fill-rule:nonzero;"/>
            </g>
            <g transform="matrix(0.582022,-0.813173,-0.813173,-0.582022,606.51,157.465)">
                <path d="M-3.477,-1.698C-3.216,1.004 -2.543,3.887 -2.752,6.603C-2.785,7.032 -3.387,7.022 -3.477,6.63C-4.085,3.995 -3.849,1.08 -3.995,-1.613C-4.013,-1.943 -3.511,-2.04 -3.477,-1.698" style="fill:rgb(255,188,122);fill-rule:nonzero;"/>
            </g>
            <g transform="matrix(1,0,0,1,610.476,155.164)">
                <path d="M0,3.377C0.02,2.801 -0.423,2.253 -0.703,1.775C-1.032,1.21 -1.317,0.557 -1.772,0.085C-2.003,-0.155 -2.471,0.09 -2.352,0.422C-2.132,1.04 -1.679,1.588 -1.32,2.136C-1.015,2.602 -0.723,3.25 -0.197,3.49C-0.107,3.532 -0.004,3.483 0,3.377" style="fill:rgb(255,188,122);fill-rule:nonzero;"/>
            </g>
            <g transform="matrix(0.995775,-0.0918267,-0.0918267,-0.995775,615.182,157.324)">
                <path d="M-0.391,-0.019C-0.047,2.717 0.321,5.615 0.253,8.373C0.242,8.784 -0.32,8.85 -0.391,8.432C-0.853,5.711 -0.901,2.791 -0.95,0.033C-0.957,-0.326 -0.437,-0.381 -0.391,-0.019" style="fill:rgb(255,188,122);fill-rule:nonzero;"/>
            </g>
            <g transform="matrix(0.932105,0.362189,0.362189,-0.932105,617.423,158.298)">
                <path d="M0.703,-0.16C0.981,1.041 1.287,2.254 1.374,3.487C1.406,3.926 0.809,4.02 0.703,3.594C0.403,2.394 0.317,1.147 0.208,-0.081C0.18,-0.404 0.63,-0.476 0.703,-0.16" style="fill:rgb(255,188,122);fill-rule:nonzero;"/>
            </g>
            <g transform="matrix(1,0,0,1,620.516,156.219)">
                <path d="M0,4.786C1.371,4.211 2.661,3.461 3.965,2.749C5.252,2.047 6.693,1.436 7.813,0.484C8.044,0.287 7.798,-0.112 7.52,-0.022C6.207,0.406 5.02,1.248 3.826,1.932C2.475,2.707 1.084,3.442 -0.183,4.353C-0.38,4.496 -0.268,4.898 0,4.786" style="fill:rgb(255,188,122);fill-rule:nonzero;"/>
            </g>
            <g transform="matrix(1,0,0,1,622.318,163.643)">
                <path d="M0,0.949C1.007,1.315 2.762,1.039 3.545,0.287C3.821,0.023 3.527,-0.366 3.198,-0.308C2.658,-0.213 2.159,0.073 1.62,0.199C1.084,0.324 0.534,0.318 0,0.433C-0.278,0.494 -0.229,0.866 0,0.949" style="fill:rgb(255,188,122);fill-rule:nonzero;"/>
            </g>
            <g transform="matrix(-0.14586,0.989305,0.989305,0.14586,630.578,164.779)">
                <path d="M5.91,-7.056C6.304,-3.071 6.817,1.057 6.741,5.061C6.732,5.547 5.975,5.502 5.91,5.051C5.345,1.121 5.36,-3.008 5.263,-6.976C5.253,-7.387 5.867,-7.48 5.91,-7.056" style="fill:rgb(255,188,122);fill-rule:nonzero;"/>
            </g>
            <g transform="matrix(1,0,0,1,567.701,228.914)">
                <path d="M0,8.519C0.129,7.662 0.104,6.846 0.585,6.09C1.541,4.584 2.899,4.963 4.215,5.625C5.555,6.3 6.816,6.704 8.272,6.074C10.548,5.089 11.615,1.658 9.444,0.044C8.741,-0.479 8.049,0.384 8.144,1.044C8.274,1.968 8.732,2.983 7.941,3.777C6.885,4.838 5.645,3.947 4.59,3.471C3.45,2.957 2.238,2.844 1.063,3.319C-0.962,4.138 -2.43,6.883 -0.822,8.736C-0.596,8.998 -0.054,8.88 0,8.519" style="fill:rgb(126,46,132);fill-rule:nonzero;"/>
            </g>
            <g transform="matrix(0.500412,0.865787,0.865787,-0.500412,597.73,234.391)">
                <path d="M4.002,-2.472C4.724,0.267 5.347,3.173 5.579,5.997C5.665,7.035 4.224,7.167 4.002,6.185C3.389,3.474 3.104,0.567 2.975,-2.207C2.95,-2.762 3.837,-3.092 4.002,-2.472" style="fill:rgb(251,197,128);fill-rule:nonzero;"/>
            </g>
            <g transform="matrix(1,0,0,1,584.03,247.886)">
                <path d="M0,-5.949C0.576,-3.809 1.211,-1.694 1.87,0.421C2.028,0.93 2.51,1.089 2.947,0.792C4.667,-0.375 6.387,-1.524 8.015,-2.817C8.328,-3.066 8.26,-3.567 7.95,-3.78C6.043,-5.089 3.467,-7.021 1.047,-7.034C0.432,-7.038 0.002,-6.172 0.626,-5.812C1.603,-5.249 2.772,-5.048 3.815,-4.614C5.02,-4.114 6.212,-3.526 7.275,-2.767L7.346,-3.821C5.526,-2.699 3.812,-1.443 2.081,-0.191C2.421,-0.123 2.762,-0.054 3.103,0.014C2.364,-2.075 1.606,-4.15 0.787,-6.209C0.614,-6.643 -0.123,-6.405 0,-5.949" style="fill:rgb(240,231,246);fill-rule:nonzero;"/>
            </g>
            <g transform="matrix(0.17793,0.984043,0.984043,-0.17793,590.826,258.361)">
                <path d="M4.369,-3.876C5.078,-1.135 5.689,1.772 5.917,4.597C6,5.634 4.587,5.761 4.369,4.779C3.769,2.065 3.49,-0.842 3.363,-3.616C3.338,-4.172 4.208,-4.497 4.369,-3.876" style="fill:rgb(126,46,132);fill-rule:nonzero;"/>
            </g>
            <g transform="matrix(1,0,0,1,642.819,199.556)">
                <path d="M0,-1.026L1.981,5.864L4.755,5.323L4.484,3.936L5.271,3.463L6.758,4.933L11.456,4.017L12.065,2.22L10.728,1.921L12.454,1.344L12.079,-0.581L10.586,-0.45L12.636,-1.009L12.17,-3.398L7.395,-2.467C7.395,-2.467 7.703,-5.805 6.293,-6.89L5.215,-6.679C5.215,-6.679 5.579,-5.631 5.545,-4.985C5.511,-4.339 4.572,-1.358 4.572,-1.358L3.106,-0.672L2.758,-1.644L0,-1.026Z" style="fill:white;fill-rule:nonzero;"/>
            </g>
            <g transform="matrix(1,0,0,1,545.657,211.431)">
                <path d="M0,-25.8L1.599,-6.715L36.744,-6.715L38.69,0L40.741,-7.364L47.438,-7.753L44.351,-24.847L0,-25.8Z" style="fill:rgb(226,211,245);fill-rule:nonzero;"/>
            </g>
            <g transform="matrix(0.00157237,0.999999,0.999999,-0.00157237,568.06,174.203)">
                <path d="M18.461,-17.819C17.973,-5.707 18.014,6.353 19.141,18.431C19.182,18.865 18.495,18.868 18.461,18.433C17.526,6.374 17.145,-5.736 17.875,-17.818C17.898,-18.191 18.477,-18.198 18.461,-17.819" style="fill:white;fill-rule:nonzero;"/>
            </g>
            <g transform="matrix(0.00157237,0.999999,0.999999,-0.00157237,568.766,177.97)">
                <path d="M18.461,-17.819C17.973,-5.707 18.014,6.352 19.141,18.431C19.182,18.865 18.495,18.868 18.461,18.433C17.526,6.373 17.145,-5.736 17.875,-17.818C17.898,-18.192 18.477,-18.198 18.461,-17.819" style="fill:white;fill-rule:nonzero;"/>
            </g>
            <g transform="matrix(0.0110322,0.999939,0.999939,-0.0110322,562.897,187.253)">
                <path d="M12.227,-11.99C12.603,-3.864 12.089,4.179 12.907,12.295C12.95,12.727 12.261,12.739 12.227,12.302C11.582,4.195 11.839,-3.864 11.641,-11.984C11.632,-12.362 12.209,-12.367 12.227,-11.99" style="fill:white;fill-rule:nonzero;"/>
            </g>
        </g>
        <g id="Designed-by-freepik" serif:id="Designed by freepik">
        </g>
    </g>
</svg>
