<svg width="47" height="47" viewBox="0 0 47 47" fill="none" xmlns="http://www.w3.org/2000/svg">
<path fill-rule="evenodd" clip-rule="evenodd" d="M27.409 17.37L23.911 19.946L20.414 17.37C20.255 17.212 19.997 17.212 19.837 17.37C19.678 17.53 19.678 17.788 19.837 17.947L23.495 20.713V23.447C23.495 23.671 23.678 23.853 23.903 23.853C24.127 23.853 24.311 23.671 24.311 23.447V20.726L27.984 17.947C28.144 17.788 28.144 17.53 27.984 17.37C27.826 17.212 27.568 17.212 27.409 17.37Z" fill="white"/>
<path fill-rule="evenodd" clip-rule="evenodd" d="M16.351 9.85999C16.352 10.827 15.974 11.736 15.289 12.422C14.603 13.108 13.694 13.486 12.728 13.486H12.726C10.729 13.486 9.10201 11.86 9.10101 9.86298C9.10101 8.89598 9.479 7.98599 10.164 7.29999C10.85 6.61399 11.76 6.23702 12.726 6.23602C14.724 6.23602 16.35 7.86199 16.351 9.85999ZM9.241 6.37799C8.31 7.31099 7.797 8.54798 7.797 9.86298C7.798 12.58 10.009 14.79 12.726 14.79H12.728C14.042 14.79 15.28 14.276 16.211 13.345C17.143 12.412 17.656 11.174 17.656 9.85999C17.654 7.14299 15.443 4.93201 12.726 4.93201C11.411 4.93201 10.173 5.44599 9.241 6.37799Z" fill="white"/>
<path fill-rule="evenodd" clip-rule="evenodd" d="M9.67201 16.306C12.025 17.868 14.55 17.127 15.938 16.292C17.265 17.794 17.575 19.968 17.646 21.029L7.81602 21.032C8.01702 18.543 9.09801 16.976 9.67201 16.306ZM7.13301 22.336L18.318 22.334C18.669 22.334 18.958 22.055 18.969 21.703C18.975 21.527 19.082 17.365 16.464 14.968C16.23 14.753 15.877 14.739 15.626 14.932C15.597 14.954 12.702 17.128 10.011 14.937C9.766 14.736 9.411 14.742 9.171 14.95C9.064 15.043 6.544 17.283 6.481 21.675C6.479 21.849 6.54602 22.018 6.66902 22.142C6.79202 22.266 6.95801 22.336 7.13301 22.336Z" fill="white"/>
<path fill-rule="evenodd" clip-rule="evenodd" d="M32.23 7.29999C32.916 6.61399 33.826 6.23702 34.792 6.23602C36.79 6.23602 38.416 7.86199 38.417 9.85999C38.417 10.827 38.04 11.736 37.354 12.422C36.669 13.108 35.76 13.486 34.793 13.486H34.792C32.794 13.486 31.168 11.86 31.167 9.86298C31.167 8.89598 31.544 7.98599 32.23 7.29999ZM34.792 14.79H34.793C36.108 14.79 37.345 14.276 38.276 13.345C39.208 12.412 39.722 11.175 39.721 9.85999C39.72 7.14299 37.509 4.93201 34.792 4.93201C33.477 4.93201 32.239 5.44599 31.307 6.37799C30.375 7.31099 29.863 8.54798 29.863 9.86298C29.864 12.58 32.075 14.79 34.792 14.79Z" fill="white"/>
<path fill-rule="evenodd" clip-rule="evenodd" d="M29.883 21.032C30.083 18.543 31.164 16.976 31.739 16.306C34.091 17.868 36.616 17.127 38.004 16.292C39.331 17.794 39.641 19.968 39.712 21.029L29.883 21.032ZM41.035 21.703C41.041 21.527 41.147 17.365 38.53 14.968C38.296 14.753 37.943 14.739 37.692 14.932C37.663 14.954 34.768 17.128 32.077 14.937C31.831 14.736 31.477 14.742 31.237 14.95C31.13 15.043 28.61 17.283 28.548 21.675C28.545 21.849 28.613 22.018 28.735 22.142C28.858 22.266 29.025 22.336 29.2 22.336L40.384 22.334C40.735 22.334 41.024 22.055 41.035 21.703Z" fill="white"/>
<path fill-rule="evenodd" clip-rule="evenodd" d="M26.473 32.749C25.788 33.435 24.878 33.813 23.912 33.813H23.911C21.913 33.813 20.287 32.188 20.286 30.189C20.286 29.223 20.663 28.313 21.348 27.627C22.034 26.941 22.944 26.563 23.911 26.563C25.909 26.563 27.535 28.189 27.536 30.187C27.536 31.153 27.159 32.063 26.473 32.749ZM23.911 25.259C22.595 25.259 21.357 25.772 20.426 26.705C19.494 27.637 18.981 28.875 18.981 30.19C18.982 32.907 21.194 35.117 23.911 35.117H23.912C25.227 35.117 26.464 34.604 27.396 33.671C28.328 32.739 28.841 31.501 28.84 30.187C28.839 27.469 26.627 25.259 23.911 25.259Z" fill="white"/>
<path fill-rule="evenodd" clip-rule="evenodd" d="M20.857 36.633C23.21 38.195 25.735 37.454 27.123 36.619C28.449 38.12 28.76 40.295 28.831 41.356L19.001 41.358C19.201 38.87 20.282 37.303 20.857 36.633ZM18.318 42.663L29.502 42.661C29.854 42.661 30.143 42.382 30.154 42.03C30.16 41.854 30.266 37.692 27.648 35.294C27.415 35.081 27.062 35.065 26.811 35.258C26.782 35.28 23.887 37.455 21.196 35.264C20.95 35.063 20.596 35.069 20.356 35.277C20.249 35.37 17.729 37.609 17.666 42.001C17.663 42.176 17.73 42.344 17.853 42.469C17.976 42.593 18.143 42.663 18.318 42.663Z" fill="white"/>
</svg>
