<?xml version="1.0" encoding="UTF-8" standalone="no"?>
<!DOCTYPE svg PUBLIC "-//W3C//DTD SVG 1.1//EN" "http://www.w3.org/Graphics/SVG/1.1/DTD/svg11.dtd">
<svg width="100%" height="100%" viewBox="0 0 17 17" version="1.1" xmlns="http://www.w3.org/2000/svg" xmlns:xlink="http://www.w3.org/1999/xlink" xml:space="preserve" xmlns:serif="http://www.serif.com/" style="fill-rule:evenodd;clip-rule:evenodd;stroke-linejoin:round;stroke-miterlimit:2;">
    <g transform="matrix(1,0,0,1,-7,-56)">
        <g>
            <path d="M22.73,65.544C22.585,65.544 22.468,65.662 22.468,65.806C22.468,65.95 22.585,66.067 22.73,66.067C22.874,66.067 22.991,65.95 22.991,65.806C22.991,65.662 22.874,65.544 22.73,65.544Z" style="fill:rgb(46,209,162);fill-rule:nonzero;"/>
            <path d="M17.632,65.266L18.187,65.821C18.238,65.873 18.323,65.873 18.375,65.821L19.031,65.164C19.057,65.139 19.07,65.105 19.07,65.07C19.07,65.035 19.057,65.001 19.032,64.977L18.476,64.421L17.632,65.266Z" style="fill:rgb(132,150,165);fill-rule:nonzero;"/>
            <path d="M12.223,58.168L11.351,57.296C11.326,57.27 11.293,57.257 11.257,57.257C11.222,57.257 11.188,57.27 11.163,57.296L10.542,57.917C10.49,57.969 10.49,58.053 10.542,58.105L11.414,58.977L12.223,58.168Z" style="fill:rgb(132,150,165);fill-rule:nonzero;"/>
            <path d="M21.623,67.744C21.479,67.744 21.361,67.861 21.361,68.005C21.361,68.149 21.479,68.267 21.623,68.267C21.767,68.267 21.884,68.149 21.884,68.005C21.884,67.861 21.767,67.744 21.623,67.744Z" style="fill:rgb(46,209,162);fill-rule:nonzero;"/>
            <path d="M11.627,60.116C11.63,60.113 11.634,60.11 11.638,60.107C11.649,60.098 11.66,60.089 11.671,60.081C11.689,60.066 11.707,60.052 11.725,60.039C11.737,60.03 11.749,60.021 11.761,60.012C11.779,59.999 11.796,59.987 11.814,59.974C11.827,59.966 11.84,59.957 11.853,59.949C11.871,59.937 11.889,59.925 11.908,59.914C11.92,59.906 11.933,59.898 11.946,59.891C11.965,59.879 11.984,59.869 12.004,59.858C12.017,59.851 12.029,59.844 12.042,59.837C12.063,59.826 12.085,59.815 12.107,59.804C12.118,59.799 12.128,59.794 12.139,59.789C12.171,59.773 12.205,59.759 12.238,59.745C12.272,59.73 12.306,59.718 12.34,59.706C12.351,59.702 12.362,59.698 12.374,59.694C12.397,59.686 12.42,59.678 12.443,59.671C12.457,59.667 12.47,59.663 12.484,59.659C12.505,59.653 12.527,59.647 12.548,59.642C12.563,59.638 12.578,59.634 12.592,59.631C12.613,59.625 12.634,59.621 12.655,59.617C12.67,59.613 12.686,59.61 12.701,59.607C12.722,59.603 12.743,59.6 12.765,59.597C12.78,59.594 12.794,59.592 12.81,59.59C12.832,59.586 12.854,59.584 12.877,59.582C12.891,59.58 12.905,59.578 12.919,59.577C12.944,59.575 12.969,59.573 12.994,59.571C13.006,59.571 13.018,59.569 13.03,59.569C13.067,59.567 13.105,59.566 13.142,59.566C14.443,59.566 15.502,60.625 15.502,61.926C15.502,61.963 15.501,62 15.499,62.038C15.498,62.05 15.497,62.062 15.497,62.074C15.495,62.099 15.493,62.123 15.491,62.148C15.49,62.163 15.488,62.177 15.486,62.191C15.484,62.213 15.481,62.236 15.478,62.258C15.476,62.273 15.474,62.288 15.471,62.303C15.468,62.325 15.464,62.346 15.46,62.367C15.458,62.382 15.454,62.397 15.451,62.412C15.447,62.434 15.442,62.455 15.437,62.476C15.434,62.49 15.43,62.505 15.426,62.519C15.421,62.541 15.415,62.562 15.409,62.583C15.405,62.597 15.401,62.611 15.397,62.624C15.39,62.648 15.382,62.671 15.374,62.694C15.37,62.705 15.366,62.717 15.362,62.728C15.35,62.762 15.337,62.795 15.323,62.829L15.323,62.83C15.309,62.863 15.294,62.896 15.279,62.929C15.274,62.939 15.269,62.95 15.263,62.96C15.252,62.982 15.242,63.004 15.23,63.026C15.224,63.039 15.217,63.051 15.21,63.063C15.199,63.083 15.188,63.103 15.177,63.122C15.169,63.134 15.161,63.147 15.153,63.16C15.142,63.178 15.13,63.197 15.119,63.215C15.11,63.228 15.102,63.24 15.093,63.253C15.081,63.271 15.068,63.289 15.055,63.307C15.047,63.318 15.038,63.331 15.029,63.343C15.015,63.361 15.001,63.378 14.987,63.396C14.978,63.407 14.969,63.418 14.96,63.43C14.957,63.433 14.955,63.437 14.952,63.44L16.815,65.304C16.867,65.356 16.951,65.356 17.003,65.304L17.042,65.266L18.476,63.832L18.515,63.792C18.566,63.741 18.566,63.656 18.515,63.604L13.04,58.129C12.988,58.078 12.903,58.078 12.851,58.129L12.813,58.167L12.814,58.168L11.414,59.567L11.34,59.642C11.314,59.666 11.301,59.7 11.301,59.735C11.301,59.77 11.314,59.804 11.34,59.829L11.627,60.116Z" style="fill:rgb(200,214,228);fill-rule:nonzero;"/>
            <path d="M19.78,66.572C19.636,66.572 19.519,66.689 19.519,66.833C19.519,66.978 19.636,67.095 19.78,67.095C19.924,67.095 20.042,66.978 20.042,66.833C20.042,66.689 19.924,66.572 19.78,66.572Z" style="fill:rgb(46,209,162);fill-rule:nonzero;"/>
            <path d="M18.548,68.791C18.404,68.791 18.287,68.909 18.287,69.053C18.287,69.197 18.404,69.314 18.548,69.314C18.692,69.314 18.81,69.197 18.81,69.053C18.81,68.909 18.692,68.791 18.548,68.791Z" style="fill:rgb(46,209,162);fill-rule:nonzero;"/>
            <path d="M13.142,63.869C13.66,63.869 14.148,63.666 14.515,63.299C14.882,62.932 15.084,62.445 15.084,61.926C15.084,60.855 14.213,59.983 13.142,59.983C12.623,59.983 12.135,60.186 11.768,60.552C11.401,60.919 11.199,61.407 11.199,61.926C11.199,62.997 12.07,63.869 13.142,63.869Z" style="fill:rgb(253,201,96);fill-rule:nonzero;"/>
            <path d="M22.73,66.067C22.585,66.067 22.468,65.95 22.468,65.806C22.468,65.662 22.585,65.544 22.73,65.544C22.874,65.544 22.991,65.662 22.991,65.806C22.991,65.95 22.874,66.067 22.73,66.067ZM21.623,68.267C21.479,68.267 21.361,68.149 21.361,68.005C21.361,67.861 21.479,67.744 21.623,67.744C21.767,67.744 21.884,67.861 21.884,68.005C21.884,68.149 21.767,68.267 21.623,68.267ZM19.78,67.095C19.636,67.095 19.519,66.978 19.519,66.833C19.519,66.689 19.636,66.572 19.78,66.572C19.924,66.572 20.042,66.689 20.042,66.833C20.042,66.978 19.924,67.095 19.78,67.095ZM18.548,69.314C18.404,69.314 18.287,69.197 18.287,69.053C18.287,68.909 18.404,68.791 18.548,68.791C18.692,68.791 18.81,68.909 18.81,69.053C18.81,69.197 18.692,69.314 18.548,69.314ZM22.73,65.127C22.356,65.127 22.051,65.431 22.051,65.806C22.051,66.011 22.143,66.195 22.288,66.32L21.824,67.357C21.761,67.337 21.693,67.326 21.623,67.326C21.471,67.326 21.332,67.376 21.219,67.46L20.45,66.94C20.456,66.905 20.459,66.87 20.459,66.833C20.459,66.459 20.155,66.154 19.78,66.154C19.406,66.154 19.102,66.459 19.102,66.833C19.102,67.01 19.17,67.171 19.281,67.291L18.673,68.386C18.632,68.379 18.591,68.374 18.548,68.374C18.173,68.374 17.869,68.679 17.869,69.053C17.869,69.427 18.173,69.732 18.548,69.732C18.922,69.732 19.227,69.427 19.227,69.053C19.227,68.872 19.155,68.708 19.04,68.586L19.644,67.498C19.688,67.507 19.733,67.512 19.78,67.512C19.967,67.512 20.136,67.436 20.259,67.314L20.976,67.799C20.955,67.864 20.944,67.934 20.944,68.005C20.944,68.379 21.248,68.684 21.623,68.684C21.997,68.684 22.301,68.379 22.301,68.005C22.301,67.855 22.252,67.718 22.17,67.605L22.673,66.481C22.691,66.483 22.71,66.484 22.73,66.484C23.104,66.484 23.409,66.18 23.409,65.806C23.409,65.431 23.104,65.127 22.73,65.127Z" style="fill:rgb(51,33,149);fill-rule:nonzero;"/>
            <path d="M11.199,61.926C11.199,61.407 11.401,60.919 11.768,60.552C12.135,60.186 12.623,59.983 13.142,59.983C14.213,59.983 15.084,60.855 15.084,61.926C15.084,62.445 14.882,62.932 14.515,63.299C14.148,63.666 13.66,63.869 13.142,63.869C12.07,63.869 11.199,62.997 11.199,61.926ZM11.301,59.735C11.301,59.7 11.314,59.666 11.34,59.642L11.414,59.567L12.814,58.168L12.813,58.167L12.851,58.129C12.903,58.078 12.988,58.078 13.04,58.129L18.515,63.604C18.566,63.656 18.566,63.741 18.515,63.792L18.476,63.832L17.042,65.266L17.003,65.304C16.951,65.356 16.867,65.356 16.815,65.304L14.952,63.44C14.955,63.437 14.957,63.433 14.96,63.43C14.969,63.418 14.978,63.407 14.987,63.396C15.001,63.378 15.015,63.361 15.029,63.343C15.038,63.331 15.047,63.318 15.055,63.307C15.068,63.289 15.081,63.271 15.093,63.253C15.102,63.24 15.11,63.228 15.119,63.215C15.13,63.197 15.142,63.178 15.153,63.16C15.161,63.147 15.169,63.134 15.177,63.122C15.188,63.103 15.199,63.083 15.21,63.063C15.217,63.051 15.224,63.039 15.23,63.026C15.242,63.004 15.252,62.982 15.263,62.96C15.269,62.95 15.274,62.939 15.279,62.929C15.294,62.896 15.309,62.863 15.323,62.83L15.323,62.829C15.337,62.795 15.35,62.762 15.362,62.728C15.366,62.717 15.37,62.705 15.374,62.694C15.382,62.671 15.39,62.648 15.397,62.624C15.401,62.611 15.405,62.597 15.409,62.583C15.415,62.562 15.421,62.541 15.426,62.519C15.43,62.505 15.434,62.49 15.437,62.476C15.442,62.455 15.447,62.434 15.451,62.412C15.454,62.397 15.458,62.382 15.46,62.367C15.464,62.346 15.468,62.325 15.471,62.303C15.474,62.288 15.476,62.273 15.478,62.258C15.481,62.236 15.484,62.213 15.486,62.191C15.488,62.177 15.49,62.163 15.491,62.148C15.493,62.123 15.495,62.099 15.497,62.074C15.497,62.062 15.498,62.05 15.499,62.038C15.501,62 15.502,61.963 15.502,61.926C15.502,60.625 14.443,59.566 13.142,59.566C13.105,59.566 13.067,59.567 13.03,59.569C13.018,59.569 13.006,59.571 12.994,59.571C12.969,59.573 12.944,59.575 12.919,59.577C12.905,59.578 12.891,59.58 12.877,59.582C12.854,59.584 12.832,59.586 12.81,59.59C12.794,59.592 12.78,59.594 12.765,59.597C12.743,59.6 12.722,59.603 12.701,59.607C12.686,59.61 12.67,59.613 12.655,59.617C12.634,59.621 12.613,59.625 12.592,59.631C12.578,59.634 12.563,59.638 12.548,59.642C12.527,59.647 12.505,59.653 12.484,59.659C12.47,59.663 12.457,59.667 12.443,59.671C12.42,59.678 12.397,59.686 12.374,59.694C12.362,59.698 12.351,59.702 12.34,59.706C12.306,59.718 12.272,59.73 12.238,59.745C12.205,59.759 12.171,59.773 12.139,59.789C12.128,59.794 12.118,59.799 12.107,59.804C12.085,59.815 12.063,59.826 12.042,59.837C12.029,59.844 12.017,59.851 12.004,59.858C11.984,59.869 11.965,59.879 11.946,59.891C11.933,59.898 11.92,59.906 11.908,59.914C11.889,59.925 11.871,59.937 11.853,59.949C11.84,59.957 11.827,59.966 11.814,59.974C11.796,59.987 11.779,59.999 11.761,60.012C11.749,60.021 11.737,60.03 11.725,60.039C11.707,60.052 11.689,60.066 11.671,60.081C11.66,60.089 11.649,60.098 11.638,60.107C11.634,60.11 11.63,60.113 11.627,60.116L11.34,59.829C11.314,59.804 11.301,59.77 11.301,59.735ZM10.542,58.105C10.49,58.053 10.49,57.969 10.542,57.917L11.163,57.296C11.188,57.27 11.222,57.257 11.257,57.257C11.293,57.257 11.326,57.27 11.351,57.296L12.223,58.168L11.414,58.977L10.542,58.105ZM19.032,64.977C19.057,65.001 19.07,65.035 19.07,65.07C19.07,65.105 19.057,65.139 19.031,65.164L18.375,65.821C18.323,65.873 18.238,65.873 18.187,65.821L17.632,65.266L18.476,64.421L19.032,64.977ZM22.341,70.072L18.16,70.072C17.891,70.072 17.891,70.489 18.16,70.489L20.042,70.489C20.045,70.799 20.057,71.156 19.646,71.18C19.532,71.186 19.416,71.18 19.302,71.18L10.979,71.18C10.634,71.18 10.22,71.233 10.201,70.748C10.148,69.363 10.201,67.966 10.201,66.581L10.201,65.678C10.201,65.471 10.226,65.322 10.378,65.16C10.812,64.697 11.273,64.258 11.725,63.811C12.12,64.109 12.61,64.286 13.142,64.286C13.702,64.286 14.232,64.091 14.656,63.735L16.52,65.6C16.627,65.707 16.768,65.76 16.909,65.76C17.05,65.76 17.191,65.707 17.298,65.6L17.336,65.561L17.892,66.116C17.999,66.223 18.14,66.277 18.28,66.277C18.421,66.277 18.563,66.223 18.669,66.116L19.327,65.459C19.431,65.355 19.488,65.216 19.488,65.069C19.488,64.922 19.43,64.785 19.326,64.681L18.772,64.126L18.811,64.087C19.024,63.873 19.024,63.524 18.81,63.31L13.335,57.833C13.12,57.62 12.771,57.62 12.556,57.834L12.518,57.873L11.646,57.001C11.432,56.786 11.083,56.786 10.868,57.001L10.247,57.622C10.143,57.726 10.085,57.864 10.085,58.011C10.085,58.158 10.143,58.296 10.247,58.4L11.119,59.272L11.045,59.346C10.941,59.45 10.884,59.587 10.883,59.734C10.883,59.881 10.94,60.02 11.044,60.124L11.332,60.411C10.976,60.835 10.782,61.366 10.782,61.926C10.782,62.546 11.022,63.111 11.415,63.533C10.989,63.959 10.562,64.386 10.135,64.812C9.93,65.018 9.793,65.217 9.784,65.524C9.778,65.726 9.784,65.93 9.784,66.131L9.784,70.662C9.784,71.225 10.12,71.593 10.691,71.597C11.184,71.601 11.677,71.597 12.169,71.597L19.386,71.597C19.522,71.597 19.665,71.608 19.799,71.584C20.381,71.482 20.454,70.972 20.459,70.489L22.341,70.489C22.61,70.489 22.61,70.072 22.341,70.072Z" style="fill:rgb(51,33,149);fill-rule:nonzero;"/>
        </g>
    </g>
</svg>
