<?xml version="1.0" encoding="UTF-8" standalone="no"?>
<!DOCTYPE svg PUBLIC "-//W3C//DTD SVG 1.1//EN" "http://www.w3.org/Graphics/SVG/1.1/DTD/svg11.dtd">
<svg width="100%" height="100%" viewBox="0 0 17 17" version="1.1" xmlns="http://www.w3.org/2000/svg" xmlns:xlink="http://www.w3.org/1999/xlink" xml:space="preserve" xmlns:serif="http://www.serif.com/" style="fill-rule:evenodd;clip-rule:evenodd;stroke-linejoin:round;stroke-miterlimit:2;">
    <g transform="matrix(1,0,0,1,-42,-39)">
        <g>
            <path d="M51.816,50.642L51.816,52C51.816,52.385 52.129,52.698 52.514,52.698L55.633,52.698C56.018,52.698 56.331,52.385 56.331,52L56.331,50.642C56.331,50.257 56.018,49.944 55.633,49.944L52.514,49.944C52.129,49.944 51.816,50.257 51.816,50.642Z" style="fill:rgb(46,209,162);fill-rule:nonzero;"/>
            <path d="M52.975,44.469C52.975,43.136 51.891,42.051 50.558,42.051C49.225,42.051 48.14,43.136 48.14,44.469C48.14,45.802 49.225,46.886 50.558,46.886C51.891,46.886 52.975,45.802 52.975,44.469Z" style="fill:rgb(253,201,96);fill-rule:nonzero;"/>
            <path d="M44.745,50.642L44.745,52C44.745,52.385 45.058,52.698 45.443,52.698L48.562,52.698C48.947,52.698 49.26,52.385 49.26,52L49.26,50.642C49.26,50.257 48.947,49.944 48.562,49.944L45.443,49.944C45.058,49.944 44.745,50.257 44.745,50.642Z" style="fill:rgb(81,220,249);fill-rule:nonzero;"/>
            <path d="M55.633,49.944C56.018,49.944 56.331,50.257 56.331,50.642L56.331,52C56.331,52.385 56.018,52.698 55.633,52.698L52.514,52.698C52.129,52.698 51.816,52.385 51.816,52L51.816,50.642C51.816,50.257 52.129,49.944 52.514,49.944L55.633,49.944ZM48.14,44.469C48.14,43.136 49.225,42.051 50.558,42.051C51.891,42.051 52.975,43.136 52.975,44.469C52.975,45.802 51.891,46.886 50.558,46.886C49.225,46.886 48.14,45.802 48.14,44.469ZM48.562,49.944C48.947,49.944 49.26,50.257 49.26,50.642L49.26,52C49.26,52.385 48.947,52.698 48.562,52.698L45.443,52.698C45.058,52.698 44.745,52.385 44.745,52L44.745,50.642C44.745,50.257 45.058,49.944 45.443,49.944L48.562,49.944ZM52.514,49.526C51.899,49.526 51.398,50.027 51.398,50.642L51.398,52C51.398,52.615 51.899,53.116 52.514,53.116L55.633,53.116C56.248,53.116 56.749,52.615 56.749,52L56.749,50.642C56.749,50.027 56.248,49.526 55.633,49.526L54.282,49.526L54.282,48.723C54.282,48.422 54.038,48.178 53.737,48.178L50.766,48.178L50.766,47.295C52.232,47.188 53.393,45.962 53.393,44.469C53.393,42.906 52.121,41.634 50.558,41.634C48.994,41.634 47.723,42.906 47.723,44.469C47.723,45.962 48.883,47.188 50.349,47.295L50.349,48.178L47.339,48.178C47.039,48.178 46.794,48.422 46.794,48.723L46.794,49.526L45.443,49.526C44.828,49.526 44.328,50.027 44.328,50.642L44.328,52C44.328,52.615 44.828,53.116 45.443,53.116L48.562,53.116C49.177,53.116 49.677,52.615 49.677,52L49.677,50.642C49.677,50.027 49.177,49.526 48.562,49.526L47.211,49.526L47.211,48.723C47.211,48.653 47.269,48.596 47.339,48.596L53.737,48.596C53.808,48.596 53.865,48.653 53.865,48.723L53.865,49.526L52.514,49.526Z" style="fill:rgb(51,33,149);fill-rule:nonzero;"/>
            <path d="M27.776,41.959C27.823,41.656 28.11,41.708 28.336,41.708L38.414,41.708C39.07,41.708 39.738,41.672 40.395,41.708C40.552,41.716 40.691,41.762 40.707,41.957L40.707,42.694C40.707,42.918 40.746,43.185 40.451,43.226L28.032,43.226C27.744,43.185 27.776,42.94 27.776,42.72C27.776,42.476 27.739,42.201 27.776,41.959ZM34.252,40.238C34.509,40.589 34.766,40.939 35.022,41.29L33.557,41.29C33.789,40.939 34.021,40.589 34.252,40.238ZM40.29,52.055C40.29,52.351 40.049,52.591 39.753,52.591L28.723,52.591C28.427,52.591 28.187,52.351 28.187,52.055L28.187,43.645C28.39,43.647 28.594,43.643 28.798,43.643L39.67,43.643C39.877,43.643 40.084,43.647 40.29,43.645L40.29,52.055ZM27.621,43.503C27.668,43.54 27.718,43.567 27.769,43.587L27.769,52.055C27.769,52.581 28.197,53.009 28.723,53.009L39.753,53.009C40.279,53.009 40.707,52.581 40.707,52.055L40.707,43.592C40.744,43.578 40.781,43.561 40.816,43.539C41.107,43.355 41.125,43.052 41.125,42.746L41.125,41.957C41.125,41.938 41.122,41.921 41.118,41.905C41.01,41.103 39.98,41.29 39.388,41.29L35.562,41.29C35.558,41.257 35.545,41.221 35.519,41.186C35.16,40.695 34.801,40.205 34.442,39.715C34.338,39.572 34.143,39.56 34.041,39.715C33.717,40.205 33.394,40.695 33.07,41.186C33.046,41.221 33.036,41.257 33.033,41.29L28.557,41.29C28.382,41.29 28.204,41.282 28.029,41.29C27.251,41.329 27.359,42.143 27.359,42.694C27.359,42.999 27.353,43.296 27.621,43.503Z" style="fill:rgb(51,33,149);fill-rule:nonzero;"/>
        </g>
    </g>
</svg>
