<?xml version="1.0" encoding="UTF-8"?>
<svg width="47px" height="47px" viewBox="0 0 47 47" version="1.1" xmlns="http://www.w3.org/2000/svg" xmlns:xlink="http://www.w3.org/1999/xlink">
    <!-- Generator: Sketch 54.1 (76490) - https://sketchapp.com -->
    <title>user</title>
    <desc>Created with Sketch.</desc>
    <g id="Page-1" stroke="none" stroke-width="1" fill="none" fill-rule="evenodd">
        <g id="7992" transform="translate(-539.000000, -469.000000)" fill="#FFFFFF">
            <path d="M577.765,484.513 L571.352,484.513 L571.352,480.933 L571.794,480.933 L574.558,483.14 L577.322,480.933 L577.765,480.933 L577.765,484.513 Z M576.277,480.933 L574.558,482.305 L572.839,480.933 L576.277,480.933 Z M570.699,485.165 L578.417,485.165 L578.417,480.281 L570.699,480.281 L570.699,485.165 Z" id="Fill-709"></path>
            <path d="M562.308,504.316 C563.114,503.426 564.263,502.916 565.463,502.916 C565.6,502.916 565.748,502.923 565.903,502.938 C567.903,503.135 569.499,504.731 569.697,506.732 C569.778,507.564 569.621,508.383 569.249,509.105 C568.804,508.593 568.186,508.258 567.499,508.166 C567.905,507.694 568.153,507.082 568.153,506.412 C568.153,504.928 566.946,503.721 565.463,503.721 C563.979,503.721 562.772,504.928 562.772,506.412 C562.772,507.125 563.053,507.771 563.507,508.253 C562.831,508.45 562.253,508.888 561.886,509.483 C561.524,508.921 561.296,508.279 561.229,507.61 C561.108,506.387 561.492,505.217 562.308,504.316 Z M565.463,508.45 C564.339,508.45 563.424,507.536 563.424,506.412 C563.424,505.288 564.339,504.374 565.463,504.374 C566.587,504.374 567.501,505.288 567.501,506.412 C567.501,507.536 566.587,508.45 565.463,508.45 Z M560.108,507.722 C560.231,508.952 560.783,510.111 561.662,510.986 C561.769,511.092 561.913,511.15 562.059,511.15 C562.116,511.15 562.173,511.141 562.229,511.124 C562.429,511.06 562.578,510.891 562.614,510.684 C562.759,509.861 563.468,509.264 564.301,509.264 L567.112,509.264 C567.824,509.264 568.451,509.695 568.709,510.362 C568.783,510.55 568.951,510.685 569.15,510.715 C569.349,510.746 569.55,510.667 569.676,510.509 C570.551,509.411 570.957,508.03 570.818,506.622 C570.567,504.087 568.546,502.066 566.014,501.818 C565.823,501.798 565.638,501.789 565.463,501.789 C563.946,501.789 562.492,502.434 561.473,503.56 C560.44,504.7 559.956,506.178 560.108,507.722 L560.108,507.722 Z" id="Fill-710"></path>
            <path d="M552.884,481.514 C557.621,481.514 561.474,485.367 561.474,490.103 C561.474,491.965 560.882,493.738 559.786,495.21 C559.394,493.277 557.769,491.787 555.771,491.595 C556.885,490.732 557.605,489.385 557.605,487.87 C557.605,485.267 555.487,483.148 552.883,483.148 C550.28,483.148 548.163,485.267 548.163,487.87 C548.163,489.386 548.883,490.733 549.997,491.596 C549.982,491.598 549.968,491.598 549.953,491.6 C549.93,491.601 549.907,491.604 549.885,491.608 C547.912,491.846 546.363,493.325 545.982,495.21 C544.886,493.739 544.294,491.966 544.294,490.103 C544.294,485.367 548.147,481.514 552.884,481.514 Z M553.402,491.573 L552.364,491.573 C550.546,491.319 549.141,489.757 549.141,487.87 C549.141,485.806 550.82,484.126 552.883,484.126 C554.947,484.126 556.626,485.806 556.626,487.87 C556.626,489.757 555.221,491.319 553.402,491.573 Z M546.06,497.01 C546.222,497.17 546.463,497.217 546.673,497.129 C546.883,497.042 547.02,496.837 547.02,496.609 L547.02,496.114 C547.02,494.375 548.322,492.917 550.048,492.723 C550.056,492.722 550.062,492.721 550.069,492.721 C550.2,492.707 550.32,492.7 550.435,492.7 L555.334,492.7 C557.217,492.7 558.75,494.231 558.75,496.114 L558.75,496.609 C558.75,496.837 558.886,497.042 559.095,497.129 C559.166,497.159 559.24,497.173 559.313,497.173 C559.458,497.173 559.601,497.117 559.709,497.01 C561.574,495.167 562.601,492.713 562.601,490.103 C562.601,484.746 558.241,480.387 552.884,480.387 C547.526,480.387 543.167,484.746 543.167,490.103 C543.167,492.713 544.195,495.167 546.06,497.01 L546.06,497.01 Z" id="Fill-711"></path>
            <path d="M574.558,476.347 C577.951,476.347 580.711,479.107 580.711,482.5 C580.711,485.894 577.951,488.654 574.558,488.654 C571.165,488.654 568.405,485.894 568.405,482.5 C568.405,479.107 571.165,476.347 574.558,476.347 Z M574.558,489.781 C578.572,489.781 581.838,486.515 581.838,482.5 C581.838,478.486 578.572,475.22 574.558,475.22 C570.543,475.22 567.278,478.486 567.278,482.5 C567.278,486.515 570.543,489.781 574.558,489.781 L574.558,489.781 Z" id="Fill-712"></path>
            <path d="M552.884,479.845 C556.864,479.845 560.519,482.193 562.197,485.828 C562.318,486.092 562.622,486.22 562.896,486.123 L566.646,484.798 C566.914,484.703 567.069,484.424 567.008,484.146 C566.888,483.595 566.827,483.042 566.827,482.5 C566.827,478.238 570.295,474.77 574.558,474.77 C578.821,474.77 582.289,478.238 582.289,482.5 C582.289,486.763 578.821,490.231 574.558,490.231 C571.468,490.231 568.681,488.392 567.456,485.546 C567.338,485.273 567.03,485.139 566.75,485.238 L563.078,486.537 C562.795,486.636 562.641,486.939 562.725,487.226 C563.002,488.174 563.143,489.141 563.143,490.103 C563.143,493.344 561.569,496.435 558.933,498.369 C558.805,498.463 558.722,498.607 558.706,498.766 C558.689,498.924 558.741,499.082 558.847,499.2 L561.546,502.202 C561.732,502.409 562.04,502.449 562.272,502.298 C563.395,501.568 564.739,501.238 566.056,501.368 C568.802,501.64 570.993,503.831 571.266,506.577 C571.431,508.249 570.905,509.85 569.786,511.086 C568.683,512.304 567.107,513.002 565.463,513.002 C565.261,513.002 565.062,512.993 564.868,512.973 C562.123,512.702 559.932,510.512 559.659,507.766 C559.495,506.093 560.02,504.492 561.118,503.279 C561.134,503.264 561.168,503.229 561.183,503.213 C561.37,502.999 561.368,502.678 561.178,502.466 L558.332,499.3 C558.222,499.178 558.069,499.113 557.913,499.113 C557.824,499.113 557.733,499.134 557.65,499.178 C556.162,499.964 554.558,500.362 552.884,500.362 C547.228,500.362 542.626,495.76 542.626,490.103 C542.626,484.447 547.228,479.845 552.884,479.845 Z M541.5,490.103 C541.5,496.381 546.606,501.489 552.884,501.489 C554.571,501.489 556.254,501.104 557.782,500.373 L560.007,502.85 C558.877,504.27 558.357,506.038 558.538,507.876 C558.864,511.156 561.479,513.771 564.756,514.094 C564.986,514.118 565.224,514.129 565.463,514.129 C567.424,514.129 569.305,513.295 570.621,511.842 C571.957,510.367 572.583,508.458 572.387,506.466 C572.061,503.187 569.446,500.572 566.167,500.247 C564.756,500.107 563.32,500.411 562.074,501.104 L560.09,498.897 C562.718,496.739 564.27,493.496 564.27,490.103 C564.27,489.208 564.16,488.31 563.944,487.425 L566.644,486.47 C568.143,489.457 571.194,491.358 574.558,491.358 C579.442,491.358 583.415,487.385 583.415,482.5 C583.415,477.617 579.442,473.643 574.558,473.643 C569.674,473.643 565.701,477.617 565.701,482.5 C565.701,482.961 565.739,483.429 565.814,483.896 L562.994,484.893 C561.043,481.125 557.13,478.718 552.884,478.718 C546.606,478.718 541.5,483.825 541.5,490.103 L541.5,490.103 Z" id="Fill-713"></path>
        </g>
    </g>
</svg>