<svg width="591" height="368" viewBox="0 0 591 368" fill="none" xmlns="http://www.w3.org/2000/svg">
<rect x="1" y="1" width="589" height="366" rx="4" stroke="#FF7B00" stroke-width="2"/>
<path d="M0 1H591V363C591 365.761 588.761 368 586 368H4.99999C2.23857 368 0 365.761 0 363V1Z" fill="#FF7B00" fill-opacity="0.08"/>
<mask id="mask0" mask-type="alpha" maskUnits="userSpaceOnUse" x="0" y="1" width="591" height="367">
<path d="M0 1H591V363C591 365.761 588.761 368 586 368H4.99999C2.23857 368 0 365.761 0 363V1Z" fill="#676767"/>
</mask>
<g mask="url(#mask0)">
<line y1="-1.5" x2="1193.39" y2="-1.5" transform="matrix(0.770291 -0.637693 0.950824 -0.309731 -173.941 526.357)" stroke="#FF7B00" stroke-opacity="0.6" stroke-width="3"/>
<line y1="-1.5" x2="1193.39" y2="-1.5" transform="matrix(0.770291 -0.637693 0.950824 -0.309731 -169.504 533.337)" stroke="#FF7B00" stroke-opacity="0.6" stroke-width="3"/>
<line y1="-1.5" x2="1193.39" y2="-1.5" transform="matrix(0.770291 -0.637693 0.950824 -0.309731 -165.066 540.318)" stroke="#FF7B00" stroke-opacity="0.6" stroke-width="3"/>
<line y1="-1.5" x2="1193.39" y2="-1.5" transform="matrix(0.770291 -0.637693 0.950824 -0.309731 -160.629 547.298)" stroke="#FF7B00" stroke-opacity="0.6" stroke-width="3"/>
<line y1="-1.5" x2="1193.39" y2="-1.5" transform="matrix(0.770291 -0.637693 0.950824 -0.309731 -156.191 554.279)" stroke="#FF7B00" stroke-opacity="0.6" stroke-width="3"/>
<line y1="-1.5" x2="1193.39" y2="-1.5" transform="matrix(0.770291 -0.637693 0.950824 -0.309731 -151.754 561.259)" stroke="#FF7B00" stroke-opacity="0.6" stroke-width="3"/>
<line y1="-1.5" x2="1193.39" y2="-1.5" transform="matrix(0.770291 -0.637693 0.950824 -0.309731 -147.316 568.239)" stroke="#FF7B00" stroke-opacity="0.6" stroke-width="3"/>
<line y1="-1.5" x2="1193.39" y2="-1.5" transform="matrix(0.770291 -0.637693 0.950824 -0.309731 -142.879 575.22)" stroke="#FF7B00" stroke-opacity="0.6" stroke-width="3"/>
<line y1="-1.5" x2="1193.39" y2="-1.5" transform="matrix(0.770291 -0.637693 0.950824 -0.309731 -138.441 582.2)" stroke="#FF7B00" stroke-opacity="0.6" stroke-width="3"/>
<line y1="-1.5" x2="1193.39" y2="-1.5" transform="matrix(0.770291 -0.637693 0.950824 -0.309731 -134.004 589.181)" stroke="#FF7B00" stroke-opacity="0.6" stroke-width="3"/>
<line y1="-1.5" x2="1193.39" y2="-1.5" transform="matrix(0.770291 -0.637693 0.950824 -0.309731 -129.566 596.161)" stroke="#FF7B00" stroke-opacity="0.6" stroke-width="3"/>
<line y1="-1.5" x2="1193.39" y2="-1.5" transform="matrix(0.770291 -0.637693 0.950824 -0.309731 -125.129 603.142)" stroke="#FF7B00" stroke-opacity="0.6" stroke-width="3"/>
<line y1="-1.5" x2="1193.39" y2="-1.5" transform="matrix(0.770291 -0.637693 0.950824 -0.309731 -120.691 610.122)" stroke="#FF7B00" stroke-opacity="0.6" stroke-width="3"/>
<line y1="-1.5" x2="1193.39" y2="-1.5" transform="matrix(0.770291 -0.637693 0.950824 -0.309731 -116.254 617.102)" stroke="#FF7B00" stroke-opacity="0.6" stroke-width="3"/>
<line y1="-1.5" x2="1193.39" y2="-1.5" transform="matrix(0.770291 -0.637693 0.950824 -0.309731 -111.816 624.083)" stroke="#FF7B00" stroke-opacity="0.6" stroke-width="3"/>
<line y1="-1.5" x2="1193.39" y2="-1.5" transform="matrix(0.770291 -0.637693 0.950824 -0.309731 -107.379 631.063)" stroke="#FF7B00" stroke-opacity="0.6" stroke-width="3"/>
<line y1="-1.5" x2="1193.39" y2="-1.5" transform="matrix(0.770291 -0.637693 0.950824 -0.309731 -102.942 638.043)" stroke="#FF7B00" stroke-opacity="0.6" stroke-width="3"/>
<line y1="-1.5" x2="1193.39" y2="-1.5" transform="matrix(0.770291 -0.637693 0.950824 -0.309731 -98.5041 645.024)" stroke="#FF7B00" stroke-opacity="0.6" stroke-width="3"/>
<line y1="-1.5" x2="1193.39" y2="-1.5" transform="matrix(0.770291 -0.637693 0.950824 -0.309731 -94.0666 652.004)" stroke="#FF7B00" stroke-opacity="0.6" stroke-width="3"/>
<line y1="-1.5" x2="1193.39" y2="-1.5" transform="matrix(0.770291 -0.637693 0.950824 -0.309731 -89.6291 658.985)" stroke="#FF7B00" stroke-opacity="0.6" stroke-width="3"/>
<line y1="-1.5" x2="1193.39" y2="-1.5" transform="matrix(0.770291 -0.637693 0.950824 -0.309731 -85.1917 665.965)" stroke="#FF7B00" stroke-opacity="0.6" stroke-width="3"/>
<line y1="-1.5" x2="1193.39" y2="-1.5" transform="matrix(0.770291 -0.637693 0.950824 -0.309731 -80.7542 672.945)" stroke="#FF7B00" stroke-opacity="0.6" stroke-width="3"/>
<line y1="-1.5" x2="1193.39" y2="-1.5" transform="matrix(0.770291 -0.637693 0.950824 -0.309731 -76.3166 679.926)" stroke="#FF7B00" stroke-opacity="0.6" stroke-width="3"/>
<line y1="-1.5" x2="1193.39" y2="-1.5" transform="matrix(0.770291 -0.637693 0.950824 -0.309731 -71.8792 686.906)" stroke="#FF7B00" stroke-opacity="0.6" stroke-width="3"/>
<line y1="-1.5" x2="1193.39" y2="-1.5" transform="matrix(0.770291 -0.637693 0.950824 -0.309731 -67.4417 693.887)" stroke="#FF7B00" stroke-opacity="0.6" stroke-width="3"/>
<line y1="-1.5" x2="1193.39" y2="-1.5" transform="matrix(0.770291 -0.637693 0.950824 -0.309731 -63.0042 700.867)" stroke="#FF7B00" stroke-opacity="0.6" stroke-width="3"/>
<line y1="-1.5" x2="1193.39" y2="-1.5" transform="matrix(0.770291 -0.637693 0.950824 -0.309731 -58.5667 707.848)" stroke="#FF7B00" stroke-opacity="0.6" stroke-width="3"/>
<line y1="-1.5" x2="1193.39" y2="-1.5" transform="matrix(0.770291 -0.637693 0.950824 -0.309731 -54.1292 714.828)" stroke="#FF7B00" stroke-opacity="0.6" stroke-width="3"/>
<line y1="-1.5" x2="1193.39" y2="-1.5" transform="matrix(0.770291 -0.637693 0.950824 -0.309731 -49.6917 721.808)" stroke="#FF7B00" stroke-opacity="0.6" stroke-width="3"/>
<line y1="-1.5" x2="1193.39" y2="-1.5" transform="matrix(0.770291 -0.637693 0.950824 -0.309731 -178.379 519.376)" stroke="#FF7B00" stroke-opacity="0.6" stroke-width="3"/>
<line y1="-1.5" x2="1193.39" y2="-1.5" transform="matrix(0.770291 -0.637693 0.950824 -0.309731 -40.8796 735.67)" stroke="#FF7B00" stroke-opacity="0.6" stroke-width="3"/>
<line y1="-1.5" x2="1193.39" y2="-1.5" transform="matrix(0.770291 -0.637693 0.950824 -0.309731 -36.4421 742.651)" stroke="#FF7B00" stroke-opacity="0.6" stroke-width="3"/>
<line y1="-1.5" x2="1193.39" y2="-1.5" transform="matrix(0.770291 -0.637693 0.950824 -0.309731 -32.0046 749.631)" stroke="#FF7B00" stroke-opacity="0.6" stroke-width="3"/>
<line y1="-1.5" x2="1193.39" y2="-1.5" transform="matrix(0.770291 -0.637693 0.950824 -0.309731 -27.5671 756.612)" stroke="#FF7B00" stroke-opacity="0.6" stroke-width="3"/>
<line y1="-1.5" x2="1193.39" y2="-1.5" transform="matrix(0.770291 -0.637693 0.950824 -0.309731 -23.1296 763.592)" stroke="#FF7B00" stroke-opacity="0.6" stroke-width="3"/>
<line y1="-1.5" x2="1193.39" y2="-1.5" transform="matrix(0.770291 -0.637693 0.950824 -0.309731 -18.6921 770.573)" stroke="#FF7B00" stroke-opacity="0.6" stroke-width="3"/>
<line y1="-1.5" x2="1193.39" y2="-1.5" transform="matrix(0.770291 -0.637693 0.950824 -0.309731 -14.2546 777.553)" stroke="#FF7B00" stroke-opacity="0.6" stroke-width="3"/>
<line y1="-1.5" x2="1193.39" y2="-1.5" transform="matrix(0.770291 -0.637693 0.950824 -0.309731 -9.8172 784.533)" stroke="#FF7B00" stroke-opacity="0.6" stroke-width="3"/>
<line y1="-1.5" x2="1193.39" y2="-1.5" transform="matrix(0.770291 -0.637693 0.950824 -0.309731 -5.37976 791.514)" stroke="#FF7B00" stroke-opacity="0.6" stroke-width="3"/>
<line y1="-1.5" x2="1193.39" y2="-1.5" transform="matrix(0.770291 -0.637693 0.950824 -0.309731 -0.942261 798.494)" stroke="#FF7B00" stroke-opacity="0.6" stroke-width="3"/>
<line y1="-1.5" x2="1193.39" y2="-1.5" transform="matrix(0.770291 -0.637693 0.950824 -0.309731 3.49524 805.474)" stroke="#FF7B00" stroke-opacity="0.6" stroke-width="3"/>
<line y1="-1.5" x2="1193.39" y2="-1.5" transform="matrix(0.770291 -0.637693 0.950824 -0.309731 7.93274 812.455)" stroke="#FF7B00" stroke-opacity="0.6" stroke-width="3"/>
<line y1="-1.5" x2="1193.39" y2="-1.5" transform="matrix(0.770291 -0.637693 0.950824 -0.309731 12.3702 819.435)" stroke="#FF7B00" stroke-opacity="0.6" stroke-width="3"/>
<line y1="-1.5" x2="1193.39" y2="-1.5" transform="matrix(0.770291 -0.637693 0.950824 -0.309731 16.8077 826.416)" stroke="#FF7B00" stroke-opacity="0.6" stroke-width="3"/>
<line y1="-1.5" x2="1193.39" y2="-1.5" transform="matrix(0.770291 -0.637693 0.950824 -0.309731 21.2452 833.396)" stroke="#FF7B00" stroke-opacity="0.6" stroke-width="3"/>
<line y1="-1.5" x2="1193.39" y2="-1.5" transform="matrix(0.770291 -0.637693 0.950824 -0.309731 25.6826 840.376)" stroke="#FF7B00" stroke-opacity="0.6" stroke-width="3"/>
<line y1="-1.5" x2="1193.39" y2="-1.5" transform="matrix(0.770291 -0.637693 0.950824 -0.309731 30.1201 847.357)" stroke="#FF7B00" stroke-opacity="0.6" stroke-width="3"/>
<line y1="-1.5" x2="1193.39" y2="-1.5" transform="matrix(0.770291 -0.637693 0.950824 -0.309731 34.5576 854.337)" stroke="#FF7B00" stroke-opacity="0.6" stroke-width="3"/>
<line y1="-1.5" x2="1193.39" y2="-1.5" transform="matrix(0.770291 -0.637693 0.950824 -0.309731 38.9951 861.318)" stroke="#FF7B00" stroke-opacity="0.6" stroke-width="3"/>
<line y1="-1.5" x2="1193.39" y2="-1.5" transform="matrix(0.770291 -0.637693 0.950824 -0.309731 43.4326 868.298)" stroke="#FF7B00" stroke-opacity="0.6" stroke-width="3"/>
<line y1="-1.5" x2="1193.39" y2="-1.5" transform="matrix(0.770291 -0.637693 0.950824 -0.309731 47.87 875.279)" stroke="#FF7B00" stroke-opacity="0.6" stroke-width="3"/>
<line y1="-1.5" x2="1193.39" y2="-1.5" transform="matrix(0.770291 -0.637693 0.950824 -0.309731 52.3076 882.259)" stroke="#FF7B00" stroke-opacity="0.6" stroke-width="3"/>
<line y1="-1.5" x2="1193.39" y2="-1.5" transform="matrix(0.770291 -0.637693 0.950824 -0.309731 56.7451 889.24)" stroke="#FF7B00" stroke-opacity="0.6" stroke-width="3"/>
<line y1="-1.5" x2="1193.39" y2="-1.5" transform="matrix(0.770291 -0.637693 0.950824 -0.309731 61.1826 896.22)" stroke="#FF7B00" stroke-opacity="0.6" stroke-width="3"/>
<line y1="-1.5" x2="1193.39" y2="-1.5" transform="matrix(0.770291 -0.637693 0.950824 -0.309731 65.6202 903.201)" stroke="#FF7B00" stroke-opacity="0.6" stroke-width="3"/>
<line y1="-1.5" x2="1193.39" y2="-1.5" transform="matrix(0.770291 -0.637693 0.950824 -0.309731 70.0578 910.181)" stroke="#FF7B00" stroke-opacity="0.6" stroke-width="3"/>
<line y1="-1.5" x2="1193.39" y2="-1.5" transform="matrix(0.770291 -0.637693 0.950824 -0.309731 74.4954 917.162)" stroke="#FF7B00" stroke-opacity="0.6" stroke-width="3"/>
<line y1="-1.5" x2="1193.39" y2="-1.5" transform="matrix(0.770291 -0.637693 0.950824 -0.309731 78.9327 924.142)" stroke="#FF7B00" stroke-opacity="0.6" stroke-width="3"/>
<line y1="-1.5" x2="1193.39" y2="-1.5" transform="matrix(0.770291 -0.637693 0.950824 -0.309731 83.3702 931.122)" stroke="#FF7B00" stroke-opacity="0.6" stroke-width="3"/>
<line y1="-1.5" x2="1193.39" y2="-1.5" transform="matrix(0.770291 -0.637693 0.950824 -0.309731 -45.3171 728.69)" stroke="#FF7B00" stroke-opacity="0.6" stroke-width="3"/>
<line y1="-1.5" x2="1193.39" y2="-1.5" transform="matrix(0.770291 -0.637693 0.950824 -0.309731 92.1824 944.984)" stroke="#FF7B00" stroke-opacity="0.6" stroke-width="3"/>
<line y1="-1.5" x2="1193.39" y2="-1.5" transform="matrix(0.770291 -0.637693 0.950824 -0.309731 96.6199 951.965)" stroke="#FF7B00" stroke-opacity="0.6" stroke-width="3"/>
<line y1="-1.5" x2="1193.39" y2="-1.5" transform="matrix(0.770291 -0.637693 0.950824 -0.309731 101.057 958.945)" stroke="#FF7B00" stroke-opacity="0.6" stroke-width="3"/>
<line y1="-1.5" x2="1193.39" y2="-1.5" transform="matrix(0.770291 -0.637693 0.950824 -0.309731 105.495 965.926)" stroke="#FF7B00" stroke-opacity="0.6" stroke-width="3"/>
<line y1="-1.5" x2="1193.39" y2="-1.5" transform="matrix(0.770291 -0.637693 0.950824 -0.309731 109.932 972.906)" stroke="#FF7B00" stroke-opacity="0.6" stroke-width="3"/>
<line y1="-1.5" x2="1193.39" y2="-1.5" transform="matrix(0.770291 -0.637693 0.950824 -0.309731 114.37 979.886)" stroke="#FF7B00" stroke-opacity="0.6" stroke-width="3"/>
<line y1="-1.5" x2="1193.39" y2="-1.5" transform="matrix(0.770291 -0.637693 0.950824 -0.309731 118.807 986.867)" stroke="#FF7B00" stroke-opacity="0.6" stroke-width="3"/>
<line y1="-1.5" x2="1193.39" y2="-1.5" transform="matrix(0.770291 -0.637693 0.950824 -0.309731 123.245 993.847)" stroke="#FF7B00" stroke-opacity="0.6" stroke-width="3"/>
<line y1="-1.5" x2="1193.39" y2="-1.5" transform="matrix(0.770291 -0.637693 0.950824 -0.309731 127.682 1000.83)" stroke="#FF7B00" stroke-opacity="0.6" stroke-width="3"/>
<line y1="-1.5" x2="1193.39" y2="-1.5" transform="matrix(0.770291 -0.637693 0.950824 -0.309731 132.12 1007.81)" stroke="#FF7B00" stroke-opacity="0.6" stroke-width="3"/>
<line y1="-1.5" x2="1193.39" y2="-1.5" transform="matrix(0.770291 -0.637693 0.950824 -0.309731 136.557 1014.79)" stroke="#FF7B00" stroke-opacity="0.6" stroke-width="3"/>
<line y1="-1.5" x2="1193.39" y2="-1.5" transform="matrix(0.770291 -0.637693 0.950824 -0.309731 140.995 1021.77)" stroke="#FF7B00" stroke-opacity="0.6" stroke-width="3"/>
<line y1="-1.5" x2="1193.39" y2="-1.5" transform="matrix(0.770291 -0.637693 0.950824 -0.309731 145.432 1028.75)" stroke="#FF7B00" stroke-opacity="0.6" stroke-width="3"/>
<line y1="-1.5" x2="1193.39" y2="-1.5" transform="matrix(0.770291 -0.637693 0.950824 -0.309731 149.87 1035.73)" stroke="#FF7B00" stroke-opacity="0.6" stroke-width="3"/>
<line y1="-1.5" x2="1193.39" y2="-1.5" transform="matrix(0.770291 -0.637693 0.950824 -0.309731 154.307 1042.71)" stroke="#FF7B00" stroke-opacity="0.6" stroke-width="3"/>
<line y1="-1.5" x2="1193.39" y2="-1.5" transform="matrix(0.770291 -0.637693 0.950824 -0.309731 158.745 1049.69)" stroke="#FF7B00" stroke-opacity="0.6" stroke-width="3"/>
<line y1="-1.5" x2="1193.39" y2="-1.5" transform="matrix(0.770291 -0.637693 0.950824 -0.309731 163.182 1056.67)" stroke="#FF7B00" stroke-opacity="0.6" stroke-width="3"/>
<line y1="-1.5" x2="1193.39" y2="-1.5" transform="matrix(0.770291 -0.637693 0.950824 -0.309731 167.62 1063.65)" stroke="#FF7B00" stroke-opacity="0.6" stroke-width="3"/>
<line y1="-1.5" x2="1193.39" y2="-1.5" transform="matrix(0.770291 -0.637693 0.950824 -0.309731 172.057 1070.63)" stroke="#FF7B00" stroke-opacity="0.6" stroke-width="3"/>
<line y1="-1.5" x2="1193.39" y2="-1.5" transform="matrix(0.770291 -0.637693 0.950824 -0.309731 176.495 1077.61)" stroke="#FF7B00" stroke-opacity="0.6" stroke-width="3"/>
<line y1="-1.5" x2="1193.39" y2="-1.5" transform="matrix(0.770291 -0.637693 0.950824 -0.309731 180.932 1084.59)" stroke="#FF7B00" stroke-opacity="0.6" stroke-width="3"/>
<line y1="-1.5" x2="1193.39" y2="-1.5" transform="matrix(0.770291 -0.637693 0.950824 -0.309731 185.37 1091.57)" stroke="#FF7B00" stroke-opacity="0.6" stroke-width="3"/>
<line y1="-1.5" x2="1193.39" y2="-1.5" transform="matrix(0.770291 -0.637693 0.950824 -0.309731 189.807 1098.55)" stroke="#FF7B00" stroke-opacity="0.6" stroke-width="3"/>
<line y1="-1.5" x2="1193.39" y2="-1.5" transform="matrix(0.770291 -0.637693 0.950824 -0.309731 194.244 1105.53)" stroke="#FF7B00" stroke-opacity="0.6" stroke-width="3"/>
<line y1="-1.5" x2="1193.39" y2="-1.5" transform="matrix(0.770291 -0.637693 0.950824 -0.309731 198.682 1112.51)" stroke="#FF7B00" stroke-opacity="0.6" stroke-width="3"/>
<line y1="-1.5" x2="1193.39" y2="-1.5" transform="matrix(0.770291 -0.637693 0.950824 -0.309731 203.119 1119.49)" stroke="#FF7B00" stroke-opacity="0.6" stroke-width="3"/>
<line y1="-1.5" x2="1193.39" y2="-1.5" transform="matrix(0.770291 -0.637693 0.950824 -0.309731 207.557 1126.47)" stroke="#FF7B00" stroke-opacity="0.6" stroke-width="3"/>
<line y1="-1.5" x2="1193.39" y2="-1.5" transform="matrix(0.770291 -0.637693 0.950824 -0.309731 87.7449 938.004)" stroke="#FF7B00" stroke-opacity="0.6" stroke-width="3"/>
<line y1="-1.5" x2="1193.39" y2="-1.5" transform="matrix(0.770291 -0.637693 0.950824 -0.309731 -519.084 2.28485)" stroke="#FF7B00" stroke-opacity="0.6" stroke-width="3"/>
<line y1="-1.5" x2="1193.39" y2="-1.5" transform="matrix(0.770291 -0.637693 0.950824 -0.309731 -514.646 9.26553)" stroke="#FF7B00" stroke-opacity="0.6" stroke-width="3"/>
<line y1="-1.5" x2="1193.39" y2="-1.5" transform="matrix(0.770291 -0.637693 0.950824 -0.309731 -510.209 16.2453)" stroke="#FF7B00" stroke-opacity="0.6" stroke-width="3"/>
<line y1="-1.5" x2="1193.39" y2="-1.5" transform="matrix(0.770291 -0.637693 0.950824 -0.309731 -505.771 23.2265)" stroke="#FF7B00" stroke-opacity="0.6" stroke-width="3"/>
<line y1="-1.5" x2="1193.39" y2="-1.5" transform="matrix(0.770291 -0.637693 0.950824 -0.309731 -501.334 30.2069)" stroke="#FF7B00" stroke-opacity="0.6" stroke-width="3"/>
<line y1="-1.5" x2="1193.39" y2="-1.5" transform="matrix(0.770291 -0.637693 0.950824 -0.309731 -496.896 37.1871)" stroke="#FF7B00" stroke-opacity="0.6" stroke-width="3"/>
<line y1="-1.5" x2="1193.39" y2="-1.5" transform="matrix(0.770291 -0.637693 0.950824 -0.309731 -492.459 44.1677)" stroke="#FF7B00" stroke-opacity="0.6" stroke-width="3"/>
<line y1="-1.5" x2="1193.39" y2="-1.5" transform="matrix(0.770291 -0.637693 0.950824 -0.309731 -488.021 51.1479)" stroke="#FF7B00" stroke-opacity="0.6" stroke-width="3"/>
<line y1="-1.5" x2="1193.39" y2="-1.5" transform="matrix(0.770291 -0.637693 0.950824 -0.309731 -483.583 58.1289)" stroke="#FF7B00" stroke-opacity="0.6" stroke-width="3"/>
<line y1="-1.5" x2="1193.39" y2="-1.5" transform="matrix(0.770291 -0.637693 0.950824 -0.309731 -479.146 65.1092)" stroke="#FF7B00" stroke-opacity="0.6" stroke-width="3"/>
<line y1="-1.5" x2="1193.39" y2="-1.5" transform="matrix(0.770291 -0.637693 0.950824 -0.309731 -474.709 72.0895)" stroke="#FF7B00" stroke-opacity="0.6" stroke-width="3"/>
<line y1="-1.5" x2="1193.39" y2="-1.5" transform="matrix(0.770291 -0.637693 0.950824 -0.309731 -470.271 79.0702)" stroke="#FF7B00" stroke-opacity="0.6" stroke-width="3"/>
<line y1="-1.5" x2="1193.39" y2="-1.5" transform="matrix(0.770291 -0.637693 0.950824 -0.309731 -465.834 86.0504)" stroke="#FF7B00" stroke-opacity="0.6" stroke-width="3"/>
<line y1="-1.5" x2="1193.39" y2="-1.5" transform="matrix(0.770291 -0.637693 0.950824 -0.309731 -461.396 93.0311)" stroke="#FF7B00" stroke-opacity="0.6" stroke-width="3"/>
<line y1="-1.5" x2="1193.39" y2="-1.5" transform="matrix(0.770291 -0.637693 0.950824 -0.309731 -456.958 100.012)" stroke="#FF7B00" stroke-opacity="0.6" stroke-width="3"/>
<line y1="-1.5" x2="1193.39" y2="-1.5" transform="matrix(0.770291 -0.637693 0.950824 -0.309731 -448.146 113.874)" stroke="#FF7B00" stroke-opacity="0.6" stroke-width="3"/>
<line y1="-1.5" x2="1193.39" y2="-1.5" transform="matrix(0.770291 -0.637693 0.950824 -0.309731 -443.709 120.854)" stroke="#FF7B00" stroke-opacity="0.6" stroke-width="3"/>
<line y1="-1.5" x2="1193.39" y2="-1.5" transform="matrix(0.770291 -0.637693 0.950824 -0.309731 -439.271 127.835)" stroke="#FF7B00" stroke-opacity="0.6" stroke-width="3"/>
<line y1="-1.5" x2="1193.39" y2="-1.5" transform="matrix(0.770291 -0.637693 0.950824 -0.309731 -434.834 134.815)" stroke="#FF7B00" stroke-opacity="0.6" stroke-width="3"/>
<line y1="-1.5" x2="1193.39" y2="-1.5" transform="matrix(0.770291 -0.637693 0.950824 -0.309731 -430.396 141.796)" stroke="#FF7B00" stroke-opacity="0.6" stroke-width="3"/>
<line y1="-1.5" x2="1193.39" y2="-1.5" transform="matrix(0.770291 -0.637693 0.950824 -0.309731 -425.959 148.776)" stroke="#FF7B00" stroke-opacity="0.6" stroke-width="3"/>
<line y1="-1.5" x2="1193.39" y2="-1.5" transform="matrix(0.770291 -0.637693 0.950824 -0.309731 -421.521 155.757)" stroke="#FF7B00" stroke-opacity="0.6" stroke-width="3"/>
<line y1="-1.5" x2="1193.39" y2="-1.5" transform="matrix(0.770291 -0.637693 0.950824 -0.309731 -417.084 162.737)" stroke="#FF7B00" stroke-opacity="0.6" stroke-width="3"/>
<line y1="-1.5" x2="1193.39" y2="-1.5" transform="matrix(0.770291 -0.637693 0.950824 -0.309731 -412.646 169.717)" stroke="#FF7B00" stroke-opacity="0.6" stroke-width="3"/>
<line y1="-1.5" x2="1193.39" y2="-1.5" transform="matrix(0.770291 -0.637693 0.950824 -0.309731 -408.209 176.698)" stroke="#FF7B00" stroke-opacity="0.6" stroke-width="3"/>
<line y1="-1.5" x2="1193.39" y2="-1.5" transform="matrix(0.770291 -0.637693 0.950824 -0.309731 -403.771 183.678)" stroke="#FF7B00" stroke-opacity="0.6" stroke-width="3"/>
<line y1="-1.5" x2="1193.39" y2="-1.5" transform="matrix(0.770291 -0.637693 0.950824 -0.309731 -399.334 190.659)" stroke="#FF7B00" stroke-opacity="0.6" stroke-width="3"/>
<line y1="-1.5" x2="1193.39" y2="-1.5" transform="matrix(0.770291 -0.637693 0.950824 -0.309731 -394.896 197.639)" stroke="#FF7B00" stroke-opacity="0.6" stroke-width="3"/>
<line y1="-1.5" x2="1193.39" y2="-1.5" transform="matrix(0.770291 -0.637693 0.950824 -0.309731 -390.46 204.618)" stroke="#FF7B00" stroke-opacity="0.6" stroke-width="3"/>
<line y1="-1.5" x2="1193.39" y2="-1.5" transform="matrix(0.770291 -0.637693 0.950824 -0.309731 -386.022 211.599)" stroke="#FF7B00" stroke-opacity="0.6" stroke-width="3"/>
<line y1="-1.5" x2="1193.39" y2="-1.5" transform="matrix(0.770291 -0.637693 0.950824 -0.309731 -381.585 218.579)" stroke="#FF7B00" stroke-opacity="0.6" stroke-width="3"/>
<line y1="-1.5" x2="1193.39" y2="-1.5" transform="matrix(0.770291 -0.637693 0.950824 -0.309731 -377.147 225.559)" stroke="#FF7B00" stroke-opacity="0.6" stroke-width="3"/>
<line y1="-1.5" x2="1193.39" y2="-1.5" transform="matrix(0.770291 -0.637693 0.950824 -0.309731 -372.71 232.54)" stroke="#FF7B00" stroke-opacity="0.6" stroke-width="3"/>
<line y1="-1.5" x2="1193.39" y2="-1.5" transform="matrix(0.770291 -0.637693 0.950824 -0.309731 -368.272 239.52)" stroke="#FF7B00" stroke-opacity="0.6" stroke-width="3"/>
<line y1="-1.5" x2="1193.39" y2="-1.5" transform="matrix(0.770291 -0.637693 0.950824 -0.309731 -363.835 246.501)" stroke="#FF7B00" stroke-opacity="0.6" stroke-width="3"/>
<line y1="-1.5" x2="1193.39" y2="-1.5" transform="matrix(0.770291 -0.637693 0.950824 -0.309731 -359.397 253.481)" stroke="#FF7B00" stroke-opacity="0.6" stroke-width="3"/>
<line y1="-1.5" x2="1193.39" y2="-1.5" transform="matrix(0.770291 -0.637693 0.950824 -0.309731 -354.959 260.462)" stroke="#FF7B00" stroke-opacity="0.6" stroke-width="3"/>
<line y1="-1.5" x2="1193.39" y2="-1.5" transform="matrix(0.770291 -0.637693 0.950824 -0.309731 -350.522 267.442)" stroke="#FF7B00" stroke-opacity="0.6" stroke-width="3"/>
<line y1="-1.5" x2="1193.39" y2="-1.5" transform="matrix(0.770291 -0.637693 0.950824 -0.309731 -346.084 274.423)" stroke="#FF7B00" stroke-opacity="0.6" stroke-width="3"/>
<line y1="-1.5" x2="1193.39" y2="-1.5" transform="matrix(0.770291 -0.637693 0.950824 -0.309731 -341.647 281.403)" stroke="#FF7B00" stroke-opacity="0.6" stroke-width="3"/>
<line y1="-1.5" x2="1193.39" y2="-1.5" transform="matrix(0.770291 -0.637693 0.950824 -0.309731 -337.209 288.384)" stroke="#FF7B00" stroke-opacity="0.6" stroke-width="3"/>
<line y1="-1.5" x2="1193.39" y2="-1.5" transform="matrix(0.770291 -0.637693 0.950824 -0.309731 -332.772 295.364)" stroke="#FF7B00" stroke-opacity="0.6" stroke-width="3"/>
<line y1="-1.5" x2="1193.39" y2="-1.5" transform="matrix(0.770291 -0.637693 0.950824 -0.309731 -328.334 302.344)" stroke="#FF7B00" stroke-opacity="0.6" stroke-width="3"/>
<line y1="-1.5" x2="1193.39" y2="-1.5" transform="matrix(0.770291 -0.637693 0.950824 -0.309731 -323.897 309.325)" stroke="#FF7B00" stroke-opacity="0.6" stroke-width="3"/>
<line y1="-1.5" x2="1193.39" y2="-1.5" transform="matrix(0.770291 -0.637693 0.950824 -0.309731 -452.584 106.893)" stroke="#FF7B00" stroke-opacity="0.6" stroke-width="3"/>
<line y1="-1.5" x2="1193.39" y2="-1.5" transform="matrix(0.770291 -0.637693 0.950824 -0.309731 -315.085 323.187)" stroke="#FF7B00" stroke-opacity="0.6" stroke-width="3"/>
<line y1="-1.5" x2="1193.39" y2="-1.5" transform="matrix(0.770291 -0.637693 0.950824 -0.309731 -310.647 330.167)" stroke="#FF7B00" stroke-opacity="0.6" stroke-width="3"/>
<line y1="-1.5" x2="1193.39" y2="-1.5" transform="matrix(0.770291 -0.637693 0.950824 -0.309731 -306.209 337.148)" stroke="#FF7B00" stroke-opacity="0.6" stroke-width="3"/>
<line y1="-1.5" x2="1193.39" y2="-1.5" transform="matrix(0.770291 -0.637693 0.950824 -0.309731 -301.772 344.128)" stroke="#FF7B00" stroke-opacity="0.6" stroke-width="3"/>
<line y1="-1.5" x2="1193.39" y2="-1.5" transform="matrix(0.770291 -0.637693 0.950824 -0.309731 -297.335 351.109)" stroke="#FF7B00" stroke-opacity="0.6" stroke-width="3"/>
<line y1="-1.5" x2="1193.39" y2="-1.5" transform="matrix(0.770291 -0.637693 0.950824 -0.309731 -292.897 358.089)" stroke="#FF7B00" stroke-opacity="0.6" stroke-width="3"/>
<line y1="-1.5" x2="1193.39" y2="-1.5" transform="matrix(0.770291 -0.637693 0.950824 -0.309731 -288.46 365.07)" stroke="#FF7B00" stroke-opacity="0.6" stroke-width="3"/>
<line y1="-1.5" x2="1193.39" y2="-1.5" transform="matrix(0.770291 -0.637693 0.950824 -0.309731 -284.022 372.05)" stroke="#FF7B00" stroke-opacity="0.6" stroke-width="3"/>
<line y1="-1.5" x2="1193.39" y2="-1.5" transform="matrix(0.770291 -0.637693 0.950824 -0.309731 -279.585 379.031)" stroke="#FF7B00" stroke-opacity="0.6" stroke-width="3"/>
<line y1="-1.5" x2="1193.39" y2="-1.5" transform="matrix(0.770291 -0.637693 0.950824 -0.309731 -275.147 386.011)" stroke="#FF7B00" stroke-opacity="0.6" stroke-width="3"/>
<line y1="-1.5" x2="1193.39" y2="-1.5" transform="matrix(0.770291 -0.637693 0.950824 -0.309731 -270.71 392.992)" stroke="#FF7B00" stroke-opacity="0.6" stroke-width="3"/>
<line y1="-1.5" x2="1193.39" y2="-1.5" transform="matrix(0.770291 -0.637693 0.950824 -0.309731 -266.272 399.972)" stroke="#FF7B00" stroke-opacity="0.6" stroke-width="3"/>
<line y1="-1.5" x2="1193.39" y2="-1.5" transform="matrix(0.770291 -0.637693 0.950824 -0.309731 -261.834 406.953)" stroke="#FF7B00" stroke-opacity="0.6" stroke-width="3"/>
<line y1="-1.5" x2="1193.39" y2="-1.5" transform="matrix(0.770291 -0.637693 0.950824 -0.309731 -257.397 413.933)" stroke="#FF7B00" stroke-opacity="0.6" stroke-width="3"/>
<line y1="-1.5" x2="1193.39" y2="-1.5" transform="matrix(0.770291 -0.637693 0.950824 -0.309731 -252.959 420.914)" stroke="#FF7B00" stroke-opacity="0.6" stroke-width="3"/>
<line y1="-1.5" x2="1193.39" y2="-1.5" transform="matrix(0.770291 -0.637693 0.950824 -0.309731 -248.522 427.894)" stroke="#FF7B00" stroke-opacity="0.6" stroke-width="3"/>
<line y1="-1.5" x2="1193.39" y2="-1.5" transform="matrix(0.770291 -0.637693 0.950824 -0.309731 -244.085 434.874)" stroke="#FF7B00" stroke-opacity="0.6" stroke-width="3"/>
<line y1="-1.5" x2="1193.39" y2="-1.5" transform="matrix(0.770291 -0.637693 0.950824 -0.309731 -239.647 441.855)" stroke="#FF7B00" stroke-opacity="0.6" stroke-width="3"/>
<line y1="-1.5" x2="1193.39" y2="-1.5" transform="matrix(0.770291 -0.637693 0.950824 -0.309731 -235.209 448.835)" stroke="#FF7B00" stroke-opacity="0.6" stroke-width="3"/>
<line y1="-1.5" x2="1193.39" y2="-1.5" transform="matrix(0.770291 -0.637693 0.950824 -0.309731 -230.772 455.816)" stroke="#FF7B00" stroke-opacity="0.6" stroke-width="3"/>
<line y1="-1.5" x2="1193.39" y2="-1.5" transform="matrix(0.770291 -0.637693 0.950824 -0.309731 -226.334 462.796)" stroke="#FF7B00" stroke-opacity="0.6" stroke-width="3"/>
<line y1="-1.5" x2="1193.39" y2="-1.5" transform="matrix(0.770291 -0.637693 0.950824 -0.309731 -221.897 469.777)" stroke="#FF7B00" stroke-opacity="0.6" stroke-width="3"/>
<line y1="-1.5" x2="1193.39" y2="-1.5" transform="matrix(0.770291 -0.637693 0.950824 -0.309731 -217.459 476.757)" stroke="#FF7B00" stroke-opacity="0.6" stroke-width="3"/>
<line y1="-1.5" x2="1193.39" y2="-1.5" transform="matrix(0.770291 -0.637693 0.950824 -0.309731 -213.022 483.738)" stroke="#FF7B00" stroke-opacity="0.6" stroke-width="3"/>
<line y1="-1.5" x2="1193.39" y2="-1.5" transform="matrix(0.770291 -0.637693 0.950824 -0.309731 -208.584 490.718)" stroke="#FF7B00" stroke-opacity="0.6" stroke-width="3"/>
<line y1="-1.5" x2="1193.39" y2="-1.5" transform="matrix(0.770291 -0.637693 0.950824 -0.309731 -204.147 497.699)" stroke="#FF7B00" stroke-opacity="0.6" stroke-width="3"/>
<line y1="-1.5" x2="1193.39" y2="-1.5" transform="matrix(0.770291 -0.637693 0.950824 -0.309731 -199.709 504.679)" stroke="#FF7B00" stroke-opacity="0.6" stroke-width="3"/>
<line y1="-1.5" x2="1193.39" y2="-1.5" transform="matrix(0.770291 -0.637693 0.950824 -0.309731 -195.272 511.66)" stroke="#FF7B00" stroke-opacity="0.6" stroke-width="3"/>
<line y1="-1.5" x2="1193.39" y2="-1.5" transform="matrix(0.770291 -0.637693 0.950824 -0.309731 -190.834 518.64)" stroke="#FF7B00" stroke-opacity="0.6" stroke-width="3"/>
<line y1="-1.5" x2="1193.39" y2="-1.5" transform="matrix(0.770291 -0.637693 0.950824 -0.309731 -319.522 316.207)" stroke="#FF7B00" stroke-opacity="0.6" stroke-width="3"/>
</g>
<circle cx="295.5" cy="184.5" r="26.5" fill="white"/>
<path d="M307 184.5L289.75 194.459L289.75 174.541L307 184.5Z" fill="#FF7B00"/>
</svg>
